<svg width="497" height="462" viewBox="0 0 497 462" fill="none" xmlns="http://www.w3.org/2000/svg">

<!--
  KERBEROS OPEN SOURCE ILLUSTRATION
  Design & Animation: Martin Allien (martin@allien.work) <allien.work>
-->

<style>

#k8s-logo { animation: floating-logo 5s infinite ease-in-out; }
#shadows { animation: floating-shadow 5s infinite ease-in-out; }

@keyframes floating-shadow {
  0%, 100% { transform: translate(0, 0); opacity: 1; }
  50% { transform: translate(0, 3px); opacity: 0.2; }
}

@keyframes floating-logo {
  0%, 100% { transform: translate(0, 0); }
  50% { transform: translate(0, -7px); }
}

#splunk,
#grafana,
#prometheus { animation: center-pulse 7s infinite ease-in-out; }

#k3s,
#traefik,
#kafka { animation: center-pulse-alt 7s infinite ease-in-out; animation-delay: 2s; }

@keyframes center-pulse {
  0%, 100% { transform: scale(0.97); transform-origin: 50% 50%; }
  50% { transform: scale(1); }
}

@keyframes center-pulse-alt {
  0%, 100% { transform: scale(1); transform-origin: 50% 50%; }
  50% { transform: scale(0.97); }
}

</style>

<g id="enterprise-illustration">

<!-- Kubernetes logo -->
<g id="K8S">
  <g id="shadows">
    <ellipse id="light-shadow" cx="261" cy="308.5" rx="115" ry="14.5" fill="url(#paint0_radial)" fill-opacity="0.2"/>
    <ellipse id="shadow" cx="261" cy="308.5" rx="59" ry="4.5" fill="url(#paint1_radial)"/>
  </g>
  <g id="k8s-logo">
    <path id="path3055" d="M260.213 174.009C259.283 174.056 258.373 174.286 257.534 174.687L220.989 192.149C220.043 192.6 219.212 193.258 218.557 194.072C217.902 194.886 217.441 195.836 217.207 196.851L208.191 236.075C207.983 236.979 207.96 237.915 208.123 238.827C208.286 239.74 208.632 240.611 209.14 241.389C209.263 241.579 209.396 241.763 209.537 241.941L234.833 273.392C235.488 274.206 236.319 274.863 237.265 275.314C238.211 275.766 239.247 276 240.297 276L280.862 275.991C281.912 275.991 282.948 275.758 283.894 275.307C284.84 274.856 285.671 274.2 286.326 273.387L311.612 241.931C312.268 241.117 312.729 240.167 312.963 239.151C313.197 238.136 313.197 237.081 312.963 236.065L303.933 196.841C303.699 195.826 303.238 194.876 302.583 194.062C301.929 193.248 301.098 192.591 300.152 192.139L263.601 174.687C262.547 174.183 261.382 173.95 260.213 174.009V174.009Z" fill="#326CE5"/>
    <path id="path3059" d="M260.575 187.357C259.367 187.358 258.387 188.446 258.387 189.788C258.387 189.809 258.392 189.828 258.392 189.849C258.39 190.031 258.381 190.251 258.387 190.41C258.416 191.184 258.585 191.776 258.686 192.49C258.871 194.016 259.025 195.282 258.93 196.458C258.837 196.901 258.51 197.307 258.219 197.589L258.168 198.514C256.855 198.623 255.533 198.822 254.213 199.122C248.534 200.411 243.644 203.337 239.92 207.287C239.679 207.123 239.256 206.819 239.131 206.726C238.74 206.779 238.345 206.9 237.831 206.6C236.852 205.941 235.961 205.032 234.882 203.936C234.388 203.412 234.03 202.913 233.442 202.408C233.309 202.293 233.105 202.138 232.956 202.02C232.497 201.654 231.955 201.463 231.432 201.445C230.76 201.422 230.113 201.685 229.689 202.216C228.936 203.161 229.177 204.604 230.227 205.441C230.237 205.45 230.249 205.456 230.259 205.464C230.404 205.581 230.58 205.731 230.713 205.829C231.336 206.289 231.905 206.525 232.526 206.89C233.834 207.698 234.919 208.368 235.779 209.176C236.115 209.534 236.174 210.165 236.219 210.438L236.92 211.064C233.167 216.712 231.43 223.689 232.456 230.797L231.54 231.064C231.299 231.376 230.957 231.866 230.601 232.013C229.475 232.367 228.208 232.497 226.679 232.658C225.961 232.717 225.342 232.682 224.58 232.826C224.413 232.858 224.179 232.919 223.996 232.962C223.99 232.963 223.984 232.965 223.977 232.966C223.967 232.969 223.954 232.973 223.945 232.976C222.655 233.287 221.827 234.472 222.094 235.64C222.361 236.808 223.62 237.518 224.917 237.238C224.926 237.236 224.94 237.236 224.95 237.234C224.964 237.23 224.977 237.223 224.992 237.22C225.173 237.18 225.399 237.136 225.557 237.093C226.306 236.893 226.848 236.599 227.52 236.341C228.968 235.822 230.166 235.388 231.334 235.219C231.822 235.181 232.336 235.52 232.592 235.663L233.545 235.5C235.739 242.302 240.338 247.801 246.16 251.251L245.763 252.204C245.906 252.575 246.064 253.076 245.957 253.441C245.533 254.542 244.806 255.704 243.977 257C243.576 257.598 243.166 258.063 242.804 258.748C242.718 258.912 242.607 259.164 242.524 259.337C241.962 260.54 242.374 261.925 243.454 262.445C244.541 262.968 245.89 262.416 246.473 261.211C246.474 261.209 246.477 261.208 246.478 261.206C246.479 261.205 246.477 261.203 246.478 261.202C246.561 261.031 246.679 260.806 246.749 260.646C247.059 259.936 247.162 259.327 247.38 258.64C247.959 257.187 248.277 255.661 249.074 254.711C249.292 254.45 249.647 254.35 250.016 254.252L250.512 253.354C255.588 255.303 261.27 255.825 266.945 254.537C268.24 254.243 269.49 253.862 270.699 253.406C270.838 253.653 271.097 254.127 271.166 254.247C271.541 254.369 271.95 254.432 272.283 254.925C272.879 255.943 273.287 257.148 273.783 258.603C274.001 259.29 274.109 259.898 274.419 260.608C274.49 260.77 274.607 260.998 274.69 261.169C275.273 262.378 276.626 262.932 277.714 262.408C278.794 261.887 279.207 260.502 278.644 259.299C278.561 259.126 278.446 258.874 278.359 258.711C277.997 258.026 277.587 257.566 277.186 256.967C276.358 255.672 275.671 254.595 275.246 253.494C275.069 252.927 275.276 252.573 275.415 252.204C275.332 252.109 275.155 251.573 275.05 251.321C281.101 247.748 285.564 242.045 287.661 235.457C287.944 235.502 288.435 235.589 288.595 235.621C288.924 235.404 289.227 235.121 289.82 235.168C290.988 235.337 292.186 235.77 293.634 236.289C294.307 236.547 294.849 236.846 295.597 237.047C295.755 237.089 295.982 237.128 296.162 237.168C296.177 237.172 296.19 237.179 296.205 237.182C296.214 237.184 296.228 237.185 296.237 237.187C297.534 237.466 298.794 236.756 299.06 235.588C299.327 234.421 298.499 233.235 297.209 232.924C297.022 232.882 296.756 232.809 296.574 232.775C295.813 232.63 295.193 232.666 294.475 232.606C292.946 232.446 291.679 232.316 290.554 231.961C290.095 231.783 289.768 231.237 289.61 231.013L288.726 230.755C289.184 227.442 289.061 223.993 288.268 220.543C287.468 217.06 286.054 213.875 284.169 211.069C284.396 210.863 284.824 210.484 284.945 210.372C284.98 209.98 284.95 209.568 285.356 209.134C286.216 208.326 287.301 207.656 288.609 206.848C289.23 206.483 289.804 206.247 290.427 205.787C290.568 205.683 290.761 205.518 290.909 205.399C291.958 204.562 292.2 203.118 291.446 202.174C290.693 201.23 289.233 201.141 288.184 201.978C288.035 202.096 287.832 202.25 287.698 202.366C287.111 202.871 286.748 203.37 286.254 203.894C285.175 204.99 284.283 205.904 283.304 206.563C282.88 206.81 282.259 206.724 281.977 206.708L281.145 207.301C276.401 202.327 269.942 199.146 262.987 198.528C262.967 198.237 262.942 197.71 262.935 197.551C262.65 197.279 262.306 197.046 262.22 196.458C262.125 195.282 262.284 194.016 262.468 192.49C262.569 191.776 262.738 191.184 262.767 190.41C262.773 190.234 262.763 189.978 262.762 189.788C262.762 188.446 261.783 187.357 260.575 187.357H260.575ZM257.836 204.324L257.186 215.799L257.139 215.822C257.096 216.849 256.251 217.668 255.214 217.668C254.789 217.668 254.397 217.532 254.078 217.299L254.059 217.308L244.651 210.639C247.542 207.795 251.241 205.694 255.504 204.726C256.282 204.549 257.06 204.418 257.836 204.324ZM263.318 204.324C268.295 204.936 272.897 207.19 276.424 210.643L267.076 217.271L267.044 217.257C266.214 217.863 265.045 217.713 264.398 216.902C264.133 216.57 263.994 216.179 263.977 215.785L263.968 215.78L263.318 204.324ZM241.239 214.925L249.829 222.609L249.82 222.655C250.595 223.33 250.71 224.499 250.063 225.31C249.798 225.642 249.443 225.865 249.063 225.969L249.053 226.007L238.041 229.185C237.481 224.06 238.689 219.078 241.239 214.925ZM279.85 214.929C281.127 216.998 282.093 219.309 282.669 221.814C283.237 224.289 283.38 226.76 283.145 229.148L272.077 225.96L272.068 225.913C271.077 225.642 270.468 224.634 270.699 223.623C270.793 223.209 271.013 222.858 271.311 222.599L271.306 222.576L279.85 214.929H279.85ZM258.813 223.202H262.332L264.52 225.937L263.734 229.349L260.575 230.868L257.406 229.344L256.621 225.932L258.813 223.202ZM270.096 232.56C270.245 232.552 270.394 232.565 270.54 232.592L270.558 232.569L281.949 234.495C280.282 239.178 277.092 243.235 272.83 245.951L268.408 235.27L268.422 235.252C268.016 234.308 268.423 233.201 269.357 232.751C269.596 232.636 269.846 232.572 270.096 232.56H270.096ZM250.965 232.606C251.834 232.619 252.614 233.222 252.816 234.107C252.911 234.521 252.865 234.931 252.708 235.294L252.741 235.336L248.366 245.908C244.276 243.284 241.018 239.354 239.275 234.532L250.568 232.616L250.586 232.639C250.713 232.616 250.841 232.605 250.965 232.606V232.606ZM260.505 237.238C260.807 237.227 261.115 237.289 261.407 237.43C261.79 237.614 262.085 237.904 262.271 238.252H262.314L267.88 248.311C267.158 248.553 266.415 248.76 265.655 248.933C261.398 249.899 257.154 249.606 253.311 248.297L258.864 238.257H258.873C259.207 237.634 259.839 237.263 260.505 237.238Z" fill="white" stroke="white" stroke-width="0.25"/>
  </g>
</g>

<!-- Splunk bubble -->
<g id="splunk">
  <g id="bg" filter="url(#filter0_dd)">
    <circle cx="400.5" cy="118" r="62.5" fill="white"/>
  </g>
  <g id="splunk-logo">
    <path id="02" d="M367.385 120.746C367.385 121.325 367.262 121.863 367.015 122.361C366.769 122.851 366.42 123.274 365.983 123.614C365.538 123.962 365.011 124.227 364.402 124.418C363.794 124.609 363.123 124.704 362.398 124.704C361.53 124.704 360.75 124.589 360.066 124.35C359.382 124.118 358.691 123.723 358 123.178L359.142 121.332C359.69 121.788 360.182 122.122 360.627 122.333C361.064 122.545 361.516 122.647 361.981 122.647C362.549 122.647 363 122.504 363.349 122.211C363.698 121.918 363.862 121.529 363.862 121.032C363.862 120.821 363.828 120.623 363.766 120.439C363.705 120.255 363.588 120.064 363.424 119.867C363.26 119.676 363.028 119.458 362.733 119.233C362.446 119.008 362.07 118.722 361.605 118.388C361.256 118.143 360.907 117.884 360.572 117.625C360.237 117.36 359.936 117.08 359.655 116.78C359.382 116.481 359.163 116.147 358.992 115.772C358.828 115.404 358.739 114.975 358.739 114.505C358.739 113.96 358.855 113.455 359.081 113.006C359.306 112.556 359.621 112.175 360.018 111.854C360.415 111.534 360.887 111.289 361.447 111.112C362.002 110.934 362.603 110.846 363.26 110.846C363.951 110.846 364.615 110.934 365.257 111.118C365.9 111.302 366.496 111.568 367.05 111.922L366.017 113.585C365.312 113.094 364.567 112.842 363.787 112.842C363.315 112.842 362.918 112.965 362.61 113.21C362.303 113.455 362.145 113.762 362.145 114.137C362.145 114.491 362.282 114.811 362.556 115.091C362.829 115.377 363.301 115.765 363.972 116.283C364.649 116.774 365.21 117.21 365.647 117.578C366.092 117.945 366.441 118.3 366.701 118.627C366.961 118.954 367.132 119.281 367.234 119.622C367.337 119.969 367.385 120.337 367.385 120.746ZM379.116 117.632C379.116 118.143 379.061 118.695 378.952 119.288C378.849 119.881 378.664 120.426 378.404 120.93C378.145 121.434 377.809 121.85 377.392 122.17C376.975 122.497 376.441 122.66 375.805 122.66C374.738 122.66 373.897 122.238 373.281 121.386C372.665 120.541 372.358 119.376 372.358 117.898C372.358 116.378 372.665 115.179 373.295 114.287C373.917 113.394 374.765 112.951 375.833 112.951C376.845 112.951 377.645 113.374 378.233 114.205C378.822 115.043 379.116 116.188 379.116 117.632ZM382.823 117.503C382.823 116.515 382.68 115.615 382.399 114.811C382.112 114.001 381.715 113.306 381.188 112.72C380.662 112.134 380.046 111.684 379.328 111.357C378.61 111.03 377.816 110.866 376.947 110.866C375.99 110.866 375.148 111.05 374.423 111.405C373.698 111.766 373.021 112.331 372.406 113.108L372.385 111.18H368.972V131H372.378V122.626C372.713 123.015 373.035 123.342 373.349 123.607C373.657 123.873 373.972 124.091 374.293 124.255C374.615 124.418 374.95 124.541 375.306 124.609C375.661 124.677 376.045 124.711 376.448 124.711C377.351 124.711 378.199 124.527 378.979 124.173C379.759 123.812 380.436 123.308 381.004 122.654C381.571 121.999 382.016 121.236 382.338 120.371C382.666 119.499 382.823 118.538 382.823 117.503ZM384.342 124.391H387.844V105H384.342V124.391ZM402.783 124.398V111.166H399.281V118.286C399.281 118.92 399.253 119.41 399.199 119.758C399.144 120.105 399.055 120.412 398.932 120.698C398.439 121.788 397.53 122.34 396.21 122.34C395.177 122.34 394.458 121.972 394.048 121.23C393.884 120.95 393.774 120.63 393.713 120.276C393.651 119.921 393.617 119.41 393.617 118.736V111.166H390.115V118.681C390.115 119.192 390.122 119.628 390.129 119.976C390.135 120.323 390.163 120.644 390.197 120.916C390.231 121.189 390.272 121.434 390.32 121.645C390.361 121.856 390.43 122.061 390.519 122.252C390.84 123.062 391.353 123.676 392.071 124.091C392.789 124.507 393.672 124.711 394.712 124.711C395.649 124.711 396.476 124.548 397.188 124.221C397.899 123.894 398.59 123.362 399.26 122.619L399.267 124.391L402.783 124.398ZM417.873 124.391V116.889C417.873 116.378 417.866 115.942 417.859 115.581C417.852 115.22 417.832 114.907 417.79 114.641C417.756 114.375 417.708 114.144 417.661 113.946C417.606 113.742 417.544 113.544 417.476 113.353C417.154 112.563 416.641 111.95 415.923 111.52C415.205 111.091 414.322 110.873 413.276 110.873C412.339 110.873 411.511 111.037 410.8 111.364C410.088 111.691 409.398 112.229 408.727 112.965L408.72 111.193H405.198V124.398H408.727V117.271C408.727 116.658 408.748 116.174 408.796 115.833C408.837 115.493 408.926 115.172 409.049 114.866C409.274 114.334 409.63 113.939 410.102 113.667C410.574 113.394 411.135 113.258 411.792 113.258C412.825 113.258 413.543 113.626 413.953 114.368C414.11 114.648 414.22 114.968 414.281 115.316C414.343 115.663 414.377 116.181 414.377 116.849V124.384L417.873 124.391ZM432.36 123.519L427.025 116.917L431.532 112.106L428.879 110.969L424.186 116.385H423.817V105H420.287V124.391H423.817V117.366L429.097 124.657L432.36 123.519ZM436.416 107.889C435.767 107.889 435.24 108.42 435.24 109.074C435.24 109.742 435.767 110.267 436.416 110.267C437.073 110.267 437.593 109.742 437.593 109.074C437.593 108.414 437.073 107.889 436.416 107.889ZM436.424 108.073C436.95 108.073 437.374 108.523 437.374 109.081C437.374 109.64 436.95 110.09 436.424 110.083C435.89 110.083 435.465 109.64 435.465 109.074C435.465 108.523 435.89 108.073 436.424 108.073ZM436.198 109.197H436.341C436.512 109.197 436.594 109.258 436.628 109.429C436.656 109.606 436.69 109.722 436.718 109.763H436.943C436.922 109.722 436.888 109.64 436.861 109.436C436.834 109.238 436.758 109.136 436.636 109.115V109.102C436.779 109.061 436.895 108.952 436.895 108.781C436.895 108.659 436.854 108.563 436.772 108.509C436.69 108.448 436.56 108.407 436.362 108.407C436.204 108.407 436.095 108.42 435.986 108.441V109.763H436.198V109.197ZM436.198 108.584C436.232 108.577 436.28 108.57 436.348 108.57C436.588 108.57 436.67 108.686 436.67 108.802C436.67 108.965 436.519 109.027 436.348 109.027H436.198V108.584Z" fill="#0C1724"/>
    <path id="01" d="M446 118.777V116.617L435.391 111.316V113.694L443.612 117.68L435.391 121.72V124.043L446 118.777Z" fill="#72B136"/>
  </g>
</g>

<!-- K3S bubble -->
<g id="k3s">
  <g id="bg_2" filter="url(#filter1_dd)">
    <circle cx="236" cy="69" r="39" fill="white"/>
  </g>
  <g id="k3s-logo">
    <path id="04" d="M240.421 64.4655H242.665V67.0055C242.665 67.2876 242.625 67.7041 242.598 68.0134H242.652C242.821 67.7191 243.01 67.4362 243.216 67.1667L245.434 64.4655H247.853L244.896 68.0268L248.014 73.5366H245.434L243.337 69.7336L242.665 70.5534V73.5366H240.421V64.4655Z" fill="#384745"/>
    <path id="03" d="M250.205 70.6877C249.963 71.5612 250.46 72.1122 251.212 72.1122C252.059 72.1122 252.489 71.4402 252.489 70.4861C252.489 69.4648 251.978 69.0752 251.293 69.0752C250.88 69.0721 250.482 69.2258 250.178 69.5052L249.21 68.4568L252.019 66.1318H248.686V64.4655H254.263V66.2259L252.113 67.9999C253.484 67.8656 254.787 68.7659 254.787 70.513C254.787 72.4079 253.242 73.698 251.293 73.698C249.452 73.698 247.906 72.5558 248.31 70.9564L250.205 70.6877Z" fill="#384745"/>
    <path id="02_2" d="M257.57 70.5533C257.409 71.2789 257.691 72.1121 259.116 72.1121C260.056 72.1121 260.379 71.7358 260.379 71.2384C260.379 70.4859 259.626 70.2978 258.739 69.9754C257.409 69.5182 255.77 68.8734 255.77 66.9784C255.77 65.2852 257.073 64.2503 259.29 64.3041C262.005 64.3577 262.771 65.9571 262.475 67.3413L260.419 67.5294C260.554 66.4812 260.177 65.8898 259.116 65.8898C258.404 65.8898 258 66.1588 258 66.7232C258 67.4756 258.726 67.704 259.613 68.0133C260.984 68.47 262.61 69.0213 262.61 70.9024C262.61 72.5285 261.4 73.6979 259.035 73.6979C256.818 73.6979 255.299 72.6764 255.608 70.7414L257.57 70.5533Z" fill="#384745"/>
    <path id="01_2" d="M232.836 59H213.585C212.9 59.002 212.244 59.275 211.759 59.7593C211.275 60.2436 211.002 60.8999 211 61.5848V76.4152C211.002 77.1001 211.275 77.7564 211.759 78.2407C212.244 78.725 212.9 78.998 213.585 79H232.836C233.521 78.998 234.177 78.725 234.662 78.2407C235.146 77.7564 235.419 77.1001 235.421 76.4152V61.5848C235.419 60.8999 235.146 60.2436 234.662 59.7593C234.177 59.275 233.521 59.002 232.836 59V59ZM221.319 73.5436L216.621 76.274C216.478 76.3569 216.32 76.4109 216.157 76.4329C215.993 76.4549 215.827 76.4445 215.667 76.4022C215.345 76.3169 215.07 76.1069 214.902 75.8187C214.735 75.5304 214.689 75.1874 214.774 74.8651C214.859 74.5428 215.069 74.2676 215.358 74.1001L220.056 71.3698C220.199 71.2866 220.356 71.2325 220.52 71.2104C220.684 71.1882 220.85 71.1986 221.01 71.2408C221.169 71.283 221.319 71.3563 221.451 71.4565C221.582 71.5566 221.692 71.6817 221.775 71.8245C221.858 71.9673 221.912 72.1251 221.934 72.2888C221.956 72.4525 221.946 72.619 221.903 72.7786C221.861 72.9383 221.788 73.088 221.687 73.2193C221.587 73.3505 221.462 73.4608 221.319 73.5436ZM223.167 69.3838H223.162C222.997 69.3831 222.833 69.3499 222.681 69.2861C222.529 69.2222 222.391 69.129 222.274 69.0118C222.158 68.8945 222.066 68.7555 222.004 68.6027C221.941 68.4499 221.909 68.2863 221.91 68.1212L221.934 62.7087C221.935 62.3763 222.068 62.058 222.304 61.8234C222.539 61.5888 222.858 61.4571 223.191 61.4571H223.196C223.53 61.4585 223.849 61.5924 224.084 61.8291C224.318 62.0659 224.449 62.3863 224.448 62.7197L224.424 68.1321C224.423 68.4646 224.29 68.7829 224.054 69.0175C223.819 69.2521 223.5 69.3838 223.167 69.3838ZM231.48 75.8151C231.398 75.9581 231.288 76.0835 231.157 76.184C231.026 76.2846 230.877 76.3583 230.717 76.401C230.558 76.4438 230.391 76.4547 230.228 76.4331C230.064 76.4115 229.906 76.3579 229.763 76.2752L225.058 73.5587C224.915 73.4763 224.789 73.3664 224.689 73.2354C224.588 73.1044 224.514 72.9549 224.471 72.7954C224.429 72.6358 224.418 72.4694 224.439 72.3056C224.461 72.1418 224.514 71.9839 224.597 71.8408C224.679 71.6978 224.789 71.5724 224.92 71.4719C225.052 71.3713 225.201 71.2976 225.361 71.255C225.52 71.2123 225.687 71.2015 225.85 71.2231C226.014 71.2448 226.172 71.2986 226.315 71.3813L231.02 74.0978C231.163 74.1803 231.289 74.2902 231.389 74.4212C231.49 74.5522 231.563 74.7017 231.606 74.8611C231.649 75.0206 231.66 75.1869 231.638 75.3506C231.617 75.5143 231.563 75.6721 231.48 75.8151Z" fill="#FFC61C"/>
  </g>
</g>

<!-- Prometheus bubble -->
<g id="prometheus">
  <g id="bg_3" filter="url(#filter2_dd)">
    <circle cx="261" cy="385" r="39" fill="white"/>
  </g>
  <g id="prometheus-logo">
    <path d="M261 363C248.85 363 239 372.849 239 385C239 397.15 248.85 407 261 407C273.15 407 283 397.15 283 385C283 372.849 273.15 363 261 363ZM261 404.175C257.543 404.175 254.741 401.866 254.741 399.018H267.26C267.26 401.865 264.457 404.175 261 404.175ZM271.339 397.31H250.66V393.561H271.339V397.31H271.339ZM271.265 391.631H250.719C250.651 391.552 250.581 391.474 250.515 391.394C248.398 388.824 247.9 387.482 247.416 386.115C247.408 386.07 249.982 386.641 251.808 387.052C251.808 387.052 252.748 387.269 254.121 387.519C252.803 385.973 252.02 384.008 252.02 381.999C252.02 377.589 255.402 373.736 254.182 370.621C255.369 370.717 256.64 373.127 256.725 376.895C257.988 375.15 258.516 371.964 258.516 370.01C258.516 367.988 259.849 365.638 261.182 365.558C259.994 367.516 261.49 369.196 262.82 373.361C263.319 374.926 263.255 377.559 263.641 379.229C263.768 375.76 264.365 370.7 266.565 368.953C265.594 371.153 266.708 373.906 267.471 375.23C268.7 377.365 269.446 378.983 269.446 382.042C269.446 384.094 268.688 386.025 267.41 387.535C268.863 387.263 269.866 387.017 269.866 387.017L274.584 386.097C274.585 386.096 273.899 388.916 271.265 391.631Z" fill="#E6522C"/>
  </g>
</g>

<!-- Kafka bubble -->
<g id="kafka">
  <g id="bg_4" filter="url(#filter3_dd)">
    <circle cx="97.5" cy="320.5" r="63.5" fill="white"/>
  </g>
  <g id="kafka-logo">
    <path fill-rule="evenodd" clip-rule="evenodd" d="M63.8826 302.011C63.4045 302.053 62.8882 302.172 62.4811 302.333C61.9948 302.527 61.5046 302.821 61.0981 303.165C60.6927 303.508 60.3583 303.901 60.0718 304.371C59.8882 304.672 59.7364 305.001 59.6176 305.356C59.444 305.876 59.3713 306.331 59.3713 306.899C59.3713 307.466 59.4505 307.953 59.6265 308.471C59.8711 309.19 60.2833 309.844 60.8369 310.391C61.2195 310.769 61.6534 311.074 62.1403 311.308C62.4749 311.468 62.6473 311.533 62.9987 311.631L63.2424 311.699V312.998V314.298L62.9775 314.356C62.8318 314.388 62.6126 314.443 62.4905 314.479C61.7959 314.682 61.0598 315.058 60.466 315.513C60.225 315.698 59.792 316.096 59.5915 316.318C59.3786 316.554 59.0948 316.934 58.9225 317.213C58.7405 317.508 58.5154 317.961 58.4005 318.264C58.2468 318.67 58.1221 319.146 58.0493 319.605C58.0026 319.9 57.9839 320.732 58.0161 321.079C58.1115 322.108 58.4697 323.115 59.0451 323.973C59.2422 324.267 59.4101 324.48 59.664 324.759C59.8759 324.992 60.2185 325.303 60.4951 325.513C60.7513 325.708 61.1026 325.929 61.3903 326.077C61.9532 326.366 62.4773 326.545 63.1313 326.673L63.2533 326.697L63.2479 328L63.2424 329.304L62.9954 329.373C62.6444 329.473 62.3682 329.577 62.0874 329.718C61.2165 330.154 60.5087 330.823 60.0043 331.686C59.8648 331.925 59.7057 332.286 59.6096 332.582C59.4415 333.099 59.3713 333.548 59.3713 334.105C59.3713 334.673 59.4441 335.128 59.6177 335.647C59.7645 336.086 59.9473 336.455 60.2122 336.846C60.3936 337.114 60.5779 337.335 60.84 337.598C61.2227 337.983 61.6361 338.273 62.1615 338.525C62.8423 338.852 63.4955 339 64.2597 339C65.0242 339 65.6776 338.852 66.3579 338.525C66.9637 338.234 67.4179 337.899 67.8457 337.425C68.2137 337.018 68.4292 336.703 68.657 336.238C68.8123 335.922 68.9137 335.648 68.9945 335.329C69.118 334.84 69.1344 334.695 69.1335 334.094C69.1328 333.613 69.1265 333.509 69.0846 333.283C69.0256 332.964 68.9351 332.632 68.8347 332.367C68.6637 331.914 68.3544 331.381 68.0413 330.999C67.8499 330.766 67.5169 330.44 67.2799 330.254C66.7693 329.854 66.1482 329.54 65.5526 329.381C65.4593 329.357 65.3592 329.33 65.33 329.321L65.277 329.306L65.2716 328L65.2661 326.694L65.314 326.685C65.8854 326.572 66.2399 326.471 66.6404 326.305C67.1575 326.092 67.6984 325.773 68.1488 325.416C68.4008 325.216 68.7244 324.91 68.9564 324.654L69.1134 324.48L69.7597 324.853C70.5519 325.31 71.3084 325.749 71.343 325.772C71.3626 325.784 71.3562 325.833 71.3161 325.975C71.2871 326.078 71.238 326.289 71.2069 326.443C71.1544 326.705 71.1503 326.764 71.1495 327.288C71.1484 327.905 71.161 328.013 71.2956 328.539C71.5058 329.36 71.9287 330.106 72.5322 330.721C72.8048 330.999 73.0755 331.219 73.4239 331.444C73.9112 331.758 74.4305 331.971 75.0264 332.101C75.4391 332.19 76.0936 332.223 76.5371 332.175C76.8223 332.145 77.2238 332.063 77.4691 331.986C78.1122 331.783 78.722 331.44 79.2426 330.988C80.0089 330.323 80.5632 329.398 80.7918 328.403C80.8194 328.283 80.8573 328.072 80.876 327.934C80.9166 327.635 80.9225 327.058 80.888 326.766C80.7808 325.861 80.4484 325.033 79.9044 324.317C79.8217 324.208 79.6439 324.008 79.5095 323.872C79.1315 323.49 78.8058 323.244 78.3537 322.999C77.9665 322.79 77.6185 322.654 77.1873 322.545C76.7854 322.443 76.5149 322.412 76.0329 322.412C75.5402 322.412 75.281 322.443 74.8362 322.555C73.9859 322.769 73.2666 323.169 72.6342 323.778L72.381 324.022L71.9339 323.765C71.688 323.624 71.3295 323.418 71.1371 323.307C70.9448 323.195 70.6389 323.019 70.4574 322.915L70.1274 322.725L70.217 322.451C70.3204 322.136 70.4205 321.706 70.4741 321.346C70.503 321.153 70.5114 320.961 70.5114 320.502C70.5113 320.045 70.5026 319.847 70.4737 319.647C70.4255 319.312 70.3276 318.892 70.2234 318.571C70.1781 318.432 70.141 318.308 70.141 318.296C70.141 318.285 70.4772 318.081 70.8881 317.843C71.299 317.605 71.805 317.312 72.0124 317.192L72.3897 316.974L72.5105 317.105C72.6899 317.301 73.0645 317.608 73.3474 317.793C73.927 318.171 74.5614 318.419 75.2366 318.531C75.6748 318.604 76.3952 318.605 76.8152 318.532C77.2287 318.461 77.5806 318.355 78.0654 318.156C78.2462 318.082 78.6919 317.813 78.9503 317.623C79.2072 317.435 79.5885 317.073 79.7945 316.822C80.2568 316.261 80.5923 315.595 80.7685 314.889C80.8695 314.485 80.9118 314.127 80.9109 313.685C80.9098 313.126 80.8295 312.635 80.6556 312.123C80.2309 310.875 79.3241 309.851 78.1428 309.285C77.6555 309.052 77.1647 308.906 76.637 308.837C76.3091 308.795 75.7369 308.795 75.4144 308.837C74.7867 308.919 74.1949 309.116 73.638 309.429C73.2438 309.65 72.906 309.904 72.5864 310.22C72.1921 310.61 71.9042 311.008 71.6568 311.506C71.4266 311.97 71.2939 312.37 71.1967 312.893C71.1538 313.124 71.1484 313.217 71.1494 313.716C71.1503 314.238 71.1545 314.3 71.2065 314.56C71.2374 314.715 71.2873 314.926 71.3175 315.028C71.3611 315.176 71.3667 315.218 71.3448 315.231C71.0662 315.4 69.1466 316.506 69.1237 316.511C69.1047 316.516 69.0324 316.447 68.9436 316.341C68.7736 316.137 68.3335 315.728 68.0534 315.513C67.4528 315.052 66.7005 314.671 65.9905 314.468C65.8467 314.427 65.6321 314.374 65.5136 314.351C65.3951 314.327 65.291 314.301 65.2822 314.292C65.2733 314.284 65.2686 313.697 65.2716 312.988L65.277 311.699L65.5208 311.631C65.8367 311.543 66.0325 311.472 66.2976 311.35C66.7914 311.122 67.2777 310.787 67.6583 310.414C68.0684 310.012 68.3681 309.603 68.6231 309.098C68.7999 308.748 68.9085 308.463 68.9949 308.122C69.118 307.635 69.1344 307.489 69.1335 306.889C69.1328 306.407 69.1265 306.303 69.0846 306.077C68.9892 305.562 68.8523 305.148 68.6309 304.704C68.5006 304.443 68.2561 304.059 68.0775 303.836C67.7739 303.455 67.3581 303.079 66.9311 302.798C66.7916 302.706 66.5341 302.563 66.3588 302.479C65.7234 302.174 65.1137 302.027 64.3869 302.003C64.2237 301.997 63.9968 302.001 63.8826 302.011ZM64.6426 304.659C65.1152 304.743 65.5284 304.96 65.8834 305.311C66.0358 305.462 66.1771 305.657 66.2817 305.863C66.3706 306.037 66.4666 306.323 66.4963 306.503C66.5296 306.705 66.5252 307.139 66.4878 307.328C66.4268 307.638 66.3007 307.942 66.1346 308.181C65.6965 308.811 65.027 309.161 64.2597 309.161C63.8371 309.161 63.4434 309.055 63.0839 308.845C62.8867 308.73 62.549 308.415 62.4113 308.219C62.0052 307.639 61.8854 306.934 62.0792 306.264C62.1457 306.035 62.3076 305.706 62.4392 305.534C62.6471 305.261 62.9696 304.998 63.2761 304.851C63.4339 304.776 63.7389 304.676 63.8888 304.652C64.0024 304.633 64.5234 304.638 64.6426 304.659ZM76.4674 311.473C76.8829 311.558 77.2548 311.75 77.569 312.042C77.8611 312.314 78.0587 312.618 78.1816 312.986C78.2445 313.175 78.3004 313.508 78.3004 313.695C78.3004 313.878 78.2479 314.191 78.1832 314.394C78.0561 314.792 77.7921 315.186 77.4774 315.447C77.2996 315.594 77.0116 315.759 76.7942 315.839C76.491 315.95 76.1128 315.996 75.8066 315.959C75.5463 315.928 75.2809 315.851 75.0379 315.737C74.7889 315.619 74.6013 315.484 74.3986 315.275C74.2086 315.079 74.0592 314.86 73.9531 314.623C73.8218 314.33 73.7828 314.153 73.7709 313.799C73.7647 313.616 73.7701 313.424 73.784 313.337C73.8318 313.033 73.9773 312.672 74.1645 312.392C74.2067 312.329 74.3273 312.193 74.4324 312.089C74.6996 311.824 74.9684 311.657 75.3058 311.546C75.5568 311.463 75.721 311.437 76.0117 311.436C76.1941 311.434 76.3361 311.446 76.4674 311.473ZM115.485 313.082C114.492 313.139 113.752 313.339 113.201 313.699C113.002 313.829 112.743 314.072 112.593 314.27C112.285 314.676 112.086 315.24 112.021 315.892C112.009 316.01 111.999 316.313 111.999 316.564V317.02H111.342H110.685V317.99V318.959L111.337 318.964L111.988 318.97L111.994 323.29L111.999 327.611H113.26H114.521L114.526 323.29L114.532 318.97L115.364 318.964L116.195 318.959V317.99V317.02H115.358H114.521V316.692C114.521 316.31 114.547 316.068 114.608 315.864C114.672 315.652 114.738 315.538 114.884 315.385C114.977 315.286 115.056 315.228 115.165 315.176C115.248 315.136 115.373 315.089 115.442 315.071C115.546 315.046 116.007 314.998 116.158 314.998C116.193 314.998 116.195 314.938 116.195 314.029V313.059L115.978 313.063C115.859 313.064 115.637 313.073 115.485 313.082ZM88.0499 320.471V327.611H89.3108H90.5718L90.5772 324.975L90.5826 322.339L91.5504 323.688C92.0827 324.429 92.9252 325.604 93.4226 326.297C93.9199 326.991 94.3384 327.57 94.3525 327.585C94.3726 327.606 94.683 327.61 95.8142 327.606L97.2503 327.6L95.0556 324.656C93.8485 323.037 92.8609 321.705 92.8609 321.695C92.8609 321.686 92.9491 321.584 93.0569 321.47C93.1648 321.356 93.9015 320.573 94.6942 319.731C95.4868 318.888 96.3738 317.947 96.6652 317.638C96.9566 317.33 97.2027 317.065 97.212 317.049C97.2263 317.025 96.9893 317.021 95.7178 317.022L94.2067 317.024L93.2086 318.132C92.6596 318.742 91.8441 319.646 91.3965 320.143L90.5826 321.044L90.5772 317.187L90.5718 313.33H89.3109H88.0499V320.471ZM117.912 320.47V327.611H119.184H120.455L120.461 324.981L120.466 322.352L122.352 324.981L124.238 327.61L125.686 327.611L127.133 327.611L127.051 327.501C127.006 327.441 126.022 326.121 124.864 324.567C123.707 323.013 122.751 321.731 122.74 321.717C122.726 321.7 122.801 321.606 122.993 321.405C123.33 321.049 126.922 317.231 127.034 317.109L127.115 317.02H125.602H124.089L122.277 319.027L120.466 321.033L120.455 317.187L120.445 313.341L119.178 313.336L117.912 313.33V320.47ZM102.569 316.709C101.449 316.815 100.455 317.214 99.6273 317.89C98.8512 318.523 98.2437 319.434 97.94 320.42C97.7838 320.927 97.7053 321.365 97.6696 321.931C97.6289 322.575 97.6938 323.264 97.855 323.9C97.948 324.267 98.0417 324.537 98.1916 324.869C98.3826 325.292 98.5637 325.597 98.848 325.974C99.1367 326.357 99.579 326.775 99.9855 327.049C100.545 327.426 101.142 327.68 101.794 327.818C102.251 327.914 102.451 327.933 103.023 327.932C103.5 327.932 103.61 327.925 103.839 327.885C103.985 327.859 104.161 327.824 104.231 327.807C104.725 327.686 105.299 327.424 105.662 327.156C105.951 326.942 106.254 326.63 106.443 326.351L106.595 326.128V326.87V327.611H107.866H109.138V322.316V317.02H107.866H106.595V317.775V318.53L106.453 318.326C106.203 317.963 105.874 317.644 105.494 317.393C104.978 317.051 104.389 316.833 103.733 316.739C103.458 316.699 102.836 316.683 102.569 316.709ZM132.546 316.699C131.996 316.753 131.64 316.822 131.232 316.952C130.681 317.128 130.159 317.395 129.701 317.733C129.436 317.929 129.014 318.332 128.799 318.594C128.456 319.013 128.149 319.535 127.95 320.037C127.781 320.464 127.651 320.974 127.586 321.464C127.567 321.606 127.547 321.918 127.54 322.159C127.532 322.49 127.538 322.682 127.565 322.941C127.609 323.363 127.68 323.738 127.788 324.111C127.897 324.486 128.034 324.824 128.221 325.182C128.475 325.668 128.742 326.038 129.115 326.421C129.516 326.832 129.985 327.171 130.491 327.413C131.102 327.705 131.693 327.863 132.419 327.926C132.784 327.958 133.383 327.938 133.716 327.883C134.534 327.748 135.219 327.444 135.768 326.972C136.013 326.761 136.273 326.452 136.427 326.186L136.477 326.099L136.478 326.855L136.478 327.611H137.739H139V322.316V317.02H137.739H136.478V317.787V318.553L136.37 318.388C136.016 317.843 135.47 317.382 134.84 317.095C134.454 316.919 134.065 316.806 133.617 316.74C133.402 316.708 132.72 316.682 132.546 316.699ZM64.8849 317.268C65.316 317.356 65.7306 317.53 66.1036 317.778C66.2173 317.854 66.4016 318.011 66.5598 318.167C66.9598 318.56 67.1982 318.938 67.3682 319.447C67.4862 319.8 67.5342 320.102 67.5342 320.491C67.5342 320.997 67.4462 321.419 67.2493 321.859C67.0711 322.257 66.8275 322.595 66.4901 322.912C66.0465 323.329 65.4804 323.615 64.858 323.737C64.6692 323.774 64.5455 323.783 64.2597 323.784C63.9709 323.784 63.8532 323.775 63.6663 323.738C63.3545 323.677 63.1418 323.607 62.8561 323.473C62.5428 323.326 62.2733 323.142 62.0189 322.902C61.5536 322.463 61.2388 321.933 61.0835 321.325C60.9993 320.996 60.9786 320.782 60.9917 320.377C61.0041 319.991 61.0408 319.771 61.1463 319.449C61.2364 319.174 61.4552 318.762 61.6393 318.521C61.9567 318.106 62.4167 317.73 62.8649 317.52C63.1113 317.405 63.4283 317.304 63.6769 317.263C63.7876 317.245 63.9021 317.225 63.9312 317.22C63.9604 317.215 64.1416 317.215 64.3339 317.219C64.5718 317.224 64.748 317.24 64.8849 317.268ZM103.736 319.065C104.168 319.108 104.482 319.193 104.846 319.365C105.089 319.48 105.323 319.634 105.538 319.82C105.693 319.954 105.915 320.207 106.051 320.405C106.189 320.607 106.386 321.011 106.464 321.252C106.552 321.527 106.589 321.719 106.615 322.034C106.64 322.339 106.619 322.63 106.548 322.972C106.475 323.326 106.402 323.529 106.22 323.89C105.939 324.444 105.48 324.937 104.994 325.204C104.533 325.458 103.994 325.588 103.405 325.588C103.087 325.588 102.767 325.548 102.494 325.474C102.26 325.411 102.122 325.36 101.93 325.265C101.733 325.167 101.586 325.073 101.394 324.921C100.845 324.486 100.435 323.804 100.255 323.024C100.21 322.827 100.205 322.758 100.205 322.326C100.206 321.908 100.212 321.82 100.253 321.638C100.36 321.165 100.534 320.755 100.78 320.391C100.949 320.142 101.262 319.816 101.504 319.637C102.111 319.189 102.916 318.983 103.736 319.065ZM133.606 319.064C133.889 319.091 134.114 319.137 134.362 319.22C134.819 319.373 135.174 319.591 135.526 319.938C135.901 320.307 136.154 320.714 136.327 321.224C136.431 321.533 136.478 321.791 136.493 322.141C136.518 322.721 136.382 323.328 136.106 323.865C135.828 324.405 135.519 324.767 135.076 325.075C134.778 325.281 134.318 325.465 133.91 325.54C133.763 325.567 133.6 325.576 133.278 325.577C132.785 325.577 132.596 325.551 132.223 325.431C131.748 325.278 131.413 325.074 131.05 324.716C130.725 324.395 130.513 324.083 130.333 323.659C130.238 323.437 130.157 323.17 130.105 322.91C130.078 322.771 130.068 322.622 130.068 322.336C130.069 322.028 130.078 321.901 130.116 321.705C130.201 321.26 130.384 320.8 130.619 320.445C131.069 319.764 131.696 319.321 132.473 319.137C132.843 319.05 133.21 319.026 133.606 319.064ZM76.2986 325.048C76.6689 325.099 76.9834 325.215 77.2877 325.415C77.4748 325.538 77.7281 325.781 77.8616 325.966C78.065 326.248 78.2078 326.6 78.269 326.971C78.3096 327.218 78.309 327.43 78.267 327.675C78.2231 327.931 78.1527 328.136 78.0245 328.381C77.8498 328.716 77.5767 329.014 77.2632 329.212C77.0842 329.325 76.8215 329.439 76.6029 329.498C76.3557 329.565 75.9557 329.588 75.6918 329.551C75.3456 329.502 74.957 329.342 74.6746 329.133C74.5039 329.007 74.2864 328.783 74.1685 328.612C74.0472 328.437 73.9046 328.137 73.8361 327.913C73.7824 327.738 73.7786 327.699 73.7772 327.319C73.7759 326.957 73.7811 326.893 73.8247 326.735C74.0492 325.922 74.6706 325.303 75.4579 325.107C75.7789 325.028 76.0233 325.01 76.2986 325.048ZM64.7378 331.884C64.8376 331.905 64.9951 331.951 65.0877 331.987C65.4855 332.137 65.8994 332.469 66.1446 332.833C66.3043 333.07 66.4288 333.376 66.4878 333.676C66.5281 333.88 66.5281 334.329 66.4878 334.534C66.4217 334.87 66.272 335.211 66.0821 335.46C65.7561 335.886 65.3386 336.167 64.8214 336.307C64.6263 336.36 64.1224 336.383 63.8982 336.349C63.6068 336.304 63.2754 336.174 63.0022 335.997C62.9362 335.954 62.7994 335.841 62.6984 335.745C62.3459 335.412 62.1385 335.04 62.0318 334.549C61.9817 334.318 61.9819 333.896 62.0323 333.661C62.1579 333.074 62.4578 332.611 62.9457 332.25C63.2133 332.051 63.6387 331.887 63.9948 331.844C64.2021 331.819 64.5108 331.836 64.7378 331.884Z" fill="black"/>
  </g>
</g>

<!-- Traefik bubble -->
<g id="traefik">
  <g id="bg_5" filter="url(#filter4_dd)">
    <circle cx="406" cy="331" r="57" fill="white"/>
  </g>
  <g id="traefik-logo">
    <path id="02_3" d="M372.757 342.47C371.579 342.47 370.643 342.091 369.948 341.334C369.252 340.566 368.904 339.388 368.904 337.801V328.954H367.031C366.692 328.954 366.432 328.873 366.247 328.709C366.073 328.545 365.985 328.324 365.985 328.048C365.985 327.782 366.073 327.567 366.247 327.404C366.422 327.229 366.678 327.142 367.015 327.142H368.905L369.273 322.78C369.294 322.452 369.436 322.17 369.703 321.934C369.979 321.698 370.282 321.582 370.609 321.582C370.75 321.577 370.891 321.601 371.022 321.651C371.154 321.701 371.275 321.776 371.377 321.873C371.581 322.059 371.683 322.329 371.683 322.687V327.143H374.508C374.847 327.143 375.098 327.23 375.262 327.405C375.437 327.579 375.524 327.804 375.524 328.082C375.524 328.665 375.185 328.958 374.51 328.958H371.681V337.329C371.681 338.384 371.829 339.146 372.126 339.618C372.423 340.079 372.894 340.309 373.538 340.309H373.708L374.752 340.263H374.844C375.182 340.263 375.448 340.37 375.641 340.586C375.834 340.801 375.932 341.052 375.932 341.339C375.932 341.595 375.876 341.806 375.763 341.969C375.651 342.122 375.477 342.236 375.241 342.308C375.017 342.38 374.785 342.426 374.55 342.447C374.325 342.468 374.028 342.477 373.66 342.477L372.757 342.47ZM380.554 342.254C380.175 342.254 379.853 342.142 379.587 341.916C379.32 341.69 379.188 341.373 379.188 340.963V328.293C379.188 327.883 379.327 327.572 379.603 327.356C379.88 327.13 380.229 327.011 380.586 327.018C380.965 327.018 381.287 327.131 381.554 327.357C381.83 327.572 381.969 327.874 381.969 328.263L381.953 330.107C382.199 329.17 382.737 328.336 383.489 327.726C384.266 327.081 385.198 326.758 386.283 326.758C386.61 326.758 386.866 326.882 387.05 327.127C387.245 327.373 387.342 327.66 387.342 327.988C387.348 328.276 387.256 328.558 387.081 328.786C386.906 329.001 386.655 329.108 386.327 329.108C384.946 329.108 383.87 329.467 383.103 330.184C382.346 330.901 381.968 331.858 381.968 333.056V340.967C381.968 341.376 381.826 341.694 381.537 341.919C381.26 342.145 380.912 342.264 380.554 342.257V342.254ZM418.108 342.254C417.748 342.262 417.398 342.136 417.125 341.902C416.859 341.656 416.727 341.318 416.727 340.888V328.963H414.717C414.379 328.963 414.127 328.881 413.964 328.717C413.8 328.543 413.711 328.311 413.718 328.072C413.718 327.806 413.8 327.586 413.964 327.411C414.127 327.237 414.379 327.149 414.717 327.149H416.727V325.199C416.727 323.366 417.115 322.064 417.893 321.298C418.671 320.519 419.745 320.129 421.117 320.129H422.99C423.287 320.129 423.517 320.236 423.681 320.451C423.856 320.656 423.943 320.902 423.943 321.188C423.943 321.475 423.856 321.721 423.681 321.926C423.517 322.131 423.283 322.231 422.975 322.231H421.67C421.229 322.231 420.887 322.273 420.641 322.355C420.395 322.427 420.176 322.595 419.981 322.862C419.795 323.117 419.669 323.492 419.599 323.983C419.538 324.464 419.507 325.119 419.507 325.949V327.147H422.102C422.441 327.147 422.685 327.234 422.839 327.409C423.003 327.584 423.085 327.802 423.085 328.07C423.085 328.664 422.757 328.961 422.102 328.961H419.505V340.889C419.505 341.32 419.366 341.657 419.09 341.903C418.814 342.139 418.486 342.255 418.107 342.255L418.108 342.254ZM427.795 323.437C427.252 323.437 426.818 323.284 426.49 322.976C426.163 322.659 425.999 322.249 425.999 321.748C425.999 321.246 426.163 320.837 426.49 320.519C426.829 320.202 427.268 320.043 427.812 320.043C428.344 320.043 428.773 320.201 429.1 320.519C429.428 320.825 429.592 321.235 429.592 321.748C429.592 322.25 429.428 322.659 429.1 322.976C428.773 323.282 428.338 323.437 427.795 323.437ZM427.78 342.254C427.424 342.263 427.079 342.137 426.812 341.902C426.546 341.656 426.414 341.308 426.414 340.858V328.369C426.414 327.939 426.552 327.601 426.829 327.356C427.104 327.113 427.46 326.982 427.827 326.986C428.18 326.98 428.522 327.113 428.779 327.356C429.056 327.601 429.194 327.939 429.194 328.369V340.867C429.194 341.298 429.052 341.641 428.764 341.896C428.495 342.139 428.144 342.271 427.781 342.265L427.78 342.254ZM435.163 342.254C434.807 342.263 434.462 342.137 434.195 341.902C433.929 341.656 433.797 341.308 433.797 340.858V321.702C433.797 321.271 433.935 320.934 434.212 320.688C434.487 320.446 434.843 320.315 435.21 320.319C435.563 320.313 435.905 320.446 436.162 320.688C436.438 320.934 436.577 321.271 436.577 321.702V333.453L443.547 327.064C443.772 326.87 444.012 326.772 444.268 326.772C444.595 326.772 444.882 326.9 445.127 327.157C445.383 327.412 445.51 327.7 445.51 328.017C445.51 328.305 445.387 328.566 445.142 328.8L439.568 333.791L445.662 340.213C445.769 340.317 445.853 340.442 445.911 340.579C445.969 340.716 445.999 340.863 446 341.012C446 341.339 445.867 341.631 445.601 341.887C445.346 342.143 445.049 342.272 444.711 342.272C444.353 342.272 444.045 342.13 443.791 341.842L436.575 334.162V340.867C436.575 341.307 436.433 341.65 436.145 341.896C435.876 342.139 435.524 342.271 435.162 342.265L435.163 342.254Z" fill="black"/>
    <path id="01_3" d="M393.458 342.25C391.689 342.097 390.338 341.564 389.355 340.629C388.355 339.679 387.925 338.44 388.095 336.99C388.289 335.324 389.081 334.146 390.47 333.46C391.541 332.93 392.608 332.728 394.347 332.728C395.581 332.727 396.617 332.828 398.196 333.104L398.947 333.227C398.98 333.227 399.006 333.102 399.078 332.604C399.209 331.706 399.231 331.395 399.196 331.035C399.155 330.616 399.101 330.416 398.943 330.091C398.533 329.254 397.561 328.74 396 328.541C395.36 328.481 394.716 328.476 394.075 328.525C393.326 328.611 392.907 328.719 391.975 329.068C391.429 329.272 391.427 329.273 391.211 329.26C390.836 329.238 390.582 329.069 390.418 328.734C390.35 328.596 390.338 328.54 390.338 328.352C390.338 328.072 390.411 327.926 390.664 327.688C391.232 327.157 392.185 326.705 393.148 326.51C393.765 326.386 394.069 326.36 394.881 326.361C395.722 326.363 396.26 326.41 397.008 326.549C398.251 326.78 399.194 327.187 399.906 327.8C400.117 327.981 400.436 328.34 400.562 328.548C400.603 328.612 400.647 328.664 400.657 328.664C400.666 328.664 400.736 328.588 400.809 328.494C401.887 327.12 403.704 326.342 405.829 326.342C407.333 326.342 408.731 326.724 409.771 327.416C410.598 327.965 411.27 328.811 411.541 329.646C411.697 330.126 411.72 330.301 411.722 330.998L411.687 331.858C411.443 333.226 410.862 334.174 409.854 334.848C409.043 335.39 408.025 335.708 406.693 335.833C406.022 335.896 404.796 335.89 404.001 335.82L402.144 335.585L400.827 335.366C400.788 335.59 400.752 335.815 400.72 336.04C400.648 336.436 400.613 336.837 400.617 337.239C400.615 337.714 400.622 337.799 400.679 338.018C400.865 338.724 401.269 339.195 402.008 339.56C402.733 339.921 403.493 340.073 404.642 340.099L405.728 340.068C406.499 339.986 406.851 339.897 407.875 339.52L408.454 339.33C408.638 339.316 408.822 339.35 408.988 339.428C409.128 339.509 409.245 339.623 409.33 339.76C409.415 339.897 409.465 340.052 409.475 340.213C409.474 340.552 409.36 340.759 409.023 341.027C408.22 341.667 407.192 342.06 405.965 342.195C405.529 342.244 404.53 342.25 404.049 342.21C402.691 342.092 401.749 341.86 400.888 341.431C400.216 341.097 399.703 340.681 399.321 340.162L399.143 339.922C399.14 339.917 399.077 339.992 399.004 340.085C398.682 340.5 398.189 340.959 397.709 341.261C397.014 341.713 396.016 342.058 395.007 342.194C394.49 342.242 393.971 342.26 393.452 342.247L393.458 342.25ZM395.192 340.304C396.015 340.122 396.75 339.71 397.283 339.131C397.769 338.603 398.157 337.813 398.386 336.942C398.509 336.451 398.716 335.086 398.67 335.056C398.652 335.045 398.543 335.028 398.43 335.017L397.702 334.93L394.387 334.657C393.279 334.719 392.827 334.815 392.162 335.133C391.821 335.296 391.586 335.471 391.4 335.705C391.137 336.03 390.952 336.411 390.859 336.819C390.776 337.299 390.771 337.79 390.845 338.271C390.973 338.735 391.124 338.997 391.465 339.342C391.933 339.817 392.546 340.134 393.311 340.292C393.702 340.373 393.69 340.372 394.344 340.362C394.818 340.354 394.996 340.34 395.19 340.298L395.192 340.304ZM405.986 333.897C406.674 333.836 407.1 333.729 407.62 333.485C408.052 333.282 408.305 333.073 408.543 332.72C408.892 332.203 409.03 331.713 409.027 330.987C409.024 330.468 408.981 330.253 408.802 329.881C408.402 329.051 407.464 328.454 406.233 328.251C405.927 328.201 405.102 328.21 404.787 328.266C404.181 328.376 403.67 328.579 403.218 328.885C402.383 329.449 401.809 330.3 401.487 331.442C401.361 331.89 401.327 332.065 401.214 332.837L401.11 333.55L401.248 333.565L403.16 333.797L404.101 333.903C404.728 333.942 405.357 333.939 405.984 333.895L405.986 333.897Z" fill="#37ABC8"/>
  </g>
</g>

<!-- Grafana bubble -->
<g id="grafana">
  <g id="bg_6" filter="url(#filter5_dd)">
    <circle cx="117" cy="152" r="57" fill="white"/>
  </g>
  <g id="grafana-logo">
    <path id="08" d="M98.1147 173.996C97.9886 177.36 95.3406 180 92.062 180C88.6153 180 86.0513 177.19 86.0513 173.74C86.0513 170.291 88.8254 167.481 92.2301 167.481C93.7433 167.481 95.2565 168.162 96.5175 169.354L95.5507 170.589C94.584 169.738 93.407 169.142 92.2301 169.142C89.7502 169.142 87.6906 171.186 87.6906 173.74C87.6906 176.338 89.6241 178.339 92.062 178.339C94.2477 178.339 95.971 176.721 96.3493 174.592H91.3474V173.102H98.1147V173.996Z" fill="#565656"/>
    <path id="07" d="M103.831 173.144H102.907C101.898 173.144 101.057 173.996 101.057 175.018V179.872H99.418V171.526H100.763V172.207C101.225 171.739 101.898 171.526 102.697 171.526H104.462L103.831 173.144Z" fill="#565656"/>
    <path id="06" d="M112.826 179.872H111.397V178.808C110.304 179.872 108.623 180.383 106.9 179.617C105.639 179.063 104.672 177.871 104.42 176.466C103.915 173.783 105.975 171.398 108.581 171.398C109.674 171.398 110.683 171.867 111.397 172.591V171.526H112.826V179.872ZM111.145 176.338C111.523 174.635 110.262 173.102 108.623 173.102C107.194 173.102 106.059 174.294 106.059 175.699C106.059 177.317 107.446 178.552 109.085 178.297C110.052 178.126 110.893 177.317 111.145 176.338Z" fill="#565656"/>
    <path id="05" d="M116.105 171.1V171.569H118.711V173.017H116.105V179.872H114.507V171.143C114.507 169.312 115.81 168.247 117.45 168.247H119.425L118.753 169.823H117.45C116.693 169.78 116.105 170.376 116.105 171.1Z" fill="#565656"/>
    <path id="04_2" d="M127.454 179.872H126.067V178.808C124.974 179.872 123.292 180.383 121.569 179.617C120.308 179.063 119.341 177.871 119.089 176.466C118.585 173.783 120.644 171.398 123.25 171.398C124.343 171.398 125.352 171.867 126.067 172.591V171.526H127.496V179.872H127.454ZM125.772 176.338C126.151 174.635 124.89 173.102 123.25 173.102C121.821 173.102 120.686 174.294 120.686 175.699C120.686 177.317 122.073 178.552 123.713 178.297C124.722 178.126 125.52 177.317 125.772 176.338Z" fill="#565656"/>
    <path id="03_2" d="M136.239 174.975V179.872H134.599V174.933C134.599 173.911 133.759 173.059 132.75 173.059C131.699 173.059 130.901 173.911 130.901 174.933V179.872H129.261V171.526H130.606V172.25C131.195 171.697 131.993 171.398 132.792 171.398C134.726 171.441 136.239 173.017 136.239 174.975Z" fill="#565656"/>
    <path id="02_4" d="M145.906 179.872H144.519V178.808C143.426 179.872 141.745 180.383 140.022 179.617C138.761 179.063 137.794 177.871 137.542 176.466C137.037 173.783 139.097 171.398 141.703 171.398C142.796 171.398 143.805 171.867 144.519 172.591V171.526H145.948V179.872H145.906ZM144.225 176.338C144.603 174.635 143.342 173.102 141.703 173.102C140.274 173.102 139.139 174.294 139.139 175.699C139.139 177.317 140.526 178.552 142.165 178.297C143.174 178.126 143.973 177.317 144.225 176.338Z" fill="#565656"/>
    <path id="01_4" d="M137.71 139.249C137.626 138.44 137.5 137.503 137.248 136.481C136.996 135.459 136.575 134.352 136.029 133.159C135.44 132.01 134.726 130.775 133.759 129.625C133.381 129.157 132.96 128.731 132.54 128.262C133.213 125.58 131.741 123.238 131.741 123.238C129.177 123.067 127.58 124.047 126.992 124.473C126.908 124.43 126.782 124.387 126.698 124.345C126.277 124.174 125.815 124.004 125.352 123.834C124.89 123.706 124.428 123.536 123.965 123.451C123.503 123.323 122.999 123.238 122.494 123.152C122.41 123.152 122.326 123.11 122.242 123.11C121.149 119.533 117.955 118 117.955 118C114.298 120.385 113.583 123.578 113.583 123.578C113.583 123.578 113.583 123.663 113.541 123.749C113.331 123.791 113.163 123.876 112.953 123.919C112.701 124.004 112.406 124.089 112.154 124.217C111.902 124.345 111.608 124.43 111.356 124.558C110.809 124.813 110.305 125.069 109.758 125.367C109.254 125.665 108.749 125.963 108.287 126.304C108.203 126.261 108.161 126.218 108.161 126.218C103.243 124.302 98.8717 126.602 98.8717 126.602C98.4934 131.924 100.847 135.246 101.31 135.842C101.184 136.183 101.099 136.481 100.973 136.821C100.595 138.014 100.343 139.249 100.175 140.526C100.133 140.696 100.133 140.909 100.091 141.08C95.5511 143.337 94.2061 148.021 94.2061 148.021C97.989 152.449 102.445 152.705 102.445 152.705C102.991 153.727 103.663 154.706 104.378 155.6C104.672 155.984 105.009 156.324 105.345 156.707C103.958 160.71 105.555 164.074 105.555 164.074C109.8 164.245 112.574 162.201 113.163 161.732C113.583 161.86 114.004 161.988 114.424 162.115C115.727 162.456 117.072 162.669 118.375 162.712C118.711 162.712 119.048 162.712 119.384 162.712H119.552H119.678H119.888H120.098C122.074 165.607 125.605 165.99 125.605 165.99C128.085 163.308 128.253 160.71 128.253 160.114C128.253 160.114 128.253 160.114 128.253 160.071C128.253 160.029 128.253 159.986 128.253 159.986C128.253 159.944 128.253 159.901 128.253 159.859C128.757 159.475 129.262 159.092 129.766 158.666C130.775 157.772 131.615 156.707 132.372 155.6C132.456 155.515 132.498 155.387 132.582 155.302C135.398 155.473 137.374 153.514 137.374 153.514C136.912 150.533 135.23 149.085 134.894 148.83C134.894 148.83 134.894 148.83 134.852 148.787L134.81 148.745L134.768 148.702C134.768 148.532 134.81 148.361 134.81 148.148C134.852 147.808 134.852 147.51 134.852 147.169V146.913V146.786V146.743C134.852 146.658 134.852 146.701 134.852 146.658V146.445V146.19C134.852 146.104 134.852 146.019 134.852 145.934C134.852 145.849 134.852 145.764 134.81 145.679L134.768 145.423L134.726 145.168C134.684 144.827 134.6 144.529 134.558 144.188C134.263 142.911 133.759 141.676 133.129 140.611C132.456 139.504 131.657 138.567 130.733 137.716C129.808 136.907 128.799 136.225 127.706 135.757C126.613 135.246 125.521 134.948 124.386 134.82C123.839 134.735 123.251 134.735 122.704 134.735H122.494H122.452H122.368H122.284H122.074C121.99 134.735 121.906 134.735 121.864 134.735C121.57 134.777 121.275 134.82 121.023 134.863C119.888 135.076 118.837 135.501 117.913 136.055C116.988 136.609 116.189 137.332 115.517 138.141C114.844 138.951 114.34 139.802 114.004 140.739C113.667 141.633 113.457 142.613 113.415 143.507C113.415 143.72 113.415 143.975 113.415 144.188C113.415 144.231 113.415 144.316 113.415 144.359V144.529C113.415 144.657 113.415 144.742 113.457 144.87C113.499 145.338 113.583 145.764 113.709 146.19C113.962 147.041 114.34 147.808 114.844 148.489C115.349 149.17 115.895 149.681 116.526 150.107C117.156 150.533 117.787 150.831 118.459 151.044C119.132 151.257 119.762 151.342 120.351 151.299C120.435 151.299 120.519 151.299 120.561 151.299C120.603 151.299 120.645 151.299 120.687 151.299C120.729 151.299 120.771 151.299 120.813 151.299C120.897 151.299 120.939 151.299 121.023 151.299H121.065H121.107C121.149 151.299 121.191 151.299 121.233 151.299C121.317 151.299 121.401 151.257 121.443 151.257C121.527 151.257 121.57 151.214 121.654 151.214C121.78 151.172 121.948 151.129 122.074 151.087C122.326 151.001 122.578 150.874 122.831 150.788C123.083 150.661 123.293 150.533 123.461 150.405C123.503 150.363 123.587 150.32 123.629 150.277C123.839 150.107 123.881 149.809 123.713 149.596C123.545 149.426 123.293 149.383 123.083 149.468C123.041 149.511 122.999 149.511 122.915 149.554C122.746 149.639 122.536 149.724 122.368 149.766C122.158 149.809 121.948 149.894 121.738 149.937C121.612 149.937 121.527 149.979 121.401 149.979C121.359 149.979 121.275 149.979 121.233 149.979C121.191 149.979 121.107 149.979 121.065 149.979C121.023 149.979 120.939 149.979 120.897 149.979C120.813 149.979 120.771 149.979 120.687 149.979C120.687 149.979 120.645 149.979 120.687 149.979H120.645H120.603C120.561 149.979 120.561 149.979 120.519 149.979C120.477 149.979 120.393 149.979 120.351 149.937C119.888 149.852 119.384 149.724 118.921 149.511C118.459 149.298 117.997 149 117.618 148.617C117.198 148.234 116.862 147.808 116.568 147.297C116.273 146.786 116.105 146.232 116.021 145.679C115.979 145.38 115.937 145.082 115.979 144.784C115.979 144.699 115.979 144.614 115.979 144.529C115.979 144.571 115.979 144.529 115.979 144.529V144.486V144.444C115.979 144.401 115.979 144.359 115.979 144.316C115.979 144.146 116.021 144.018 116.063 143.848C116.273 142.57 116.904 141.335 117.871 140.398C118.123 140.143 118.375 139.93 118.669 139.76C118.963 139.547 119.258 139.376 119.552 139.249C119.846 139.121 120.182 138.993 120.519 138.908C120.855 138.823 121.191 138.738 121.527 138.738C121.696 138.738 121.864 138.695 122.032 138.695C122.074 138.695 122.116 138.695 122.158 138.695H122.284H122.368C122.41 138.695 122.368 138.695 122.368 138.695H122.41H122.536C122.915 138.738 123.293 138.78 123.629 138.865C124.344 139.036 125.058 139.291 125.731 139.674C127.076 140.441 128.211 141.591 128.883 142.996C129.22 143.677 129.472 144.444 129.598 145.253C129.64 145.466 129.64 145.636 129.682 145.849V145.977V146.104C129.682 146.147 129.682 146.19 129.682 146.232C129.682 146.275 129.682 146.317 129.682 146.36V146.488V146.615C129.682 146.701 129.682 146.871 129.682 146.956C129.682 147.169 129.64 147.382 129.64 147.595C129.598 147.808 129.598 148.021 129.556 148.234C129.514 148.446 129.472 148.659 129.43 148.872C129.346 149.298 129.177 149.681 129.051 150.107C128.757 150.916 128.337 151.683 127.832 152.364C126.824 153.769 125.437 154.919 123.881 155.643C123.083 155.984 122.284 156.282 121.443 156.409C121.023 156.495 120.603 156.537 120.182 156.537H120.098H120.014H119.888H119.678H119.552C119.594 156.537 119.552 156.537 119.552 156.537H119.51C119.3 156.537 119.048 156.537 118.837 156.495C117.913 156.409 117.03 156.239 116.147 155.984C115.265 155.728 114.424 155.387 113.625 154.962C112.028 154.11 110.599 152.875 109.464 151.47C108.918 150.746 108.413 149.979 107.993 149.17C107.573 148.361 107.278 147.51 107.026 146.658C106.774 145.806 106.648 144.912 106.606 144.018V143.848V143.805V143.762V143.677V143.549V143.507V143.464V143.379V143.166V143.124V143.038C106.606 142.911 106.606 142.826 106.606 142.698C106.606 142.272 106.648 141.804 106.732 141.335C106.774 140.867 106.858 140.441 106.942 139.973C107.026 139.504 107.152 139.078 107.278 138.61C107.531 137.716 107.825 136.864 108.203 136.055C108.96 134.437 109.926 132.989 111.061 131.839C111.356 131.541 111.65 131.286 111.986 131.03C112.112 130.902 112.406 130.647 112.743 130.434C113.079 130.221 113.415 130.008 113.793 129.838C113.962 129.753 114.13 129.668 114.34 129.582C114.424 129.54 114.508 129.497 114.634 129.455C114.718 129.412 114.802 129.37 114.928 129.327C115.307 129.157 115.685 129.029 116.063 128.901C116.147 128.859 116.273 128.859 116.357 128.816C116.441 128.773 116.568 128.773 116.652 128.731C116.862 128.688 117.03 128.646 117.24 128.56C117.324 128.518 117.45 128.518 117.534 128.475C117.618 128.475 117.745 128.433 117.829 128.433C117.913 128.433 118.039 128.39 118.123 128.39L118.291 128.348L118.459 128.305C118.543 128.305 118.669 128.262 118.753 128.262C118.879 128.262 118.963 128.22 119.09 128.22C119.174 128.22 119.342 128.177 119.426 128.177C119.51 128.177 119.552 128.177 119.636 128.135H119.762H119.846H119.93C120.056 128.135 120.14 128.135 120.266 128.092H120.435C120.435 128.092 120.477 128.092 120.435 128.092H120.477H120.561C120.645 128.092 120.771 128.092 120.855 128.092C121.233 128.092 121.612 128.092 121.99 128.092C122.746 128.135 123.503 128.22 124.218 128.348C125.647 128.603 127.034 129.071 128.253 129.71C129.472 130.306 130.607 131.073 131.531 131.882C131.573 131.924 131.657 131.967 131.699 132.052C131.741 132.095 131.826 132.137 131.868 132.223C131.994 132.308 132.078 132.435 132.204 132.521C132.33 132.606 132.414 132.734 132.54 132.819C132.624 132.946 132.75 133.032 132.834 133.159C133.255 133.585 133.633 134.054 133.969 134.479C134.642 135.374 135.188 136.268 135.609 137.12C135.651 137.162 135.651 137.205 135.693 137.29C135.735 137.332 135.735 137.375 135.777 137.46C135.819 137.545 135.861 137.673 135.945 137.758C135.987 137.843 136.029 137.971 136.071 138.056C136.113 138.141 136.155 138.269 136.197 138.354C136.365 138.738 136.491 139.121 136.617 139.504C136.827 140.1 136.954 140.611 137.08 141.037C137.122 141.207 137.29 141.335 137.458 141.335C137.668 141.335 137.794 141.165 137.794 140.952C137.752 140.441 137.752 139.887 137.71 139.249Z" fill="url(#paint2_linear)"/>
  </g>
</g>

</g>
<defs>

<filter id="filter0_dd" x="304" y="25.5" width="193" height="193" filterUnits="userSpaceOnUse" color-interpolation-filters="sRGB">
  <feFlood flood-opacity="0" result="BackgroundImageFix"/>
  <feColorMatrix in="SourceAlpha" type="matrix" values="0 0 0 0 0 0 0 0 0 0 0 0 0 0 0 0 0 0 127 0"/>
  <feOffset dy="3"/>
  <feGaussianBlur stdDeviation="2"/>
  <feColorMatrix type="matrix" values="0 0 0 0 0 0 0 0 0 0 0 0 0 0 0 0 0 0 0.1 0"/>
  <feBlend mode="normal" in2="BackgroundImageFix" result="effect1_dropShadow"/>
  <feColorMatrix in="SourceAlpha" type="matrix" values="0 0 0 0 0 0 0 0 0 0 0 0 0 0 0 0 0 0 127 0"/>
  <feOffset dy="4"/>
  <feGaussianBlur stdDeviation="17"/>
  <feColorMatrix type="matrix" values="0 0 0 0 0 0 0 0 0 0 0 0 0 0 0 0 0 0 0.04 0"/>
  <feBlend mode="normal" in2="effect1_dropShadow" result="effect2_dropShadow"/>
  <feBlend mode="normal" in="SourceGraphic" in2="effect2_dropShadow" result="shape"/>
</filter>

<filter id="filter1_dd" x="163" y="0" width="146" height="146" filterUnits="userSpaceOnUse" color-interpolation-filters="sRGB">
  <feFlood flood-opacity="0" result="BackgroundImageFix"/>
  <feColorMatrix in="SourceAlpha" type="matrix" values="0 0 0 0 0 0 0 0 0 0 0 0 0 0 0 0 0 0 127 0"/>
  <feOffset dy="3"/>
  <feGaussianBlur stdDeviation="2"/>
  <feColorMatrix type="matrix" values="0 0 0 0 0 0 0 0 0 0 0 0 0 0 0 0 0 0 0.1 0"/>
  <feBlend mode="normal" in2="BackgroundImageFix" result="effect1_dropShadow"/>
  <feColorMatrix in="SourceAlpha" type="matrix" values="0 0 0 0 0 0 0 0 0 0 0 0 0 0 0 0 0 0 127 0"/>
  <feOffset dy="4"/>
  <feGaussianBlur stdDeviation="17"/>
  <feColorMatrix type="matrix" values="0 0 0 0 0 0 0 0 0 0 0 0 0 0 0 0 0 0 0.04 0"/>
  <feBlend mode="normal" in2="effect1_dropShadow" result="effect2_dropShadow"/>
  <feBlend mode="normal" in="SourceGraphic" in2="effect2_dropShadow" result="shape"/>
</filter>

<filter id="filter2_dd" x="188" y="316" width="146" height="146" filterUnits="userSpaceOnUse" color-interpolation-filters="sRGB">
  <feFlood flood-opacity="0" result="BackgroundImageFix"/>
  <feColorMatrix in="SourceAlpha" type="matrix" values="0 0 0 0 0 0 0 0 0 0 0 0 0 0 0 0 0 0 127 0"/>
  <feOffset dy="3"/>
  <feGaussianBlur stdDeviation="2"/>
  <feColorMatrix type="matrix" values="0 0 0 0 0 0 0 0 0 0 0 0 0 0 0 0 0 0 0.1 0"/>
  <feBlend mode="normal" in2="BackgroundImageFix" result="effect1_dropShadow"/>
  <feColorMatrix in="SourceAlpha" type="matrix" values="0 0 0 0 0 0 0 0 0 0 0 0 0 0 0 0 0 0 127 0"/>
  <feOffset dy="4"/>
  <feGaussianBlur stdDeviation="17"/>
  <feColorMatrix type="matrix" values="0 0 0 0 0 0 0 0 0 0 0 0 0 0 0 0 0 0 0.04 0"/>
  <feBlend mode="normal" in2="effect1_dropShadow" result="effect2_dropShadow"/>
  <feBlend mode="normal" in="SourceGraphic" in2="effect2_dropShadow" result="shape"/>
</filter>

<filter id="filter3_dd" x="0" y="227" width="195" height="195" filterUnits="userSpaceOnUse" color-interpolation-filters="sRGB">
  <feFlood flood-opacity="0" result="BackgroundImageFix"/>
  <feColorMatrix in="SourceAlpha" type="matrix" values="0 0 0 0 0 0 0 0 0 0 0 0 0 0 0 0 0 0 127 0"/>
  <feOffset dy="3"/>
  <feGaussianBlur stdDeviation="2"/>
  <feColorMatrix type="matrix" values="0 0 0 0 0 0 0 0 0 0 0 0 0 0 0 0 0 0 0.1 0"/>
  <feBlend mode="normal" in2="BackgroundImageFix" result="effect1_dropShadow"/>
  <feColorMatrix in="SourceAlpha" type="matrix" values="0 0 0 0 0 0 0 0 0 0 0 0 0 0 0 0 0 0 127 0"/>
  <feOffset dy="4"/>
  <feGaussianBlur stdDeviation="17"/>
  <feColorMatrix type="matrix" values="0 0 0 0 0 0 0 0 0 0 0 0 0 0 0 0 0 0 0.04 0"/>
  <feBlend mode="normal" in2="effect1_dropShadow" result="effect2_dropShadow"/>
  <feBlend mode="normal" in="SourceGraphic" in2="effect2_dropShadow" result="shape"/>
</filter>

<filter id="filter4_dd" x="315" y="244" width="182" height="182" filterUnits="userSpaceOnUse" color-interpolation-filters="sRGB">
  <feFlood flood-opacity="0" result="BackgroundImageFix"/>
  <feColorMatrix in="SourceAlpha" type="matrix" values="0 0 0 0 0 0 0 0 0 0 0 0 0 0 0 0 0 0 127 0"/>
  <feOffset dy="3"/>
  <feGaussianBlur stdDeviation="2"/>
  <feColorMatrix type="matrix" values="0 0 0 0 0 0 0 0 0 0 0 0 0 0 0 0 0 0 0.1 0"/>
  <feBlend mode="normal" in2="BackgroundImageFix" result="effect1_dropShadow"/>
  <feColorMatrix in="SourceAlpha" type="matrix" values="0 0 0 0 0 0 0 0 0 0 0 0 0 0 0 0 0 0 127 0"/>
  <feOffset dy="4"/>
  <feGaussianBlur stdDeviation="17"/>
  <feColorMatrix type="matrix" values="0 0 0 0 0 0 0 0 0 0 0 0 0 0 0 0 0 0 0.04 0"/>
  <feBlend mode="normal" in2="effect1_dropShadow" result="effect2_dropShadow"/>
  <feBlend mode="normal" in="SourceGraphic" in2="effect2_dropShadow" result="shape"/>
</filter>

<filter id="filter5_dd" x="26" y="65" width="182" height="182" filterUnits="userSpaceOnUse" color-interpolation-filters="sRGB">
  <feFlood flood-opacity="0" result="BackgroundImageFix"/>
  <feColorMatrix in="SourceAlpha" type="matrix" values="0 0 0 0 0 0 0 0 0 0 0 0 0 0 0 0 0 0 127 0"/>
  <feOffset dy="3"/>
  <feGaussianBlur stdDeviation="2"/>
  <feColorMatrix type="matrix" values="0 0 0 0 0 0 0 0 0 0 0 0 0 0 0 0 0 0 0.1 0"/>
  <feBlend mode="normal" in2="BackgroundImageFix" result="effect1_dropShadow"/>
  <feColorMatrix in="SourceAlpha" type="matrix" values="0 0 0 0 0 0 0 0 0 0 0 0 0 0 0 0 0 0 127 0"/>
  <feOffset dy="4"/>
  <feGaussianBlur stdDeviation="17"/>
  <feColorMatrix type="matrix" values="0 0 0 0 0 0 0 0 0 0 0 0 0 0 0 0 0 0 0.04 0"/>
  <feBlend mode="normal" in2="effect1_dropShadow" result="effect2_dropShadow"/>
  <feBlend mode="normal" in="SourceGraphic" in2="effect2_dropShadow" result="shape"/>
</filter>

<radialGradient id="paint0_radial" cx="0" cy="0" r="1" gradientUnits="userSpaceOnUse" gradientTransform="translate(261 308.5) rotate(90) scale(14.5 115)">
  <stop stop-color="#C4C4C4"/>
  <stop offset="1" stop-color="#C4C4C4" stop-opacity="0"/>
</radialGradient>

<radialGradient id="paint1_radial" cx="0" cy="0" r="1" gradientUnits="userSpaceOnUse" gradientTransform="translate(261 308.5) rotate(90) scale(4.5 59)">
  <stop stop-color="#C4C4C4"/>
  <stop offset="1" stop-color="#C4C4C4" stop-opacity="0"/>
</radialGradient>

<linearGradient id="paint2_linear" x1="116" y1="176.811" x2="116" y2="133.014" gradientUnits="userSpaceOnUse">
  <stop stop-color="#FCEE1F"/>
  <stop offset="1" stop-color="#F15B2A"/>
</linearGradient>

</defs>

</svg>
