<svg width="1099" height="598" viewBox="0 0 1099 598" fill="none" xmlns="http://www.w3.org/2000/svg">
<path d="M352 507L369 507L369 312.5M352 118L369 118L369 312.5M369 312.5L441 312.5" stroke="#D1D1D1" stroke-width="2"/>
<path d="M458 508L441 508L441 313.5L441 119L458 119" stroke="#D1D1D1" stroke-width="2"/>
<path d="M931.443 312.643L923.6 314.336C919.579 315.167 919.958 316.512 920.235 331.002C920.366 337.83 918.745 347.273 922.531 346.244C922.887 345.887 933.582 342.768 933.582 342.768C935.942 339.69 940.337 318.566 931.443 312.643V312.643Z" fill="#585858"/>
<path d="M976.229 326.124L975.516 336.462C974.273 339.953 964.032 340.084 963.128 336.551C963.227 333.105 963.236 329.659 963.217 326.213L976.229 326.124Z" fill="#5A5A5A"/>
<path d="M928.621 328.293V333.311C928.621 333.311 929.802 337.739 929.359 338.773C928.916 339.806 925.964 345.562 925.964 345.562L932.311 343.643L934.377 338.33L936.148 332.278L928.621 328.293Z" fill="url(#paint0_linear)"/>
<path d="M932.78 334.657L963.44 336.529C966.336 334.389 966.804 331.387 963.351 326.992L932.156 323.784C927.567 325.537 927.81 335.222 932.78 334.657V334.657Z" fill="#4D4D4D"/>
<path d="M969.767 327.527C966.174 327.527 963.261 326.948 963.261 326.235C963.261 325.521 966.174 324.942 969.767 324.942C973.36 324.942 976.273 325.521 976.273 326.235C976.273 326.948 973.36 327.527 969.767 327.527Z" fill="#818181"/>
<path d="M975.918 325.656L975.739 313.089L963.44 303.73L963.529 326.101C966.167 326.758 970.942 327.928 975.918 325.656H975.918Z" fill="#737373"/>
<path d="M1022.41 298.027C1025.93 300.26 1019.87 312.58 1018.08 318.943L1016.87 319.215L962.936 287.579L967.006 281.602L1022.41 298.027Z" fill="#202020"/>
<path opacity="0.668471" d="M940.561 324.672C953.15 327.185 962.023 330.96 965.081 335.133C968.566 337.237 971.818 336.907 975.741 336.732L976.274 326.538L974.009 317.809L963.218 309.351C963.218 309.351 963.599 325.472 963.399 325.805C962.916 326.279 963.046 326.903 963.046 326.903C960.574 326.79 946.084 325.224 940.561 324.672H940.561Z" fill="url(#paint1_linear)"/>
<path d="M1021.73 297.939C1025.02 300.437 1018.64 312.649 1016.84 319.012L961.704 287.648L968.659 277.974L1021.73 297.939Z" fill="#3B3B3B"/>
<path d="M968.702 279.507C969.155 279.498 969.569 279.611 969.917 279.82C969.919 279.821 969.92 279.824 969.922 279.825C970.865 280.222 1011.91 297.523 1012.53 297.488L976.31 326.914L942.803 298.85C942.802 298.849 942.8 298.847 942.798 298.846C941.879 298.365 941.348 297.237 941.525 295.865L942.94 284.931C943.187 283.018 944.706 281.377 946.35 281.248L968.552 279.515C968.604 279.511 968.651 279.508 968.702 279.507Z" fill="#A0A0A0"/>
<path d="M980.639 299.288L1010.48 296.856C1012.68 296.676 1014.22 298.931 1013.91 301.892L1012.14 318.872C1011.83 321.833 1009.8 324.378 1007.59 324.558L977.752 326.99C975.549 327.17 974.014 324.915 974.322 321.955L976.092 304.974C976.4 302.014 978.436 299.468 980.639 299.288Z" fill="#7B7B7B"/>
<path d="M983.082 301.578L1007.51 299.587C1009.32 299.439 1010.58 301.285 1010.32 303.71L1008.87 317.612C1008.62 320.037 1006.95 322.121 1005.15 322.268L980.718 324.259C978.915 324.406 977.657 322.56 977.91 320.136L979.359 306.234C979.611 303.809 981.278 301.725 983.082 301.578Z" fill="url(#paint2_linear)"/>
<path d="M983.33 301.769L1006.27 299.869C1007.97 299.728 1009.15 301.49 1008.91 303.803L1007.55 317.069C1007.31 319.382 1005.75 321.371 1004.05 321.511L981.11 323.412C979.417 323.552 978.236 321.791 978.473 319.477L979.834 306.211C980.071 303.898 981.636 301.909 983.33 301.769Z" fill="#494949"/>
<path d="M1013.19 308.748C1013.19 308.748 995.239 308.247 986.534 310.075C985.185 310.358 983.85 310.833 982.671 311.546C980.032 313.143 975.475 319.009 975.475 319.009L974.509 319.275L978.007 301.152L1013.85 298.887L1013.19 308.748Z" fill="url(#paint3_linear)"/>
<path d="M968.776 278.515C969.279 278.505 969.739 278.63 970.125 278.863C970.125 278.865 970.125 278.866 970.135 278.868C971.071 279.263 1012.57 294.639 1021.82 297.957C1022.93 298.354 1023.12 298.884 1023.2 298.879C1023.2 298.879 1001.16 299.35 988.242 300.514C985.947 300.721 983.007 301.432 982.014 303.511C980.04 307.638 978.061 315.86 977.814 315.715L976.598 315.766L940.159 288.529L940.168 284.539C940.442 282.415 942.13 280.592 943.956 280.449L968.615 278.525C968.672 278.52 968.725 278.516 968.781 278.515L968.776 278.515Z" fill="#202020"/>
<g filter="url(#filter0_f)">
<path d="M974.543 320.141C973.543 319.942 941.761 293.823 941.761 293.823L942.96 286.827L976.675 304.417L974.543 320.141Z" fill="url(#paint4_linear)"/>
</g>
<path d="M967.799 277.642C968.303 277.632 968.763 277.758 969.149 277.99C969.149 277.992 969.149 277.994 969.159 277.996C970.206 278.438 1021.91 298.024 1022.6 297.986C1022.6 297.986 1000.19 298.477 987.266 299.641C984.971 299.848 982.031 300.56 981.037 302.638C979.064 306.766 976.76 315.965 976.513 315.82L939.183 287.656L939.192 283.667C939.466 281.542 941.154 279.719 942.98 279.577L967.639 277.652C967.696 277.648 967.749 277.644 967.804 277.643L967.799 277.642Z" fill="#6E6E6E"/>
<path d="M993.865 320.874C988.419 320.874 984.242 316.519 984.537 311.146C984.831 305.774 989.485 301.418 994.931 301.418C1000.38 301.418 1004.55 305.774 1004.26 311.146C1003.96 316.519 999.311 320.874 993.865 320.874Z" fill="#121212"/>
<path opacity="0.668471" d="M993.071 319.895C988.359 319.895 984.747 316.127 985.001 311.48C985.256 306.832 989.282 303.064 993.993 303.064C998.704 303.064 1002.32 306.832 1002.06 311.48C1001.81 316.127 997.782 319.895 993.071 319.895Z" fill="url(#paint5_radial)"/>
<path d="M983.632 322.283C981.951 322.283 980.588 320.92 980.588 319.239C980.588 317.558 981.951 316.195 983.632 316.195C985.313 316.195 986.676 317.558 986.676 319.239C986.676 320.92 985.313 322.283 983.632 322.283Z" fill="url(#paint6_linear)"/>
<path d="M983.398 321.783C981.993 321.783 980.854 320.644 980.854 319.239C980.854 317.834 981.993 316.695 983.398 316.695C984.803 316.695 985.942 317.834 985.942 319.239C985.942 320.644 984.803 321.783 983.398 321.783Z" fill="url(#paint7_radial)"/>
<path d="M984.902 318.998C984.619 319.153 984.197 318.925 983.959 318.489C983.72 318.053 983.756 317.574 984.038 317.42C984.321 317.265 984.743 317.493 984.982 317.929C985.22 318.365 985.184 318.844 984.902 318.998Z" fill="#FF3636" fill-opacity="0.428571"/>
<path opacity="0.668471" d="M993.198 318.885L992.492 315.492C994.226 315.005 995.999 314.771 997.25 311.064C997.25 311.064 1001.35 310.969 1001.3 311.158C1001.36 314.67 997.866 318.977 993.198 318.885V318.885Z" fill="url(#paint8_linear)"/>
<path d="M991.583 297.988C991.583 297.988 976.345 295.066 974.884 294.44C973.423 293.814 973.148 292.172 969.1 291.151C965.022 290.122 961.948 287.811 961.948 287.811L956.097 284.838L946.287 279.411L941.486 280.246C941.486 280.246 939.398 281.081 939.398 282.124C939.398 283.168 938.772 287.134 938.772 287.134L976.554 315.731L980.311 302.789L983.025 300.076L991.583 297.988Z" fill="url(#paint9_linear)"/>
<path d="M1021.91 297.739L968.917 278.109L967.305 277.914L958.584 279.142L955.78 278.847C955.78 278.847 952.385 279.732 954.894 280.47C957.404 281.208 964.489 280.765 965.817 280.913C967.145 281.061 969.802 281.503 970.983 282.241C972.164 282.979 973.64 283.865 974.378 284.308C975.116 284.751 978.658 285.489 980.577 285.784C982.496 286.079 984.415 285.636 985.596 286.965C986.776 288.293 987.367 290.507 988.843 291.097C990.319 291.688 993.418 291.688 994.894 291.54C996.37 291.393 997.108 291.097 997.699 291.245C998.289 291.393 1000.5 291.393 1001.68 291.688C1002.86 291.983 1005.23 293.607 1008.92 294.492C1012.61 295.378 1021.91 297.739 1021.91 297.739V297.739Z" fill="#656565" fill-opacity="0.579439"/>
<path d="M993.271 299.068H987.219C987.219 299.068 982.348 299.511 980.577 298.625C978.806 297.74 974.082 296.116 973.492 295.526C972.902 294.935 969.064 294.345 968.326 294.493C967.588 294.64 966.702 295.231 966.555 296.707C966.407 298.183 962.717 299.068 962.717 299.068C962.717 299.068 962.717 303.201 962.865 303.939C963.012 304.677 959.913 304.677 959.322 301.577C958.732 298.478 960.503 296.411 960.651 295.083C960.798 293.755 960.503 292.721 960.503 291.836C960.503 290.95 961.979 288.293 962.127 287.408C962.274 286.522 964.341 288.588 965.226 289.326C966.112 290.064 968.916 291.245 970.54 291.54C972.164 291.836 973.344 292.279 976.592 293.164C979.839 294.05 976.444 294.493 981.905 294.788C987.367 295.083 994.451 296.264 995.927 296.411C997.403 296.559 998.879 296.264 1002.57 296.264C1006.26 296.264 1022.05 297.887 1022.05 297.887L993.271 299.068Z" fill="#656565" fill-opacity="0.579439"/>
<path d="M927.443 207.643L919.6 209.336C915.579 210.167 915.958 211.512 916.235 226.002C916.366 232.83 914.745 242.273 918.531 241.244C918.887 240.887 929.582 237.768 929.582 237.768C931.942 234.69 936.337 213.566 927.443 207.643V207.643Z" fill="#585858"/>
<path d="M972.229 221.124L971.516 231.462C970.273 234.953 960.032 235.084 959.128 231.551C959.227 228.105 959.236 224.659 959.217 221.213L972.229 221.124Z" fill="#5A5A5A"/>
<path d="M924.621 223.293V228.311C924.621 228.311 925.802 232.739 925.359 233.773C924.916 234.806 921.964 240.562 921.964 240.562L928.311 238.643L930.377 233.33L932.148 227.278L924.621 223.293Z" fill="url(#paint10_linear)"/>
<path d="M928.78 229.657L959.44 231.529C962.336 229.389 962.804 226.387 959.351 221.992L928.156 218.784C923.567 220.537 923.81 230.222 928.78 229.657V229.657Z" fill="#4D4D4D"/>
<path d="M965.767 222.527C962.174 222.527 959.261 221.948 959.261 221.235C959.261 220.521 962.174 219.942 965.767 219.942C969.36 219.942 972.273 220.521 972.273 221.235C972.273 221.948 969.36 222.527 965.767 222.527Z" fill="#818181"/>
<path d="M971.918 220.656L971.739 208.089L959.44 198.73L959.529 221.101C962.167 221.758 966.942 222.928 971.918 220.656H971.918Z" fill="#737373"/>
<path d="M1018.41 193.027C1021.93 195.26 1015.87 207.58 1014.08 213.943L1012.87 214.215L958.936 182.579L963.006 176.602L1018.41 193.027Z" fill="#202020"/>
<path opacity="0.668471" d="M936.561 219.672C949.15 222.185 958.023 225.96 961.081 230.133C964.566 232.237 967.818 231.907 971.741 231.732L972.274 221.538L970.009 212.809L959.218 204.351C959.218 204.351 959.599 220.472 959.399 220.805C958.916 221.279 959.046 221.903 959.046 221.903C956.574 221.79 942.084 220.224 936.561 219.672H936.561Z" fill="url(#paint11_linear)"/>
<path d="M1017.73 192.939C1021.02 195.437 1014.64 207.649 1012.84 214.012L957.704 182.648L964.659 172.974L1017.73 192.939Z" fill="#3B3B3B"/>
<path d="M964.702 174.507C965.155 174.498 965.569 174.611 965.917 174.82C965.919 174.821 965.92 174.824 965.922 174.825C966.865 175.222 1007.91 192.523 1008.53 192.488L972.31 221.914L938.803 193.85C938.802 193.849 938.8 193.847 938.798 193.846C937.879 193.365 937.348 192.237 937.525 190.865L938.94 179.931C939.187 178.018 940.706 176.377 942.35 176.248L964.552 174.515C964.604 174.511 964.651 174.508 964.702 174.507Z" fill="#A0A0A0"/>
<path d="M976.639 194.288L1006.48 191.856C1008.68 191.676 1010.22 193.931 1009.91 196.892L1008.14 213.872C1007.83 216.833 1005.8 219.378 1003.59 219.558L973.752 221.99C971.549 222.17 970.014 219.915 970.322 216.955L972.092 199.974C972.4 197.014 974.436 194.468 976.639 194.288Z" fill="#7B7B7B"/>
<path d="M979.082 196.578L1003.51 194.587C1005.32 194.439 1006.58 196.285 1006.32 198.71L1004.87 212.612C1004.62 215.037 1002.95 217.121 1001.15 217.268L976.718 219.259C974.915 219.406 973.657 217.56 973.91 215.136L975.359 201.234C975.611 198.809 977.278 196.725 979.082 196.578Z" fill="url(#paint12_linear)"/>
<path d="M979.33 196.769L1002.27 194.869C1003.97 194.728 1005.15 196.49 1004.91 198.803L1003.55 212.069C1003.31 214.382 1001.75 216.371 1000.05 216.511L977.11 218.412C975.417 218.552 974.236 216.791 974.473 214.477L975.834 201.211C976.071 198.898 977.636 196.909 979.33 196.769Z" fill="#494949"/>
<path d="M1009.19 203.748C1009.19 203.748 991.239 203.247 982.534 205.075C981.185 205.358 979.85 205.833 978.671 206.546C976.032 208.143 971.475 214.009 971.475 214.009L970.509 214.275L974.007 196.152L1009.85 193.887L1009.19 203.748Z" fill="url(#paint13_linear)"/>
<path d="M964.776 173.515C965.279 173.505 965.739 173.63 966.125 173.863C966.125 173.865 966.125 173.866 966.135 173.868C967.071 174.263 1008.57 189.639 1017.82 192.957C1018.93 193.354 1019.12 193.884 1019.2 193.879C1019.2 193.879 997.163 194.35 984.242 195.514C981.947 195.721 979.007 196.432 978.014 198.511C976.04 202.638 974.061 210.86 973.814 210.715L972.598 210.766L936.159 183.529L936.168 179.539C936.442 177.415 938.13 175.592 939.956 175.449L964.615 173.525C964.672 173.52 964.725 173.516 964.781 173.515L964.776 173.515Z" fill="#202020"/>
<g filter="url(#filter1_f)">
<path d="M970.543 215.141C969.543 214.942 937.761 188.823 937.761 188.823L938.96 181.827L972.675 199.417L970.543 215.141Z" fill="url(#paint14_linear)"/>
</g>
<path d="M963.799 172.642C964.303 172.632 964.763 172.758 965.149 172.99C965.149 172.992 965.149 172.994 965.159 172.996C966.206 173.438 1017.91 193.024 1018.6 192.986C1018.6 192.986 996.186 193.477 983.266 194.641C980.971 194.848 978.031 195.56 977.037 197.638C975.064 201.766 972.76 210.965 972.513 210.82L935.183 182.656L935.192 178.667C935.466 176.542 937.154 174.719 938.98 174.577L963.639 172.652C963.696 172.648 963.749 172.644 963.804 172.643L963.799 172.642Z" fill="#6E6E6E"/>
<path d="M989.865 215.874C984.419 215.874 980.242 211.519 980.537 206.146C980.831 200.774 985.485 196.418 990.931 196.418C996.377 196.418 1000.55 200.774 1000.26 206.146C999.965 211.519 995.311 215.874 989.865 215.874Z" fill="#121212"/>
<path opacity="0.668471" d="M989.071 214.895C984.359 214.895 980.747 211.127 981.001 206.48C981.256 201.832 985.282 198.064 989.993 198.064C994.704 198.064 998.317 201.832 998.062 206.48C997.808 211.127 993.782 214.895 989.071 214.895Z" fill="url(#paint15_radial)"/>
<path d="M979.632 217.283C977.951 217.283 976.588 215.92 976.588 214.239C976.588 212.558 977.951 211.195 979.632 211.195C981.313 211.195 982.676 212.558 982.676 214.239C982.676 215.92 981.313 217.283 979.632 217.283Z" fill="url(#paint16_linear)"/>
<path d="M979.398 216.783C977.993 216.783 976.854 215.644 976.854 214.239C976.854 212.834 977.993 211.695 979.398 211.695C980.803 211.695 981.942 212.834 981.942 214.239C981.942 215.644 980.803 216.783 979.398 216.783Z" fill="url(#paint17_radial)"/>
<path d="M980.902 213.998C980.619 214.153 980.197 213.925 979.959 213.489C979.72 213.053 979.756 212.574 980.038 212.42C980.321 212.265 980.743 212.493 980.982 212.929C981.22 213.365 981.184 213.844 980.902 213.998Z" fill="#FF3636" fill-opacity="0.428571"/>
<path opacity="0.668471" d="M989.198 213.885L988.492 210.492C990.226 210.005 991.999 209.771 993.25 206.064C993.25 206.064 997.349 205.969 997.302 206.158C997.364 209.67 993.866 213.977 989.198 213.885V213.885Z" fill="url(#paint18_linear)"/>
<path d="M987.583 192.988C987.583 192.988 972.345 190.066 970.884 189.44C969.423 188.814 969.148 187.172 965.1 186.151C961.022 185.122 957.948 182.811 957.948 182.811L952.097 179.838L942.287 174.411L937.486 175.246C937.486 175.246 935.398 176.081 935.398 177.124C935.398 178.168 934.772 182.134 934.772 182.134L972.554 210.731L976.311 197.789L979.025 195.076L987.583 192.988Z" fill="url(#paint19_linear)"/>
<path d="M1017.91 192.739L964.917 173.109L963.305 172.914L954.584 174.142L951.78 173.847C951.78 173.847 948.385 174.732 950.894 175.47C953.404 176.208 960.489 175.765 961.817 175.913C963.145 176.061 965.802 176.503 966.983 177.241C968.164 177.979 969.64 178.865 970.378 179.308C971.116 179.751 974.658 180.489 976.577 180.784C978.496 181.079 980.415 180.636 981.596 181.965C982.776 183.293 983.367 185.507 984.843 186.097C986.319 186.688 989.418 186.688 990.894 186.54C992.37 186.393 993.108 186.097 993.699 186.245C994.289 186.393 996.503 186.393 997.684 186.688C998.865 186.983 1001.23 188.607 1004.92 189.492C1008.61 190.378 1017.91 192.739 1017.91 192.739V192.739Z" fill="#656565" fill-opacity="0.579439"/>
<path d="M989.271 194.068H983.219C983.219 194.068 978.348 194.511 976.577 193.625C974.806 192.74 970.082 191.116 969.492 190.526C968.902 189.935 965.064 189.345 964.326 189.493C963.588 189.64 962.702 190.231 962.555 191.707C962.407 193.183 958.717 194.068 958.717 194.068C958.717 194.068 958.717 198.201 958.865 198.939C959.012 199.677 955.913 199.677 955.322 196.577C954.732 193.478 956.503 191.411 956.651 190.083C956.798 188.755 956.503 187.721 956.503 186.836C956.503 185.95 957.979 183.293 958.127 182.408C958.274 181.522 960.341 183.588 961.226 184.326C962.112 185.064 964.916 186.245 966.54 186.54C968.164 186.836 969.344 187.279 972.592 188.164C975.839 189.05 972.444 189.493 977.905 189.788C983.367 190.083 990.451 191.264 991.927 191.411C993.403 191.559 994.879 191.264 998.569 191.264C1002.26 191.264 1018.05 192.887 1018.05 192.887L989.271 194.068Z" fill="#656565" fill-opacity="0.579439"/>
<path d="M929.443 415.643L921.6 417.336C917.579 418.167 917.958 419.512 918.235 434.002C918.366 440.83 916.745 450.273 920.531 449.244C920.887 448.887 931.582 445.768 931.582 445.768C933.942 442.69 938.337 421.566 929.443 415.643V415.643Z" fill="#585858"/>
<path d="M974.229 429.124L973.516 439.462C972.273 442.953 962.032 443.084 961.128 439.551C961.227 436.105 961.236 432.659 961.217 429.213L974.229 429.124Z" fill="#5A5A5A"/>
<path d="M926.621 431.293V436.311C926.621 436.311 927.802 440.739 927.359 441.773C926.916 442.806 923.964 448.562 923.964 448.562L930.311 446.643L932.377 441.33L934.148 435.278L926.621 431.293Z" fill="url(#paint20_linear)"/>
<path d="M930.78 437.657L961.44 439.529C964.336 437.389 964.804 434.387 961.351 429.992L930.156 426.784C925.567 428.537 925.81 438.222 930.78 437.657V437.657Z" fill="#4D4D4D"/>
<path d="M967.767 430.527C964.174 430.527 961.261 429.948 961.261 429.235C961.261 428.521 964.174 427.942 967.767 427.942C971.36 427.942 974.273 428.521 974.273 429.235C974.273 429.948 971.36 430.527 967.767 430.527Z" fill="#818181"/>
<path d="M973.918 428.656L973.739 416.089L961.44 406.73L961.529 429.101C964.167 429.758 968.942 430.928 973.918 428.656H973.918Z" fill="#737373"/>
<path d="M1020.41 401.027C1023.93 403.26 1017.87 415.58 1016.08 421.943L1014.87 422.215L960.936 390.579L965.006 384.602L1020.41 401.027Z" fill="#202020"/>
<path opacity="0.668471" d="M938.561 427.672C951.15 430.185 960.023 433.96 963.081 438.133C966.566 440.237 969.818 439.907 973.741 439.732L974.274 429.538L972.009 420.809L961.218 412.351C961.218 412.351 961.599 428.472 961.399 428.805C960.916 429.279 961.046 429.903 961.046 429.903C958.574 429.79 944.084 428.224 938.561 427.672H938.561Z" fill="url(#paint21_linear)"/>
<path d="M1019.73 400.939C1023.02 403.437 1016.64 415.649 1014.84 422.012L959.704 390.648L966.659 380.974L1019.73 400.939Z" fill="#3B3B3B"/>
<path d="M966.702 382.507C967.155 382.498 967.569 382.611 967.917 382.82C967.919 382.821 967.92 382.824 967.922 382.825C968.865 383.222 1009.91 400.523 1010.53 400.488L974.31 429.914L940.803 401.85C940.802 401.849 940.8 401.847 940.798 401.846C939.879 401.365 939.348 400.237 939.525 398.865L940.94 387.931C941.187 386.018 942.706 384.377 944.35 384.248L966.552 382.515C966.604 382.511 966.651 382.508 966.702 382.507Z" fill="#A0A0A0"/>
<path d="M978.639 402.288L1008.48 399.856C1010.68 399.676 1012.22 401.931 1011.91 404.892L1010.14 421.872C1009.83 424.833 1007.8 427.378 1005.59 427.558L975.752 429.99C973.549 430.17 972.014 427.915 972.322 424.955L974.092 407.974C974.4 405.014 976.436 402.468 978.639 402.288Z" fill="#7B7B7B"/>
<path d="M981.082 404.578L1005.51 402.587C1007.32 402.439 1008.58 404.285 1008.32 406.71L1006.87 420.612C1006.62 423.037 1004.95 425.121 1003.15 425.268L978.718 427.259C976.915 427.406 975.657 425.56 975.91 423.136L977.359 409.234C977.611 406.809 979.278 404.725 981.082 404.578Z" fill="url(#paint22_linear)"/>
<path d="M981.33 404.769L1004.27 402.869C1005.97 402.728 1007.15 404.49 1006.91 406.803L1005.55 420.069C1005.31 422.382 1003.75 424.371 1002.05 424.511L979.11 426.412C977.417 426.552 976.236 424.791 976.473 422.477L977.834 409.211C978.071 406.898 979.636 404.909 981.33 404.769Z" fill="#494949"/>
<path d="M1011.19 411.748C1011.19 411.748 993.239 411.247 984.534 413.075C983.185 413.358 981.85 413.833 980.671 414.546C978.032 416.143 973.475 422.009 973.475 422.009L972.509 422.275L976.007 404.152L1011.85 401.887L1011.19 411.748Z" fill="url(#paint23_linear)"/>
<path d="M966.776 381.515C967.279 381.505 967.739 381.63 968.125 381.863C968.125 381.865 968.125 381.866 968.135 381.868C969.071 382.263 1010.57 397.639 1019.82 400.957C1020.93 401.354 1021.12 401.884 1021.2 401.879C1021.2 401.879 999.163 402.35 986.242 403.514C983.947 403.721 981.007 404.432 980.014 406.511C978.04 410.638 976.061 418.86 975.814 418.715L974.598 418.766L938.159 391.529L938.168 387.539C938.442 385.415 940.13 383.592 941.956 383.449L966.615 381.525C966.672 381.52 966.725 381.516 966.781 381.515L966.776 381.515Z" fill="#202020"/>
<g filter="url(#filter2_f)">
<path d="M972.543 423.141C971.543 422.942 939.761 396.823 939.761 396.823L940.96 389.827L974.675 407.417L972.543 423.141Z" fill="url(#paint24_linear)"/>
</g>
<path d="M965.799 380.642C966.303 380.632 966.763 380.758 967.149 380.99C967.149 380.992 967.149 380.994 967.159 380.996C968.206 381.438 1019.91 401.024 1020.6 400.986C1020.6 400.986 998.186 401.477 985.266 402.641C982.971 402.848 980.031 403.56 979.037 405.638C977.064 409.766 974.76 418.965 974.513 418.82L937.183 390.656L937.192 386.667C937.466 384.542 939.154 382.719 940.98 382.577L965.639 380.652C965.696 380.648 965.749 380.644 965.804 380.643L965.799 380.642Z" fill="#6E6E6E"/>
<path d="M991.865 423.874C986.419 423.874 982.242 419.519 982.537 414.146C982.831 408.774 987.485 404.418 992.931 404.418C998.377 404.418 1002.55 408.774 1002.26 414.146C1001.96 419.519 997.311 423.874 991.865 423.874Z" fill="#121212"/>
<path opacity="0.668471" d="M991.071 422.895C986.359 422.895 982.747 419.127 983.001 414.48C983.256 409.832 987.282 406.064 991.993 406.064C996.704 406.064 1000.32 409.832 1000.06 414.48C999.808 419.127 995.782 422.895 991.071 422.895Z" fill="url(#paint25_radial)"/>
<path d="M981.632 425.283C979.951 425.283 978.588 423.92 978.588 422.239C978.588 420.558 979.951 419.195 981.632 419.195C983.313 419.195 984.676 420.558 984.676 422.239C984.676 423.92 983.313 425.283 981.632 425.283Z" fill="url(#paint26_linear)"/>
<path d="M981.398 424.783C979.993 424.783 978.854 423.644 978.854 422.239C978.854 420.834 979.993 419.695 981.398 419.695C982.803 419.695 983.942 420.834 983.942 422.239C983.942 423.644 982.803 424.783 981.398 424.783Z" fill="url(#paint27_radial)"/>
<path d="M982.902 421.998C982.619 422.153 982.197 421.925 981.959 421.489C981.72 421.053 981.756 420.574 982.038 420.42C982.321 420.265 982.743 420.493 982.982 420.929C983.22 421.365 983.184 421.844 982.902 421.998Z" fill="#FF3636" fill-opacity="0.428571"/>
<path opacity="0.668471" d="M991.198 421.885L990.492 418.492C992.226 418.005 993.999 417.771 995.25 414.064C995.25 414.064 999.349 413.969 999.302 414.158C999.364 417.67 995.866 421.977 991.198 421.885V421.885Z" fill="url(#paint28_linear)"/>
<path d="M989.583 400.988C989.583 400.988 974.345 398.066 972.884 397.44C971.423 396.814 971.148 395.172 967.1 394.151C963.022 393.122 959.948 390.811 959.948 390.811L954.097 387.838L944.287 382.411L939.486 383.246C939.486 383.246 937.398 384.081 937.398 385.124C937.398 386.168 936.772 390.134 936.772 390.134L974.554 418.731L978.311 405.789L981.025 403.076L989.583 400.988Z" fill="url(#paint29_linear)"/>
<path d="M1019.91 400.739L966.917 381.109L965.305 380.914L956.584 382.142L953.78 381.847C953.78 381.847 950.385 382.732 952.894 383.47C955.404 384.208 962.489 383.765 963.817 383.913C965.145 384.061 967.802 384.503 968.983 385.241C970.164 385.979 971.64 386.865 972.378 387.308C973.116 387.751 976.658 388.489 978.577 388.784C980.496 389.079 982.415 388.636 983.596 389.965C984.776 391.293 985.367 393.507 986.843 394.097C988.319 394.688 991.418 394.688 992.894 394.54C994.37 394.393 995.108 394.097 995.699 394.245C996.289 394.393 998.503 394.393 999.684 394.688C1000.86 394.983 1003.23 396.607 1006.92 397.492C1010.61 398.378 1019.91 400.739 1019.91 400.739V400.739Z" fill="#656565" fill-opacity="0.579439"/>
<path d="M991.271 402.068H985.219C985.219 402.068 980.348 402.511 978.577 401.625C976.806 400.74 972.082 399.116 971.492 398.526C970.902 397.935 967.064 397.345 966.326 397.493C965.588 397.64 964.702 398.231 964.555 399.707C964.407 401.183 960.717 402.068 960.717 402.068C960.717 402.068 960.717 406.201 960.865 406.939C961.012 407.677 957.913 407.677 957.322 404.577C956.732 401.478 958.503 399.411 958.651 398.083C958.798 396.755 958.503 395.721 958.503 394.836C958.503 393.95 959.979 391.293 960.127 390.408C960.274 389.522 962.341 391.588 963.226 392.326C964.112 393.064 966.916 394.245 968.54 394.54C970.164 394.836 971.344 395.279 974.592 396.164C977.839 397.05 974.444 397.493 979.905 397.788C985.367 398.083 992.451 399.264 993.927 399.411C995.403 399.559 996.879 399.264 1000.57 399.264C1004.26 399.264 1020.05 400.887 1020.05 400.887L991.271 402.068Z" fill="#656565" fill-opacity="0.579439"/>
<g filter="url(#filter3_dd)">
<rect x="494" y="348" width="252" height="120" rx="4" fill="white"/>
</g>
<path d="M494 352C494 349.791 495.791 348 498 348H742C744.209 348 746 349.791 746 352V354H494V352Z" fill="#555F8E"/>
<path d="M596.337 396H593.157L598.79 412H602.368L608.009 396H604.821L600.665 408.594H600.501L596.337 396ZM612.177 412.243C614.06 412.243 615.185 411.36 615.7 410.352H615.794V412H618.513V403.969C618.513 400.797 615.927 399.844 613.638 399.844C611.114 399.844 609.177 400.969 608.552 403.157L611.192 403.532C611.474 402.711 612.271 402.008 613.653 402.008C614.966 402.008 615.685 402.68 615.685 403.86V403.907C615.685 404.719 614.833 404.758 612.716 404.985C610.388 405.235 608.161 405.93 608.161 408.633C608.161 410.993 609.888 412.243 612.177 412.243ZM612.911 410.165C611.731 410.165 610.888 409.625 610.888 408.586C610.888 407.5 611.833 407.047 613.099 406.868C613.841 406.766 615.325 406.579 615.692 406.282V407.696C615.692 409.032 614.614 410.165 612.911 410.165ZM629.005 406.954C629.005 408.782 627.7 409.688 626.45 409.688C625.091 409.688 624.185 408.727 624.185 407.204V400H621.356V407.641C621.356 410.524 622.997 412.157 625.356 412.157C627.153 412.157 628.419 411.211 628.966 409.868H629.091V412H631.833V400H629.005V406.954ZM637.569 396H634.741V412H637.569V396ZM646.47 400H644.103V397.125H641.274V400H639.571V402.188H641.274V408.86C641.259 411.118 642.899 412.227 645.024 412.165C645.829 412.141 646.384 411.985 646.688 411.883L646.212 409.672C646.056 409.711 645.735 409.782 645.384 409.782C644.673 409.782 644.103 409.532 644.103 408.391V402.188H646.47V400Z" fill="#262424"/>
<path d="M553.828 431.421H555.521C555.47 429.557 553.822 428.205 551.459 428.205C549.124 428.205 547.334 429.54 547.334 431.546C547.334 433.165 548.493 434.114 550.362 434.62L551.737 434.995C552.982 435.324 553.942 435.733 553.942 436.768C553.942 437.904 552.857 438.654 551.362 438.654C550.01 438.654 548.885 438.052 548.783 436.785H547.021C547.135 438.893 548.766 440.194 551.374 440.194C554.107 440.194 555.68 438.756 555.68 436.785C555.68 434.688 553.811 433.875 552.334 433.512L551.197 433.216C550.288 432.983 549.078 432.557 549.084 431.444C549.084 430.455 549.987 429.722 551.419 429.722C552.754 429.722 553.703 430.347 553.828 431.421ZM561.716 431.273H559.926V429.182H558.227V431.273H556.949V432.637H558.227V437.79C558.222 439.375 559.432 440.143 560.773 440.114C561.312 440.108 561.676 440.006 561.875 439.932L561.568 438.529C561.455 438.552 561.244 438.603 560.972 438.603C560.42 438.603 559.926 438.421 559.926 437.438V432.637H561.716V431.273ZM567.178 440.177C569.638 440.177 571.246 438.375 571.246 435.677C571.246 432.961 569.638 431.16 567.178 431.16C564.717 431.16 563.109 432.961 563.109 435.677C563.109 438.375 564.717 440.177 567.178 440.177ZM567.183 438.75C565.575 438.75 564.825 437.347 564.825 435.671C564.825 434 565.575 432.58 567.183 432.58C568.78 432.58 569.53 434 569.53 435.671C569.53 437.347 568.78 438.75 567.183 438.75ZM573.142 440H574.841V434.671C574.841 433.529 575.722 432.705 576.926 432.705C577.278 432.705 577.676 432.768 577.812 432.807V431.182C577.642 431.16 577.307 431.143 577.091 431.143C576.068 431.143 575.193 431.722 574.875 432.66H574.784V431.273H573.142V440ZM582.732 440.177C584.635 440.177 585.982 439.239 586.368 437.819L584.76 437.529C584.453 438.353 583.714 438.773 582.749 438.773C581.294 438.773 580.317 437.83 580.271 436.148H586.476V435.546C586.476 432.393 584.589 431.16 582.612 431.16C580.18 431.16 578.578 433.012 578.578 435.694C578.578 438.404 580.158 440.177 582.732 440.177ZM580.277 434.875C580.345 433.637 581.243 432.563 582.624 432.563C583.942 432.563 584.805 433.54 584.811 434.875H580.277ZM595.135 440.194C596.578 440.194 597.391 439.461 597.714 438.807H597.783V440H599.442V434.205C599.442 431.665 597.442 431.16 596.055 431.16C594.476 431.16 593.021 431.796 592.453 433.387L594.05 433.75C594.3 433.131 594.936 432.535 596.078 432.535C597.175 432.535 597.737 433.108 597.737 434.097V434.137C597.737 434.756 597.101 434.745 595.533 434.927C593.879 435.12 592.186 435.552 592.186 437.535C592.186 439.25 593.476 440.194 595.135 440.194ZM595.504 438.83C594.544 438.83 593.851 438.398 593.851 437.557C593.851 436.648 594.658 436.324 595.641 436.194C596.192 436.12 597.499 435.972 597.743 435.728V436.853C597.743 437.887 596.919 438.83 595.504 438.83ZM603.403 434.819C603.403 433.427 604.256 432.631 605.438 432.631C606.591 432.631 607.29 433.387 607.29 434.654V440H608.989V434.449C608.989 432.29 607.801 431.16 606.017 431.16C604.705 431.16 603.847 431.768 603.443 432.694H603.335V431.273H601.705V440H603.403V434.819ZM614.534 440.171C616.125 440.171 616.75 439.199 617.057 438.643H617.199V440H618.858V428.364H617.159V432.688H617.057C616.75 432.148 616.17 431.16 614.545 431.16C612.438 431.16 610.886 432.824 610.886 435.654C610.886 438.478 612.415 440.171 614.534 440.171ZM614.909 438.722C613.392 438.722 612.602 437.387 612.602 435.637C612.602 433.904 613.375 432.603 614.909 432.603C616.392 432.603 617.188 433.813 617.188 435.637C617.188 437.472 616.375 438.722 614.909 438.722ZM627.409 428.364H625.653V440H627.409V428.364ZM631.528 434.819C631.528 433.427 632.381 432.631 633.562 432.631C634.716 432.631 635.415 433.387 635.415 434.654V440H637.114V434.449C637.114 432.29 635.926 431.16 634.142 431.16C632.83 431.16 631.972 431.768 631.568 432.694H631.46V431.273H629.83V440H631.528V434.819ZM643.466 431.273H641.676V429.182H639.977V431.273H638.699V432.637H639.977V437.79C639.972 439.375 641.182 440.143 642.523 440.114C643.062 440.108 643.426 440.006 643.625 439.932L643.318 438.529C643.205 438.552 642.994 438.603 642.722 438.603C642.17 438.603 641.676 438.421 641.676 437.438V432.637H643.466V431.273ZM649.013 440.177C650.916 440.177 652.263 439.239 652.649 437.819L651.041 437.529C650.734 438.353 649.996 438.773 649.03 438.773C647.575 438.773 646.598 437.83 646.553 436.148H652.757V435.546C652.757 432.393 650.871 431.16 648.893 431.16C646.462 431.16 644.859 433.012 644.859 435.694C644.859 438.404 646.439 440.177 649.013 440.177ZM646.558 434.875C646.626 433.637 647.524 432.563 648.905 432.563C650.223 432.563 651.087 433.54 651.092 434.875H646.558ZM658.301 443.455C660.523 443.455 662.239 442.438 662.239 440.194V431.273H660.574V432.688H660.449C660.148 432.148 659.545 431.16 657.92 431.16C655.812 431.16 654.261 432.824 654.261 435.603C654.261 438.387 655.847 439.87 657.909 439.87C659.511 439.87 660.131 438.966 660.438 438.41H660.545V440.125C660.545 441.495 659.608 442.086 658.318 442.086C656.903 442.086 656.352 441.375 656.051 440.875L654.591 441.478C655.051 442.546 656.216 443.455 658.301 443.455ZM658.284 438.461C656.767 438.461 655.977 437.296 655.977 435.58C655.977 433.904 656.75 432.603 658.284 432.603C659.767 432.603 660.562 433.813 660.562 435.58C660.562 437.381 659.75 438.461 658.284 438.461ZM664.517 440H666.216V434.671C666.216 433.529 667.097 432.705 668.301 432.705C668.653 432.705 669.051 432.768 669.188 432.807V431.182C669.017 431.16 668.682 431.143 668.466 431.143C667.443 431.143 666.568 431.722 666.25 432.66H666.159V431.273H664.517V440ZM673.119 440.194C674.562 440.194 675.375 439.461 675.699 438.807H675.767V440H677.426V434.205C677.426 431.665 675.426 431.16 674.04 431.16C672.46 431.16 671.006 431.796 670.438 433.387L672.034 433.75C672.284 433.131 672.92 432.535 674.062 432.535C675.159 432.535 675.722 433.108 675.722 434.097V434.137C675.722 434.756 675.085 434.745 673.517 434.927C671.864 435.12 670.17 435.552 670.17 437.535C670.17 439.25 671.46 440.194 673.119 440.194ZM673.489 438.83C672.528 438.83 671.835 438.398 671.835 437.557C671.835 436.648 672.642 436.324 673.625 436.194C674.176 436.12 675.483 435.972 675.727 435.728V436.853C675.727 437.887 674.903 438.83 673.489 438.83ZM683.763 431.273H681.973V429.182H680.274V431.273H678.996V432.637H680.274V437.79C680.268 439.375 681.479 440.143 682.82 440.114C683.359 440.108 683.723 440.006 683.922 439.932L683.615 438.529C683.501 438.552 683.291 438.603 683.018 438.603C682.467 438.603 681.973 438.421 681.973 437.438V432.637H683.763V431.273ZM689.31 440.177C691.213 440.177 692.56 439.239 692.946 437.819L691.338 437.529C691.031 438.353 690.293 438.773 689.327 438.773C687.872 438.773 686.895 437.83 686.849 436.148H693.054V435.546C693.054 432.393 691.168 431.16 689.19 431.16C686.759 431.16 685.156 433.012 685.156 435.694C685.156 438.404 686.736 440.177 689.31 440.177ZM686.855 434.875C686.923 433.637 687.821 432.563 689.202 432.563C690.52 432.563 691.384 433.54 691.389 434.875H686.855Z" fill="#6D6666"/>
<rect x="574" y="336" width="92" height="36" rx="4" fill="#555F8E"/>
<path d="M598.406 351.508H600.688C600.643 349.297 598.757 347.731 595.97 347.731C593.222 347.731 591.157 349.277 591.163 351.591C591.163 353.471 592.499 354.551 594.653 355.107L596.143 355.491C597.555 355.848 598.489 356.29 598.495 357.306C598.489 358.424 597.428 359.172 595.881 359.172C594.398 359.172 593.247 358.508 593.151 357.133H590.818C590.914 359.735 592.851 361.199 595.9 361.199C599.038 361.199 600.86 359.633 600.866 357.325C600.86 355.056 598.987 354.02 597.018 353.554L595.791 353.247C594.717 352.991 593.554 352.537 593.567 351.444C593.573 350.46 594.455 349.738 595.938 349.738C597.351 349.738 598.284 350.396 598.406 351.508ZM602.405 349.898H606.452V361H608.804V349.898H612.85V347.91H602.405V349.898ZM625.998 354.455C625.998 350.223 623.416 347.731 619.983 347.731C616.545 347.731 613.969 350.223 613.969 354.455C613.969 358.68 616.545 361.179 619.983 361.179C623.416 361.179 625.998 358.687 625.998 354.455ZM623.614 354.455C623.614 357.434 622.118 359.051 619.983 359.051C617.855 359.051 616.353 357.434 616.353 354.455C616.353 351.476 617.855 349.859 619.983 349.859C622.118 349.859 623.614 351.476 623.614 354.455ZM628.24 361H630.612V356.206H633.028L635.598 361H638.244L635.412 355.81C636.953 355.19 637.765 353.873 637.765 352.096C637.765 349.597 636.154 347.91 633.15 347.91H628.24V361ZM630.612 354.238V349.891H632.785C634.556 349.891 635.348 350.703 635.348 352.096C635.348 353.49 634.556 354.238 632.798 354.238H630.612ZM639.947 361H648.513V359.013H642.319V355.439H648.021V353.451H642.319V349.898H648.462V347.91H639.947V361Z" fill="white"/>
<g filter="url(#filter4_dd)">
<rect x="47" y="187" width="252" height="120" rx="4" fill="white"/>
</g>
<path d="M47 191C47 188.791 48.7909 187 51 187H295C297.209 187 299 188.791 299 191V193H47V191Z" fill="#555F8E"/>
<path d="M149.337 235H146.157L151.79 251H155.368L161.009 235H157.821L153.665 247.594H153.501L149.337 235ZM165.177 251.242C167.06 251.242 168.185 250.359 168.7 249.352H168.794V251H171.513V242.969C171.513 239.797 168.927 238.844 166.638 238.844C164.114 238.844 162.177 239.969 161.552 242.156L164.192 242.531C164.474 241.711 165.271 241.008 166.653 241.008C167.966 241.008 168.685 241.68 168.685 242.859V242.906C168.685 243.719 167.833 243.758 165.716 243.984C163.388 244.234 161.161 244.93 161.161 247.633C161.161 249.992 162.888 251.242 165.177 251.242ZM165.911 249.164C164.731 249.164 163.888 248.625 163.888 247.586C163.888 246.5 164.833 246.047 166.099 245.867C166.841 245.766 168.325 245.578 168.692 245.281V246.695C168.692 248.031 167.614 249.164 165.911 249.164ZM182.005 245.953C182.005 247.781 180.7 248.687 179.45 248.687C178.091 248.687 177.185 247.727 177.185 246.203V239H174.356V246.641C174.356 249.523 175.997 251.156 178.356 251.156C180.153 251.156 181.419 250.211 181.966 248.867H182.091V251H184.833V239H182.005V245.953ZM190.569 235H187.741V251H190.569V235ZM199.47 239H197.103V236.125H194.274V239H192.571V241.187H194.274V247.859C194.259 250.117 195.899 251.227 198.024 251.164C198.829 251.141 199.384 250.984 199.688 250.883L199.212 248.672C199.056 248.711 198.735 248.781 198.384 248.781C197.673 248.781 197.103 248.531 197.103 247.391V241.187H199.47V239Z" fill="#262424"/>
<path d="M106.828 270.42H108.521C108.47 268.557 106.822 267.205 104.459 267.205C102.124 267.205 100.334 268.54 100.334 270.545C100.334 272.165 101.493 273.114 103.362 273.619L104.737 273.994C105.982 274.324 106.942 274.733 106.942 275.767C106.942 276.903 105.857 277.653 104.362 277.653C103.01 277.653 101.885 277.051 101.783 275.784H100.021C100.135 277.892 101.766 279.193 104.374 279.193C107.107 279.193 108.68 277.756 108.68 275.784C108.68 273.688 106.811 272.875 105.334 272.511L104.197 272.216C103.288 271.983 102.078 271.557 102.084 270.443C102.084 269.455 102.987 268.722 104.419 268.722C105.754 268.722 106.703 269.347 106.828 270.42ZM114.716 270.273H112.926V268.182H111.227V270.273H109.949V271.636H111.227V276.79C111.222 278.375 112.432 279.142 113.773 279.114C114.312 279.108 114.676 279.006 114.875 278.932L114.568 277.528C114.455 277.551 114.244 277.602 113.972 277.602C113.42 277.602 112.926 277.42 112.926 276.438V271.636H114.716V270.273ZM120.178 279.176C122.638 279.176 124.246 277.375 124.246 274.676C124.246 271.96 122.638 270.159 120.178 270.159C117.717 270.159 116.109 271.96 116.109 274.676C116.109 277.375 117.717 279.176 120.178 279.176ZM120.183 277.75C118.575 277.75 117.825 276.347 117.825 274.67C117.825 273 118.575 271.58 120.183 271.58C121.78 271.58 122.53 273 122.53 274.67C122.53 276.347 121.78 277.75 120.183 277.75ZM126.142 279H127.841V273.67C127.841 272.528 128.722 271.705 129.926 271.705C130.278 271.705 130.676 271.767 130.812 271.807V270.182C130.642 270.159 130.307 270.142 130.091 270.142C129.068 270.142 128.193 270.722 127.875 271.659H127.784V270.273H126.142V279ZM135.732 279.176C137.635 279.176 138.982 278.239 139.368 276.818L137.76 276.528C137.453 277.352 136.714 277.773 135.749 277.773C134.294 277.773 133.317 276.83 133.271 275.148H139.476V274.545C139.476 271.392 137.589 270.159 135.612 270.159C133.18 270.159 131.578 272.011 131.578 274.693C131.578 277.403 133.158 279.176 135.732 279.176ZM133.277 273.875C133.345 272.636 134.243 271.562 135.624 271.562C136.942 271.562 137.805 272.54 137.811 273.875H133.277ZM148.135 279.193C149.578 279.193 150.391 278.46 150.714 277.807H150.783V279H152.442V273.205C152.442 270.665 150.442 270.159 149.055 270.159C147.476 270.159 146.021 270.795 145.453 272.386L147.05 272.75C147.3 272.131 147.936 271.534 149.078 271.534C150.175 271.534 150.737 272.108 150.737 273.097V273.136C150.737 273.756 150.101 273.744 148.533 273.926C146.879 274.119 145.186 274.551 145.186 276.534C145.186 278.25 146.476 279.193 148.135 279.193ZM148.504 277.83C147.544 277.83 146.851 277.398 146.851 276.557C146.851 275.648 147.658 275.324 148.641 275.193C149.192 275.119 150.499 274.972 150.743 274.727V275.852C150.743 276.886 149.919 277.83 148.504 277.83ZM156.403 273.818C156.403 272.426 157.256 271.631 158.438 271.631C159.591 271.631 160.29 272.386 160.29 273.653V279H161.989V273.449C161.989 271.29 160.801 270.159 159.017 270.159C157.705 270.159 156.847 270.767 156.443 271.693H156.335V270.273H154.705V279H156.403V273.818ZM167.534 279.17C169.125 279.17 169.75 278.199 170.057 277.642H170.199V279H171.858V267.364H170.159V271.688H170.057C169.75 271.148 169.17 270.159 167.545 270.159C165.438 270.159 163.886 271.824 163.886 274.653C163.886 277.477 165.415 279.17 167.534 279.17ZM167.909 277.722C166.392 277.722 165.602 276.386 165.602 274.636C165.602 272.903 166.375 271.602 167.909 271.602C169.392 271.602 170.188 272.812 170.188 274.636C170.188 276.472 169.375 277.722 167.909 277.722ZM180.409 267.364H178.653V279H180.409V267.364ZM184.528 273.818C184.528 272.426 185.381 271.631 186.562 271.631C187.716 271.631 188.415 272.386 188.415 273.653V279H190.114V273.449C190.114 271.29 188.926 270.159 187.142 270.159C185.83 270.159 184.972 270.767 184.568 271.693H184.46V270.273H182.83V279H184.528V273.818ZM196.466 270.273H194.676V268.182H192.977V270.273H191.699V271.636H192.977V276.79C192.972 278.375 194.182 279.142 195.523 279.114C196.062 279.108 196.426 279.006 196.625 278.932L196.318 277.528C196.205 277.551 195.994 277.602 195.722 277.602C195.17 277.602 194.676 277.42 194.676 276.438V271.636H196.466V270.273ZM202.013 279.176C203.916 279.176 205.263 278.239 205.649 276.818L204.041 276.528C203.734 277.352 202.996 277.773 202.03 277.773C200.575 277.773 199.598 276.83 199.553 275.148H205.757V274.545C205.757 271.392 203.871 270.159 201.893 270.159C199.462 270.159 197.859 272.011 197.859 274.693C197.859 277.403 199.439 279.176 202.013 279.176ZM199.558 273.875C199.626 272.636 200.524 271.562 201.905 271.562C203.223 271.562 204.087 272.54 204.092 273.875H199.558ZM211.301 282.455C213.523 282.455 215.239 281.438 215.239 279.193V270.273H213.574V271.688H213.449C213.148 271.148 212.545 270.159 210.92 270.159C208.812 270.159 207.261 271.824 207.261 274.602C207.261 277.386 208.847 278.869 210.909 278.869C212.511 278.869 213.131 277.966 213.438 277.409H213.545V279.125C213.545 280.494 212.608 281.085 211.318 281.085C209.903 281.085 209.352 280.375 209.051 279.875L207.591 280.477C208.051 281.545 209.216 282.455 211.301 282.455ZM211.284 277.46C209.767 277.46 208.977 276.295 208.977 274.58C208.977 272.903 209.75 271.602 211.284 271.602C212.767 271.602 213.562 272.812 213.562 274.58C213.562 276.381 212.75 277.46 211.284 277.46ZM217.517 279H219.216V273.67C219.216 272.528 220.097 271.705 221.301 271.705C221.653 271.705 222.051 271.767 222.188 271.807V270.182C222.017 270.159 221.682 270.142 221.466 270.142C220.443 270.142 219.568 270.722 219.25 271.659H219.159V270.273H217.517V279ZM226.119 279.193C227.562 279.193 228.375 278.46 228.699 277.807H228.767V279H230.426V273.205C230.426 270.665 228.426 270.159 227.04 270.159C225.46 270.159 224.006 270.795 223.438 272.386L225.034 272.75C225.284 272.131 225.92 271.534 227.062 271.534C228.159 271.534 228.722 272.108 228.722 273.097V273.136C228.722 273.756 228.085 273.744 226.517 273.926C224.864 274.119 223.17 274.551 223.17 276.534C223.17 278.25 224.46 279.193 226.119 279.193ZM226.489 277.83C225.528 277.83 224.835 277.398 224.835 276.557C224.835 275.648 225.642 275.324 226.625 275.193C227.176 275.119 228.483 274.972 228.727 274.727V275.852C228.727 276.886 227.903 277.83 226.489 277.83ZM236.763 270.273H234.973V268.182H233.274V270.273H231.996V271.636H233.274V276.79C233.268 278.375 234.479 279.142 235.82 279.114C236.359 279.108 236.723 279.006 236.922 278.932L236.615 277.528C236.501 277.551 236.291 277.602 236.018 277.602C235.467 277.602 234.973 277.42 234.973 276.438V271.636H236.763V270.273ZM242.31 279.176C244.213 279.176 245.56 278.239 245.946 276.818L244.338 276.528C244.031 277.352 243.293 277.773 242.327 277.773C240.872 277.773 239.895 276.83 239.849 275.148H246.054V274.545C246.054 271.392 244.168 270.159 242.19 270.159C239.759 270.159 238.156 272.011 238.156 274.693C238.156 277.403 239.736 279.176 242.31 279.176ZM239.855 273.875C239.923 272.636 240.821 271.562 242.202 271.562C243.52 271.562 244.384 272.54 244.389 273.875H239.855Z" fill="#6D6666"/>
<rect x="127" y="175" width="92" height="36" rx="4" fill="#555F8E"/>
<path d="M151.406 190.508H153.688C153.643 188.296 151.757 186.73 148.97 186.73C146.222 186.73 144.157 188.277 144.163 190.591C144.163 192.47 145.499 193.55 147.653 194.107L149.143 194.49C150.555 194.848 151.489 195.289 151.495 196.305C151.489 197.424 150.428 198.172 148.881 198.172C147.398 198.172 146.247 197.507 146.151 196.133H143.818C143.914 198.734 145.851 200.198 148.9 200.198C152.038 200.198 153.86 198.632 153.866 196.325C153.86 194.055 151.987 193.02 150.018 192.553L148.791 192.246C147.717 191.991 146.554 191.537 146.567 190.444C146.573 189.46 147.455 188.737 148.938 188.737C150.351 188.737 151.284 189.396 151.406 190.508ZM155.405 188.897H159.452V200H161.804V188.897H165.85V186.909H155.405V188.897ZM178.998 193.455C178.998 189.223 176.416 186.73 172.983 186.73C169.545 186.73 166.969 189.223 166.969 193.455C166.969 197.68 169.545 200.179 172.983 200.179C176.416 200.179 178.998 197.686 178.998 193.455ZM176.614 193.455C176.614 196.433 175.118 198.05 172.983 198.05C170.855 198.05 169.353 196.433 169.353 193.455C169.353 190.476 170.855 188.859 172.983 188.859C175.118 188.859 176.614 190.476 176.614 193.455ZM181.24 200H183.612V195.206H186.028L188.598 200H191.244L188.412 194.81C189.953 194.19 190.765 192.873 190.765 191.096C190.765 188.597 189.154 186.909 186.15 186.909H181.24V200ZM183.612 193.237V188.891H185.785C187.556 188.891 188.348 189.702 188.348 191.096C188.348 192.489 187.556 193.237 185.798 193.237H183.612ZM192.947 200H201.513V198.012H195.319V194.439H201.021V192.451H195.319V188.897H201.462V186.909H192.947V200Z" fill="white"/>
<g filter="url(#filter5_dd)">
<rect x="496" y="181" width="252" height="120" rx="4" fill="white"/>
</g>
<path d="M496 185C496 182.791 497.791 181 500 181H744C746.209 181 748 182.791 748 185V187H496V185Z" fill="#4A796B"/>
<path d="M582.822 245H585.721V238.203H592.369V235.773H585.721V231.43H593.072V229H582.822V245ZM598.934 245.242C600.816 245.242 601.941 244.359 602.457 243.352H602.551V245H605.27V236.969C605.27 233.797 602.684 232.844 600.395 232.844C597.871 232.844 595.934 233.969 595.309 236.156L597.949 236.531C598.23 235.711 599.027 235.008 600.41 235.008C601.723 235.008 602.441 235.68 602.441 236.859V236.906C602.441 237.719 601.59 237.758 599.473 237.984C597.145 238.234 594.918 238.93 594.918 241.633C594.918 243.992 596.645 245.242 598.934 245.242ZM599.668 243.164C598.488 243.164 597.645 242.625 597.645 241.586C597.645 240.5 598.59 240.047 599.855 239.867C600.598 239.766 602.082 239.578 602.449 239.281V240.695C602.449 242.031 601.371 243.164 599.668 243.164ZM613.348 245.234C616.363 245.234 618.285 243.445 618.488 240.898H615.785C615.543 242.188 614.613 242.93 613.371 242.93C611.605 242.93 610.465 241.453 610.465 239C610.465 236.578 611.629 235.125 613.371 235.125C614.73 235.125 615.566 236 615.785 237.156H618.488C618.293 234.555 616.262 232.844 613.332 232.844C609.816 232.844 607.598 235.383 607.598 239.047C607.598 242.68 609.762 245.234 613.348 245.234ZM626.803 233H624.436V230.125H621.607V233H619.904V235.187H621.607V241.859C621.592 244.117 623.232 245.227 625.357 245.164C626.162 245.141 626.717 244.984 627.021 244.883L626.545 242.672C626.389 242.711 626.068 242.781 625.717 242.781C625.006 242.781 624.436 242.531 624.436 241.391V235.187H626.803V233ZM634.273 245.234C637.789 245.234 640.023 242.758 640.023 239.047C640.023 235.328 637.789 232.844 634.273 232.844C630.758 232.844 628.523 235.328 628.523 239.047C628.523 242.758 630.758 245.234 634.273 245.234ZM634.289 242.969C632.344 242.969 631.391 241.234 631.391 239.039C631.391 236.844 632.344 235.086 634.289 235.086C636.203 235.086 637.156 236.844 637.156 239.039C637.156 241.234 636.203 242.969 634.289 242.969ZM642.424 245H645.252V237.945C645.252 236.422 646.4 235.344 647.955 235.344C648.432 235.344 649.025 235.43 649.268 235.508V232.906C649.01 232.859 648.564 232.828 648.252 232.828C646.877 232.828 645.729 233.609 645.291 235H645.166V233H642.424V245ZM653.27 249.5C655.473 249.5 656.746 248.367 657.426 246.453L662.246 233.016L659.223 233L656.449 242.062H656.324L653.559 233H650.559L654.91 245.25L654.668 245.898C654.145 247.266 653.316 247.359 652.082 247L651.426 249.203C651.809 249.359 652.496 249.5 653.27 249.5Z" fill="#262424"/>
<path d="M580.414 264.42H582.107C582.056 262.557 580.408 261.205 578.045 261.205C575.71 261.205 573.92 262.54 573.92 264.545C573.92 266.165 575.079 267.114 576.948 267.619L578.323 267.994C579.567 268.324 580.528 268.733 580.528 269.767C580.528 270.903 579.442 271.653 577.948 271.653C576.596 271.653 575.471 271.051 575.369 269.784H573.607C573.721 271.892 575.352 273.193 577.96 273.193C580.692 273.193 582.266 271.756 582.266 269.784C582.266 267.688 580.397 266.875 578.92 266.511L577.783 266.216C576.874 265.983 575.664 265.557 575.67 264.443C575.67 263.455 576.573 262.722 578.005 262.722C579.34 262.722 580.289 263.347 580.414 264.42ZM587.904 273.176C589.967 273.176 591.302 271.938 591.489 270.239H589.836C589.62 271.182 588.887 271.739 587.915 271.739C586.478 271.739 585.552 270.54 585.552 268.636C585.552 266.767 586.495 265.591 587.915 265.591C588.995 265.591 589.654 266.273 589.836 267.091H591.489C591.308 265.33 589.87 264.159 587.887 264.159C585.427 264.159 583.836 266.011 583.836 268.676C583.836 271.307 585.37 273.176 587.904 273.176ZM595.846 273.193C597.289 273.193 598.102 272.46 598.425 271.807H598.494V273H600.153V267.205C600.153 264.665 598.153 264.159 596.766 264.159C595.187 264.159 593.732 264.795 593.164 266.386L594.761 266.75C595.011 266.131 595.647 265.534 596.789 265.534C597.886 265.534 598.448 266.108 598.448 267.097V267.136C598.448 267.756 597.812 267.744 596.244 267.926C594.59 268.119 592.897 268.551 592.897 270.534C592.897 272.25 594.187 273.193 595.846 273.193ZM596.215 271.83C595.255 271.83 594.562 271.398 594.562 270.557C594.562 269.648 595.369 269.324 596.352 269.193C596.903 269.119 598.21 268.972 598.454 268.727V269.852C598.454 270.886 597.63 271.83 596.215 271.83ZM604.114 261.364H602.415V273H604.114V261.364ZM610.161 273.176C612.065 273.176 613.411 272.239 613.798 270.818L612.19 270.528C611.883 271.352 611.144 271.773 610.178 271.773C608.724 271.773 607.746 270.83 607.701 269.148H613.906V268.545C613.906 265.392 612.019 264.159 610.042 264.159C607.61 264.159 606.008 266.011 606.008 268.693C606.008 271.403 607.587 273.176 610.161 273.176ZM607.707 267.875C607.775 266.636 608.673 265.562 610.053 265.562C611.371 265.562 612.235 266.54 612.241 267.875H607.707ZM622.565 273.193C624.008 273.193 624.82 272.46 625.144 271.807H625.212V273H626.871V267.205C626.871 264.665 624.871 264.159 623.485 264.159C621.906 264.159 620.451 264.795 619.883 266.386L621.479 266.75C621.729 266.131 622.366 265.534 623.508 265.534C624.604 265.534 625.167 266.108 625.167 267.097V267.136C625.167 267.756 624.531 267.744 622.962 267.926C621.309 268.119 619.616 268.551 619.616 270.534C619.616 272.25 620.906 273.193 622.565 273.193ZM622.934 271.83C621.974 271.83 621.281 271.398 621.281 270.557C621.281 269.648 622.087 269.324 623.07 269.193C623.621 269.119 624.928 268.972 625.173 268.727V269.852C625.173 270.886 624.349 271.83 622.934 271.83ZM632.793 276.455C635.015 276.455 636.731 275.438 636.731 273.193V264.273H635.066V265.688H634.941C634.64 265.148 634.038 264.159 632.413 264.159C630.305 264.159 628.754 265.824 628.754 268.602C628.754 271.386 630.339 272.869 632.401 272.869C634.004 272.869 634.623 271.966 634.93 271.409H635.038V273.125C635.038 274.494 634.1 275.085 632.81 275.085C631.396 275.085 630.844 274.375 630.543 273.875L629.083 274.477C629.543 275.545 630.708 276.455 632.793 276.455ZM632.776 271.46C631.259 271.46 630.469 270.295 630.469 268.58C630.469 266.903 631.242 265.602 632.776 265.602C634.259 265.602 635.055 266.812 635.055 268.58C635.055 270.381 634.242 271.46 632.776 271.46ZM642.771 273.176C644.674 273.176 646.021 272.239 646.407 270.818L644.799 270.528C644.492 271.352 643.754 271.773 642.788 271.773C641.333 271.773 640.356 270.83 640.31 269.148H646.515V268.545C646.515 265.392 644.629 264.159 642.651 264.159C640.219 264.159 638.617 266.011 638.617 268.693C638.617 271.403 640.197 273.176 642.771 273.176ZM640.316 267.875C640.384 266.636 641.282 265.562 642.663 265.562C643.981 265.562 644.844 266.54 644.85 267.875H640.316ZM650.099 267.818C650.099 266.426 650.951 265.631 652.133 265.631C653.286 265.631 653.985 266.386 653.985 267.653V273H655.684V267.449C655.684 265.29 654.496 264.159 652.712 264.159C651.4 264.159 650.542 264.767 650.138 265.693H650.031V264.273H648.4V273H650.099V267.818ZM662.036 264.273H660.246V262.182H658.548V264.273H657.269V265.636H658.548V270.79C658.542 272.375 659.752 273.142 661.093 273.114C661.633 273.108 661.996 273.006 662.195 272.932L661.888 271.528C661.775 271.551 661.565 271.602 661.292 271.602C660.741 271.602 660.246 271.42 660.246 270.438V265.636H662.036V264.273ZM670.315 266.403C669.962 265.045 668.9 264.159 667.013 264.159C665.042 264.159 663.644 265.199 663.644 266.744C663.644 267.983 664.394 268.807 666.031 269.17L667.508 269.494C668.349 269.682 668.741 270.057 668.741 270.602C668.741 271.278 668.019 271.807 666.906 271.807C665.888 271.807 665.235 271.369 665.031 270.511L663.388 270.761C663.673 272.307 664.957 273.176 666.917 273.176C669.025 273.176 670.485 272.057 670.485 270.477C670.485 269.244 669.701 268.483 668.099 268.114L666.712 267.795C665.752 267.568 665.337 267.244 665.343 266.653C665.337 265.983 666.065 265.506 667.031 265.506C668.087 265.506 668.576 266.091 668.775 266.676L670.315 266.403Z" fill="#6D6666"/>
<rect x="569" y="169" width="107" height="36" rx="4" fill="#4A796B"/>
<path d="M586.291 194H588.663V189.206H591.079L593.648 194H596.295L593.463 188.81C595.004 188.19 595.815 186.873 595.815 185.096C595.815 182.597 594.205 180.909 591.2 180.909H586.291V194ZM588.663 187.237V182.891H590.836C592.607 182.891 593.399 183.702 593.399 185.096C593.399 186.489 592.607 187.237 590.849 187.237H588.663ZM597.998 194H606.564V192.012H600.37V188.439H606.071V186.451H600.37V182.897H606.512V180.909H597.998V194ZM620.137 185.326C619.734 182.418 617.497 180.73 614.595 180.73C611.175 180.73 608.599 183.223 608.599 187.455C608.599 191.68 611.143 194.179 614.595 194.179C617.708 194.179 619.773 192.165 620.137 189.666L617.746 189.653C617.446 191.188 616.193 192.05 614.627 192.05C612.505 192.05 610.984 190.459 610.984 187.455C610.984 184.501 612.492 182.859 614.634 182.859C616.225 182.859 617.472 183.76 617.746 185.326H620.137ZM634.006 187.455C634.006 183.223 631.424 180.73 627.991 180.73C624.552 180.73 621.976 183.223 621.976 187.455C621.976 191.68 624.552 194.179 627.991 194.179C631.424 194.179 634.006 191.686 634.006 187.455ZM631.622 187.455C631.622 190.433 630.126 192.05 627.991 192.05C625.863 192.05 624.361 190.433 624.361 187.455C624.361 184.476 625.863 182.859 627.991 182.859C630.126 182.859 631.622 184.476 631.622 187.455ZM636.248 194H638.62V189.206H641.036L643.605 194H646.252L643.42 188.81C644.961 188.19 645.772 186.873 645.772 185.096C645.772 182.597 644.162 180.909 641.157 180.909H636.248V194ZM638.62 187.237V182.891H640.793C642.564 182.891 643.356 183.702 643.356 185.096C643.356 186.489 642.564 187.237 640.806 187.237H638.62ZM652.391 194C656.38 194 658.745 191.533 658.745 187.442C658.745 183.364 656.38 180.909 652.481 180.909H647.955V194H652.391ZM650.327 191.948V182.961H652.347C655.006 182.961 656.393 184.444 656.393 187.442C656.393 190.452 655.006 191.948 652.276 191.948H650.327Z" fill="white"/>
<g filter="url(#filter6_dd)">
<rect x="774" y="179.55" width="149.295" height="69.0046" rx="4" fill="white"/>
</g>
<path d="M774 183C774 181.095 775.545 179.55 777.45 179.55H919.845C921.751 179.55 923.295 181.095 923.295 183V183H774V183Z" fill="#4A796B"/>
<path d="M820.93 227.401L822.25 223.456H828.266L829.594 227.401H832.688L827.047 211.401H823.469L817.836 227.401H820.93ZM823.032 221.128L825.196 214.683H825.321L827.485 221.128H823.032ZM839.524 232.151C842.766 232.151 845.157 230.667 845.157 227.597V215.401H842.367V217.386H842.211C841.782 216.519 840.883 215.245 838.766 215.245C835.992 215.245 833.813 217.417 833.813 221.362C833.813 225.276 835.992 227.229 838.758 227.229C840.813 227.229 841.774 226.128 842.211 225.245H842.352V227.519C842.352 229.284 841.18 230.011 839.571 230.011C837.867 230.011 837.117 229.206 836.774 228.503L834.227 229.12C834.742 230.8 836.469 232.151 839.524 232.151ZM839.547 225.011C837.68 225.011 836.696 223.558 836.696 221.347C836.696 219.167 837.664 217.565 839.547 217.565C841.367 217.565 842.367 219.073 842.367 221.347C842.367 223.636 841.352 225.011 839.547 225.011ZM853.367 227.636C856.164 227.636 858.086 226.269 858.586 224.183L855.946 223.886C855.563 224.901 854.625 225.433 853.407 225.433C851.578 225.433 850.367 224.229 850.344 222.175H858.703V221.308C858.703 217.097 856.172 215.245 853.219 215.245C849.782 215.245 847.539 217.769 847.539 221.472C847.539 225.237 849.75 227.636 853.367 227.636ZM850.352 220.269C850.438 218.737 851.571 217.448 853.258 217.448C854.883 217.448 855.977 218.636 855.992 220.269H850.352ZM863.924 220.37C863.924 218.636 864.971 217.636 866.463 217.636C867.924 217.636 868.799 218.597 868.799 220.198V227.401H871.627V219.761C871.635 216.886 869.994 215.245 867.518 215.245C865.721 215.245 864.487 216.104 863.94 217.44H863.799V215.401H861.096V227.401H863.924V220.37ZM880.494 215.401H878.127V212.526H875.299V215.401H873.596V217.589H875.299V224.261C875.283 226.519 876.924 227.628 879.049 227.565C879.854 227.542 880.408 227.386 880.713 227.284L880.237 225.073C880.08 225.112 879.76 225.183 879.408 225.183C878.698 225.183 878.127 224.933 878.127 223.792V217.589H880.494V215.401Z" fill="#262424"/>
<rect x="795.444" y="165" width="107" height="36" rx="4" fill="#4A796B"/>
<path d="M812.736 190H815.107V185.206H817.523L820.093 190H822.739L819.907 184.81C821.448 184.19 822.26 182.873 822.26 181.096C822.26 178.597 820.649 176.909 817.645 176.909H812.736V190ZM815.107 183.237V178.891H817.28C819.051 178.891 819.843 179.702 819.843 181.096C819.843 182.489 819.051 183.237 817.293 183.237H815.107ZM824.443 190H833.008V188.012H826.814V184.439H832.516V182.451H826.814V178.897H832.957V176.909H824.443V190ZM846.581 181.326C846.179 178.418 843.941 176.73 841.04 176.73C837.62 176.73 835.044 179.223 835.044 183.455C835.044 187.68 837.588 190.179 841.04 190.179C844.152 190.179 846.217 188.165 846.581 185.666L844.191 185.653C843.89 187.188 842.638 188.05 841.071 188.05C838.949 188.05 837.428 186.459 837.428 183.455C837.428 180.501 838.937 178.859 841.078 178.859C842.669 178.859 843.916 179.76 844.191 181.326H846.581ZM860.451 183.455C860.451 179.223 857.868 176.73 854.436 176.73C850.997 176.73 848.421 179.223 848.421 183.455C848.421 187.68 850.997 190.179 854.436 190.179C857.868 190.179 860.451 187.686 860.451 183.455ZM858.066 183.455C858.066 186.433 856.571 188.05 854.436 188.05C852.307 188.05 850.805 186.433 850.805 183.455C850.805 180.476 852.307 178.859 854.436 178.859C856.571 178.859 858.066 180.476 858.066 183.455ZM862.693 190H865.064V185.206H867.48L870.05 190H872.696L869.864 184.81C871.405 184.19 872.217 182.873 872.217 181.096C872.217 178.597 870.606 176.909 867.602 176.909H862.693V190ZM865.064 183.237V178.891H867.237C869.008 178.891 869.801 179.702 869.801 181.096C869.801 182.489 869.008 183.237 867.25 183.237H865.064ZM878.836 190C882.824 190 885.189 187.533 885.189 183.442C885.189 179.364 882.824 176.909 878.925 176.909H874.4V190H878.836ZM876.771 187.948V178.961H878.791C881.45 178.961 882.837 180.444 882.837 183.442C882.837 186.452 881.45 187.948 878.721 187.948H876.771Z" fill="white"/>
<g filter="url(#filter7_dd)">
<rect x="771" y="291.55" width="149.295" height="69.0046" rx="4" fill="white"/>
</g>
<path d="M773 309C773 307.095 774.545 305.55 776.45 305.55H918.845C920.751 305.55 922.295 307.095 922.295 309V309H773V309Z" fill="#4A796B"/>
<path d="M817.93 339.401L819.25 335.456H825.266L826.594 339.401H829.688L824.047 323.401H820.469L814.836 339.401H817.93ZM820.032 333.128L822.196 326.683H822.321L824.485 333.128H820.032ZM836.524 344.151C839.766 344.151 842.157 342.667 842.157 339.597V327.401H839.367V329.386H839.211C838.782 328.519 837.883 327.245 835.766 327.245C832.992 327.245 830.813 329.417 830.813 333.362C830.813 337.276 832.992 339.229 835.758 339.229C837.813 339.229 838.774 338.128 839.211 337.245H839.352V339.519C839.352 341.284 838.18 342.011 836.571 342.011C834.867 342.011 834.117 341.206 833.774 340.503L831.227 341.12C831.742 342.8 833.469 344.151 836.524 344.151ZM836.547 337.011C834.68 337.011 833.696 335.558 833.696 333.347C833.696 331.167 834.664 329.565 836.547 329.565C838.367 329.565 839.367 331.073 839.367 333.347C839.367 335.636 838.352 337.011 836.547 337.011ZM850.367 339.636C853.164 339.636 855.086 338.269 855.586 336.183L852.946 335.886C852.563 336.901 851.625 337.433 850.407 337.433C848.578 337.433 847.367 336.229 847.344 334.175H855.703V333.308C855.703 329.097 853.172 327.245 850.219 327.245C846.782 327.245 844.539 329.769 844.539 333.472C844.539 337.237 846.75 339.636 850.367 339.636ZM847.352 332.269C847.438 330.737 848.571 329.448 850.258 329.448C851.883 329.448 852.977 330.636 852.992 332.269H847.352ZM860.924 332.37C860.924 330.636 861.971 329.636 863.463 329.636C864.924 329.636 865.799 330.597 865.799 332.198V339.401H868.627V331.761C868.635 328.886 866.994 327.245 864.518 327.245C862.721 327.245 861.487 328.104 860.94 329.44H860.799V327.401H858.096V339.401H860.924V332.37ZM877.494 327.401H875.127V324.526H872.299V327.401H870.596V329.589H872.299V336.261C872.283 338.519 873.924 339.628 876.049 339.565C876.854 339.542 877.408 339.386 877.713 339.284L877.237 337.073C877.08 337.112 876.76 337.183 876.408 337.183C875.698 337.183 875.127 336.933 875.127 335.792V329.589H877.494V327.401Z" fill="#262424"/>
<rect x="792.444" y="277" width="107" height="36" rx="4" fill="#4A796B"/>
<path d="M809.736 302H812.107V297.206H814.523L817.093 302H819.739L816.907 296.81C818.448 296.19 819.26 294.873 819.26 293.096C819.26 290.597 817.649 288.909 814.645 288.909H809.736V302ZM812.107 295.237V290.891H814.28C816.051 290.891 816.843 291.702 816.843 293.096C816.843 294.489 816.051 295.237 814.293 295.237H812.107ZM821.443 302H830.008V300.012H823.814V296.439H829.516V294.451H823.814V290.897H829.957V288.909H821.443V302ZM843.581 293.326C843.179 290.418 840.941 288.73 838.04 288.73C834.62 288.73 832.044 291.223 832.044 295.455C832.044 299.68 834.588 302.179 838.04 302.179C841.152 302.179 843.217 300.165 843.581 297.666L841.191 297.653C840.89 299.188 839.638 300.05 838.071 300.05C835.949 300.05 834.428 298.459 834.428 295.455C834.428 292.501 835.937 290.859 838.078 290.859C839.669 290.859 840.916 291.76 841.191 293.326H843.581ZM857.451 295.455C857.451 291.223 854.868 288.73 851.436 288.73C847.997 288.73 845.421 291.223 845.421 295.455C845.421 299.68 847.997 302.179 851.436 302.179C854.868 302.179 857.451 299.686 857.451 295.455ZM855.066 295.455C855.066 298.433 853.571 300.05 851.436 300.05C849.307 300.05 847.805 298.433 847.805 295.455C847.805 292.476 849.307 290.859 851.436 290.859C853.571 290.859 855.066 292.476 855.066 295.455ZM859.693 302H862.064V297.206H864.48L867.05 302H869.696L866.864 296.81C868.405 296.19 869.217 294.873 869.217 293.096C869.217 290.597 867.606 288.909 864.602 288.909H859.693V302ZM862.064 295.237V290.891H864.237C866.008 290.891 866.801 291.702 866.801 293.096C866.801 294.489 866.008 295.237 864.25 295.237H862.064ZM875.836 302C879.824 302 882.189 299.533 882.189 295.442C882.189 291.364 879.824 288.909 875.925 288.909H871.4V302H875.836ZM873.771 299.948V290.961H875.791C878.45 290.961 879.837 292.444 879.837 295.442C879.837 298.452 878.45 299.948 875.721 299.948H873.771Z" fill="white"/>
<g filter="url(#filter8_dd)">
<rect x="772" y="399.55" width="149.295" height="69.0046" rx="4" fill="white"/>
</g>
<path d="M772 403C772 401.095 773.545 399.55 775.45 399.55H917.845C919.751 399.55 921.295 401.095 921.295 403V403H772V403Z" fill="#4A796B"/>
<path d="M818.93 447.401L820.25 443.456H826.266L827.594 447.401H830.688L825.047 431.401H821.469L815.836 447.401H818.93ZM821.032 441.128L823.196 434.683H823.321L825.485 441.128H821.032ZM837.524 452.151C840.766 452.151 843.157 450.667 843.157 447.597V435.401H840.367V437.386H840.211C839.782 436.519 838.883 435.245 836.766 435.245C833.992 435.245 831.813 437.417 831.813 441.362C831.813 445.276 833.992 447.229 836.758 447.229C838.813 447.229 839.774 446.128 840.211 445.245H840.352V447.519C840.352 449.284 839.18 450.011 837.571 450.011C835.867 450.011 835.117 449.206 834.774 448.503L832.227 449.12C832.742 450.8 834.469 452.151 837.524 452.151ZM837.547 445.011C835.68 445.011 834.696 443.558 834.696 441.347C834.696 439.167 835.664 437.565 837.547 437.565C839.367 437.565 840.367 439.073 840.367 441.347C840.367 443.636 839.352 445.011 837.547 445.011ZM851.367 447.636C854.164 447.636 856.086 446.269 856.586 444.183L853.946 443.886C853.563 444.901 852.625 445.433 851.407 445.433C849.578 445.433 848.367 444.229 848.344 442.175H856.703V441.308C856.703 437.097 854.172 435.245 851.219 435.245C847.782 435.245 845.539 437.769 845.539 441.472C845.539 445.237 847.75 447.636 851.367 447.636ZM848.352 440.269C848.438 438.737 849.571 437.448 851.258 437.448C852.883 437.448 853.977 438.636 853.992 440.269H848.352ZM861.924 440.37C861.924 438.636 862.971 437.636 864.463 437.636C865.924 437.636 866.799 438.597 866.799 440.198V447.401H869.627V439.761C869.635 436.886 867.994 435.245 865.518 435.245C863.721 435.245 862.487 436.104 861.94 437.44H861.799V435.401H859.096V447.401H861.924V440.37ZM878.494 435.401H876.127V432.526H873.299V435.401H871.596V437.589H873.299V444.261C873.283 446.519 874.924 447.628 877.049 447.565C877.854 447.542 878.408 447.386 878.713 447.284L878.237 445.073C878.08 445.112 877.76 445.183 877.408 445.183C876.698 445.183 876.127 444.933 876.127 443.792V437.589H878.494V435.401Z" fill="#262424"/>
<rect x="793.444" y="385" width="107" height="36" rx="4" fill="#4A796B"/>
<path d="M810.736 410H813.107V405.206H815.523L818.093 410H820.739L817.907 404.81C819.448 404.19 820.26 402.873 820.26 401.096C820.26 398.597 818.649 396.909 815.645 396.909H810.736V410ZM813.107 403.237V398.891H815.28C817.051 398.891 817.843 399.702 817.843 401.096C817.843 402.489 817.051 403.237 815.293 403.237H813.107ZM822.443 410H831.008V408.012H824.814V404.439H830.516V402.451H824.814V398.897H830.957V396.909H822.443V410ZM844.581 401.326C844.179 398.418 841.941 396.73 839.04 396.73C835.62 396.73 833.044 399.223 833.044 403.455C833.044 407.68 835.588 410.179 839.04 410.179C842.152 410.179 844.217 408.165 844.581 405.666L842.191 405.653C841.89 407.188 840.638 408.05 839.071 408.05C836.949 408.05 835.428 406.459 835.428 403.455C835.428 400.501 836.937 398.859 839.078 398.859C840.669 398.859 841.916 399.76 842.191 401.326H844.581ZM858.451 403.455C858.451 399.223 855.868 396.73 852.436 396.73C848.997 396.73 846.421 399.223 846.421 403.455C846.421 407.68 848.997 410.179 852.436 410.179C855.868 410.179 858.451 407.686 858.451 403.455ZM856.066 403.455C856.066 406.433 854.571 408.05 852.436 408.05C850.307 408.05 848.805 406.433 848.805 403.455C848.805 400.476 850.307 398.859 852.436 398.859C854.571 398.859 856.066 400.476 856.066 403.455ZM860.693 410H863.064V405.206H865.48L868.05 410H870.696L867.864 404.81C869.405 404.19 870.217 402.873 870.217 401.096C870.217 398.597 868.606 396.909 865.602 396.909H860.693V410ZM863.064 403.237V398.891H865.237C867.008 398.891 867.801 399.702 867.801 401.096C867.801 402.489 867.008 403.237 865.25 403.237H863.064ZM876.836 410C880.824 410 883.189 407.533 883.189 403.442C883.189 399.364 880.824 396.909 876.925 396.909H872.4V410H876.836ZM874.771 407.948V398.961H876.791C879.45 398.961 880.837 400.444 880.837 403.442C880.837 406.452 879.45 407.948 876.721 407.948H874.771Z" fill="white"/>
<g filter="url(#filter9_dd)">
<rect x="47" y="350" width="252" height="118" rx="4" fill="white"/>
</g>
<path d="M47 353.8C47 351.591 48.7909 349.8 51 349.8H295C297.209 349.8 299 351.591 299 353.8V355.37H47V353.8Z" fill="#84559F"/>
<path d="M152.771 411.075H155.67V404.278H163.084V411.075H165.99V395.075H163.084V401.848H155.67V395.075H152.771V411.075ZM176.666 406.028C176.666 407.856 175.361 408.762 174.111 408.762C172.752 408.762 171.846 407.801 171.846 406.278V399.075H169.018V406.715C169.018 409.598 170.658 411.231 173.018 411.231C174.814 411.231 176.08 410.286 176.627 408.942H176.752V411.075H179.494V399.075H176.666V406.028ZM182.527 411.075H185.309V409.184H185.473C185.918 410.059 186.848 411.286 188.91 411.286C191.738 411.286 193.855 409.043 193.855 405.09C193.855 401.09 191.676 398.918 188.902 398.918C186.785 398.918 185.902 400.192 185.473 401.059H185.355V395.075H182.527V411.075ZM185.301 405.075C185.301 402.747 186.301 401.239 188.121 401.239C190.004 401.239 190.973 402.84 190.973 405.075C190.973 407.325 189.988 408.965 188.121 408.965C186.316 408.965 185.301 407.403 185.301 405.075Z" fill="#262424"/>
<path d="M95.6534 424.856V436.493H97.3239V428.067H97.4318L100.864 436.476H102.25L105.682 428.072H105.79V436.493H107.46V424.856H105.33L101.625 433.902H101.489L97.7841 424.856H95.6534ZM113.553 436.669C116.013 436.669 117.621 434.868 117.621 432.169C117.621 429.453 116.013 427.652 113.553 427.652C111.092 427.652 109.484 429.453 109.484 432.169C109.484 434.868 111.092 436.669 113.553 436.669ZM113.558 435.243C111.95 435.243 111.2 433.839 111.2 432.163C111.2 430.493 111.95 429.072 113.558 429.072C115.155 429.072 115.905 430.493 115.905 432.163C115.905 433.839 115.155 435.243 113.558 435.243ZM121.216 431.311C121.216 429.919 122.068 429.123 123.25 429.123C124.403 429.123 125.102 429.879 125.102 431.146V436.493H126.801V430.942C126.801 428.782 125.614 427.652 123.83 427.652C122.517 427.652 121.659 428.26 121.256 429.186H121.148V427.765H119.517V436.493H121.216V431.311ZM129.08 436.493H130.778V427.765H129.08V436.493ZM129.938 426.419C130.523 426.419 131.011 425.964 131.011 425.407C131.011 424.851 130.523 424.39 129.938 424.39C129.347 424.39 128.864 424.851 128.864 425.407C128.864 425.964 129.347 426.419 129.938 426.419ZM137.138 427.765H135.348V425.674H133.649V427.765H132.371V429.129H133.649V434.282C133.643 435.868 134.854 436.635 136.195 436.606C136.734 436.601 137.098 436.498 137.297 436.424L136.99 435.021C136.876 435.044 136.666 435.095 136.393 435.095C135.842 435.095 135.348 434.913 135.348 433.93V429.129H137.138V427.765ZM142.599 436.669C145.06 436.669 146.668 434.868 146.668 432.169C146.668 429.453 145.06 427.652 142.599 427.652C140.139 427.652 138.531 429.453 138.531 432.169C138.531 434.868 140.139 436.669 142.599 436.669ZM142.605 435.243C140.997 435.243 140.247 433.839 140.247 432.163C140.247 430.493 140.997 429.072 142.605 429.072C144.202 429.072 144.952 430.493 144.952 432.163C144.952 433.839 144.202 435.243 142.605 435.243ZM148.564 436.493H150.263V431.163C150.263 430.021 151.143 429.197 152.348 429.197C152.7 429.197 153.098 429.26 153.234 429.299V427.674C153.064 427.652 152.729 427.635 152.513 427.635C151.49 427.635 150.615 428.214 150.297 429.152H150.206V427.765H148.564V436.493ZM161.479 436.686C162.922 436.686 163.734 435.953 164.058 435.299H164.126V436.493H165.786V430.697C165.786 428.157 163.786 427.652 162.399 427.652C160.82 427.652 159.365 428.288 158.797 429.879L160.393 430.243C160.643 429.623 161.28 429.027 162.422 429.027C163.518 429.027 164.081 429.601 164.081 430.589V430.629C164.081 431.248 163.445 431.237 161.876 431.419C160.223 431.612 158.53 432.044 158.53 434.027C158.53 435.743 159.82 436.686 161.479 436.686ZM161.848 435.322C160.888 435.322 160.195 434.89 160.195 434.049C160.195 433.14 161.001 432.817 161.984 432.686C162.536 432.612 163.842 432.464 164.087 432.22V433.345C164.087 434.379 163.263 435.322 161.848 435.322ZM169.747 431.311C169.747 429.919 170.599 429.123 171.781 429.123C172.935 429.123 173.634 429.879 173.634 431.146V436.493H175.332V430.942C175.332 428.782 174.145 427.652 172.361 427.652C171.048 427.652 170.19 428.26 169.787 429.186H169.679V427.765H168.048V436.493H169.747V431.311ZM180.878 436.663C182.469 436.663 183.094 435.692 183.401 435.135H183.543V436.493H185.202V424.856H183.503V429.18H183.401C183.094 428.64 182.514 427.652 180.889 427.652C178.781 427.652 177.23 429.317 177.23 432.146C177.23 434.97 178.759 436.663 180.878 436.663ZM181.253 435.214C179.736 435.214 178.946 433.879 178.946 432.129C178.946 430.396 179.719 429.095 181.253 429.095C182.736 429.095 183.531 430.305 183.531 432.129C183.531 433.964 182.719 435.214 181.253 435.214ZM192.98 436.493L194.048 433.413H198.594L199.656 436.493H201.52L197.332 424.856H195.304L191.116 436.493H192.98ZM194.56 431.936L196.276 426.97H196.366L198.082 431.936H194.56ZM204.763 431.311C204.763 429.919 205.615 429.123 206.797 429.123C207.95 429.123 208.649 429.879 208.649 431.146V436.493H210.348V430.942C210.348 428.782 209.161 427.652 207.376 427.652C206.064 427.652 205.206 428.26 204.803 429.186H204.695V427.765H203.064V436.493H204.763V431.311ZM215.166 436.686C216.609 436.686 217.422 435.953 217.746 435.299H217.814V436.493H219.473V430.697C219.473 428.157 217.473 427.652 216.087 427.652C214.507 427.652 213.053 428.288 212.484 429.879L214.081 430.243C214.331 429.623 214.967 429.027 216.109 429.027C217.206 429.027 217.768 429.601 217.768 430.589V430.629C217.768 431.248 217.132 431.237 215.564 431.419C213.911 431.612 212.217 432.044 212.217 434.027C212.217 435.743 213.507 436.686 215.166 436.686ZM215.536 435.322C214.575 435.322 213.882 434.89 213.882 434.049C213.882 433.14 214.689 432.817 215.672 432.686C216.223 432.612 217.53 432.464 217.774 432.22V433.345C217.774 434.379 216.95 435.322 215.536 435.322ZM223.435 424.856H221.736V436.493H223.435V424.856ZM226.794 439.765C228.197 439.765 229.084 439.032 229.589 437.657L233.197 427.782L231.362 427.765L229.152 434.538H229.061L226.851 427.765H225.033L228.226 436.606L228.016 437.186C227.584 438.345 226.976 438.442 226.044 438.186L225.635 439.578C225.839 439.669 226.283 439.765 226.794 439.765ZM234.616 436.493H241.622V435.015H236.918V434.936L241.463 429.004V427.765H234.77V429.243H239.344V429.322L234.616 435.328V436.493ZM247.138 436.669C249.041 436.669 250.388 435.731 250.774 434.311L249.166 434.021C248.859 434.845 248.121 435.265 247.155 435.265C245.7 435.265 244.723 434.322 244.678 432.64H250.882V432.038C250.882 428.885 248.996 427.652 247.018 427.652C244.587 427.652 242.984 429.504 242.984 432.186C242.984 434.896 244.564 436.669 247.138 436.669ZM244.683 431.368C244.751 430.129 245.649 429.055 247.03 429.055C248.348 429.055 249.212 430.032 249.217 431.368H244.683Z" fill="#6D6666"/>
<rect x="118.02" y="338" width="116" height="36" rx="4" fill="#84559F"/>
<path d="M136.992 363L138.072 359.773H142.994L144.081 363H146.612L141.997 349.91H139.069L134.461 363H136.992ZM138.711 357.868L140.482 352.594H140.584L142.355 357.868H138.711ZM159.094 349.91H156.735V358.833H156.62L150.458 349.91H148.336V363H150.708V354.084H150.816L156.985 363H159.094V349.91ZM163.359 363L164.439 359.773H169.361L170.448 363H172.979L168.364 349.91H165.436L160.828 363H163.359ZM165.078 357.868L166.849 352.594H166.951L168.722 357.868H165.078ZM174.703 363H182.84V361.013H177.075V349.91H174.703V363ZM182.685 349.91L187.447 358.117V363H189.812V358.117L194.575 349.91H191.896L188.694 355.701H188.566L185.364 349.91H182.685ZM196.011 363H205.702V361.013H198.958L205.663 351.386V349.91H195.973V351.898H202.723L196.011 361.524V363ZM207.996 363H216.562V361.013H210.368V357.439H216.069V355.451H210.368V351.898H216.51V349.91H207.996V363Z" fill="white"/>
<path d="M620 326.75L620 310" stroke="#D1D1D1" stroke-width="2"/>
<path d="M330.108 94.2898C329.75 91.7045 327.761 90.2045 325.182 90.2045C322.142 90.2045 319.852 92.4205 319.852 96.1818C319.852 99.9375 322.114 102.159 325.182 102.159C327.949 102.159 329.784 100.369 330.108 98.1477L327.983 98.1364C327.716 99.5 326.602 100.267 325.21 100.267C323.324 100.267 321.972 98.8523 321.972 96.1818C321.972 93.5568 323.312 92.0966 325.216 92.0966C326.631 92.0966 327.739 92.8977 327.983 94.2898H330.108ZM332.038 102H339.271V100.233H334.146V90.3636H332.038V102ZM351.045 96.1818C351.045 92.4205 348.75 90.2045 345.699 90.2045C342.642 90.2045 340.352 92.4205 340.352 96.1818C340.352 99.9375 342.642 102.159 345.699 102.159C348.75 102.159 351.045 99.9432 351.045 96.1818ZM348.926 96.1818C348.926 98.8295 347.597 100.267 345.699 100.267C343.807 100.267 342.472 98.8295 342.472 96.1818C342.472 93.5341 343.807 92.0966 345.699 92.0966C347.597 92.0966 348.926 93.5341 348.926 96.1818ZM360.374 90.3636V97.7898C360.374 99.25 359.357 100.295 357.76 100.295C356.158 100.295 355.146 99.25 355.146 97.7898V90.3636H353.038V97.9659C353.038 100.466 354.913 102.176 357.76 102.176C360.595 102.176 362.482 100.466 362.482 97.9659V90.3636H360.374ZM368.716 102C372.261 102 374.364 99.8068 374.364 96.1705C374.364 92.5455 372.261 90.3636 368.795 90.3636H364.773V102H368.716ZM366.881 100.176V92.1875H368.676C371.04 92.1875 372.273 93.5057 372.273 96.1705C372.273 98.8466 371.04 100.176 368.614 100.176H366.881Z" fill="#6D6666"/>
<path d="M442.148 102H449.761V100.233H444.256V97.0568H449.324V95.2898H444.256V92.1307H449.716V90.3636H442.148V102ZM455.81 102C459.355 102 461.457 99.8068 461.457 96.1705C461.457 92.5455 459.355 90.3636 455.889 90.3636H451.866V102H455.81ZM453.974 100.176V92.1875H455.77C458.134 92.1875 459.366 93.5057 459.366 96.1705C459.366 98.8466 458.134 100.176 455.707 100.176H453.974ZM471.256 94.0795H473.403C473.045 91.7955 471.068 90.2045 468.494 90.2045C465.449 90.2045 463.165 92.4432 463.165 96.1932C463.165 99.875 465.347 102.159 468.557 102.159C471.438 102.159 473.5 100.307 473.5 97.3068V95.9091H468.778V97.5568H471.46C471.426 99.2159 470.318 100.267 468.568 100.267C466.619 100.267 465.284 98.8068 465.284 96.1705C465.284 93.5511 466.642 92.0966 468.523 92.0966C469.926 92.0966 470.881 92.8466 471.256 94.0795ZM475.538 102H483.152V100.233H477.646V97.0568H482.714V95.2898H477.646V92.1307H483.107V90.3636H475.538V102Z" fill="#6D6666"/>
<defs>
<filter id="filter0_f" x="929.778" y="274.844" width="58.88" height="57.2809" filterUnits="userSpaceOnUse" color-interpolation-filters="sRGB">
<feFlood flood-opacity="0" result="BackgroundImageFix"/>
<feBlend mode="normal" in="SourceGraphic" in2="BackgroundImageFix" result="shape"/>
<feGaussianBlur stdDeviation="5.99149" result="effect1_foregroundBlur"/>
</filter>
<filter id="filter1_f" x="925.778" y="169.844" width="58.88" height="57.2809" filterUnits="userSpaceOnUse" color-interpolation-filters="sRGB">
<feFlood flood-opacity="0" result="BackgroundImageFix"/>
<feBlend mode="normal" in="SourceGraphic" in2="BackgroundImageFix" result="shape"/>
<feGaussianBlur stdDeviation="5.99149" result="effect1_foregroundBlur"/>
</filter>
<filter id="filter2_f" x="927.778" y="377.844" width="58.88" height="57.2809" filterUnits="userSpaceOnUse" color-interpolation-filters="sRGB">
<feFlood flood-opacity="0" result="BackgroundImageFix"/>
<feBlend mode="normal" in="SourceGraphic" in2="BackgroundImageFix" result="shape"/>
<feGaussianBlur stdDeviation="5.99149" result="effect1_foregroundBlur"/>
</filter>
<filter id="filter3_dd" x="460" y="318" width="320" height="188" filterUnits="userSpaceOnUse" color-interpolation-filters="sRGB">
<feFlood flood-opacity="0" result="BackgroundImageFix"/>
<feColorMatrix in="SourceAlpha" type="matrix" values="0 0 0 0 0 0 0 0 0 0 0 0 0 0 0 0 0 0 127 0" result="hardAlpha"/>
<feOffset dy="3"/>
<feGaussianBlur stdDeviation="2"/>
<feColorMatrix type="matrix" values="0 0 0 0 0 0 0 0 0 0 0 0 0 0 0 0 0 0 0.1 0"/>
<feBlend mode="normal" in2="BackgroundImageFix" result="effect1_dropShadow"/>
<feColorMatrix in="SourceAlpha" type="matrix" values="0 0 0 0 0 0 0 0 0 0 0 0 0 0 0 0 0 0 127 0" result="hardAlpha"/>
<feOffset dy="4"/>
<feGaussianBlur stdDeviation="17"/>
<feColorMatrix type="matrix" values="0 0 0 0 0 0 0 0 0 0 0 0 0 0 0 0 0 0 0.04 0"/>
<feBlend mode="normal" in2="effect1_dropShadow" result="effect2_dropShadow"/>
<feBlend mode="normal" in="SourceGraphic" in2="effect2_dropShadow" result="shape"/>
</filter>
<filter id="filter4_dd" x="13" y="157" width="320" height="188" filterUnits="userSpaceOnUse" color-interpolation-filters="sRGB">
<feFlood flood-opacity="0" result="BackgroundImageFix"/>
<feColorMatrix in="SourceAlpha" type="matrix" values="0 0 0 0 0 0 0 0 0 0 0 0 0 0 0 0 0 0 127 0" result="hardAlpha"/>
<feOffset dy="3"/>
<feGaussianBlur stdDeviation="2"/>
<feColorMatrix type="matrix" values="0 0 0 0 0 0 0 0 0 0 0 0 0 0 0 0 0 0 0.1 0"/>
<feBlend mode="normal" in2="BackgroundImageFix" result="effect1_dropShadow"/>
<feColorMatrix in="SourceAlpha" type="matrix" values="0 0 0 0 0 0 0 0 0 0 0 0 0 0 0 0 0 0 127 0" result="hardAlpha"/>
<feOffset dy="4"/>
<feGaussianBlur stdDeviation="17"/>
<feColorMatrix type="matrix" values="0 0 0 0 0 0 0 0 0 0 0 0 0 0 0 0 0 0 0.04 0"/>
<feBlend mode="normal" in2="effect1_dropShadow" result="effect2_dropShadow"/>
<feBlend mode="normal" in="SourceGraphic" in2="effect2_dropShadow" result="shape"/>
</filter>
<filter id="filter5_dd" x="462" y="151" width="320" height="188" filterUnits="userSpaceOnUse" color-interpolation-filters="sRGB">
<feFlood flood-opacity="0" result="BackgroundImageFix"/>
<feColorMatrix in="SourceAlpha" type="matrix" values="0 0 0 0 0 0 0 0 0 0 0 0 0 0 0 0 0 0 127 0" result="hardAlpha"/>
<feOffset dy="3"/>
<feGaussianBlur stdDeviation="2"/>
<feColorMatrix type="matrix" values="0 0 0 0 0 0 0 0 0 0 0 0 0 0 0 0 0 0 0.1 0"/>
<feBlend mode="normal" in2="BackgroundImageFix" result="effect1_dropShadow"/>
<feColorMatrix in="SourceAlpha" type="matrix" values="0 0 0 0 0 0 0 0 0 0 0 0 0 0 0 0 0 0 127 0" result="hardAlpha"/>
<feOffset dy="4"/>
<feGaussianBlur stdDeviation="17"/>
<feColorMatrix type="matrix" values="0 0 0 0 0 0 0 0 0 0 0 0 0 0 0 0 0 0 0.04 0"/>
<feBlend mode="normal" in2="effect1_dropShadow" result="effect2_dropShadow"/>
<feBlend mode="normal" in="SourceGraphic" in2="effect2_dropShadow" result="shape"/>
</filter>
<filter id="filter6_dd" x="740" y="149.55" width="217.296" height="137.004" filterUnits="userSpaceOnUse" color-interpolation-filters="sRGB">
<feFlood flood-opacity="0" result="BackgroundImageFix"/>
<feColorMatrix in="SourceAlpha" type="matrix" values="0 0 0 0 0 0 0 0 0 0 0 0 0 0 0 0 0 0 127 0" result="hardAlpha"/>
<feOffset dy="3"/>
<feGaussianBlur stdDeviation="2"/>
<feColorMatrix type="matrix" values="0 0 0 0 0 0 0 0 0 0 0 0 0 0 0 0 0 0 0.1 0"/>
<feBlend mode="normal" in2="BackgroundImageFix" result="effect1_dropShadow"/>
<feColorMatrix in="SourceAlpha" type="matrix" values="0 0 0 0 0 0 0 0 0 0 0 0 0 0 0 0 0 0 127 0" result="hardAlpha"/>
<feOffset dy="4"/>
<feGaussianBlur stdDeviation="17"/>
<feColorMatrix type="matrix" values="0 0 0 0 0 0 0 0 0 0 0 0 0 0 0 0 0 0 0.04 0"/>
<feBlend mode="normal" in2="effect1_dropShadow" result="effect2_dropShadow"/>
<feBlend mode="normal" in="SourceGraphic" in2="effect2_dropShadow" result="shape"/>
</filter>
<filter id="filter7_dd" x="737" y="261.55" width="217.296" height="137.004" filterUnits="userSpaceOnUse" color-interpolation-filters="sRGB">
<feFlood flood-opacity="0" result="BackgroundImageFix"/>
<feColorMatrix in="SourceAlpha" type="matrix" values="0 0 0 0 0 0 0 0 0 0 0 0 0 0 0 0 0 0 127 0" result="hardAlpha"/>
<feOffset dy="3"/>
<feGaussianBlur stdDeviation="2"/>
<feColorMatrix type="matrix" values="0 0 0 0 0 0 0 0 0 0 0 0 0 0 0 0 0 0 0.1 0"/>
<feBlend mode="normal" in2="BackgroundImageFix" result="effect1_dropShadow"/>
<feColorMatrix in="SourceAlpha" type="matrix" values="0 0 0 0 0 0 0 0 0 0 0 0 0 0 0 0 0 0 127 0" result="hardAlpha"/>
<feOffset dy="4"/>
<feGaussianBlur stdDeviation="17"/>
<feColorMatrix type="matrix" values="0 0 0 0 0 0 0 0 0 0 0 0 0 0 0 0 0 0 0.04 0"/>
<feBlend mode="normal" in2="effect1_dropShadow" result="effect2_dropShadow"/>
<feBlend mode="normal" in="SourceGraphic" in2="effect2_dropShadow" result="shape"/>
</filter>
<filter id="filter8_dd" x="738" y="369.55" width="217.296" height="137.004" filterUnits="userSpaceOnUse" color-interpolation-filters="sRGB">
<feFlood flood-opacity="0" result="BackgroundImageFix"/>
<feColorMatrix in="SourceAlpha" type="matrix" values="0 0 0 0 0 0 0 0 0 0 0 0 0 0 0 0 0 0 127 0" result="hardAlpha"/>
<feOffset dy="3"/>
<feGaussianBlur stdDeviation="2"/>
<feColorMatrix type="matrix" values="0 0 0 0 0 0 0 0 0 0 0 0 0 0 0 0 0 0 0.1 0"/>
<feBlend mode="normal" in2="BackgroundImageFix" result="effect1_dropShadow"/>
<feColorMatrix in="SourceAlpha" type="matrix" values="0 0 0 0 0 0 0 0 0 0 0 0 0 0 0 0 0 0 127 0" result="hardAlpha"/>
<feOffset dy="4"/>
<feGaussianBlur stdDeviation="17"/>
<feColorMatrix type="matrix" values="0 0 0 0 0 0 0 0 0 0 0 0 0 0 0 0 0 0 0.04 0"/>
<feBlend mode="normal" in2="effect1_dropShadow" result="effect2_dropShadow"/>
<feBlend mode="normal" in="SourceGraphic" in2="effect2_dropShadow" result="shape"/>
</filter>
<filter id="filter9_dd" x="13" y="320" width="320" height="186" filterUnits="userSpaceOnUse" color-interpolation-filters="sRGB">
<feFlood flood-opacity="0" result="BackgroundImageFix"/>
<feColorMatrix in="SourceAlpha" type="matrix" values="0 0 0 0 0 0 0 0 0 0 0 0 0 0 0 0 0 0 127 0" result="hardAlpha"/>
<feOffset dy="3"/>
<feGaussianBlur stdDeviation="2"/>
<feColorMatrix type="matrix" values="0 0 0 0 0 0 0 0 0 0 0 0 0 0 0 0 0 0 0.1 0"/>
<feBlend mode="normal" in2="BackgroundImageFix" result="effect1_dropShadow"/>
<feColorMatrix in="SourceAlpha" type="matrix" values="0 0 0 0 0 0 0 0 0 0 0 0 0 0 0 0 0 0 127 0" result="hardAlpha"/>
<feOffset dy="4"/>
<feGaussianBlur stdDeviation="17"/>
<feColorMatrix type="matrix" values="0 0 0 0 0 0 0 0 0 0 0 0 0 0 0 0 0 0 0.04 0"/>
<feBlend mode="normal" in2="effect1_dropShadow" result="effect2_dropShadow"/>
<feBlend mode="normal" in="SourceGraphic" in2="effect2_dropShadow" result="shape"/>
</filter>
<linearGradient id="paint0_linear" x1="933.787" y1="315.673" x2="930.687" y2="349.621" gradientUnits="userSpaceOnUse">
<stop stop-color="#080808"/>
<stop offset="1" stop-color="#080808" stop-opacity="0"/>
</linearGradient>
<linearGradient id="paint1_linear" x1="967.893" y1="320.845" x2="959.684" y2="333.472" gradientUnits="userSpaceOnUse">
<stop stop-color="#0E0E0E"/>
<stop offset="1" stop-color="#2F2F2F" stop-opacity="0"/>
</linearGradient>
<linearGradient id="paint2_linear" x1="1008" y1="323.72" x2="994.26" y2="312.554" gradientUnits="userSpaceOnUse">
<stop stop-color="#5D5D5D"/>
<stop offset="1" stop-color="#5D5D5D" stop-opacity="0"/>
</linearGradient>
<linearGradient id="paint3_linear" x1="996.53" y1="289.359" x2="1011.06" y2="322.14" gradientUnits="userSpaceOnUse">
<stop stop-color="#272727"/>
<stop offset="1" stop-color="#4A4A4A" stop-opacity="0"/>
</linearGradient>
<linearGradient id="paint4_linear" x1="972.058" y1="305.84" x2="961.549" y2="316.393" gradientUnits="userSpaceOnUse">
<stop stop-color="#4A4A4A"/>
<stop offset="1" stop-color="#4A4A4A" stop-opacity="0"/>
</linearGradient>
<radialGradient id="paint5_radial" cx="0" cy="0" r="1" gradientUnits="userSpaceOnUse" gradientTransform="translate(996.064 310.281) rotate(152.409) scale(15.5657 11.4704)">
<stop stop-color="#004C80"/>
<stop offset="1" stop-color="#004C80" stop-opacity="0"/>
</radialGradient>
<linearGradient id="paint6_linear" x1="986.676" y1="319.239" x2="977.723" y2="318.806" gradientUnits="userSpaceOnUse">
<stop/>
<stop offset="1" stop-opacity="0"/>
</linearGradient>
<radialGradient id="paint7_radial" cx="0" cy="0" r="1" gradientUnits="userSpaceOnUse" gradientTransform="translate(983.998 318.839) rotate(180) scale(2.5442)">
<stop stop-color="#FF0000"/>
<stop offset="1" stop-color="#760000"/>
</radialGradient>
<linearGradient id="paint8_linear" x1="1004.61" y1="323.444" x2="994.183" y2="312.419" gradientUnits="userSpaceOnUse">
<stop stop-color="white"/>
<stop offset="1" stop-color="white" stop-opacity="0"/>
</linearGradient>
<linearGradient id="paint9_linear" x1="978.224" y1="284.42" x2="959.458" y2="292.234" gradientUnits="userSpaceOnUse">
<stop stop-color="#858585"/>
<stop offset="1" stop-color="#858585" stop-opacity="0"/>
</linearGradient>
<linearGradient id="paint10_linear" x1="929.787" y1="210.673" x2="926.687" y2="244.621" gradientUnits="userSpaceOnUse">
<stop stop-color="#080808"/>
<stop offset="1" stop-color="#080808" stop-opacity="0"/>
</linearGradient>
<linearGradient id="paint11_linear" x1="963.893" y1="215.845" x2="955.684" y2="228.472" gradientUnits="userSpaceOnUse">
<stop stop-color="#0E0E0E"/>
<stop offset="1" stop-color="#2F2F2F" stop-opacity="0"/>
</linearGradient>
<linearGradient id="paint12_linear" x1="1004" y1="218.72" x2="990.26" y2="207.554" gradientUnits="userSpaceOnUse">
<stop stop-color="#5D5D5D"/>
<stop offset="1" stop-color="#5D5D5D" stop-opacity="0"/>
</linearGradient>
<linearGradient id="paint13_linear" x1="992.53" y1="184.359" x2="1007.06" y2="217.14" gradientUnits="userSpaceOnUse">
<stop stop-color="#272727"/>
<stop offset="1" stop-color="#4A4A4A" stop-opacity="0"/>
</linearGradient>
<linearGradient id="paint14_linear" x1="968.058" y1="200.84" x2="957.549" y2="211.393" gradientUnits="userSpaceOnUse">
<stop stop-color="#4A4A4A"/>
<stop offset="1" stop-color="#4A4A4A" stop-opacity="0"/>
</linearGradient>
<radialGradient id="paint15_radial" cx="0" cy="0" r="1" gradientUnits="userSpaceOnUse" gradientTransform="translate(992.064 205.281) rotate(152.409) scale(15.5657 11.4704)">
<stop stop-color="#004C80"/>
<stop offset="1" stop-color="#004C80" stop-opacity="0"/>
</radialGradient>
<linearGradient id="paint16_linear" x1="982.676" y1="214.239" x2="973.723" y2="213.806" gradientUnits="userSpaceOnUse">
<stop/>
<stop offset="1" stop-opacity="0"/>
</linearGradient>
<radialGradient id="paint17_radial" cx="0" cy="0" r="1" gradientUnits="userSpaceOnUse" gradientTransform="translate(979.998 213.839) rotate(180) scale(2.5442)">
<stop stop-color="#FF0000"/>
<stop offset="1" stop-color="#760000"/>
</radialGradient>
<linearGradient id="paint18_linear" x1="1000.61" y1="218.444" x2="990.183" y2="207.419" gradientUnits="userSpaceOnUse">
<stop stop-color="white"/>
<stop offset="1" stop-color="white" stop-opacity="0"/>
</linearGradient>
<linearGradient id="paint19_linear" x1="974.224" y1="179.42" x2="955.458" y2="187.234" gradientUnits="userSpaceOnUse">
<stop stop-color="#858585"/>
<stop offset="1" stop-color="#858585" stop-opacity="0"/>
</linearGradient>
<linearGradient id="paint20_linear" x1="931.787" y1="418.673" x2="928.687" y2="452.621" gradientUnits="userSpaceOnUse">
<stop stop-color="#080808"/>
<stop offset="1" stop-color="#080808" stop-opacity="0"/>
</linearGradient>
<linearGradient id="paint21_linear" x1="965.893" y1="423.845" x2="957.684" y2="436.472" gradientUnits="userSpaceOnUse">
<stop stop-color="#0E0E0E"/>
<stop offset="1" stop-color="#2F2F2F" stop-opacity="0"/>
</linearGradient>
<linearGradient id="paint22_linear" x1="1006" y1="426.72" x2="992.26" y2="415.554" gradientUnits="userSpaceOnUse">
<stop stop-color="#5D5D5D"/>
<stop offset="1" stop-color="#5D5D5D" stop-opacity="0"/>
</linearGradient>
<linearGradient id="paint23_linear" x1="994.53" y1="392.359" x2="1009.06" y2="425.14" gradientUnits="userSpaceOnUse">
<stop stop-color="#272727"/>
<stop offset="1" stop-color="#4A4A4A" stop-opacity="0"/>
</linearGradient>
<linearGradient id="paint24_linear" x1="970.058" y1="408.84" x2="959.549" y2="419.393" gradientUnits="userSpaceOnUse">
<stop stop-color="#4A4A4A"/>
<stop offset="1" stop-color="#4A4A4A" stop-opacity="0"/>
</linearGradient>
<radialGradient id="paint25_radial" cx="0" cy="0" r="1" gradientUnits="userSpaceOnUse" gradientTransform="translate(994.064 413.281) rotate(152.409) scale(15.5657 11.4704)">
<stop stop-color="#004C80"/>
<stop offset="1" stop-color="#004C80" stop-opacity="0"/>
</radialGradient>
<linearGradient id="paint26_linear" x1="984.676" y1="422.239" x2="975.723" y2="421.806" gradientUnits="userSpaceOnUse">
<stop/>
<stop offset="1" stop-opacity="0"/>
</linearGradient>
<radialGradient id="paint27_radial" cx="0" cy="0" r="1" gradientUnits="userSpaceOnUse" gradientTransform="translate(981.998 421.839) rotate(180) scale(2.5442)">
<stop stop-color="#FF0000"/>
<stop offset="1" stop-color="#760000"/>
</radialGradient>
<linearGradient id="paint28_linear" x1="1002.61" y1="426.444" x2="992.183" y2="415.419" gradientUnits="userSpaceOnUse">
<stop stop-color="white"/>
<stop offset="1" stop-color="white" stop-opacity="0"/>
</linearGradient>
<linearGradient id="paint29_linear" x1="976.224" y1="387.42" x2="957.458" y2="395.234" gradientUnits="userSpaceOnUse">
<stop stop-color="#858585"/>
<stop offset="1" stop-color="#858585" stop-opacity="0"/>
</linearGradient>
</defs>
</svg>
