<svg width="36" height="36" viewBox="0 0 36 36" fill="none" xmlns="http://www.w3.org/2000/svg">
<path d="M18 36C27.9411 36 36 27.9411 36 18C36 8.05887 27.9411 0 18 0C8.05887 0 0 8.05887 0 18C0 27.9411 8.05887 36 18 36Z" fill="white" fill-opacity="0.8"/>
<mask id="mask0" mask-type="alpha" maskUnits="userSpaceOnUse" x="0" y="0" width="36" height="36">
<path d="M18 36C27.9411 36 36 27.9411 36 18C36 8.05887 27.9411 0 18 0C8.05887 0 0 8.05887 0 18C0 27.9411 8.05887 36 18 36Z" fill="black"/>
</mask>
<g mask="url(#mask0)">
<path d="M22.5544 9.06657C21.874 9.25466 20.2683 4.21564 19.7149 4.51264C19.1706 4.80963 18.6173 6.21541 18.6173 6.21541C18.4086 5.70062 17.8552 4.31464 17.2474 4.75023C16.4582 5.32442 15.542 8.13598 15.542 9.36356C15.542 11.0168 14.027 14.5214 14.027 14.5214C14.027 14.5214 11.0969 23.4213 12.7025 21.9661C14.3082 20.5108 16.2223 21.8671 17.0751 22.6789C17.9188 23.4708 18.8259 24.54 20.6675 24.54C21.2299 24.54 22.8356 24.1638 22.8537 23.2332C22.89 20.6593 23.8244 18.5308 23.8244 18.5308C23.8244 18.5308 24.532 18.4912 27.4077 18.1942C30.2744 17.8972 31.0636 15.848 31.0636 15.848C31.0636 15.848 32.4969 14.2442 30.0748 13.4621C26.4552 12.2939 25.9381 11.8583 25.9381 11.8583C23.9605 7.95778 20.74 8.61117 20.74 8.61117C20.2592 8.62107 19.8329 8.65077 19.4428 8.70027C16.7304 9.02697 16.1588 10.1456 16.1588 10.1456" fill="#B4524E"/>
<path d="M29.6937 13.3533C29.6937 13.3533 29.1222 14.6601 31.0635 15.8579C31.0635 15.8579 32.6783 14.1552 29.6937 13.3533Z" fill="#414042"/>
<path d="M21.7563 12.2147C21.7563 12.2147 24.0787 11.0564 24.2783 13.3532C24.2783 13.3532 23.8338 13.2245 23.3892 13.3532C22.972 13.472 22.2371 13.6105 21.7563 12.2147Z" fill="#414042"/>
<path d="M16.0231 9.91798C16.0231 9.91798 15.8961 9.16559 16.0594 8.3142C16.3497 6.73023 17.4837 4.48296 17.9735 4.97796C18.5723 5.59175 18.7809 5.90854 19.044 8.7696C19.044 8.7696 17.4474 8.7003 16.0231 9.91798Z" fill="#414042"/>
<path d="M19.443 8.71029C19.443 8.71029 19.0438 4.95825 20.0599 4.76025C20.1687 4.76025 21.9921 8.64099 22.0556 8.66079C22.1917 8.69049 20.8945 8.4628 19.443 8.71029Z" fill="#414042"/>
<path d="M14.1453 14.1948C14.1453 14.1948 15.0434 21.0851 16.123 21.9365C16.123 21.9365 14.1453 20.7188 12.4852 22.1741C12.4761 22.184 10.9612 22.4117 14.1453 14.1948Z" fill="#414042"/>
<g opacity="0.66">
<g opacity="0.66">
<g opacity="0.66">
<path opacity="0.66" d="M15.4788 10.0466C15.4788 10.0466 16.4222 24.5499 22.7996 23.5203C22.7996 23.5203 22.5456 24.4014 20.6678 24.5598C20.6678 24.5598 19.0984 24.8073 17.6015 23.1936C17.6015 23.1936 16.2499 22.0056 16.1138 21.9462C16.1138 21.9462 15.3518 21.4216 14.9163 18.6793C14.9163 18.6793 14.0182 14.4917 14.1362 14.2046C14.1452 14.1947 15.4697 10.4624 15.4788 10.0466Z" fill="#6D6E71"/>
</g>
</g>
</g>
<path d="M19.6152 17.5605C19.6152 17.5605 22.8629 18.996 23.8245 18.5505C23.8245 18.5505 23.4435 19.5801 23.3618 19.8969C23.3618 19.8969 23.1895 20.5602 23.1441 20.7978C23.1441 20.7879 19.969 21.4215 19.6152 17.5605Z" fill="#414042"/>
<path d="M19.6153 17.5605C19.6153 17.5605 19.8512 20.679 23.1442 20.7879C23.1442 20.7879 22.8902 22.2036 22.8902 22.5006C22.8902 22.5006 18.1639 22.7283 19.6153 17.5605Z" fill="#58595B"/>
<g opacity="0.26">
<g opacity="0.26">
<g opacity="0.26">
<path opacity="0.26" d="M30.0389 17.1648C30.0389 17.1648 22.8087 17.739 19.6064 17.5608C19.6064 17.5608 22.8813 19.0359 23.8157 18.5508C23.8157 18.5508 27.4353 18.2637 27.9705 18.1251C27.9796 18.1251 29.1136 17.9667 30.0389 17.1648Z" fill="#C49A6C"/>
</g>
</g>
</g>
<path d="M12.6305 12.195C11.9502 12.3831 10.3445 7.34406 9.7911 7.64105C9.2468 7.93805 8.6934 9.34383 8.6934 9.34383C8.4848 8.82903 7.9314 7.44306 7.3236 7.87865C6.5344 8.45284 5.61815 11.2644 5.61815 12.492C5.61815 14.1453 4.10318 17.6498 4.10318 17.6498C4.10318 17.6498 1.17303 26.5498 2.77871 25.0945C4.3844 23.6392 6.2894 24.9955 7.1513 25.8073C7.9949 26.5993 8.9021 27.6684 10.7436 27.6684C11.3061 27.6684 12.9118 27.2923 12.9299 26.3617C12.9662 23.7877 13.9006 21.6592 13.9006 21.6592C13.9006 21.6592 14.6082 21.6196 17.4839 21.3226C20.3505 21.0256 21.1398 18.9764 21.1398 18.9764C21.1398 18.9764 22.5731 17.3726 20.151 16.5905C16.5314 15.4223 16.0143 14.9867 16.0143 14.9867C14.0367 11.0862 10.8162 11.7396 10.8162 11.7396C10.3354 11.7495 9.909 11.7792 9.519 11.8287C6.8065 12.1554 6.235 13.2741 6.235 13.2741" fill="#B4524E"/>
<path d="M19.7699 16.4717C19.7699 16.4717 19.1984 17.7785 21.1397 18.9763C21.1397 18.9763 22.7545 17.2736 19.7699 16.4717Z" fill="#414042"/>
<path d="M11.832 15.3333C11.832 15.3333 14.1544 14.175 14.354 16.4718C14.354 16.4718 13.9094 16.3431 13.4649 16.4718C13.0476 16.5906 12.3128 16.7292 11.832 15.3333Z" fill="#414042"/>
<path d="M6.0988 13.0364C6.0988 13.0364 5.97182 12.284 6.13511 11.4326C6.42541 9.84864 7.5594 7.60137 8.0492 8.09636C8.648 8.71015 8.85661 9.02695 9.11971 11.888C9.11971 11.888 7.5231 11.8187 6.0988 13.0364Z" fill="#414042"/>
<path d="M9.5187 11.8287C9.5187 11.8287 9.1195 8.07666 10.1356 7.87866C10.2444 7.87866 12.0678 11.7594 12.1313 11.7792C12.2674 11.8089 10.9702 11.5812 9.5187 11.8287Z" fill="#414042"/>
<path d="M4.22102 17.3132C4.22102 17.3132 5.11911 24.2035 6.1986 25.0549C6.1986 25.0549 4.22102 23.8372 2.5609 25.2925C2.55183 25.3024 1.03686 25.5301 4.22102 17.3132Z" fill="#414042"/>
<path d="M5.55445 13.165C5.55445 13.165 6.4979 27.6683 12.8753 26.6387C12.8753 26.6387 12.6213 27.5198 10.7435 27.6782C10.7435 27.6782 9.1741 27.9257 7.6772 26.312C7.6772 26.312 6.3255 25.1241 6.1895 25.0647C6.1895 25.0647 5.42745 24.54 4.99201 21.7977C4.99201 21.7977 4.09392 17.6101 4.21185 17.323C4.22092 17.3131 5.54538 13.5808 5.55445 13.165Z" fill="#6D6E71"/>
<path d="M9.69141 20.6792C9.69141 20.6792 12.9391 22.1147 13.9007 21.6692C13.9007 21.6692 13.6467 22.6988 13.5741 23.0156C13.5741 23.0156 13.5378 23.9957 13.4834 24.2233C13.4743 24.2233 10.0452 24.5401 9.69141 20.6792Z" fill="#414042"/>
<path d="M9.69102 20.6792C9.69102 20.6792 10.072 23.857 13.365 23.9758C13.365 23.9758 12.9659 25.3222 12.9659 25.6192C12.9659 25.6192 8.23952 25.8568 9.69102 20.6792Z" fill="#58595B"/>
<g opacity="0.26">
<g opacity="0.26">
<g opacity="0.26">
<path opacity="0.26" d="M20.1145 20.2832C20.1145 20.2832 12.8844 20.8574 9.68213 20.6792C9.68213 20.6792 12.957 22.1543 13.8914 21.6692C13.8914 21.6692 17.511 21.3821 18.0462 21.2435C18.0553 21.2435 19.1892 21.095 20.1145 20.2832Z" fill="#C49A6C"/>
</g>
</g>
</g>
<path d="M20.55 21.8573C19.8696 22.0454 18.2639 17.0064 17.7105 17.3034C17.1662 17.6004 16.6129 19.0062 16.6129 19.0062C16.4042 18.4914 15.8509 17.1054 15.2431 17.541C14.4538 18.1152 13.5648 20.9268 13.5376 22.1543C13.4922 24.1838 12.0045 27.4607 12.0226 27.3122C12.0226 27.3122 9.09251 36.2121 10.6981 34.7568C12.3038 33.3016 14.2089 34.6578 15.0707 35.4696C15.9144 36.2616 16.8215 37.3308 18.6631 37.3308C19.2255 37.3308 20.8312 36.9546 20.8493 36.024C20.8856 33.4501 21.82 31.3216 21.82 31.3216C21.82 31.3216 22.5276 31.282 25.4033 30.985C28.27 30.688 29.0592 28.6387 29.0592 28.6387C29.0592 28.6387 30.4925 27.035 28.0704 26.2529C24.4508 25.0847 23.9337 24.6491 23.9337 24.6491C21.9561 20.7486 18.7356 21.4019 18.7356 21.4019C18.2548 21.4118 17.8285 21.4415 17.4384 21.491C14.726 21.8177 14.1545 22.9364 14.1545 22.9364" fill="#B4524E"/>
<path d="M27.6893 26.134C27.6893 26.134 27.1178 27.4408 29.0592 28.6387C29.0592 28.6486 30.6739 26.9359 27.6893 26.134Z" fill="#414042"/>
<path d="M19.752 24.9954C19.752 24.9954 22.0743 23.8371 22.2739 26.1339C22.2739 26.1339 21.8294 26.0052 21.3849 26.1339C20.9676 26.2527 20.2328 26.3913 19.752 24.9954Z" fill="#414042"/>
<path d="M14.0275 22.6987C14.0275 22.6987 13.9005 21.9464 14.0638 21.095C14.3541 19.511 15.4881 17.2637 15.9779 17.7587C16.5767 18.3725 16.7853 18.6893 17.0484 21.5504C17.0393 21.5504 15.4427 21.491 14.0275 22.6987Z" fill="#414042"/>
<path d="M17.4386 21.4908C17.4386 21.4908 17.0395 17.7388 18.0555 17.5408C18.1643 17.5408 19.9877 21.4215 20.0512 21.4413C20.1873 21.471 18.8991 21.2433 17.4386 21.4908Z" fill="#414042"/>
<path d="M12.0227 27.2031C12.068 27.3714 14.6807 35.5091 15.6514 36.0041C15.6514 36.0041 12.1769 33.4004 10.5168 34.8557C10.5259 34.8557 8.83849 35.42 12.0227 27.2031Z" fill="#414042"/>
<path d="M17.6108 30.3413C17.6108 30.3413 20.8585 31.7768 21.8201 31.3313C21.8201 31.3313 21.4391 32.3609 21.3574 32.6777C21.3574 32.6777 21.1851 33.341 21.1397 33.5786C21.1397 33.5687 17.9646 34.2023 17.6108 30.3413Z" fill="#414042"/>
<path d="M17.6109 30.3413C17.6109 30.3413 17.8468 33.4598 21.1398 33.5687C21.1398 33.5687 20.8858 34.9843 20.8858 35.2813C20.8858 35.2813 16.1595 35.5189 17.6109 30.3413Z" fill="#58595B"/>
<g opacity="0.26">
<g opacity="0.26">
<g opacity="0.26">
<path opacity="0.26" d="M28.0433 29.9453C28.0433 29.9453 20.8131 30.5195 17.6108 30.3413C17.6108 30.3413 20.8857 31.8164 21.8201 31.3313C21.8201 31.3313 25.4397 31.0442 25.9749 30.9056C25.9749 30.9056 27.1089 30.7571 28.0433 29.9453Z" fill="#C49A6C"/>
</g>
</g>
</g>
<path d="M2.29785 25.1042C2.29785 25.1042 5.52737 33.7963 10.6347 35.0041L10.7889 32.9647L11.932 28.8959L12.0318 27.1931C12.0318 27.1931 8.7206 27.2723 7.0696 25.6586C7.0696 25.6586 6.7158 25.4309 6.1987 25.0448C5.68158 24.6587 2.57 23.7578 2.65165 24.7181C2.73329 25.6784 2.52464 24.5399 2.52464 24.5399L2.29785 25.1042Z" fill="#414042"/>
<path d="M17.4836 38.0534L18.7899 37.0832C18.7899 37.0832 15.9232 37.6178 14.5988 34.232C13.2743 30.8463 12.6121 32.8956 12.6121 32.8956L11.9771 34.6478L13.4557 37.4198L16.4494 38.2811L17.4836 38.0534Z" fill="#414042"/>
<path d="M4.19336 17.4419C4.19336 17.4419 5.49061 32.7174 12.0585 27.2724L11.5505 26.9952L10.3258 26.7775L9.1556 25.9162L7.4773 23.164L5.67204 19.412L4.19336 17.4419Z" fill="#6D6E71"/>
<path d="M2.35202 23.1541C2.35202 23.1541 -0.913781 36.4693 1.8803 35.519C1.8803 35.519 7.9674 34.3607 11.714 37.4989C11.714 37.4989 19.1165 43.6467 20.8401 36.1229C20.5861 37.2613 13.1564 38.6275 12.222 33.7766C11.4418 29.7572 6.1893 28.6386 6.1893 28.6386L2.35202 23.1541Z" fill="#414042"/>
</g>
</svg>
