<svg class="logo" viewBox="0 0 44 44" fill="none" xmlns="http://www.w3.org/2000/svg">
<g filter="url(#filter0_d)">
<circle cx="22" cy="18" r="18" fill="white" fill-opacity="0.8"/>
</g>
<mask id="mask0" mask-type="alpha" maskUnits="userSpaceOnUse" x="4" y="0" width="36" height="36">
<circle cx="22" cy="18" r="18" fill="white"/>
</mask>
<g mask="url(#mask0)">
<path d="M26.5544 9.06657C25.874 9.25466 24.2683 4.21564 23.7149 4.51264C23.1706 4.80963 22.6173 6.21541 22.6173 6.21541C22.4086 5.70062 21.8552 4.31464 21.2474 4.75023C20.4582 5.32442 19.542 8.13598 19.542 9.36356C19.542 11.0168 18.027 14.5214 18.027 14.5214C18.027 14.5214 15.0969 23.4213 16.7025 21.9661C18.3082 20.5108 20.2223 21.8671 21.0751 22.6789C21.9188 23.4708 22.8259 24.54 24.6675 24.54C25.2299 24.54 26.8356 24.1638 26.8537 23.2332C26.89 20.6593 27.8244 18.5308 27.8244 18.5308C27.8244 18.5308 28.532 18.4912 31.4077 18.1942C34.2744 17.8972 35.0636 15.848 35.0636 15.848C35.0636 15.848 36.4969 14.2442 34.0748 13.4621C30.4552 12.2939 29.9381 11.8583 29.9381 11.8583C27.9605 7.95778 24.74 8.61117 24.74 8.61117C24.2592 8.62107 23.8329 8.65077 23.4428 8.70027C20.7304 9.02697 20.1588 10.1456 20.1588 10.1456" fill="#B4524E"/>
<path d="M33.6937 13.3533C33.6937 13.3533 33.1222 14.6601 35.0635 15.8579C35.0635 15.8579 36.6783 14.1552 33.6937 13.3533Z" fill="#414042"/>
<path d="M25.7563 12.2147C25.7563 12.2147 28.0787 11.0564 28.2783 13.3532C28.2783 13.3532 27.8338 13.2245 27.3892 13.3532C26.972 13.472 26.2371 13.6105 25.7563 12.2147Z" fill="#414042"/>
<path d="M20.0231 9.91798C20.0231 9.91798 19.8961 9.16559 20.0594 8.3142C20.3497 6.73023 21.4837 4.48296 21.9735 4.97796C22.5723 5.59175 22.7809 5.90854 23.044 8.7696C23.044 8.7696 21.4474 8.7003 20.0231 9.91798Z" fill="#414042"/>
<path d="M23.443 8.71029C23.443 8.71029 23.0438 4.95825 24.0599 4.76025C24.1687 4.76025 25.9921 8.64099 26.0556 8.66079C26.1917 8.69049 24.8945 8.4628 23.443 8.71029Z" fill="#414042"/>
<path d="M18.1453 14.1948C18.1453 14.1948 19.0434 21.0851 20.123 21.9365C20.123 21.9365 18.1453 20.7188 16.4852 22.1741C16.4761 22.184 14.9612 22.4117 18.1453 14.1948Z" fill="#414042"/>
<g opacity="0.66">
<g opacity="0.66">
<g opacity="0.66">
<path opacity="0.66" d="M19.4788 10.0466C19.4788 10.0466 20.4222 24.5499 26.7996 23.5203C26.7996 23.5203 26.5456 24.4014 24.6678 24.5598C24.6678 24.5598 23.0984 24.8073 21.6015 23.1936C21.6015 23.1936 20.2499 22.0056 20.1138 21.9462C20.1138 21.9462 19.3518 21.4216 18.9163 18.6793C18.9163 18.6793 18.0182 14.4917 18.1362 14.2046C18.1452 14.1947 19.4697 10.4624 19.4788 10.0466Z" fill="#6D6E71"/>
</g>
</g>
</g>
<path d="M23.6152 17.5605C23.6152 17.5605 26.8629 18.996 27.8245 18.5505C27.8245 18.5505 27.4435 19.5801 27.3618 19.8969C27.3618 19.8969 27.1895 20.5602 27.1441 20.7978C27.1441 20.7879 23.969 21.4215 23.6152 17.5605Z" fill="#414042"/>
<path d="M23.6153 17.5605C23.6153 17.5605 23.8512 20.679 27.1442 20.7879C27.1442 20.7879 26.8902 22.2036 26.8902 22.5006C26.8902 22.5006 22.1639 22.7283 23.6153 17.5605Z" fill="#58595B"/>
<g opacity="0.26">
<g opacity="0.26">
<g opacity="0.26">
<path opacity="0.26" d="M34.0389 17.1648C34.0389 17.1648 26.8087 17.739 23.6064 17.5608C23.6064 17.5608 26.8813 19.0359 27.8157 18.5508C27.8157 18.5508 31.4353 18.2637 31.9705 18.1251C31.9796 18.1251 33.1136 17.9667 34.0389 17.1648Z" fill="#C49A6C"/>
</g>
</g>
</g>
<path d="M16.6305 12.195C15.9502 12.3831 14.3445 7.34406 13.7911 7.64105C13.2468 7.93805 12.6934 9.34383 12.6934 9.34383C12.4848 8.82903 11.9314 7.44306 11.3236 7.87865C10.5344 8.45284 9.61815 11.2644 9.61815 12.492C9.61815 14.1453 8.10318 17.6498 8.10318 17.6498C8.10318 17.6498 5.17303 26.5498 6.77871 25.0945C8.3844 23.6392 10.2894 24.9955 11.1513 25.8073C11.9949 26.5993 12.9021 27.6684 14.7436 27.6684C15.3061 27.6684 16.9118 27.2923 16.9299 26.3617C16.9662 23.7877 17.9006 21.6592 17.9006 21.6592C17.9006 21.6592 18.6082 21.6196 21.4839 21.3226C24.3505 21.0256 25.1398 18.9764 25.1398 18.9764C25.1398 18.9764 26.5731 17.3726 24.151 16.5905C20.5314 15.4223 20.0143 14.9867 20.0143 14.9867C18.0367 11.0862 14.8162 11.7396 14.8162 11.7396C14.3354 11.7495 13.909 11.7792 13.519 11.8287C10.8065 12.1554 10.235 13.2741 10.235 13.2741" fill="#B4524E"/>
<path d="M23.7699 16.4717C23.7699 16.4717 23.1984 17.7785 25.1397 18.9763C25.1397 18.9763 26.7545 17.2736 23.7699 16.4717Z" fill="#414042"/>
<path d="M15.832 15.3333C15.832 15.3333 18.1544 14.175 18.354 16.4718C18.354 16.4718 17.9094 16.3431 17.4649 16.4718C17.0476 16.5906 16.3128 16.7292 15.832 15.3333Z" fill="#414042"/>
<path d="M10.0988 13.0364C10.0988 13.0364 9.97181 12.284 10.1351 11.4326C10.4254 9.84864 11.5594 7.60137 12.0492 8.09636C12.648 8.71015 12.8566 9.02695 13.1197 11.888C13.1197 11.888 11.5231 11.8187 10.0988 13.0364Z" fill="#414042"/>
<path d="M13.5187 11.8287C13.5187 11.8287 13.1195 8.07666 14.1356 7.87866C14.2444 7.87866 16.0678 11.7594 16.1313 11.7792C16.2674 11.8089 14.9702 11.5812 13.5187 11.8287Z" fill="#414042"/>
<path d="M8.22102 17.3132C8.22102 17.3132 9.11911 24.2035 10.1986 25.0549C10.1986 25.0549 8.22102 23.8372 6.5609 25.2925C6.55183 25.3024 5.03686 25.5301 8.22102 17.3132Z" fill="#414042"/>
<path d="M9.55445 13.165C9.55445 13.165 10.4979 27.6683 16.8753 26.6387C16.8753 26.6387 16.6213 27.5198 14.7435 27.6782C14.7435 27.6782 13.1741 27.9257 11.6772 26.312C11.6772 26.312 10.3255 25.1241 10.1895 25.0647C10.1895 25.0647 9.42745 24.54 8.99201 21.7977C8.99201 21.7977 8.09392 17.6101 8.21185 17.323C8.22092 17.3131 9.54538 13.5808 9.55445 13.165Z" fill="#6D6E71"/>
<path d="M13.6914 20.6792C13.6914 20.6792 16.9391 22.1147 17.9007 21.6692C17.9007 21.6692 17.6467 22.6988 17.5741 23.0156C17.5741 23.0156 17.5378 23.9957 17.4834 24.2233C17.4743 24.2233 14.0452 24.5401 13.6914 20.6792Z" fill="#414042"/>
<path d="M13.691 20.6792C13.691 20.6792 14.072 23.857 17.365 23.9758C17.365 23.9758 16.9659 25.3222 16.9659 25.6192C16.9659 25.6192 12.2395 25.8568 13.691 20.6792Z" fill="#58595B"/>
<g opacity="0.26">
<g opacity="0.26">
<g opacity="0.26">
<path opacity="0.26" d="M24.1145 20.2832C24.1145 20.2832 16.8844 20.8574 13.6821 20.6792C13.6821 20.6792 16.957 22.1543 17.8914 21.6692C17.8914 21.6692 21.511 21.3821 22.0462 21.2435C22.0553 21.2435 23.1892 21.095 24.1145 20.2832Z" fill="#C49A6C"/>
</g>
</g>
</g>
<path d="M24.55 21.8573C23.8696 22.0454 22.2639 17.0064 21.7105 17.3034C21.1662 17.6004 20.6129 19.0062 20.6129 19.0062C20.4042 18.4914 19.8509 17.1054 19.2431 17.541C18.4538 18.1152 17.5648 20.9268 17.5376 22.1543C17.4922 24.1838 16.0045 27.4607 16.0226 27.3122C16.0226 27.3122 13.0925 36.2121 14.6981 34.7568C16.3038 33.3016 18.2089 34.6578 19.0707 35.4696C19.9144 36.2616 20.8215 37.3308 22.6631 37.3308C23.2255 37.3308 24.8312 36.9546 24.8493 36.024C24.8856 33.4501 25.82 31.3216 25.82 31.3216C25.82 31.3216 26.5276 31.282 29.4033 30.985C32.27 30.688 33.0592 28.6387 33.0592 28.6387C33.0592 28.6387 34.4925 27.035 32.0704 26.2529C28.4508 25.0847 27.9337 24.6491 27.9337 24.6491C25.9561 20.7486 22.7356 21.4019 22.7356 21.4019C22.2548 21.4118 21.8285 21.4415 21.4384 21.491C18.726 21.8177 18.1545 22.9364 18.1545 22.9364" fill="#B4524E"/>
<path d="M31.6893 26.134C31.6893 26.134 31.1178 27.4408 33.0592 28.6387C33.0592 28.6486 34.6739 26.9359 31.6893 26.134Z" fill="#414042"/>
<path d="M23.752 24.9954C23.752 24.9954 26.0743 23.8371 26.2739 26.1339C26.2739 26.1339 25.8294 26.0052 25.3849 26.1339C24.9676 26.2527 24.2328 26.3913 23.752 24.9954Z" fill="#414042"/>
<path d="M18.0275 22.6987C18.0275 22.6987 17.9005 21.9464 18.0638 21.095C18.3541 19.511 19.4881 17.2637 19.9779 17.7587C20.5767 18.3725 20.7853 18.6893 21.0484 21.5504C21.0393 21.5504 19.4427 21.491 18.0275 22.6987Z" fill="#414042"/>
<path d="M21.4386 21.4908C21.4386 21.4908 21.0395 17.7388 22.0555 17.5408C22.1643 17.5408 23.9877 21.4215 24.0512 21.4413C24.1873 21.471 22.8991 21.2433 21.4386 21.4908Z" fill="#414042"/>
<path d="M16.0227 27.2031C16.068 27.3714 18.6807 35.5091 19.6514 36.0041C19.6514 36.0041 16.1769 33.4004 14.5168 34.8557C14.5259 34.8557 12.8385 35.42 16.0227 27.2031Z" fill="#414042"/>
<path d="M21.6108 30.3413C21.6108 30.3413 24.8585 31.7768 25.8201 31.3313C25.8201 31.3313 25.4391 32.3609 25.3574 32.6777C25.3574 32.6777 25.1851 33.341 25.1397 33.5786C25.1397 33.5687 21.9646 34.2023 21.6108 30.3413Z" fill="#414042"/>
<path d="M21.6109 30.3413C21.6109 30.3413 21.8468 33.4598 25.1398 33.5687C25.1398 33.5687 24.8858 34.9843 24.8858 35.2813C24.8858 35.2813 20.1595 35.5189 21.6109 30.3413Z" fill="#58595B"/>
<g opacity="0.26">
<g opacity="0.26">
<g opacity="0.26">
<path opacity="0.26" d="M32.0433 29.9453C32.0433 29.9453 24.8131 30.5195 21.6108 30.3413C21.6108 30.3413 24.8857 31.8164 25.8201 31.3313C25.8201 31.3313 29.4397 31.0442 29.9749 30.9056C29.9749 30.9056 31.1089 30.7571 32.0433 29.9453Z" fill="#C49A6C"/>
</g>
</g>
</g>
<path d="M6.29785 25.1042C6.29785 25.1042 9.52737 33.7963 14.6347 35.0041L14.7889 32.9647L15.932 28.8959L16.0318 27.1931C16.0318 27.1931 12.7206 27.2723 11.0696 25.6586C11.0696 25.6586 10.7158 25.4309 10.1987 25.0448C9.68158 24.6587 6.57 23.7578 6.65165 24.7181C6.73329 25.6784 6.52464 24.5399 6.52464 24.5399L6.29785 25.1042Z" fill="#414042"/>
<path d="M21.4836 38.0534L22.7899 37.0832C22.7899 37.0832 19.9232 37.6178 18.5988 34.232C17.2743 30.8463 16.6121 32.8956 16.6121 32.8956L15.9771 34.6478L17.4557 37.4198L20.4494 38.2811L21.4836 38.0534Z" fill="#414042"/>
<path d="M8.19336 17.4419C8.19336 17.4419 9.49061 32.7174 16.0585 27.2724L15.5505 26.9952L14.3258 26.7775L13.1556 25.9162L11.4773 23.164L9.67204 19.412L8.19336 17.4419Z" fill="#6D6E71"/>
<path d="M6.35202 23.1541C6.35202 23.1541 3.08622 36.4693 5.8803 35.519C5.8803 35.519 11.9674 34.3607 15.714 37.4989C15.714 37.4989 23.1165 43.6467 24.8401 36.1229C24.5861 37.2613 17.1564 38.6275 16.222 33.7766C15.4418 29.7572 10.1893 28.6386 10.1893 28.6386L6.35202 23.1541Z" fill="#414042"/>
</g>
<defs>
<filter id="filter0_d" x="0" y="0" width="44" height="44" filterUnits="userSpaceOnUse" color-interpolation-filters="sRGB">
<feFlood flood-opacity="0" result="BackgroundImageFix"/>
<feColorMatrix in="SourceAlpha" type="matrix" values="0 0 0 0 0 0 0 0 0 0 0 0 0 0 0 0 0 0 127 0"/>
<feOffset dy="4"/>
<feGaussianBlur stdDeviation="2"/>
<feColorMatrix type="matrix" values="0 0 0 0 0 0 0 0 0 0 0 0 0 0 0 0 0 0 0.03 0"/>
<feBlend mode="normal" in2="BackgroundImageFix" result="effect1_dropShadow"/>
<feBlend mode="normal" in="SourceGraphic" in2="effect1_dropShadow" result="shape"/>
</filter>
</defs>
</svg>
