<svg width="1099" height="598" viewBox="0 0 1099 598" fill="none" xmlns="http://www.w3.org/2000/svg">
<path d="M352 515L369 515L369 320.5M352 126L369 126L369 320.5M369 320.5L441 320.5" stroke="#D1D1D1" stroke-width="2"/>
<path d="M458 516L441 516L441 321.5L441 127L458 127" stroke="#D1D1D1" stroke-width="2"/>
<path d="M330.108 94.2898C329.75 91.7045 327.761 90.2045 325.182 90.2045C322.142 90.2045 319.852 92.4205 319.852 96.1818C319.852 99.9375 322.114 102.159 325.182 102.159C327.949 102.159 329.784 100.369 330.108 98.1477L327.983 98.1364C327.716 99.5 326.602 100.267 325.21 100.267C323.324 100.267 321.972 98.8523 321.972 96.1818C321.972 93.5568 323.312 92.0966 325.216 92.0966C326.631 92.0966 327.739 92.8977 327.983 94.2898H330.108ZM332.038 102H339.271V100.233H334.146V90.3636H332.038V102ZM351.045 96.1818C351.045 92.4205 348.75 90.2045 345.699 90.2045C342.642 90.2045 340.352 92.4205 340.352 96.1818C340.352 99.9375 342.642 102.159 345.699 102.159C348.75 102.159 351.045 99.9432 351.045 96.1818ZM348.926 96.1818C348.926 98.8295 347.597 100.267 345.699 100.267C343.807 100.267 342.472 98.8295 342.472 96.1818C342.472 93.5341 343.807 92.0966 345.699 92.0966C347.597 92.0966 348.926 93.5341 348.926 96.1818ZM360.374 90.3636V97.7898C360.374 99.25 359.357 100.295 357.76 100.295C356.158 100.295 355.146 99.25 355.146 97.7898V90.3636H353.038V97.9659C353.038 100.466 354.913 102.176 357.76 102.176C360.595 102.176 362.482 100.466 362.482 97.9659V90.3636H360.374ZM368.716 102C372.261 102 374.364 99.8068 374.364 96.1705C374.364 92.5455 372.261 90.3636 368.795 90.3636H364.773V102H368.716ZM366.881 100.176V92.1875H368.676C371.04 92.1875 372.273 93.5057 372.273 96.1705C372.273 98.8466 371.04 100.176 368.614 100.176H366.881Z" fill="#6D6666"/>
<path d="M442.148 102H449.761V100.233H444.256V97.0568H449.324V95.2898H444.256V92.1307H449.716V90.3636H442.148V102ZM455.81 102C459.355 102 461.457 99.8068 461.457 96.1705C461.457 92.5455 459.355 90.3636 455.889 90.3636H451.866V102H455.81ZM453.974 100.176V92.1875H455.77C458.134 92.1875 459.366 93.5057 459.366 96.1705C459.366 98.8466 458.134 100.176 455.707 100.176H453.974ZM471.256 94.0795H473.403C473.045 91.7955 471.068 90.2045 468.494 90.2045C465.449 90.2045 463.165 92.4432 463.165 96.1932C463.165 99.875 465.347 102.159 468.557 102.159C471.438 102.159 473.5 100.307 473.5 97.3068V95.9091H468.778V97.5568H471.46C471.426 99.2159 470.318 100.267 468.568 100.267C466.619 100.267 465.284 98.8068 465.284 96.1705C465.284 93.5511 466.642 92.0966 468.523 92.0966C469.926 92.0966 470.881 92.8466 471.256 94.0795ZM475.538 102H483.152V100.233H477.646V97.0568H482.714V95.2898H477.646V92.1307H483.107V90.3636H475.538V102Z" fill="#6D6666"/>
<path d="M182.239 174.053C180.845 174.053 179.529 173.437 178.639 172.322L165.09 155.587C164.2 154.471 163.852 153.048 164.2 151.663L169.039 130.773C169.348 129.388 170.277 128.272 171.555 127.656L191.142 118.346C191.761 118.039 192.458 117.885 193.155 117.885C193.852 117.885 194.548 118.039 195.168 118.346L214.755 127.618C216.032 128.234 216.961 129.349 217.271 130.734L222.11 151.624C222.419 153.009 222.11 154.433 221.219 155.548L207.671 172.283C206.781 173.36 205.465 174.014 204.071 174.014L182.239 174.053Z" fill="#326DE6"/>
<path d="M193.117 118.847C193.658 118.847 194.2 118.962 194.704 119.193L214.291 128.465C215.297 128.965 216.071 129.888 216.304 130.965L221.142 151.855C221.413 152.971 221.142 154.125 220.407 155.01L206.858 171.745C206.162 172.63 205.078 173.13 203.955 173.13H182.239C181.117 173.13 180.033 172.63 179.336 171.745L165.788 155.01C165.091 154.125 164.82 152.971 165.052 151.855L169.891 130.965C170.162 129.85 170.897 128.926 171.904 128.465L191.491 119.154C191.994 118.962 192.575 118.847 193.117 118.847ZM193.117 117.039C192.304 117.039 191.491 117.231 190.717 117.577L171.129 126.887C169.581 127.618 168.497 128.965 168.11 130.619L163.271 151.509C162.884 153.163 163.271 154.856 164.355 156.202L177.904 172.937C178.949 174.245 180.536 174.976 182.2 174.976H203.917C205.581 174.976 207.168 174.245 208.213 172.937L221.762 156.202C222.846 154.894 223.233 153.163 222.846 151.509L218.007 130.619C217.62 128.965 216.536 127.618 214.988 126.887L195.478 117.577C194.742 117.231 193.929 117.039 193.117 117.039Z" fill="white"/>
<path d="M212.742 150.201C212.704 150.201 212.704 150.201 212.742 150.201H212.704C212.665 150.201 212.626 150.201 212.626 150.162C212.549 150.162 212.471 150.124 212.394 150.124C212.123 150.085 211.891 150.047 211.658 150.047C211.542 150.047 211.426 150.047 211.271 150.008H211.233C210.42 149.931 209.762 149.854 209.142 149.662C208.871 149.547 208.794 149.393 208.717 149.239C208.717 149.2 208.678 149.2 208.678 149.162L208.175 149.008C208.407 147.238 208.329 145.392 207.904 143.584C207.478 141.775 206.742 140.083 205.736 138.544L206.123 138.198V138.121C206.123 137.928 206.162 137.736 206.317 137.544C206.781 137.12 207.362 136.774 208.058 136.351C208.175 136.274 208.291 136.236 208.407 136.159C208.639 136.043 208.833 135.928 209.065 135.774C209.104 135.735 209.181 135.697 209.258 135.62C209.297 135.582 209.336 135.582 209.336 135.543C209.878 135.081 209.994 134.312 209.607 133.812C209.413 133.543 209.065 133.389 208.717 133.389C208.407 133.389 208.136 133.504 207.865 133.696C207.826 133.735 207.826 133.735 207.788 133.773C207.71 133.812 207.671 133.889 207.594 133.927C207.4 134.12 207.246 134.274 207.091 134.466C207.013 134.543 206.936 134.658 206.82 134.735C206.278 135.312 205.775 135.774 205.271 136.12C205.155 136.197 205.039 136.236 204.923 136.236C204.846 136.236 204.768 136.236 204.691 136.197H204.613L204.149 136.505C203.646 135.966 203.104 135.505 202.562 135.043C200.239 133.235 197.413 132.119 194.471 131.85L194.433 131.35C194.394 131.311 194.394 131.311 194.355 131.273C194.239 131.157 194.084 131.042 194.046 130.773C194.007 130.157 194.084 129.465 194.162 128.695V128.657C194.162 128.541 194.2 128.387 194.239 128.272C194.278 128.041 194.317 127.81 194.355 127.541V127.31V127.195C194.355 126.502 193.813 125.925 193.155 125.925C192.846 125.925 192.536 126.079 192.304 126.31C192.071 126.541 191.955 126.849 191.955 127.195V127.272V127.503C191.955 127.772 191.994 128.003 192.071 128.234C192.11 128.349 192.11 128.464 192.149 128.618V128.657C192.226 129.426 192.342 130.119 192.265 130.734C192.226 131.004 192.071 131.119 191.955 131.234C191.917 131.273 191.917 131.273 191.878 131.311L191.839 131.811C191.142 131.888 190.446 131.965 189.749 132.119C186.768 132.773 184.136 134.274 182.084 136.428L181.697 136.159H181.62C181.542 136.159 181.465 136.197 181.388 136.197C181.271 136.197 181.155 136.159 181.039 136.082C180.536 135.735 180.033 135.235 179.491 134.658C179.413 134.581 179.336 134.466 179.22 134.389C179.065 134.197 178.91 134.043 178.717 133.85C178.678 133.812 178.6 133.773 178.523 133.696C178.484 133.658 178.446 133.658 178.446 133.62C178.213 133.427 177.904 133.312 177.594 133.312C177.246 133.312 176.897 133.466 176.704 133.735C176.317 134.235 176.433 135.005 176.975 135.466C177.013 135.466 177.013 135.505 177.052 135.505C177.129 135.543 177.168 135.62 177.246 135.659C177.478 135.812 177.671 135.928 177.904 136.043C178.02 136.082 178.136 136.159 178.252 136.236C178.949 136.659 179.529 137.005 179.994 137.428C180.188 137.621 180.188 137.813 180.188 138.005V138.082L180.575 138.428C180.497 138.544 180.42 138.621 180.381 138.736C178.446 141.775 177.71 145.353 178.213 148.893L177.71 149.047C177.71 149.085 177.671 149.085 177.671 149.123C177.594 149.277 177.478 149.431 177.246 149.547C176.665 149.739 175.968 149.816 175.155 149.893H175.117C175 149.893 174.846 149.893 174.729 149.931C174.497 149.931 174.265 149.97 173.994 150.008C173.917 150.008 173.839 150.047 173.762 150.047C173.723 150.047 173.684 150.047 173.646 150.085C172.949 150.239 172.523 150.893 172.639 151.509C172.755 152.047 173.258 152.394 173.878 152.394C173.994 152.394 174.071 152.394 174.188 152.355C174.226 152.355 174.265 152.355 174.265 152.317C174.342 152.317 174.42 152.278 174.497 152.278C174.768 152.201 174.962 152.124 175.194 152.009C175.31 151.97 175.426 151.893 175.542 151.855H175.581C176.317 151.586 176.975 151.355 177.594 151.278H177.671C177.904 151.278 178.058 151.393 178.175 151.47C178.213 151.47 178.213 151.509 178.252 151.509L178.794 151.432C179.723 154.279 181.504 156.818 183.865 158.664C184.407 159.088 184.949 159.434 185.529 159.78L185.297 160.28C185.297 160.319 185.336 160.319 185.336 160.357C185.413 160.511 185.491 160.703 185.413 160.973C185.181 161.55 184.833 162.127 184.407 162.781V162.819C184.329 162.935 184.252 163.012 184.175 163.127C184.02 163.319 183.904 163.512 183.749 163.743C183.71 163.781 183.671 163.858 183.633 163.935C183.633 163.973 183.594 164.012 183.594 164.012C183.284 164.666 183.517 165.397 184.097 165.666C184.252 165.743 184.407 165.782 184.562 165.782C185.026 165.782 185.491 165.474 185.723 165.051C185.723 165.012 185.762 164.974 185.762 164.974C185.8 164.897 185.839 164.82 185.878 164.781C185.994 164.512 186.033 164.32 186.11 164.089C186.149 163.973 186.188 163.858 186.226 163.743C186.497 162.973 186.691 162.358 187.039 161.819C187.194 161.588 187.388 161.55 187.542 161.473C187.581 161.473 187.581 161.473 187.62 161.434L187.891 160.934C189.594 161.588 191.452 161.934 193.31 161.934C194.433 161.934 195.594 161.819 196.678 161.55C197.375 161.396 198.033 161.203 198.691 160.973L198.923 161.396C198.962 161.396 198.962 161.396 199 161.434C199.194 161.473 199.349 161.55 199.504 161.781C199.813 162.319 200.046 162.973 200.317 163.704V163.743C200.355 163.858 200.394 163.973 200.433 164.089C200.51 164.32 200.549 164.55 200.665 164.781C200.704 164.858 200.742 164.897 200.781 164.974C200.781 165.012 200.82 165.051 200.82 165.051C201.052 165.512 201.517 165.782 201.981 165.782C202.136 165.782 202.291 165.743 202.446 165.666C202.717 165.512 202.949 165.281 203.026 164.974C203.104 164.666 203.104 164.32 202.949 164.012C202.949 163.973 202.91 163.973 202.91 163.935C202.871 163.858 202.833 163.781 202.794 163.743C202.678 163.512 202.523 163.319 202.368 163.127C202.291 163.012 202.213 162.935 202.136 162.819V162.781C201.71 162.127 201.323 161.55 201.129 160.973C201.052 160.703 201.129 160.549 201.168 160.357C201.168 160.319 201.207 160.319 201.207 160.28L201.013 159.819C203.065 158.626 204.807 156.933 206.123 154.856C206.82 153.779 207.362 152.586 207.749 151.393L208.213 151.47C208.252 151.47 208.252 151.432 208.291 151.432C208.446 151.355 208.562 151.239 208.794 151.239H208.871C209.491 151.316 210.149 151.547 210.884 151.816H210.923C211.039 151.855 211.155 151.932 211.271 151.97C211.504 152.086 211.697 152.163 211.968 152.24C212.046 152.24 212.123 152.278 212.2 152.278C212.239 152.278 212.278 152.278 212.317 152.317C212.433 152.355 212.51 152.355 212.626 152.355C213.207 152.355 213.71 151.97 213.865 151.47C213.865 151.009 213.439 150.393 212.742 150.201ZM194.82 148.316L193.117 149.123L191.413 148.316L190.988 146.507L192.149 145.046H194.046L195.207 146.507L194.82 148.316ZM204.923 144.315C205.233 145.623 205.31 146.931 205.194 148.2L199.271 146.507C198.729 146.354 198.42 145.815 198.536 145.276C198.575 145.122 198.652 144.969 198.768 144.853L203.452 140.66C204.11 141.737 204.613 142.968 204.923 144.315ZM201.594 138.352L196.523 141.929C196.097 142.199 195.517 142.122 195.168 141.699C195.052 141.583 195.013 141.429 194.975 141.275L194.626 135.005C197.297 135.312 199.736 136.505 201.594 138.352ZM190.368 135.197C190.794 135.12 191.181 135.043 191.607 134.966L191.258 141.121C191.22 141.66 190.794 142.122 190.213 142.122C190.058 142.122 189.865 142.083 189.749 142.006L184.6 138.352C186.188 136.774 188.162 135.697 190.368 135.197ZM182.742 140.66L187.349 144.738C187.775 145.084 187.813 145.738 187.465 146.161C187.349 146.315 187.194 146.43 187 146.469L181 148.2C180.768 145.584 181.349 142.93 182.742 140.66ZM181.697 151.086L187.852 150.047C188.355 150.008 188.82 150.355 188.936 150.855C188.975 151.086 188.975 151.278 188.897 151.47L186.536 157.126C184.368 155.741 182.626 153.625 181.697 151.086ZM195.826 158.741C194.936 158.934 194.046 159.049 193.117 159.049C191.762 159.049 190.446 158.818 189.207 158.434L192.265 152.932C192.575 152.586 193.078 152.432 193.504 152.663C193.697 152.778 193.852 152.932 193.968 153.086L196.949 158.434C196.6 158.549 196.213 158.626 195.826 158.741ZM203.375 153.394C202.407 154.933 201.129 156.164 199.658 157.126L197.22 151.316C197.104 150.855 197.297 150.355 197.762 150.124C197.917 150.047 198.11 150.008 198.304 150.008L204.497 151.047C204.265 151.893 203.878 152.663 203.375 153.394Z" fill="white"/>
<g filter="url(#filter0_dd)">
<rect x="67" y="162" width="252" height="120" rx="4" fill="white"/>
</g>
<path d="M67 166C67 163.791 68.7909 162 71 162H315C317.209 162 319 163.791 319 166V168H67V166Z" fill="#4A796B"/>
<path d="M153.822 226H156.721V219.203H163.369V216.773H156.721V212.43H164.072V210H153.822V226ZM169.934 226.242C171.816 226.242 172.941 225.359 173.457 224.352H173.551V226H176.27V217.969C176.27 214.797 173.684 213.844 171.395 213.844C168.871 213.844 166.934 214.969 166.309 217.156L168.949 217.531C169.23 216.711 170.027 216.008 171.41 216.008C172.723 216.008 173.441 216.68 173.441 217.859V217.906C173.441 218.719 172.59 218.758 170.473 218.984C168.145 219.234 165.918 219.93 165.918 222.633C165.918 224.992 167.645 226.242 169.934 226.242ZM170.668 224.164C169.488 224.164 168.645 223.625 168.645 222.586C168.645 221.5 169.59 221.047 170.855 220.867C171.598 220.766 173.082 220.578 173.449 220.281V221.695C173.449 223.031 172.371 224.164 170.668 224.164ZM184.348 226.234C187.363 226.234 189.285 224.445 189.488 221.898H186.785C186.543 223.188 185.613 223.93 184.371 223.93C182.605 223.93 181.465 222.453 181.465 220C181.465 217.578 182.629 216.125 184.371 216.125C185.73 216.125 186.566 217 186.785 218.156H189.488C189.293 215.555 187.262 213.844 184.332 213.844C180.816 213.844 178.598 216.383 178.598 220.047C178.598 223.68 180.762 226.234 184.348 226.234ZM197.803 214H195.436V211.125H192.607V214H190.904V216.187H192.607V222.859C192.592 225.117 194.232 226.227 196.357 226.164C197.162 226.141 197.717 225.984 198.021 225.883L197.545 223.672C197.389 223.711 197.068 223.781 196.717 223.781C196.006 223.781 195.436 223.531 195.436 222.391V216.187H197.803V214ZM205.273 226.234C208.789 226.234 211.023 223.758 211.023 220.047C211.023 216.328 208.789 213.844 205.273 213.844C201.758 213.844 199.523 216.328 199.523 220.047C199.523 223.758 201.758 226.234 205.273 226.234ZM205.289 223.969C203.344 223.969 202.391 222.234 202.391 220.039C202.391 217.844 203.344 216.086 205.289 216.086C207.203 216.086 208.156 217.844 208.156 220.039C208.156 222.234 207.203 223.969 205.289 223.969ZM213.424 226H216.252V218.945C216.252 217.422 217.4 216.344 218.955 216.344C219.432 216.344 220.025 216.43 220.268 216.508V213.906C220.01 213.859 219.564 213.828 219.252 213.828C217.877 213.828 216.729 214.609 216.291 216H216.166V214H213.424V226ZM224.27 230.5C226.473 230.5 227.746 229.367 228.426 227.453L233.246 214.016L230.223 214L227.449 223.062H227.324L224.559 214H221.559L225.91 226.25L225.668 226.898C225.145 228.266 224.316 228.359 223.082 228L222.426 230.203C222.809 230.359 223.496 230.5 224.27 230.5Z" fill="#262424"/>
<path d="M151.414 245.42H153.107C153.056 243.557 151.408 242.205 149.045 242.205C146.71 242.205 144.92 243.54 144.92 245.545C144.92 247.165 146.079 248.114 147.948 248.619L149.323 248.994C150.567 249.324 151.528 249.733 151.528 250.767C151.528 251.903 150.442 252.653 148.948 252.653C147.596 252.653 146.471 252.051 146.369 250.784H144.607C144.721 252.892 146.352 254.193 148.96 254.193C151.692 254.193 153.266 252.756 153.266 250.784C153.266 248.688 151.397 247.875 149.92 247.511L148.783 247.216C147.874 246.983 146.664 246.557 146.67 245.443C146.67 244.455 147.573 243.722 149.005 243.722C150.34 243.722 151.289 244.347 151.414 245.42ZM158.904 254.176C160.967 254.176 162.302 252.938 162.489 251.239H160.836C160.62 252.182 159.887 252.739 158.915 252.739C157.478 252.739 156.552 251.54 156.552 249.636C156.552 247.767 157.495 246.591 158.915 246.591C159.995 246.591 160.654 247.273 160.836 248.091H162.489C162.308 246.33 160.87 245.159 158.887 245.159C156.427 245.159 154.836 247.011 154.836 249.676C154.836 252.307 156.37 254.176 158.904 254.176ZM166.846 254.193C168.289 254.193 169.102 253.46 169.425 252.807H169.494V254H171.153V248.205C171.153 245.665 169.153 245.159 167.766 245.159C166.187 245.159 164.732 245.795 164.164 247.386L165.761 247.75C166.011 247.131 166.647 246.534 167.789 246.534C168.886 246.534 169.448 247.108 169.448 248.097V248.136C169.448 248.756 168.812 248.744 167.244 248.926C165.59 249.119 163.897 249.551 163.897 251.534C163.897 253.25 165.187 254.193 166.846 254.193ZM167.215 252.83C166.255 252.83 165.562 252.398 165.562 251.557C165.562 250.648 166.369 250.324 167.352 250.193C167.903 250.119 169.21 249.972 169.454 249.727V250.852C169.454 251.886 168.63 252.83 167.215 252.83ZM175.114 242.364H173.415V254H175.114V242.364ZM181.161 254.176C183.065 254.176 184.411 253.239 184.798 251.818L183.19 251.528C182.883 252.352 182.144 252.773 181.178 252.773C179.724 252.773 178.746 251.83 178.701 250.148H184.906V249.545C184.906 246.392 183.019 245.159 181.042 245.159C178.61 245.159 177.008 247.011 177.008 249.693C177.008 252.403 178.587 254.176 181.161 254.176ZM178.707 248.875C178.775 247.636 179.673 246.562 181.053 246.562C182.371 246.562 183.235 247.54 183.241 248.875H178.707ZM193.565 254.193C195.008 254.193 195.82 253.46 196.144 252.807H196.212V254H197.871V248.205C197.871 245.665 195.871 245.159 194.485 245.159C192.906 245.159 191.451 245.795 190.883 247.386L192.479 247.75C192.729 247.131 193.366 246.534 194.508 246.534C195.604 246.534 196.167 247.108 196.167 248.097V248.136C196.167 248.756 195.531 248.744 193.962 248.926C192.309 249.119 190.616 249.551 190.616 251.534C190.616 253.25 191.906 254.193 193.565 254.193ZM193.934 252.83C192.974 252.83 192.281 252.398 192.281 251.557C192.281 250.648 193.087 250.324 194.07 250.193C194.621 250.119 195.928 249.972 196.173 249.727V250.852C196.173 251.886 195.349 252.83 193.934 252.83ZM203.793 257.455C206.015 257.455 207.731 256.438 207.731 254.193V245.273H206.066V246.688H205.941C205.64 246.148 205.038 245.159 203.413 245.159C201.305 245.159 199.754 246.824 199.754 249.602C199.754 252.386 201.339 253.869 203.401 253.869C205.004 253.869 205.623 252.966 205.93 252.409H206.038V254.125C206.038 255.494 205.1 256.085 203.81 256.085C202.396 256.085 201.844 255.375 201.543 254.875L200.083 255.477C200.543 256.545 201.708 257.455 203.793 257.455ZM203.776 252.46C202.259 252.46 201.469 251.295 201.469 249.58C201.469 247.903 202.242 246.602 203.776 246.602C205.259 246.602 206.055 247.812 206.055 249.58C206.055 251.381 205.242 252.46 203.776 252.46ZM213.771 254.176C215.674 254.176 217.021 253.239 217.407 251.818L215.799 251.528C215.492 252.352 214.754 252.773 213.788 252.773C212.333 252.773 211.356 251.83 211.31 250.148H217.515V249.545C217.515 246.392 215.629 245.159 213.651 245.159C211.219 245.159 209.617 247.011 209.617 249.693C209.617 252.403 211.197 254.176 213.771 254.176ZM211.316 248.875C211.384 247.636 212.282 246.562 213.663 246.562C214.981 246.562 215.844 247.54 215.85 248.875H211.316ZM221.099 248.818C221.099 247.426 221.951 246.631 223.133 246.631C224.286 246.631 224.985 247.386 224.985 248.653V254H226.684V248.449C226.684 246.29 225.496 245.159 223.712 245.159C222.4 245.159 221.542 245.767 221.138 246.693H221.031V245.273H219.4V254H221.099V248.818ZM233.036 245.273H231.246V243.182H229.548V245.273H228.269V246.636H229.548V251.79C229.542 253.375 230.752 254.142 232.093 254.114C232.633 254.108 232.996 254.006 233.195 253.932L232.888 252.528C232.775 252.551 232.565 252.602 232.292 252.602C231.741 252.602 231.246 252.42 231.246 251.438V246.636H233.036V245.273ZM241.315 247.403C240.962 246.045 239.9 245.159 238.013 245.159C236.042 245.159 234.644 246.199 234.644 247.744C234.644 248.983 235.394 249.807 237.031 250.17L238.508 250.494C239.349 250.682 239.741 251.057 239.741 251.602C239.741 252.278 239.019 252.807 237.906 252.807C236.888 252.807 236.235 252.369 236.031 251.511L234.388 251.761C234.673 253.307 235.957 254.176 237.917 254.176C240.025 254.176 241.485 253.057 241.485 251.477C241.485 250.244 240.701 249.483 239.099 249.114L237.712 248.795C236.752 248.568 236.337 248.244 236.343 247.653C236.337 246.983 237.065 246.506 238.031 246.506C239.087 246.506 239.576 247.091 239.775 247.676L241.315 247.403Z" fill="#6D6666"/>
<rect x="116" y="150" width="155" height="36" rx="4" fill="#4A796B"/>
<path d="M134.972 175L136.053 171.772H140.974L142.061 175H144.592L139.977 161.909H137.05L132.441 175H134.972ZM136.692 169.867L138.462 164.594H138.565L140.335 169.867H136.692ZM153.22 165.508H155.502C155.457 163.296 153.572 161.73 150.785 161.73C148.036 161.73 145.971 163.277 145.978 165.591C145.978 167.47 147.314 168.55 149.468 169.107L150.957 169.49C152.37 169.848 153.303 170.289 153.309 171.305C153.303 172.424 152.242 173.172 150.695 173.172C149.212 173.172 148.062 172.507 147.966 171.133H145.633C145.729 173.734 147.665 175.198 150.714 175.198C153.853 175.198 155.675 173.632 155.681 171.325C155.675 169.055 153.802 168.02 151.833 167.553L150.606 167.246C149.532 166.991 148.368 166.537 148.381 165.444C148.388 164.46 149.27 163.737 150.753 163.737C152.165 163.737 153.099 164.396 153.22 165.508ZM163.941 175L165.021 171.772H169.943L171.03 175H173.561L168.946 161.909H166.018L161.41 175H163.941ZM165.661 169.867L167.431 164.594H167.533L169.304 169.867H165.661ZM186.865 165.508H189.146C189.102 163.296 187.216 161.73 184.429 161.73C181.681 161.73 179.616 163.277 179.622 165.591C179.622 167.47 180.958 168.55 183.112 169.107L184.602 169.49C186.014 169.848 186.948 170.289 186.954 171.305C186.948 172.424 185.887 173.172 184.34 173.172C182.857 173.172 181.706 172.507 181.61 171.133H179.277C179.373 173.734 181.31 175.198 184.359 175.198C187.497 175.198 189.319 173.632 189.325 171.325C189.319 169.055 187.446 168.02 185.477 167.553L184.25 167.246C183.176 166.991 182.013 166.537 182.026 165.444C182.032 164.46 182.914 163.737 184.397 163.737C185.81 163.737 186.743 164.396 186.865 165.508ZM191.44 175H200.005V173.012H193.811V169.439H199.513V167.451H193.811V163.897H199.954V161.909H191.44V175ZM202.373 175H204.745V170.206H207.161L209.73 175H212.377L209.545 169.81C211.086 169.19 211.897 167.873 211.897 166.096C211.897 163.597 210.287 161.909 207.282 161.909H202.373V175ZM204.745 168.237V163.891H206.918C208.689 163.891 209.481 164.702 209.481 166.096C209.481 167.489 208.689 168.237 206.931 168.237H204.745ZM215.48 161.909H212.879L217.487 175H220.415L225.03 161.909H222.422L219.021 172.213H218.887L215.48 161.909ZM229.126 161.909H226.754V175H229.126V161.909ZM242.899 166.326C242.496 163.418 240.259 161.73 237.357 161.73C233.937 161.73 231.361 164.223 231.361 168.455C231.361 172.68 233.905 175.179 237.357 175.179C240.47 175.179 242.534 173.165 242.899 170.666L240.508 170.653C240.208 172.188 238.955 173.05 237.389 173.05C235.267 173.05 233.745 171.459 233.745 168.455C233.745 165.501 235.254 163.859 237.395 163.859C238.987 163.859 240.233 164.76 240.508 166.326H242.899ZM245.07 175H253.636V173.012H247.442V169.439H253.144V167.451H247.442V163.897H253.585V161.909H245.07V175Z" fill="white"/>
<path d="M911.444 189.643L903.601 191.336C899.58 192.167 899.959 193.512 900.236 208.002C900.366 214.83 898.746 224.273 902.531 223.244C902.888 222.887 913.583 219.768 913.583 219.768C915.942 216.69 920.338 195.566 911.444 189.643V189.643Z" fill="#585858"/>
<path d="M956.23 203.124L955.517 213.462C954.274 216.953 944.033 217.084 943.128 213.551C943.228 210.105 943.236 206.659 943.218 203.213L956.23 203.124Z" fill="#5A5A5A"/>
<path d="M908.622 205.293V210.311C908.622 210.311 909.803 214.739 909.36 215.773C908.917 216.806 905.965 222.562 905.965 222.562L912.312 220.643L914.378 215.33L916.149 209.278L908.622 205.293Z" fill="url(#paint0_linear)"/>
<path d="M912.781 211.657L943.44 213.529C946.337 211.389 946.804 208.387 943.351 203.992L912.157 200.784C907.568 202.537 907.811 212.222 912.781 211.657V211.657Z" fill="#4D4D4D"/>
<path d="M949.768 204.527C946.175 204.527 943.262 203.948 943.262 203.235C943.262 202.521 946.175 201.942 949.768 201.942C953.361 201.942 956.274 202.521 956.274 203.235C956.274 203.948 953.361 204.527 949.768 204.527Z" fill="#818181"/>
<path d="M955.918 202.656L955.74 190.089L943.44 180.73L943.53 203.101C946.168 203.758 950.943 204.928 955.918 202.656H955.918Z" fill="#737373"/>
<path d="M1002.41 175.027C1005.93 177.26 999.868 189.58 998.077 195.943L996.868 196.215L942.936 164.579L947.007 158.602L1002.41 175.027Z" fill="#202020"/>
<path opacity="0.668471" d="M920.562 201.672C933.151 204.185 942.024 207.96 945.082 212.133C948.567 214.237 951.819 213.907 955.742 213.732L956.275 203.538L954.01 194.809L943.219 186.351C943.219 186.351 943.6 202.472 943.4 202.805C942.917 203.279 943.047 203.903 943.047 203.903C940.575 203.79 926.085 202.224 920.562 201.672H920.562Z" fill="url(#paint1_linear)"/>
<path d="M1001.73 174.939C1005.02 177.437 998.636 189.649 996.845 196.012L941.704 164.648L948.66 154.974L1001.73 174.939Z" fill="#3B3B3B"/>
<path d="M948.702 156.507C949.155 156.498 949.57 156.611 949.917 156.82C949.919 156.821 949.92 156.824 949.922 156.825C950.865 157.222 991.91 174.523 992.532 174.488L956.311 203.914L922.804 175.85C922.802 175.849 922.801 175.847 922.799 175.846C921.879 175.365 921.349 174.237 921.526 172.865L922.941 161.931C923.188 160.018 924.707 158.377 926.351 158.248L948.553 156.515C948.604 156.511 948.652 156.508 948.702 156.507Z" fill="#A0A0A0"/>
<path d="M960.64 176.288L990.481 173.856C992.684 173.676 994.22 175.931 993.911 178.892L992.142 195.872C991.833 198.833 989.797 201.378 987.594 201.558L957.753 203.99C955.55 204.17 954.015 201.915 954.323 198.955L956.093 181.974C956.401 179.014 958.437 176.468 960.64 176.288Z" fill="#7B7B7B"/>
<path d="M963.082 178.578L987.515 176.587C989.319 176.439 990.576 178.285 990.323 180.71L988.875 194.612C988.622 197.037 986.955 199.121 985.151 199.268L960.719 201.259C958.915 201.406 957.658 199.56 957.91 197.136L959.359 183.234C959.612 180.809 961.279 178.725 963.082 178.578Z" fill="url(#paint2_linear)"/>
<path d="M963.33 178.769L986.274 176.869C987.968 176.728 989.149 178.49 988.912 180.803L987.551 194.069C987.314 196.382 985.749 198.371 984.055 198.511L961.111 200.412C959.417 200.552 958.236 198.791 958.474 196.477L959.834 183.211C960.071 180.898 961.637 178.909 963.33 178.769Z" fill="#494949"/>
<path d="M993.188 185.748C993.188 185.748 975.24 185.247 966.534 187.075C965.186 187.358 963.85 187.833 962.671 188.546C960.033 190.143 955.475 196.009 955.475 196.009L954.509 196.275L958.007 178.152L993.854 175.887L993.188 185.748Z" fill="url(#paint3_linear)"/>
<path d="M948.776 155.515C949.279 155.505 949.74 155.63 950.126 155.863C950.126 155.865 950.126 155.866 950.135 155.868C951.071 156.263 992.574 171.639 1001.82 174.957C1002.93 175.354 1003.12 175.884 1003.2 175.879C1003.2 175.879 981.163 176.35 968.242 177.514C965.948 177.721 963.008 178.432 962.014 180.511C960.041 184.638 958.061 192.86 957.815 192.715L956.598 192.766L920.159 165.529L920.169 161.539C920.443 159.415 922.131 157.592 923.956 157.449L948.615 155.525C948.673 155.52 948.725 155.516 948.781 155.515L948.776 155.515Z" fill="#202020"/>
<g filter="url(#filter1_f)">
<path d="M954.543 197.141C953.543 196.942 921.761 170.823 921.761 170.823L922.96 163.827L956.675 181.417L954.543 197.141Z" fill="url(#paint4_linear)"/>
</g>
<path d="M947.8 154.642C948.304 154.632 948.764 154.758 949.15 154.99C949.15 154.992 949.15 154.994 949.16 154.996C950.207 155.438 1001.91 175.024 1002.6 174.986C1002.6 174.986 980.187 175.477 967.266 176.641C964.972 176.848 962.032 177.56 961.038 179.638C959.065 183.766 956.761 192.965 956.514 192.82L919.184 164.656L919.193 160.667C919.467 158.542 921.155 156.719 922.981 156.577L947.64 154.652C947.697 154.648 947.749 154.644 947.805 154.643L947.8 154.642Z" fill="#6E6E6E"/>
<path d="M973.865 197.874C968.419 197.874 964.243 193.519 964.537 188.146C964.831 182.774 969.485 178.418 974.931 178.418C980.377 178.418 984.554 182.774 984.259 188.146C983.965 193.519 979.311 197.874 973.865 197.874Z" fill="#121212"/>
<path opacity="0.668471" d="M973.071 196.895C968.36 196.895 964.747 193.127 965.002 188.48C965.256 183.832 969.282 180.064 973.993 180.064C978.705 180.064 982.317 183.832 982.063 188.48C981.808 193.127 977.782 196.895 973.071 196.895Z" fill="url(#paint5_radial)"/>
<path d="M963.632 199.283C961.951 199.283 960.588 197.92 960.588 196.239C960.588 194.558 961.951 193.195 963.632 193.195C965.313 193.195 966.676 194.558 966.676 196.239C966.676 197.92 965.313 199.283 963.632 199.283Z" fill="url(#paint6_linear)"/>
<path d="M963.399 198.783C961.994 198.783 960.854 197.644 960.854 196.239C960.854 194.834 961.994 193.695 963.399 193.695C964.804 193.695 965.943 194.834 965.943 196.239C965.943 197.644 964.804 198.783 963.399 198.783Z" fill="url(#paint7_radial)"/>
<path d="M964.902 195.998C964.619 196.153 964.197 195.925 963.959 195.489C963.72 195.053 963.756 194.574 964.038 194.42C964.321 194.265 964.743 194.493 964.982 194.929C965.22 195.365 965.184 195.844 964.902 195.998Z" fill="#FF3636" fill-opacity="0.428571"/>
<path opacity="0.668471" d="M973.199 195.885L972.492 192.492C974.227 192.005 975.999 191.771 977.251 188.064C977.251 188.064 981.35 187.969 981.302 188.158C981.365 191.67 977.867 195.977 973.199 195.885V195.885Z" fill="url(#paint8_linear)"/>
<path d="M971.584 174.988C971.584 174.988 956.346 172.066 954.885 171.44C953.424 170.814 953.149 169.172 949.101 168.151C945.023 167.122 941.949 164.811 941.949 164.811L936.098 161.838L926.287 156.411L921.487 157.246C921.487 157.246 919.399 158.081 919.399 159.124C919.399 160.168 918.773 164.134 918.773 164.134L956.555 192.731L960.312 179.789L963.026 177.076L971.584 174.988Z" fill="url(#paint9_linear)"/>
<path d="M1001.91 174.739L948.917 155.109L947.305 154.914L938.584 156.142L935.78 155.847C935.78 155.847 932.385 156.732 934.894 157.47C937.404 158.208 944.489 157.765 945.817 157.913C947.145 158.061 949.802 158.503 950.983 159.241C952.164 159.979 953.64 160.865 954.378 161.308C955.116 161.751 958.658 162.489 960.577 162.784C962.496 163.079 964.415 162.636 965.596 163.965C966.776 165.293 967.367 167.507 968.843 168.097C970.319 168.688 973.418 168.688 974.894 168.54C976.37 168.393 977.108 168.097 977.699 168.245C978.289 168.393 980.503 168.393 981.684 168.688C982.865 168.983 985.226 170.607 988.916 171.492C992.606 172.378 1001.91 174.739 1001.91 174.739V174.739Z" fill="#656565" fill-opacity="0.579439"/>
<path d="M973.271 176.068H967.219C967.219 176.068 962.348 176.511 960.577 175.625C958.806 174.74 954.082 173.116 953.492 172.526C952.902 171.935 949.064 171.345 948.326 171.493C947.588 171.64 946.702 172.231 946.555 173.707C946.407 175.183 942.717 176.068 942.717 176.068C942.717 176.068 942.717 180.201 942.865 180.939C943.012 181.677 939.913 181.677 939.322 178.577C938.732 175.478 940.503 173.411 940.651 172.083C940.798 170.755 940.503 169.721 940.503 168.836C940.503 167.95 941.979 165.293 942.127 164.408C942.274 163.522 944.341 165.588 945.226 166.326C946.112 167.064 948.916 168.245 950.54 168.54C952.164 168.836 953.344 169.279 956.592 170.164C959.839 171.05 956.444 171.493 961.905 171.788C967.367 172.083 974.451 173.264 975.927 173.411C977.403 173.559 978.879 173.264 982.569 173.264C986.259 173.264 1002.05 174.887 1002.05 174.887L973.271 176.068Z" fill="#656565" fill-opacity="0.579439"/>
<path d="M913.444 397.643L905.601 399.336C901.58 400.167 901.959 401.512 902.236 416.002C902.366 422.83 900.746 432.273 904.531 431.244C904.888 430.887 915.583 427.768 915.583 427.768C917.942 424.69 922.338 403.566 913.444 397.643V397.643Z" fill="#585858"/>
<path d="M958.23 411.124L957.517 421.462C956.274 424.953 946.033 425.084 945.128 421.551C945.228 418.105 945.236 414.659 945.218 411.213L958.23 411.124Z" fill="#5A5A5A"/>
<path d="M910.622 413.293V418.311C910.622 418.311 911.803 422.739 911.36 423.773C910.917 424.806 907.965 430.562 907.965 430.562L914.312 428.643L916.378 423.33L918.149 417.278L910.622 413.293Z" fill="url(#paint10_linear)"/>
<path d="M914.781 419.657L945.44 421.529C948.337 419.389 948.804 416.387 945.351 411.992L914.157 408.784C909.568 410.537 909.811 420.222 914.781 419.657V419.657Z" fill="#4D4D4D"/>
<path d="M951.768 412.527C948.175 412.527 945.262 411.948 945.262 411.235C945.262 410.521 948.175 409.942 951.768 409.942C955.361 409.942 958.274 410.521 958.274 411.235C958.274 411.948 955.361 412.527 951.768 412.527Z" fill="#818181"/>
<path d="M957.918 410.656L957.74 398.089L945.44 388.73L945.53 411.101C948.168 411.758 952.943 412.928 957.918 410.656H957.918Z" fill="#737373"/>
<path d="M1004.41 383.027C1007.93 385.26 1001.87 397.58 1000.08 403.943L998.868 404.215L944.936 372.579L949.007 366.602L1004.41 383.027Z" fill="#202020"/>
<path opacity="0.668471" d="M922.562 409.672C935.151 412.185 944.024 415.96 947.082 420.133C950.567 422.237 953.819 421.907 957.742 421.732L958.275 411.538L956.01 402.809L945.219 394.351C945.219 394.351 945.6 410.472 945.4 410.805C944.917 411.279 945.047 411.903 945.047 411.903C942.575 411.79 928.085 410.224 922.562 409.672H922.562Z" fill="url(#paint11_linear)"/>
<path d="M1003.73 382.939C1007.02 385.437 1000.64 397.649 998.845 404.012L943.704 372.648L950.66 362.974L1003.73 382.939Z" fill="#3B3B3B"/>
<path d="M950.702 364.507C951.155 364.498 951.57 364.611 951.917 364.82C951.919 364.821 951.92 364.824 951.922 364.825C952.865 365.222 993.91 382.523 994.532 382.488L958.311 411.914L924.804 383.85C924.802 383.849 924.801 383.847 924.799 383.846C923.879 383.365 923.349 382.237 923.526 380.865L924.941 369.931C925.188 368.018 926.707 366.377 928.351 366.248L950.553 364.515C950.604 364.511 950.652 364.508 950.702 364.507Z" fill="#A0A0A0"/>
<path d="M962.64 384.288L992.481 381.856C994.684 381.676 996.22 383.931 995.911 386.892L994.142 403.872C993.833 406.833 991.797 409.378 989.594 409.558L959.753 411.99C957.55 412.17 956.015 409.915 956.323 406.955L958.093 389.974C958.401 387.014 960.437 384.468 962.64 384.288Z" fill="#7B7B7B"/>
<path d="M965.082 386.578L989.515 384.587C991.319 384.439 992.576 386.285 992.323 388.71L990.875 402.612C990.622 405.037 988.955 407.121 987.151 407.268L962.719 409.259C960.915 409.406 959.658 407.56 959.91 405.136L961.359 391.234C961.612 388.809 963.279 386.725 965.082 386.578Z" fill="url(#paint12_linear)"/>
<path d="M965.33 386.769L988.274 384.869C989.968 384.728 991.149 386.49 990.912 388.803L989.551 402.069C989.314 404.382 987.749 406.371 986.055 406.511L963.111 408.412C961.417 408.552 960.236 406.791 960.474 404.477L961.834 391.211C962.071 388.898 963.637 386.909 965.33 386.769Z" fill="#494949"/>
<path d="M995.188 393.748C995.188 393.748 977.24 393.247 968.534 395.075C967.186 395.358 965.85 395.833 964.671 396.546C962.033 398.143 957.475 404.009 957.475 404.009L956.509 404.275L960.007 386.152L995.854 383.887L995.188 393.748Z" fill="url(#paint13_linear)"/>
<path d="M950.776 363.515C951.279 363.505 951.74 363.63 952.126 363.863C952.126 363.865 952.126 363.866 952.135 363.868C953.071 364.263 994.574 379.639 1003.82 382.957C1004.93 383.354 1005.12 383.884 1005.2 383.879C1005.2 383.879 983.163 384.35 970.242 385.514C967.948 385.721 965.008 386.432 964.014 388.511C962.041 392.638 960.061 400.86 959.815 400.715L958.598 400.766L922.159 373.529L922.169 369.539C922.443 367.415 924.131 365.592 925.956 365.449L950.615 363.525C950.673 363.52 950.725 363.516 950.781 363.515L950.776 363.515Z" fill="#202020"/>
<g filter="url(#filter2_f)">
<path d="M956.543 405.141C955.543 404.942 923.761 378.823 923.761 378.823L924.96 371.827L958.675 389.417L956.543 405.141Z" fill="url(#paint14_linear)"/>
</g>
<path d="M949.8 362.642C950.304 362.632 950.764 362.758 951.15 362.99C951.15 362.992 951.15 362.994 951.16 362.996C952.207 363.438 1003.91 383.024 1004.6 382.986C1004.6 382.986 982.187 383.477 969.266 384.641C966.972 384.848 964.032 385.56 963.038 387.638C961.065 391.766 958.761 400.965 958.514 400.82L921.184 372.656L921.193 368.667C921.467 366.542 923.155 364.719 924.981 364.577L949.64 362.652C949.697 362.648 949.749 362.644 949.805 362.643L949.8 362.642Z" fill="#6E6E6E"/>
<path d="M975.865 405.874C970.419 405.874 966.243 401.519 966.537 396.146C966.831 390.774 971.485 386.418 976.931 386.418C982.377 386.418 986.554 390.774 986.259 396.146C985.965 401.519 981.311 405.874 975.865 405.874Z" fill="#121212"/>
<path opacity="0.668471" d="M975.071 404.895C970.36 404.895 966.747 401.127 967.002 396.48C967.256 391.832 971.282 388.064 975.993 388.064C980.705 388.064 984.317 391.832 984.063 396.48C983.808 401.127 979.782 404.895 975.071 404.895Z" fill="url(#paint15_radial)"/>
<path d="M965.632 407.283C963.951 407.283 962.588 405.92 962.588 404.239C962.588 402.558 963.951 401.195 965.632 401.195C967.313 401.195 968.676 402.558 968.676 404.239C968.676 405.92 967.313 407.283 965.632 407.283Z" fill="url(#paint16_linear)"/>
<path d="M965.399 406.783C963.994 406.783 962.854 405.644 962.854 404.239C962.854 402.834 963.994 401.695 965.399 401.695C966.804 401.695 967.943 402.834 967.943 404.239C967.943 405.644 966.804 406.783 965.399 406.783Z" fill="url(#paint17_radial)"/>
<path d="M966.902 403.998C966.619 404.153 966.197 403.925 965.959 403.489C965.72 403.053 965.756 402.574 966.038 402.42C966.321 402.265 966.743 402.493 966.982 402.929C967.22 403.365 967.184 403.844 966.902 403.998Z" fill="#FF3636" fill-opacity="0.428571"/>
<path opacity="0.668471" d="M975.199 403.885L974.492 400.492C976.227 400.005 977.999 399.771 979.251 396.064C979.251 396.064 983.35 395.969 983.302 396.158C983.365 399.67 979.867 403.977 975.199 403.885V403.885Z" fill="url(#paint18_linear)"/>
<path d="M973.584 382.988C973.584 382.988 958.346 380.066 956.885 379.44C955.424 378.814 955.149 377.172 951.101 376.151C947.023 375.122 943.949 372.811 943.949 372.811L938.098 369.838L928.287 364.411L923.487 365.246C923.487 365.246 921.399 366.081 921.399 367.124C921.399 368.168 920.773 372.134 920.773 372.134L958.555 400.731L962.312 387.789L965.026 385.076L973.584 382.988Z" fill="url(#paint19_linear)"/>
<path d="M1003.91 382.739L950.917 363.109L949.305 362.914L940.584 364.142L937.78 363.847C937.78 363.847 934.385 364.732 936.894 365.47C939.404 366.208 946.489 365.765 947.817 365.913C949.145 366.061 951.802 366.503 952.983 367.241C954.164 367.979 955.64 368.865 956.378 369.308C957.116 369.751 960.658 370.489 962.577 370.784C964.496 371.079 966.415 370.636 967.596 371.965C968.776 373.293 969.367 375.507 970.843 376.097C972.319 376.688 975.418 376.688 976.894 376.54C978.37 376.393 979.108 376.097 979.699 376.245C980.289 376.393 982.503 376.393 983.684 376.688C984.865 376.983 987.226 378.607 990.916 379.492C994.606 380.378 1003.91 382.739 1003.91 382.739V382.739Z" fill="#656565" fill-opacity="0.579439"/>
<path d="M975.271 384.068H969.219C969.219 384.068 964.348 384.511 962.577 383.625C960.806 382.74 956.082 381.116 955.492 380.526C954.902 379.935 951.064 379.345 950.326 379.493C949.588 379.64 948.702 380.231 948.555 381.707C948.407 383.183 944.717 384.068 944.717 384.068C944.717 384.068 944.717 388.201 944.865 388.939C945.012 389.677 941.913 389.677 941.322 386.577C940.732 383.478 942.503 381.411 942.651 380.083C942.798 378.755 942.503 377.721 942.503 376.836C942.503 375.95 943.979 373.293 944.127 372.408C944.274 371.522 946.341 373.588 947.226 374.326C948.112 375.064 950.916 376.245 952.54 376.54C954.164 376.836 955.344 377.279 958.592 378.164C961.839 379.05 958.444 379.493 963.905 379.788C969.367 380.083 976.451 381.264 977.927 381.411C979.403 381.559 980.879 381.264 984.569 381.264C988.259 381.264 1004.05 382.887 1004.05 382.887L975.271 384.068Z" fill="#656565" fill-opacity="0.579439"/>
<path d="M909.444 289.643L901.601 291.336C897.58 292.167 897.959 293.512 898.236 308.002C898.366 314.83 896.746 324.273 900.531 323.244C900.888 322.887 911.583 319.768 911.583 319.768C913.942 316.69 918.338 295.566 909.444 289.643V289.643Z" fill="#585858"/>
<path d="M954.23 303.124L953.517 313.462C952.274 316.953 942.033 317.084 941.128 313.551C941.228 310.105 941.236 306.659 941.218 303.213L954.23 303.124Z" fill="#5A5A5A"/>
<path d="M906.622 305.293V310.311C906.622 310.311 907.803 314.739 907.36 315.773C906.917 316.806 903.965 322.562 903.965 322.562L910.312 320.643L912.378 315.33L914.149 309.278L906.622 305.293Z" fill="url(#paint20_linear)"/>
<path d="M910.781 311.657L941.44 313.529C944.337 311.389 944.804 308.387 941.351 303.992L910.157 300.784C905.568 302.537 905.811 312.222 910.781 311.657V311.657Z" fill="#4D4D4D"/>
<path d="M947.768 304.527C944.175 304.527 941.262 303.948 941.262 303.235C941.262 302.521 944.175 301.942 947.768 301.942C951.361 301.942 954.274 302.521 954.274 303.235C954.274 303.948 951.361 304.527 947.768 304.527Z" fill="#818181"/>
<path d="M953.918 302.656L953.74 290.089L941.44 280.73L941.53 303.101C944.168 303.758 948.943 304.928 953.918 302.656H953.918Z" fill="#737373"/>
<path d="M1000.41 275.027C1003.93 277.26 997.868 289.58 996.077 295.943L994.868 296.215L940.936 264.579L945.007 258.602L1000.41 275.027Z" fill="#202020"/>
<path opacity="0.668471" d="M918.562 301.672C931.151 304.185 940.024 307.96 943.082 312.133C946.567 314.237 949.819 313.907 953.742 313.732L954.275 303.538L952.01 294.809L941.219 286.351C941.219 286.351 941.6 302.472 941.4 302.805C940.917 303.279 941.047 303.903 941.047 303.903C938.575 303.79 924.085 302.224 918.562 301.672H918.562Z" fill="url(#paint21_linear)"/>
<path d="M999.733 274.939C1003.02 277.437 996.636 289.649 994.845 296.012L939.704 264.648L946.66 254.974L999.733 274.939Z" fill="#3B3B3B"/>
<path d="M946.702 256.507C947.155 256.498 947.57 256.611 947.917 256.82C947.919 256.821 947.92 256.824 947.922 256.825C948.865 257.222 989.91 274.523 990.532 274.488L954.311 303.914L920.804 275.85C920.802 275.849 920.801 275.847 920.799 275.846C919.879 275.365 919.349 274.237 919.526 272.865L920.941 261.931C921.188 260.018 922.707 258.377 924.351 258.248L946.553 256.515C946.604 256.511 946.652 256.508 946.702 256.507Z" fill="#A0A0A0"/>
<path d="M958.64 276.288L988.481 273.856C990.684 273.676 992.22 275.931 991.911 278.892L990.142 295.872C989.833 298.833 987.797 301.378 985.594 301.558L955.753 303.99C953.55 304.17 952.015 301.915 952.323 298.955L954.093 281.974C954.401 279.014 956.437 276.468 958.64 276.288Z" fill="#7B7B7B"/>
<path d="M961.082 278.578L985.515 276.587C987.319 276.439 988.576 278.285 988.323 280.71L986.875 294.612C986.622 297.037 984.955 299.121 983.151 299.268L958.719 301.259C956.915 301.406 955.658 299.56 955.91 297.136L957.359 283.234C957.612 280.809 959.279 278.725 961.082 278.578Z" fill="url(#paint22_linear)"/>
<path d="M961.33 278.769L984.274 276.869C985.968 276.728 987.149 278.49 986.912 280.803L985.551 294.069C985.314 296.382 983.749 298.371 982.055 298.511L959.111 300.412C957.417 300.552 956.236 298.791 956.474 296.477L957.834 283.211C958.071 280.898 959.637 278.909 961.33 278.769Z" fill="#494949"/>
<path d="M991.188 285.748C991.188 285.748 973.24 285.247 964.534 287.075C963.186 287.358 961.85 287.833 960.671 288.546C958.033 290.143 953.475 296.009 953.475 296.009L952.509 296.275L956.007 278.152L991.854 275.887L991.188 285.748Z" fill="url(#paint23_linear)"/>
<path d="M946.776 255.515C947.279 255.505 947.74 255.63 948.126 255.863C948.126 255.865 948.126 255.866 948.135 255.868C949.071 256.263 990.574 271.639 999.821 274.957C1000.93 275.354 1001.12 275.884 1001.2 275.879C1001.2 275.879 979.163 276.35 966.242 277.514C963.948 277.721 961.008 278.432 960.014 280.511C958.041 284.638 956.061 292.86 955.815 292.715L954.598 292.766L918.159 265.529L918.169 261.539C918.443 259.415 920.131 257.592 921.956 257.449L946.615 255.525C946.673 255.52 946.725 255.516 946.781 255.515L946.776 255.515Z" fill="#202020"/>
<g filter="url(#filter3_f)">
<path d="M952.543 297.141C951.543 296.942 919.761 270.823 919.761 270.823L920.96 263.827L954.675 281.417L952.543 297.141Z" fill="url(#paint24_linear)"/>
</g>
<path d="M945.8 254.642C946.304 254.632 946.764 254.758 947.15 254.99C947.15 254.992 947.15 254.994 947.16 254.996C948.207 255.438 999.907 275.024 1000.6 274.986C1000.6 274.986 978.187 275.477 965.266 276.641C962.972 276.848 960.032 277.56 959.038 279.638C957.065 283.766 954.761 292.965 954.514 292.82L917.184 264.656L917.193 260.667C917.467 258.542 919.155 256.719 920.981 256.577L945.64 254.652C945.697 254.648 945.749 254.644 945.805 254.643L945.8 254.642Z" fill="#6E6E6E"/>
<path d="M971.865 297.874C966.419 297.874 962.243 293.519 962.537 288.146C962.831 282.774 967.485 278.418 972.931 278.418C978.377 278.418 982.554 282.774 982.259 288.146C981.965 293.519 977.311 297.874 971.865 297.874Z" fill="#121212"/>
<path opacity="0.668471" d="M971.071 296.895C966.36 296.895 962.747 293.127 963.002 288.48C963.256 283.832 967.282 280.064 971.993 280.064C976.705 280.064 980.317 283.832 980.063 288.48C979.808 293.127 975.782 296.895 971.071 296.895Z" fill="url(#paint25_radial)"/>
<path d="M961.632 299.283C959.951 299.283 958.588 297.92 958.588 296.239C958.588 294.558 959.951 293.195 961.632 293.195C963.313 293.195 964.676 294.558 964.676 296.239C964.676 297.92 963.313 299.283 961.632 299.283Z" fill="url(#paint26_linear)"/>
<path d="M961.399 298.783C959.994 298.783 958.854 297.644 958.854 296.239C958.854 294.834 959.994 293.695 961.399 293.695C962.804 293.695 963.943 294.834 963.943 296.239C963.943 297.644 962.804 298.783 961.399 298.783Z" fill="url(#paint27_radial)"/>
<path d="M962.902 295.998C962.619 296.153 962.197 295.925 961.959 295.489C961.72 295.053 961.756 294.574 962.038 294.42C962.321 294.265 962.743 294.493 962.982 294.929C963.22 295.365 963.184 295.844 962.902 295.998Z" fill="#FF3636" fill-opacity="0.428571"/>
<path opacity="0.668471" d="M971.199 295.885L970.492 292.492C972.227 292.005 973.999 291.771 975.251 288.064C975.251 288.064 979.35 287.969 979.302 288.158C979.365 291.67 975.867 295.977 971.199 295.885V295.885Z" fill="url(#paint28_linear)"/>
<path d="M969.584 274.988C969.584 274.988 954.346 272.066 952.885 271.44C951.424 270.814 951.149 269.172 947.101 268.151C943.023 267.122 939.949 264.811 939.949 264.811L934.098 261.838L924.287 256.411L919.487 257.246C919.487 257.246 917.399 258.081 917.399 259.124C917.399 260.168 916.773 264.134 916.773 264.134L954.555 292.731L958.312 279.789L961.026 277.076L969.584 274.988Z" fill="url(#paint29_linear)"/>
<path d="M999.905 274.739L946.917 255.109L945.305 254.914L936.584 256.142L933.78 255.847C933.78 255.847 930.385 256.732 932.894 257.47C935.404 258.208 942.489 257.765 943.817 257.913C945.145 258.061 947.802 258.503 948.983 259.241C950.164 259.979 951.64 260.865 952.378 261.308C953.116 261.751 956.658 262.489 958.577 262.784C960.496 263.079 962.415 262.636 963.596 263.965C964.776 265.293 965.367 267.507 966.843 268.097C968.319 268.688 971.418 268.688 972.894 268.54C974.37 268.393 975.108 268.097 975.699 268.245C976.289 268.393 978.503 268.393 979.684 268.688C980.865 268.983 983.226 270.607 986.916 271.492C990.606 272.378 999.905 274.739 999.905 274.739V274.739Z" fill="#656565" fill-opacity="0.579439"/>
<path d="M971.271 276.068H965.219C965.219 276.068 960.348 276.511 958.577 275.625C956.806 274.74 952.082 273.116 951.492 272.526C950.902 271.935 947.064 271.345 946.326 271.493C945.588 271.64 944.702 272.231 944.555 273.707C944.407 275.183 940.717 276.068 940.717 276.068C940.717 276.068 940.717 280.201 940.865 280.939C941.012 281.677 937.913 281.677 937.322 278.577C936.732 275.478 938.503 273.411 938.651 272.083C938.798 270.755 938.503 269.721 938.503 268.836C938.503 267.95 939.979 265.293 940.127 264.408C940.274 263.522 942.341 265.588 943.226 266.326C944.112 267.064 946.916 268.245 948.54 268.54C950.164 268.836 951.344 269.279 954.592 270.164C957.839 271.05 954.444 271.493 959.905 271.788C965.367 272.083 972.451 273.264 973.927 273.411C975.403 273.559 976.879 273.264 980.569 273.264C984.259 273.264 1000.05 274.887 1000.05 274.887L971.271 276.068Z" fill="#656565" fill-opacity="0.579439"/>
<g filter="url(#filter4_dd)">
<rect x="758" y="161.55" width="149.295" height="69.0046" rx="4" fill="white"/>
</g>
<path d="M758 165C758 163.095 759.545 161.55 761.45 161.55H903.845C905.751 161.55 907.295 163.095 907.295 165V165H758V165Z" fill="#4A796B"/>
<path d="M804.93 209.401L806.251 205.456H812.266L813.595 209.401H816.688L811.048 193.401H807.47L801.837 209.401H804.93ZM807.032 203.128L809.196 196.683H809.321L811.485 203.128H807.032ZM823.524 214.151C826.766 214.151 829.157 212.667 829.157 209.597V197.401H826.368V199.386H826.212C825.782 198.519 824.884 197.245 822.766 197.245C819.993 197.245 817.813 199.417 817.813 203.362C817.813 207.276 819.993 209.229 822.759 209.229C824.813 209.229 825.774 208.128 826.212 207.245H826.352V209.519C826.352 211.284 825.18 212.011 823.571 212.011C821.868 212.011 821.118 211.206 820.774 210.503L818.227 211.12C818.743 212.8 820.47 214.151 823.524 214.151ZM823.548 207.011C821.68 207.011 820.696 205.558 820.696 203.347C820.696 201.167 821.665 199.565 823.548 199.565C825.368 199.565 826.368 201.073 826.368 203.347C826.368 205.636 825.352 207.011 823.548 207.011ZM837.368 209.636C840.165 209.636 842.087 208.269 842.587 206.183L839.946 205.886C839.563 206.901 838.626 207.433 837.407 207.433C835.579 207.433 834.368 206.229 834.345 204.175H842.704V203.308C842.704 199.097 840.173 197.245 837.22 197.245C833.782 197.245 831.54 199.769 831.54 203.472C831.54 207.237 833.751 209.636 837.368 209.636ZM834.352 202.269C834.438 200.737 835.571 199.448 837.259 199.448C838.884 199.448 839.977 200.636 839.993 202.269H834.352ZM847.925 202.37C847.925 200.636 848.971 199.636 850.464 199.636C851.925 199.636 852.8 200.597 852.8 202.198V209.401H855.628V201.761C855.636 198.886 853.995 197.245 851.518 197.245C849.721 197.245 848.487 198.104 847.94 199.44H847.8V197.401H845.096V209.401H847.925V202.37ZM864.495 197.401H862.128V194.526H859.3V197.401H857.596V199.589H859.3V206.261C859.284 208.519 860.925 209.628 863.05 209.565C863.854 209.542 864.409 209.386 864.714 209.284L864.237 207.073C864.081 207.112 863.761 207.183 863.409 207.183C862.698 207.183 862.128 206.933 862.128 205.792V199.589H864.495V197.401Z" fill="#262424"/>
<rect x="779.444" y="147" width="107" height="36" rx="4" fill="#4A796B"/>
<path d="M796.735 172H799.106V167.206H801.523L804.092 172H806.739L803.907 166.81C805.447 166.19 806.259 164.873 806.259 163.096C806.259 160.597 804.648 158.909 801.644 158.909H796.735V172ZM799.106 165.237V160.891H801.28C803.05 160.891 803.843 161.702 803.843 163.096C803.843 164.489 803.05 165.237 801.293 165.237H799.106ZM808.442 172H817.007V170.012H810.814V166.439H816.515V164.451H810.814V160.897H816.956V158.909H808.442V172ZM830.581 163.326C830.178 160.418 827.941 158.73 825.039 158.73C821.619 158.73 819.043 161.223 819.043 165.455C819.043 169.68 821.587 172.179 825.039 172.179C828.152 172.179 830.217 170.165 830.581 167.666L828.19 167.653C827.89 169.188 826.637 170.05 825.071 170.05C822.949 170.05 821.428 168.459 821.428 165.455C821.428 162.501 822.936 160.859 825.077 160.859C826.669 160.859 827.915 161.76 828.19 163.326H830.581ZM844.45 165.455C844.45 161.223 841.868 158.73 838.435 158.73C834.996 158.73 832.42 161.223 832.42 165.455C832.42 169.68 834.996 172.179 838.435 172.179C841.868 172.179 844.45 169.686 844.45 165.455ZM842.066 165.455C842.066 168.433 840.57 170.05 838.435 170.05C836.307 170.05 834.804 168.433 834.804 165.455C834.804 162.476 836.307 160.859 838.435 160.859C840.57 160.859 842.066 162.476 842.066 165.455ZM846.692 172H849.064V167.206H851.48L854.049 172H856.696L853.864 166.81C855.404 166.19 856.216 164.873 856.216 163.096C856.216 160.597 854.605 158.909 851.601 158.909H846.692V172ZM849.064 165.237V160.891H851.237C853.007 160.891 853.8 161.702 853.8 163.096C853.8 164.489 853.007 165.237 851.25 165.237H849.064ZM862.835 172C866.824 172 869.189 169.533 869.189 165.442C869.189 161.364 866.824 158.909 862.925 158.909H858.399V172H862.835ZM860.771 169.948V160.961H862.79C865.45 160.961 866.837 162.444 866.837 165.442C866.837 168.452 865.45 169.948 862.72 169.948H860.771Z" fill="white"/>
<g filter="url(#filter5_dd)">
<rect x="755" y="273.55" width="149.295" height="69.0046" rx="4" fill="white"/>
</g>
<path d="M757 277C757 275.095 758.545 273.55 760.45 273.55H902.845C904.751 273.55 906.295 275.095 906.295 277V277H757V277Z" fill="#4A796B"/>
<path d="M801.93 321.401L803.25 317.456H809.266L810.594 321.401H813.688L808.047 305.401H804.469L798.836 321.401H801.93ZM804.032 315.128L806.196 308.683H806.321L808.485 315.128H804.032ZM820.524 326.151C823.766 326.151 826.157 324.667 826.157 321.597V309.401H823.367V311.386H823.211C822.782 310.519 821.883 309.245 819.766 309.245C816.992 309.245 814.813 311.417 814.813 315.362C814.813 319.276 816.992 321.229 819.758 321.229C821.813 321.229 822.774 320.128 823.211 319.245H823.352V321.519C823.352 323.284 822.18 324.011 820.571 324.011C818.867 324.011 818.117 323.206 817.774 322.503L815.227 323.12C815.742 324.8 817.469 326.151 820.524 326.151ZM820.547 319.011C818.68 319.011 817.696 317.558 817.696 315.347C817.696 313.167 818.664 311.565 820.547 311.565C822.367 311.565 823.367 313.073 823.367 315.347C823.367 317.636 822.352 319.011 820.547 319.011ZM834.367 321.636C837.164 321.636 839.086 320.269 839.586 318.183L836.946 317.886C836.563 318.901 835.625 319.433 834.407 319.433C832.578 319.433 831.367 318.229 831.344 316.175H839.703V315.308C839.703 311.097 837.172 309.245 834.219 309.245C830.782 309.245 828.539 311.769 828.539 315.472C828.539 319.237 830.75 321.636 834.367 321.636ZM831.352 314.269C831.438 312.737 832.571 311.448 834.258 311.448C835.883 311.448 836.977 312.636 836.992 314.269H831.352ZM844.924 314.37C844.924 312.636 845.971 311.636 847.463 311.636C848.924 311.636 849.799 312.597 849.799 314.198V321.401H852.627V313.761C852.635 310.886 850.994 309.245 848.518 309.245C846.721 309.245 845.487 310.104 844.94 311.44H844.799V309.401H842.096V321.401H844.924V314.37ZM861.494 309.401H859.127V306.526H856.299V309.401H854.596V311.589H856.299V318.261C856.283 320.519 857.924 321.628 860.049 321.565C860.854 321.542 861.408 321.386 861.713 321.284L861.237 319.073C861.08 319.112 860.76 319.183 860.408 319.183C859.698 319.183 859.127 318.933 859.127 317.792V311.589H861.494V309.401Z" fill="#262424"/>
<rect x="776.444" y="259" width="107" height="36" rx="4" fill="#4A796B"/>
<path d="M793.736 284H796.107V279.206H798.523L801.093 284H803.739L800.907 278.81C802.448 278.19 803.26 276.873 803.26 275.096C803.26 272.597 801.649 270.909 798.645 270.909H793.736V284ZM796.107 277.237V272.891H798.28C800.051 272.891 800.843 273.702 800.843 275.096C800.843 276.489 800.051 277.237 798.293 277.237H796.107ZM805.443 284H814.008V282.012H807.814V278.439H813.516V276.451H807.814V272.897H813.957V270.909H805.443V284ZM827.581 275.326C827.179 272.418 824.941 270.73 822.04 270.73C818.62 270.73 816.044 273.223 816.044 277.455C816.044 281.68 818.588 284.179 822.04 284.179C825.152 284.179 827.217 282.165 827.581 279.666L825.191 279.653C824.89 281.188 823.638 282.05 822.071 282.05C819.949 282.05 818.428 280.459 818.428 277.455C818.428 274.501 819.937 272.859 822.078 272.859C823.669 272.859 824.916 273.76 825.191 275.326H827.581ZM841.451 277.455C841.451 273.223 838.868 270.73 835.436 270.73C831.997 270.73 829.421 273.223 829.421 277.455C829.421 281.68 831.997 284.179 835.436 284.179C838.868 284.179 841.451 281.686 841.451 277.455ZM839.066 277.455C839.066 280.433 837.571 282.05 835.436 282.05C833.307 282.05 831.805 280.433 831.805 277.455C831.805 274.476 833.307 272.859 835.436 272.859C837.571 272.859 839.066 274.476 839.066 277.455ZM843.693 284H846.064V279.206H848.48L851.05 284H853.696L850.864 278.81C852.405 278.19 853.217 276.873 853.217 275.096C853.217 272.597 851.606 270.909 848.602 270.909H843.693V284ZM846.064 277.237V272.891H848.237C850.008 272.891 850.801 273.702 850.801 275.096C850.801 276.489 850.008 277.237 848.25 277.237H846.064ZM859.836 284C863.824 284 866.189 281.533 866.189 277.442C866.189 273.364 863.824 270.909 859.925 270.909H855.4V284H859.836ZM857.771 281.948V272.961H859.791C862.45 272.961 863.837 274.444 863.837 277.442C863.837 280.452 862.45 281.948 859.721 281.948H857.771Z" fill="white"/>
<g filter="url(#filter6_dd)">
<rect x="756" y="381.55" width="149.295" height="69.0046" rx="4" fill="white"/>
</g>
<path d="M756 385C756 383.095 757.545 381.55 759.45 381.55H901.845C903.751 381.55 905.295 383.095 905.295 385V385H756V385Z" fill="#4A796B"/>
<path d="M802.93 429.401L804.251 425.456H810.266L811.595 429.401H814.688L809.048 413.401H805.47L799.837 429.401H802.93ZM805.032 423.128L807.196 416.683H807.321L809.485 423.128H805.032ZM821.524 434.151C824.766 434.151 827.157 432.667 827.157 429.597V417.401H824.368V419.386H824.212C823.782 418.519 822.884 417.245 820.766 417.245C817.993 417.245 815.813 419.417 815.813 423.362C815.813 427.276 817.993 429.229 820.759 429.229C822.813 429.229 823.774 428.128 824.212 427.245H824.352V429.519C824.352 431.284 823.18 432.011 821.571 432.011C819.868 432.011 819.118 431.206 818.774 430.503L816.227 431.12C816.743 432.8 818.47 434.151 821.524 434.151ZM821.548 427.011C819.68 427.011 818.696 425.558 818.696 423.347C818.696 421.167 819.665 419.565 821.548 419.565C823.368 419.565 824.368 421.073 824.368 423.347C824.368 425.636 823.352 427.011 821.548 427.011ZM835.368 429.636C838.165 429.636 840.087 428.269 840.587 426.183L837.946 425.886C837.563 426.901 836.626 427.433 835.407 427.433C833.579 427.433 832.368 426.229 832.345 424.175H840.704V423.308C840.704 419.097 838.173 417.245 835.22 417.245C831.782 417.245 829.54 419.769 829.54 423.472C829.54 427.237 831.751 429.636 835.368 429.636ZM832.352 422.269C832.438 420.737 833.571 419.448 835.259 419.448C836.884 419.448 837.977 420.636 837.993 422.269H832.352ZM845.925 422.37C845.925 420.636 846.971 419.636 848.464 419.636C849.925 419.636 850.8 420.597 850.8 422.198V429.401H853.628V421.761C853.636 418.886 851.995 417.245 849.518 417.245C847.721 417.245 846.487 418.104 845.94 419.44H845.8V417.401H843.096V429.401H845.925V422.37ZM862.495 417.401H860.128V414.526H857.3V417.401H855.596V419.589H857.3V426.261C857.284 428.519 858.925 429.628 861.05 429.565C861.854 429.542 862.409 429.386 862.714 429.284L862.237 427.073C862.081 427.112 861.761 427.183 861.409 427.183C860.698 427.183 860.128 426.933 860.128 425.792V419.589H862.495V417.401Z" fill="#262424"/>
<rect x="777.444" y="367" width="107" height="36" rx="4" fill="#4A796B"/>
<path d="M794.735 392H797.106V387.206H799.523L802.092 392H804.739L801.907 386.81C803.447 386.19 804.259 384.873 804.259 383.096C804.259 380.597 802.648 378.909 799.644 378.909H794.735V392ZM797.106 385.237V380.891H799.28C801.05 380.891 801.843 381.702 801.843 383.096C801.843 384.489 801.05 385.237 799.293 385.237H797.106ZM806.442 392H815.007V390.012H808.814V386.439H814.515V384.451H808.814V380.897H814.956V378.909H806.442V392ZM828.581 383.326C828.178 380.418 825.941 378.73 823.039 378.73C819.619 378.73 817.043 381.223 817.043 385.455C817.043 389.68 819.587 392.179 823.039 392.179C826.152 392.179 828.217 390.165 828.581 387.666L826.19 387.653C825.89 389.188 824.637 390.05 823.071 390.05C820.949 390.05 819.428 388.459 819.428 385.455C819.428 382.501 820.936 380.859 823.077 380.859C824.669 380.859 825.915 381.76 826.19 383.326H828.581ZM842.45 385.455C842.45 381.223 839.868 378.73 836.435 378.73C832.996 378.73 830.42 381.223 830.42 385.455C830.42 389.68 832.996 392.179 836.435 392.179C839.868 392.179 842.45 389.686 842.45 385.455ZM840.066 385.455C840.066 388.433 838.57 390.05 836.435 390.05C834.307 390.05 832.804 388.433 832.804 385.455C832.804 382.476 834.307 380.859 836.435 380.859C838.57 380.859 840.066 382.476 840.066 385.455ZM844.692 392H847.064V387.206H849.48L852.049 392H854.696L851.864 386.81C853.404 386.19 854.216 384.873 854.216 383.096C854.216 380.597 852.605 378.909 849.601 378.909H844.692V392ZM847.064 385.237V380.891H849.237C851.007 380.891 851.8 381.702 851.8 383.096C851.8 384.489 851.007 385.237 849.25 385.237H847.064ZM860.835 392C864.824 392 867.189 389.533 867.189 385.442C867.189 381.364 864.824 378.909 860.925 378.909H856.399V392H860.835ZM858.771 389.948V380.961H860.79C863.45 380.961 864.837 382.444 864.837 385.442C864.837 388.452 863.45 389.948 860.72 389.948H858.771Z" fill="white"/>
<defs>
<filter id="filter0_dd" x="33" y="132" width="320" height="188" filterUnits="userSpaceOnUse" color-interpolation-filters="sRGB">
<feFlood flood-opacity="0" result="BackgroundImageFix"/>
<feColorMatrix in="SourceAlpha" type="matrix" values="0 0 0 0 0 0 0 0 0 0 0 0 0 0 0 0 0 0 127 0" result="hardAlpha"/>
<feOffset dy="3"/>
<feGaussianBlur stdDeviation="2"/>
<feColorMatrix type="matrix" values="0 0 0 0 0 0 0 0 0 0 0 0 0 0 0 0 0 0 0.1 0"/>
<feBlend mode="normal" in2="BackgroundImageFix" result="effect1_dropShadow"/>
<feColorMatrix in="SourceAlpha" type="matrix" values="0 0 0 0 0 0 0 0 0 0 0 0 0 0 0 0 0 0 127 0" result="hardAlpha"/>
<feOffset dy="4"/>
<feGaussianBlur stdDeviation="17"/>
<feColorMatrix type="matrix" values="0 0 0 0 0 0 0 0 0 0 0 0 0 0 0 0 0 0 0.04 0"/>
<feBlend mode="normal" in2="effect1_dropShadow" result="effect2_dropShadow"/>
<feBlend mode="normal" in="SourceGraphic" in2="effect2_dropShadow" result="shape"/>
</filter>
<filter id="filter1_f" x="909.778" y="151.844" width="58.8796" height="57.2809" filterUnits="userSpaceOnUse" color-interpolation-filters="sRGB">
<feFlood flood-opacity="0" result="BackgroundImageFix"/>
<feBlend mode="normal" in="SourceGraphic" in2="BackgroundImageFix" result="shape"/>
<feGaussianBlur stdDeviation="5.99149" result="effect1_foregroundBlur"/>
</filter>
<filter id="filter2_f" x="911.778" y="359.844" width="58.8796" height="57.2809" filterUnits="userSpaceOnUse" color-interpolation-filters="sRGB">
<feFlood flood-opacity="0" result="BackgroundImageFix"/>
<feBlend mode="normal" in="SourceGraphic" in2="BackgroundImageFix" result="shape"/>
<feGaussianBlur stdDeviation="5.99149" result="effect1_foregroundBlur"/>
</filter>
<filter id="filter3_f" x="907.778" y="251.844" width="58.8796" height="57.2809" filterUnits="userSpaceOnUse" color-interpolation-filters="sRGB">
<feFlood flood-opacity="0" result="BackgroundImageFix"/>
<feBlend mode="normal" in="SourceGraphic" in2="BackgroundImageFix" result="shape"/>
<feGaussianBlur stdDeviation="5.99149" result="effect1_foregroundBlur"/>
</filter>
<filter id="filter4_dd" x="724" y="131.55" width="217.295" height="137.004" filterUnits="userSpaceOnUse" color-interpolation-filters="sRGB">
<feFlood flood-opacity="0" result="BackgroundImageFix"/>
<feColorMatrix in="SourceAlpha" type="matrix" values="0 0 0 0 0 0 0 0 0 0 0 0 0 0 0 0 0 0 127 0" result="hardAlpha"/>
<feOffset dy="3"/>
<feGaussianBlur stdDeviation="2"/>
<feColorMatrix type="matrix" values="0 0 0 0 0 0 0 0 0 0 0 0 0 0 0 0 0 0 0.1 0"/>
<feBlend mode="normal" in2="BackgroundImageFix" result="effect1_dropShadow"/>
<feColorMatrix in="SourceAlpha" type="matrix" values="0 0 0 0 0 0 0 0 0 0 0 0 0 0 0 0 0 0 127 0" result="hardAlpha"/>
<feOffset dy="4"/>
<feGaussianBlur stdDeviation="17"/>
<feColorMatrix type="matrix" values="0 0 0 0 0 0 0 0 0 0 0 0 0 0 0 0 0 0 0.04 0"/>
<feBlend mode="normal" in2="effect1_dropShadow" result="effect2_dropShadow"/>
<feBlend mode="normal" in="SourceGraphic" in2="effect2_dropShadow" result="shape"/>
</filter>
<filter id="filter5_dd" x="721" y="243.55" width="217.295" height="137.004" filterUnits="userSpaceOnUse" color-interpolation-filters="sRGB">
<feFlood flood-opacity="0" result="BackgroundImageFix"/>
<feColorMatrix in="SourceAlpha" type="matrix" values="0 0 0 0 0 0 0 0 0 0 0 0 0 0 0 0 0 0 127 0" result="hardAlpha"/>
<feOffset dy="3"/>
<feGaussianBlur stdDeviation="2"/>
<feColorMatrix type="matrix" values="0 0 0 0 0 0 0 0 0 0 0 0 0 0 0 0 0 0 0.1 0"/>
<feBlend mode="normal" in2="BackgroundImageFix" result="effect1_dropShadow"/>
<feColorMatrix in="SourceAlpha" type="matrix" values="0 0 0 0 0 0 0 0 0 0 0 0 0 0 0 0 0 0 127 0" result="hardAlpha"/>
<feOffset dy="4"/>
<feGaussianBlur stdDeviation="17"/>
<feColorMatrix type="matrix" values="0 0 0 0 0 0 0 0 0 0 0 0 0 0 0 0 0 0 0.04 0"/>
<feBlend mode="normal" in2="effect1_dropShadow" result="effect2_dropShadow"/>
<feBlend mode="normal" in="SourceGraphic" in2="effect2_dropShadow" result="shape"/>
</filter>
<filter id="filter6_dd" x="722" y="351.55" width="217.295" height="137.004" filterUnits="userSpaceOnUse" color-interpolation-filters="sRGB">
<feFlood flood-opacity="0" result="BackgroundImageFix"/>
<feColorMatrix in="SourceAlpha" type="matrix" values="0 0 0 0 0 0 0 0 0 0 0 0 0 0 0 0 0 0 127 0" result="hardAlpha"/>
<feOffset dy="3"/>
<feGaussianBlur stdDeviation="2"/>
<feColorMatrix type="matrix" values="0 0 0 0 0 0 0 0 0 0 0 0 0 0 0 0 0 0 0.1 0"/>
<feBlend mode="normal" in2="BackgroundImageFix" result="effect1_dropShadow"/>
<feColorMatrix in="SourceAlpha" type="matrix" values="0 0 0 0 0 0 0 0 0 0 0 0 0 0 0 0 0 0 127 0" result="hardAlpha"/>
<feOffset dy="4"/>
<feGaussianBlur stdDeviation="17"/>
<feColorMatrix type="matrix" values="0 0 0 0 0 0 0 0 0 0 0 0 0 0 0 0 0 0 0.04 0"/>
<feBlend mode="normal" in2="effect1_dropShadow" result="effect2_dropShadow"/>
<feBlend mode="normal" in="SourceGraphic" in2="effect2_dropShadow" result="shape"/>
</filter>
<linearGradient id="paint0_linear" x1="913.788" y1="192.673" x2="910.688" y2="226.621" gradientUnits="userSpaceOnUse">
<stop stop-color="#080808"/>
<stop offset="1" stop-color="#080808" stop-opacity="0"/>
</linearGradient>
<linearGradient id="paint1_linear" x1="947.894" y1="197.845" x2="939.685" y2="210.472" gradientUnits="userSpaceOnUse">
<stop stop-color="#0E0E0E"/>
<stop offset="1" stop-color="#2F2F2F" stop-opacity="0"/>
</linearGradient>
<linearGradient id="paint2_linear" x1="988" y1="200.72" x2="974.26" y2="189.554" gradientUnits="userSpaceOnUse">
<stop stop-color="#5D5D5D"/>
<stop offset="1" stop-color="#5D5D5D" stop-opacity="0"/>
</linearGradient>
<linearGradient id="paint3_linear" x1="976.53" y1="166.359" x2="991.055" y2="199.14" gradientUnits="userSpaceOnUse">
<stop stop-color="#272727"/>
<stop offset="1" stop-color="#4A4A4A" stop-opacity="0"/>
</linearGradient>
<linearGradient id="paint4_linear" x1="952.058" y1="182.84" x2="941.549" y2="193.393" gradientUnits="userSpaceOnUse">
<stop stop-color="#4A4A4A"/>
<stop offset="1" stop-color="#4A4A4A" stop-opacity="0"/>
</linearGradient>
<radialGradient id="paint5_radial" cx="0" cy="0" r="1" gradientUnits="userSpaceOnUse" gradientTransform="translate(976.064 187.281) rotate(152.409) scale(15.5657 11.4704)">
<stop stop-color="#004C80"/>
<stop offset="1" stop-color="#004C80" stop-opacity="0"/>
</radialGradient>
<linearGradient id="paint6_linear" x1="966.676" y1="196.239" x2="957.723" y2="195.806" gradientUnits="userSpaceOnUse">
<stop/>
<stop offset="1" stop-opacity="0"/>
</linearGradient>
<radialGradient id="paint7_radial" cx="0" cy="0" r="1" gradientUnits="userSpaceOnUse" gradientTransform="translate(963.999 195.839) rotate(180) scale(2.5442)">
<stop stop-color="#FF0000"/>
<stop offset="1" stop-color="#760000"/>
</radialGradient>
<linearGradient id="paint8_linear" x1="984.606" y1="200.444" x2="974.183" y2="189.419" gradientUnits="userSpaceOnUse">
<stop stop-color="white"/>
<stop offset="1" stop-color="white" stop-opacity="0"/>
</linearGradient>
<linearGradient id="paint9_linear" x1="958.225" y1="161.42" x2="939.459" y2="169.234" gradientUnits="userSpaceOnUse">
<stop stop-color="#858585"/>
<stop offset="1" stop-color="#858585" stop-opacity="0"/>
</linearGradient>
<linearGradient id="paint10_linear" x1="915.788" y1="400.673" x2="912.688" y2="434.621" gradientUnits="userSpaceOnUse">
<stop stop-color="#080808"/>
<stop offset="1" stop-color="#080808" stop-opacity="0"/>
</linearGradient>
<linearGradient id="paint11_linear" x1="949.894" y1="405.845" x2="941.685" y2="418.472" gradientUnits="userSpaceOnUse">
<stop stop-color="#0E0E0E"/>
<stop offset="1" stop-color="#2F2F2F" stop-opacity="0"/>
</linearGradient>
<linearGradient id="paint12_linear" x1="990" y1="408.72" x2="976.26" y2="397.554" gradientUnits="userSpaceOnUse">
<stop stop-color="#5D5D5D"/>
<stop offset="1" stop-color="#5D5D5D" stop-opacity="0"/>
</linearGradient>
<linearGradient id="paint13_linear" x1="978.53" y1="374.359" x2="993.055" y2="407.14" gradientUnits="userSpaceOnUse">
<stop stop-color="#272727"/>
<stop offset="1" stop-color="#4A4A4A" stop-opacity="0"/>
</linearGradient>
<linearGradient id="paint14_linear" x1="954.058" y1="390.84" x2="943.549" y2="401.393" gradientUnits="userSpaceOnUse">
<stop stop-color="#4A4A4A"/>
<stop offset="1" stop-color="#4A4A4A" stop-opacity="0"/>
</linearGradient>
<radialGradient id="paint15_radial" cx="0" cy="0" r="1" gradientUnits="userSpaceOnUse" gradientTransform="translate(978.064 395.281) rotate(152.409) scale(15.5657 11.4704)">
<stop stop-color="#004C80"/>
<stop offset="1" stop-color="#004C80" stop-opacity="0"/>
</radialGradient>
<linearGradient id="paint16_linear" x1="968.676" y1="404.239" x2="959.723" y2="403.806" gradientUnits="userSpaceOnUse">
<stop/>
<stop offset="1" stop-opacity="0"/>
</linearGradient>
<radialGradient id="paint17_radial" cx="0" cy="0" r="1" gradientUnits="userSpaceOnUse" gradientTransform="translate(965.999 403.839) rotate(180) scale(2.5442)">
<stop stop-color="#FF0000"/>
<stop offset="1" stop-color="#760000"/>
</radialGradient>
<linearGradient id="paint18_linear" x1="986.606" y1="408.444" x2="976.183" y2="397.419" gradientUnits="userSpaceOnUse">
<stop stop-color="white"/>
<stop offset="1" stop-color="white" stop-opacity="0"/>
</linearGradient>
<linearGradient id="paint19_linear" x1="960.225" y1="369.42" x2="941.459" y2="377.234" gradientUnits="userSpaceOnUse">
<stop stop-color="#858585"/>
<stop offset="1" stop-color="#858585" stop-opacity="0"/>
</linearGradient>
<linearGradient id="paint20_linear" x1="911.788" y1="292.673" x2="908.688" y2="326.621" gradientUnits="userSpaceOnUse">
<stop stop-color="#080808"/>
<stop offset="1" stop-color="#080808" stop-opacity="0"/>
</linearGradient>
<linearGradient id="paint21_linear" x1="945.894" y1="297.845" x2="937.685" y2="310.472" gradientUnits="userSpaceOnUse">
<stop stop-color="#0E0E0E"/>
<stop offset="1" stop-color="#2F2F2F" stop-opacity="0"/>
</linearGradient>
<linearGradient id="paint22_linear" x1="986" y1="300.72" x2="972.26" y2="289.554" gradientUnits="userSpaceOnUse">
<stop stop-color="#5D5D5D"/>
<stop offset="1" stop-color="#5D5D5D" stop-opacity="0"/>
</linearGradient>
<linearGradient id="paint23_linear" x1="974.53" y1="266.359" x2="989.055" y2="299.14" gradientUnits="userSpaceOnUse">
<stop stop-color="#272727"/>
<stop offset="1" stop-color="#4A4A4A" stop-opacity="0"/>
</linearGradient>
<linearGradient id="paint24_linear" x1="950.058" y1="282.84" x2="939.549" y2="293.393" gradientUnits="userSpaceOnUse">
<stop stop-color="#4A4A4A"/>
<stop offset="1" stop-color="#4A4A4A" stop-opacity="0"/>
</linearGradient>
<radialGradient id="paint25_radial" cx="0" cy="0" r="1" gradientUnits="userSpaceOnUse" gradientTransform="translate(974.064 287.281) rotate(152.409) scale(15.5657 11.4704)">
<stop stop-color="#004C80"/>
<stop offset="1" stop-color="#004C80" stop-opacity="0"/>
</radialGradient>
<linearGradient id="paint26_linear" x1="964.676" y1="296.239" x2="955.723" y2="295.806" gradientUnits="userSpaceOnUse">
<stop/>
<stop offset="1" stop-opacity="0"/>
</linearGradient>
<radialGradient id="paint27_radial" cx="0" cy="0" r="1" gradientUnits="userSpaceOnUse" gradientTransform="translate(961.999 295.839) rotate(180) scale(2.5442)">
<stop stop-color="#FF0000"/>
<stop offset="1" stop-color="#760000"/>
</radialGradient>
<linearGradient id="paint28_linear" x1="982.606" y1="300.444" x2="972.183" y2="289.419" gradientUnits="userSpaceOnUse">
<stop stop-color="white"/>
<stop offset="1" stop-color="white" stop-opacity="0"/>
</linearGradient>
<linearGradient id="paint29_linear" x1="956.225" y1="261.42" x2="937.459" y2="269.234" gradientUnits="userSpaceOnUse">
<stop stop-color="#858585"/>
<stop offset="1" stop-color="#858585" stop-opacity="0"/>
</linearGradient>
</defs>
</svg>
