<svg width="945" height="437" viewBox="0 0 945 437" fill="none" xmlns="http://www.w3.org/2000/svg">
<g filter="url(#filter0_dd_1801_14688)">
<rect x="244" y="177" width="199" height="120" rx="4" fill="white"/>
</g>
<path d="M244 181C244 178.791 245.791 177 248 177H439C441.209 177 443 178.791 443 181V183H244V181Z" fill="#4A796B"/>
<path d="M303.822 244H306.721V237.203H313.369V234.773H306.721V230.43H314.072V228H303.822V244ZM319.934 244.242C321.816 244.242 322.941 243.359 323.457 242.352H323.551V244H326.27V235.969C326.27 232.797 323.684 231.844 321.395 231.844C318.871 231.844 316.934 232.969 316.309 235.156L318.949 235.531C319.23 234.711 320.027 234.008 321.41 234.008C322.723 234.008 323.441 234.68 323.441 235.859V235.906C323.441 236.719 322.59 236.758 320.473 236.984C318.145 237.234 315.918 237.93 315.918 240.633C315.918 242.992 317.645 244.242 319.934 244.242ZM320.668 242.164C319.488 242.164 318.645 241.625 318.645 240.586C318.645 239.5 319.59 239.047 320.855 238.867C321.598 238.766 323.082 238.578 323.449 238.281V239.695C323.449 241.031 322.371 242.164 320.668 242.164ZM334.348 244.234C337.363 244.234 339.285 242.445 339.488 239.898H336.785C336.543 241.188 335.613 241.93 334.371 241.93C332.605 241.93 331.465 240.453 331.465 238C331.465 235.578 332.629 234.125 334.371 234.125C335.73 234.125 336.566 235 336.785 236.156H339.488C339.293 233.555 337.262 231.844 334.332 231.844C330.816 231.844 328.598 234.383 328.598 238.047C328.598 241.68 330.762 244.234 334.348 244.234ZM347.803 232H345.436V229.125H342.607V232H340.904V234.187H342.607V240.859C342.592 243.117 344.232 244.227 346.357 244.164C347.162 244.141 347.717 243.984 348.021 243.883L347.545 241.672C347.389 241.711 347.068 241.781 346.717 241.781C346.006 241.781 345.436 241.531 345.436 240.391V234.187H347.803V232ZM355.273 244.234C358.789 244.234 361.023 241.758 361.023 238.047C361.023 234.328 358.789 231.844 355.273 231.844C351.758 231.844 349.523 234.328 349.523 238.047C349.523 241.758 351.758 244.234 355.273 244.234ZM355.289 241.969C353.344 241.969 352.391 240.234 352.391 238.039C352.391 235.844 353.344 234.086 355.289 234.086C357.203 234.086 358.156 235.844 358.156 238.039C358.156 240.234 357.203 241.969 355.289 241.969ZM363.424 244H366.252V236.945C366.252 235.422 367.4 234.344 368.955 234.344C369.432 234.344 370.025 234.43 370.268 234.508V231.906C370.01 231.859 369.564 231.828 369.252 231.828C367.877 231.828 366.729 232.609 366.291 234H366.166V232H363.424V244ZM374.27 248.5C376.473 248.5 377.746 247.367 378.426 245.453L383.246 232.016L380.223 232L377.449 241.062H377.324L374.559 232H371.559L375.91 244.25L375.668 244.898C375.145 246.266 374.316 246.359 373.082 246L372.426 248.203C372.809 248.359 373.496 248.5 374.27 248.5Z" fill="#262424"/>
<path d="M301.414 263.42H303.107C303.056 261.557 301.408 260.205 299.045 260.205C296.71 260.205 294.92 261.54 294.92 263.545C294.92 265.165 296.079 266.114 297.948 266.619L299.323 266.994C300.567 267.324 301.528 267.733 301.528 268.767C301.528 269.903 300.442 270.653 298.948 270.653C297.596 270.653 296.471 270.051 296.369 268.784H294.607C294.721 270.892 296.352 272.193 298.96 272.193C301.692 272.193 303.266 270.756 303.266 268.784C303.266 266.688 301.397 265.875 299.92 265.511L298.783 265.216C297.874 264.983 296.664 264.557 296.67 263.443C296.67 262.455 297.573 261.722 299.005 261.722C300.34 261.722 301.289 262.347 301.414 263.42ZM308.904 272.176C310.967 272.176 312.302 270.938 312.489 269.239H310.836C310.62 270.182 309.887 270.739 308.915 270.739C307.478 270.739 306.552 269.54 306.552 267.636C306.552 265.767 307.495 264.591 308.915 264.591C309.995 264.591 310.654 265.273 310.836 266.091H312.489C312.308 264.33 310.87 263.159 308.887 263.159C306.427 263.159 304.836 265.011 304.836 267.676C304.836 270.307 306.37 272.176 308.904 272.176ZM316.846 272.193C318.289 272.193 319.102 271.46 319.425 270.807H319.494V272H321.153V266.205C321.153 263.665 319.153 263.159 317.766 263.159C316.187 263.159 314.732 263.795 314.164 265.386L315.761 265.75C316.011 265.131 316.647 264.534 317.789 264.534C318.886 264.534 319.448 265.108 319.448 266.097V266.136C319.448 266.756 318.812 266.744 317.244 266.926C315.59 267.119 313.897 267.551 313.897 269.534C313.897 271.25 315.187 272.193 316.846 272.193ZM317.215 270.83C316.255 270.83 315.562 270.398 315.562 269.557C315.562 268.648 316.369 268.324 317.352 268.193C317.903 268.119 319.21 267.972 319.454 267.727V268.852C319.454 269.886 318.63 270.83 317.215 270.83ZM325.114 260.364H323.415V272H325.114V260.364ZM331.161 272.176C333.065 272.176 334.411 271.239 334.798 269.818L333.19 269.528C332.883 270.352 332.144 270.773 331.178 270.773C329.724 270.773 328.746 269.83 328.701 268.148H334.906V267.545C334.906 264.392 333.019 263.159 331.042 263.159C328.61 263.159 327.008 265.011 327.008 267.693C327.008 270.403 328.587 272.176 331.161 272.176ZM328.707 266.875C328.775 265.636 329.673 264.562 331.053 264.562C332.371 264.562 333.235 265.54 333.241 266.875H328.707ZM343.565 272.193C345.008 272.193 345.82 271.46 346.144 270.807H346.212V272H347.871V266.205C347.871 263.665 345.871 263.159 344.485 263.159C342.906 263.159 341.451 263.795 340.883 265.386L342.479 265.75C342.729 265.131 343.366 264.534 344.508 264.534C345.604 264.534 346.167 265.108 346.167 266.097V266.136C346.167 266.756 345.531 266.744 343.962 266.926C342.309 267.119 340.616 267.551 340.616 269.534C340.616 271.25 341.906 272.193 343.565 272.193ZM343.934 270.83C342.974 270.83 342.281 270.398 342.281 269.557C342.281 268.648 343.087 268.324 344.07 268.193C344.621 268.119 345.928 267.972 346.173 267.727V268.852C346.173 269.886 345.349 270.83 343.934 270.83ZM353.793 275.455C356.015 275.455 357.731 274.438 357.731 272.193V263.273H356.066V264.688H355.941C355.64 264.148 355.038 263.159 353.413 263.159C351.305 263.159 349.754 264.824 349.754 267.602C349.754 270.386 351.339 271.869 353.401 271.869C355.004 271.869 355.623 270.966 355.93 270.409H356.038V272.125C356.038 273.494 355.1 274.085 353.81 274.085C352.396 274.085 351.844 273.375 351.543 272.875L350.083 273.477C350.543 274.545 351.708 275.455 353.793 275.455ZM353.776 270.46C352.259 270.46 351.469 269.295 351.469 267.58C351.469 265.903 352.242 264.602 353.776 264.602C355.259 264.602 356.055 265.812 356.055 267.58C356.055 269.381 355.242 270.46 353.776 270.46ZM363.771 272.176C365.674 272.176 367.021 271.239 367.407 269.818L365.799 269.528C365.492 270.352 364.754 270.773 363.788 270.773C362.333 270.773 361.356 269.83 361.31 268.148H367.515V267.545C367.515 264.392 365.629 263.159 363.651 263.159C361.219 263.159 359.617 265.011 359.617 267.693C359.617 270.403 361.197 272.176 363.771 272.176ZM361.316 266.875C361.384 265.636 362.282 264.562 363.663 264.562C364.981 264.562 365.844 265.54 365.85 266.875H361.316ZM371.099 266.818C371.099 265.426 371.951 264.631 373.133 264.631C374.286 264.631 374.985 265.386 374.985 266.653V272H376.684V266.449C376.684 264.29 375.496 263.159 373.712 263.159C372.4 263.159 371.542 263.767 371.138 264.693H371.031V263.273H369.4V272H371.099V266.818ZM383.036 263.273H381.246V261.182H379.548V263.273H378.269V264.636H379.548V269.79C379.542 271.375 380.752 272.142 382.093 272.114C382.633 272.108 382.996 272.006 383.195 271.932L382.888 270.528C382.775 270.551 382.565 270.602 382.292 270.602C381.741 270.602 381.246 270.42 381.246 269.438V264.636H383.036V263.273ZM391.315 265.403C390.962 264.045 389.9 263.159 388.013 263.159C386.042 263.159 384.644 264.199 384.644 265.744C384.644 266.983 385.394 267.807 387.031 268.17L388.508 268.494C389.349 268.682 389.741 269.057 389.741 269.602C389.741 270.278 389.019 270.807 387.906 270.807C386.888 270.807 386.235 270.369 386.031 269.511L384.388 269.761C384.673 271.307 385.957 272.176 387.917 272.176C390.025 272.176 391.485 271.057 391.485 269.477C391.485 268.244 390.701 267.483 389.099 267.114L387.712 266.795C386.752 266.568 386.337 266.244 386.343 265.653C386.337 264.983 387.065 264.506 388.031 264.506C389.087 264.506 389.576 265.091 389.775 265.676L391.315 265.403Z" fill="#6D6666"/>
<rect x="290" y="168" width="107" height="36" rx="4" fill="#4A796B"/>
<path d="M307.291 193H309.663V188.206H312.079L314.648 193H317.295L314.463 187.81C316.004 187.19 316.815 185.873 316.815 184.096C316.815 181.597 315.205 179.909 312.2 179.909H307.291V193ZM309.663 186.237V181.891H311.836C313.607 181.891 314.399 182.702 314.399 184.096C314.399 185.489 313.607 186.237 311.849 186.237H309.663ZM318.998 193H327.564V191.012H321.37V187.439H327.071V185.451H321.37V181.897H327.512V179.909H318.998V193ZM341.137 184.326C340.734 181.418 338.497 179.73 335.595 179.73C332.175 179.73 329.599 182.223 329.599 186.455C329.599 190.68 332.143 193.179 335.595 193.179C338.708 193.179 340.773 191.165 341.137 188.666L338.746 188.653C338.446 190.188 337.193 191.05 335.627 191.05C333.505 191.05 331.984 189.459 331.984 186.455C331.984 183.501 333.492 181.859 335.634 181.859C337.225 181.859 338.472 182.76 338.746 184.326H341.137ZM355.006 186.455C355.006 182.223 352.424 179.73 348.991 179.73C345.552 179.73 342.976 182.223 342.976 186.455C342.976 190.68 345.552 193.179 348.991 193.179C352.424 193.179 355.006 190.686 355.006 186.455ZM352.622 186.455C352.622 189.433 351.126 191.05 348.991 191.05C346.863 191.05 345.361 189.433 345.361 186.455C345.361 183.476 346.863 181.859 348.991 181.859C351.126 181.859 352.622 183.476 352.622 186.455ZM357.248 193H359.62V188.206H362.036L364.605 193H367.252L364.42 187.81C365.961 187.19 366.772 185.873 366.772 184.096C366.772 181.597 365.162 179.909 362.157 179.909H357.248V193ZM359.62 186.237V181.891H361.793C363.564 181.891 364.356 182.702 364.356 184.096C364.356 185.489 363.564 186.237 361.806 186.237H359.62ZM373.391 193C377.38 193 379.745 190.533 379.745 186.442C379.745 182.364 377.38 179.909 373.481 179.909H368.955V193H373.391ZM371.327 190.948V181.961H373.347C376.006 181.961 377.393 183.444 377.393 186.442C377.393 189.452 376.006 190.948 373.276 190.948H371.327Z" fill="white"/>
<g filter="url(#filter1_dd_1801_14688)">
<rect x="108" y="150.55" width="149.295" height="69.0046" rx="4" fill="white"/>
</g>
<path d="M108 154C108 152.095 109.545 150.55 111.45 150.55H253.845C255.751 150.55 257.295 152.095 257.295 154V154H108V154Z" fill="#4A796B"/>
<path d="M154.93 198.401L156.251 194.456H162.266L163.595 198.401H166.688L161.048 182.401H157.47L151.837 198.401H154.93ZM157.032 192.128L159.196 185.683H159.321L161.485 192.128H157.032ZM173.524 203.151C176.766 203.151 179.157 201.667 179.157 198.597V186.401H176.368V188.386H176.212C175.782 187.519 174.884 186.245 172.766 186.245C169.993 186.245 167.813 188.417 167.813 192.362C167.813 196.276 169.993 198.229 172.759 198.229C174.813 198.229 175.774 197.128 176.212 196.245H176.352V198.519C176.352 200.284 175.18 201.011 173.571 201.011C171.868 201.011 171.118 200.206 170.774 199.503L168.227 200.12C168.743 201.8 170.47 203.151 173.524 203.151ZM173.548 196.011C171.68 196.011 170.696 194.558 170.696 192.347C170.696 190.167 171.665 188.565 173.548 188.565C175.368 188.565 176.368 190.073 176.368 192.347C176.368 194.636 175.352 196.011 173.548 196.011ZM187.368 198.636C190.165 198.636 192.087 197.269 192.587 195.183L189.946 194.886C189.563 195.901 188.626 196.433 187.407 196.433C185.579 196.433 184.368 195.229 184.345 193.175H192.704V192.308C192.704 188.097 190.173 186.245 187.22 186.245C183.782 186.245 181.54 188.769 181.54 192.472C181.54 196.237 183.751 198.636 187.368 198.636ZM184.352 191.269C184.438 189.737 185.571 188.448 187.259 188.448C188.884 188.448 189.977 189.636 189.993 191.269H184.352ZM197.925 191.37C197.925 189.636 198.971 188.636 200.464 188.636C201.925 188.636 202.8 189.597 202.8 191.198V198.401H205.628V190.761C205.636 187.886 203.995 186.245 201.518 186.245C199.721 186.245 198.487 187.104 197.94 188.44H197.8V186.401H195.096V198.401H197.925V191.37ZM214.495 186.401H212.128V183.526H209.3V186.401H207.596V188.589H209.3V195.261C209.284 197.519 210.925 198.628 213.05 198.565C213.854 198.542 214.409 198.386 214.714 198.284L214.237 196.073C214.081 196.112 213.761 196.183 213.409 196.183C212.698 196.183 212.128 195.933 212.128 194.792V188.589H214.495V186.401Z" fill="#262424"/>
<rect x="129.444" y="136" width="107" height="36" rx="4" fill="#4A796B"/>
<path d="M146.735 161H149.106V156.206H151.523L154.092 161H156.739L153.907 155.81C155.447 155.19 156.259 153.873 156.259 152.096C156.259 149.597 154.648 147.909 151.644 147.909H146.735V161ZM149.106 154.237V149.891H151.28C153.05 149.891 153.843 150.702 153.843 152.096C153.843 153.489 153.05 154.237 151.293 154.237H149.106ZM158.442 161H167.007V159.012H160.814V155.439H166.515V153.451H160.814V149.897H166.956V147.909H158.442V161ZM180.581 152.326C180.178 149.418 177.941 147.73 175.039 147.73C171.619 147.73 169.043 150.223 169.043 154.455C169.043 158.68 171.587 161.179 175.039 161.179C178.152 161.179 180.217 159.165 180.581 156.666L178.19 156.653C177.89 158.188 176.637 159.05 175.071 159.05C172.949 159.05 171.428 157.459 171.428 154.455C171.428 151.501 172.936 149.859 175.077 149.859C176.669 149.859 177.915 150.76 178.19 152.326H180.581ZM194.45 154.455C194.45 150.223 191.868 147.73 188.435 147.73C184.996 147.73 182.42 150.223 182.42 154.455C182.42 158.68 184.996 161.179 188.435 161.179C191.868 161.179 194.45 158.686 194.45 154.455ZM192.066 154.455C192.066 157.433 190.57 159.05 188.435 159.05C186.307 159.05 184.804 157.433 184.804 154.455C184.804 151.476 186.307 149.859 188.435 149.859C190.57 149.859 192.066 151.476 192.066 154.455ZM196.692 161H199.064V156.206H201.48L204.049 161H206.696L203.864 155.81C205.404 155.19 206.216 153.873 206.216 152.096C206.216 149.597 204.605 147.909 201.601 147.909H196.692V161ZM199.064 154.237V149.891H201.237C203.007 149.891 203.8 150.702 203.8 152.096C203.8 153.489 203.007 154.237 201.25 154.237H199.064ZM212.835 161C216.824 161 219.189 158.533 219.189 154.442C219.189 150.364 216.824 147.909 212.925 147.909H208.399V161H212.835ZM210.771 158.948V149.961H212.79C215.45 149.961 216.837 151.444 216.837 154.442C216.837 157.452 215.45 158.948 212.72 158.948H210.771Z" fill="white"/>
<g filter="url(#filter2_dd_1801_14688)">
<rect x="105" y="262.55" width="149.295" height="69.0046" rx="4" fill="white"/>
</g>
<path d="M107 266C107 264.095 108.545 262.55 110.45 262.55H252.845C254.751 262.55 256.295 264.095 256.295 266V266H107V266Z" fill="#4A796B"/>
<path d="M151.93 310.401L153.25 306.456H159.266L160.594 310.401H163.688L158.047 294.401H154.469L148.836 310.401H151.93ZM154.032 304.128L156.196 297.683H156.321L158.485 304.128H154.032ZM170.524 315.151C173.766 315.151 176.157 313.667 176.157 310.597V298.401H173.367V300.386H173.211C172.782 299.519 171.883 298.245 169.766 298.245C166.992 298.245 164.813 300.417 164.813 304.362C164.813 308.276 166.992 310.229 169.758 310.229C171.813 310.229 172.774 309.128 173.211 308.245H173.352V310.519C173.352 312.284 172.18 313.011 170.571 313.011C168.867 313.011 168.117 312.206 167.774 311.503L165.227 312.12C165.742 313.8 167.469 315.151 170.524 315.151ZM170.547 308.011C168.68 308.011 167.696 306.558 167.696 304.347C167.696 302.167 168.664 300.565 170.547 300.565C172.367 300.565 173.367 302.073 173.367 304.347C173.367 306.636 172.352 308.011 170.547 308.011ZM184.367 310.636C187.164 310.636 189.086 309.269 189.586 307.183L186.946 306.886C186.563 307.901 185.625 308.433 184.407 308.433C182.578 308.433 181.367 307.229 181.344 305.175H189.703V304.308C189.703 300.097 187.172 298.245 184.219 298.245C180.782 298.245 178.539 300.769 178.539 304.472C178.539 308.237 180.75 310.636 184.367 310.636ZM181.352 303.269C181.438 301.737 182.571 300.448 184.258 300.448C185.883 300.448 186.977 301.636 186.992 303.269H181.352ZM194.924 303.37C194.924 301.636 195.971 300.636 197.463 300.636C198.924 300.636 199.799 301.597 199.799 303.198V310.401H202.627V302.761C202.635 299.886 200.994 298.245 198.518 298.245C196.721 298.245 195.487 299.104 194.94 300.44H194.799V298.401H192.096V310.401H194.924V303.37ZM211.494 298.401H209.127V295.526H206.299V298.401H204.596V300.589H206.299V307.261C206.283 309.519 207.924 310.628 210.049 310.565C210.854 310.542 211.408 310.386 211.713 310.284L211.237 308.073C211.08 308.112 210.76 308.183 210.408 308.183C209.698 308.183 209.127 307.933 209.127 306.792V300.589H211.494V298.401Z" fill="#262424"/>
<rect x="126.444" y="248" width="107" height="36" rx="4" fill="#4A796B"/>
<path d="M143.736 273H146.107V268.206H148.523L151.093 273H153.739L150.907 267.81C152.448 267.19 153.26 265.873 153.26 264.096C153.26 261.597 151.649 259.909 148.645 259.909H143.736V273ZM146.107 266.237V261.891H148.28C150.051 261.891 150.843 262.702 150.843 264.096C150.843 265.489 150.051 266.237 148.293 266.237H146.107ZM155.443 273H164.008V271.012H157.814V267.439H163.516V265.451H157.814V261.897H163.957V259.909H155.443V273ZM177.581 264.326C177.179 261.418 174.941 259.73 172.04 259.73C168.62 259.73 166.044 262.223 166.044 266.455C166.044 270.68 168.588 273.179 172.04 273.179C175.152 273.179 177.217 271.165 177.581 268.666L175.191 268.653C174.89 270.188 173.638 271.05 172.071 271.05C169.949 271.05 168.428 269.459 168.428 266.455C168.428 263.501 169.937 261.859 172.078 261.859C173.669 261.859 174.916 262.76 175.191 264.326H177.581ZM191.451 266.455C191.451 262.223 188.868 259.73 185.436 259.73C181.997 259.73 179.421 262.223 179.421 266.455C179.421 270.68 181.997 273.179 185.436 273.179C188.868 273.179 191.451 270.686 191.451 266.455ZM189.066 266.455C189.066 269.433 187.571 271.05 185.436 271.05C183.307 271.05 181.805 269.433 181.805 266.455C181.805 263.476 183.307 261.859 185.436 261.859C187.571 261.859 189.066 263.476 189.066 266.455ZM193.693 273H196.064V268.206H198.48L201.05 273H203.696L200.864 267.81C202.405 267.19 203.217 265.873 203.217 264.096C203.217 261.597 201.606 259.909 198.602 259.909H193.693V273ZM196.064 266.237V261.891H198.237C200.008 261.891 200.801 262.702 200.801 264.096C200.801 265.489 200.008 266.237 198.25 266.237H196.064ZM209.836 273C213.824 273 216.189 270.533 216.189 266.442C216.189 262.364 213.824 259.909 209.925 259.909H205.4V273H209.836ZM207.771 270.948V261.961H209.791C212.45 261.961 213.837 263.444 213.837 266.442C213.837 269.452 212.45 270.948 209.721 270.948H207.771Z" fill="white"/>
<g filter="url(#filter3_dd_1801_14688)">
<rect x="703" y="179" width="208" height="118" rx="4" fill="white"/>
</g>
<path d="M703 183C703 180.791 704.791 179 707 179H907C909.209 179 911 180.791 911 183V184H703V183Z" fill="#84559F"/>
<path d="M786.771 240.074H789.67V233.277H797.084V240.074H799.99V224.074H797.084V230.848H789.67V224.074H786.771V240.074ZM810.666 235.027C810.666 236.855 809.361 237.762 808.111 237.762C806.752 237.762 805.846 236.801 805.846 235.277V228.074H803.018V235.715C803.018 238.598 804.658 240.23 807.018 240.23C808.814 240.23 810.08 239.285 810.627 237.941H810.752V240.074H813.494V228.074H810.666V235.027ZM816.527 240.074H819.309V238.184H819.473C819.918 239.059 820.848 240.285 822.91 240.285C825.738 240.285 827.855 238.043 827.855 234.09C827.855 230.09 825.676 227.918 822.902 227.918C820.785 227.918 819.902 229.191 819.473 230.059H819.355V224.074H816.527V240.074ZM819.301 234.074C819.301 231.746 820.301 230.238 822.121 230.238C824.004 230.238 824.973 231.84 824.973 234.074C824.973 236.324 823.988 237.965 822.121 237.965C820.316 237.965 819.301 236.402 819.301 234.074Z" fill="#262424"/>
<path d="M729.653 253.856V265.492H731.324V257.066H731.432L734.864 265.475H736.25L739.682 257.072H739.79V265.492H741.46V253.856H739.33L735.625 262.901H735.489L731.784 253.856H729.653ZM747.553 265.668C750.013 265.668 751.621 263.867 751.621 261.168C751.621 258.452 750.013 256.651 747.553 256.651C745.092 256.651 743.484 258.452 743.484 261.168C743.484 263.867 745.092 265.668 747.553 265.668ZM747.558 264.242C745.95 264.242 745.2 262.839 745.2 261.163C745.2 259.492 745.95 258.072 747.558 258.072C749.155 258.072 749.905 259.492 749.905 261.163C749.905 262.839 749.155 264.242 747.558 264.242ZM755.216 260.31C755.216 258.918 756.068 258.123 757.25 258.123C758.403 258.123 759.102 258.879 759.102 260.146V265.492H760.801V259.941C760.801 257.782 759.614 256.651 757.83 256.651C756.517 256.651 755.659 257.259 755.256 258.185H755.148V256.765H753.517V265.492H755.216V260.31ZM763.08 265.492H764.778V256.765H763.08V265.492ZM763.938 255.418C764.523 255.418 765.011 254.964 765.011 254.407C765.011 253.85 764.523 253.39 763.938 253.39C763.347 253.39 762.864 253.85 762.864 254.407C762.864 254.964 763.347 255.418 763.938 255.418ZM771.138 256.765H769.348V254.674H767.649V256.765H766.371V258.129H767.649V263.282C767.643 264.867 768.854 265.634 770.195 265.606C770.734 265.6 771.098 265.498 771.297 265.424L770.99 264.021C770.876 264.043 770.666 264.094 770.393 264.094C769.842 264.094 769.348 263.913 769.348 262.93V258.129H771.138V256.765ZM776.599 265.668C779.06 265.668 780.668 263.867 780.668 261.168C780.668 258.452 779.06 256.651 776.599 256.651C774.139 256.651 772.531 258.452 772.531 261.168C772.531 263.867 774.139 265.668 776.599 265.668ZM776.605 264.242C774.997 264.242 774.247 262.839 774.247 261.163C774.247 259.492 774.997 258.072 776.605 258.072C778.202 258.072 778.952 259.492 778.952 261.163C778.952 262.839 778.202 264.242 776.605 264.242ZM782.564 265.492H784.263V260.163C784.263 259.021 785.143 258.197 786.348 258.197C786.7 258.197 787.098 258.259 787.234 258.299V256.674C787.064 256.651 786.729 256.634 786.513 256.634C785.49 256.634 784.615 257.214 784.297 258.151H784.206V256.765H782.564V265.492ZM795.479 265.685C796.922 265.685 797.734 264.952 798.058 264.299H798.126V265.492H799.786V259.697C799.786 257.157 797.786 256.651 796.399 256.651C794.82 256.651 793.365 257.288 792.797 258.879L794.393 259.242C794.643 258.623 795.28 258.026 796.422 258.026C797.518 258.026 798.081 258.6 798.081 259.589V259.629C798.081 260.248 797.445 260.237 795.876 260.418C794.223 260.612 792.53 261.043 792.53 263.026C792.53 264.742 793.82 265.685 795.479 265.685ZM795.848 264.322C794.888 264.322 794.195 263.89 794.195 263.049C794.195 262.14 795.001 261.816 795.984 261.685C796.536 261.612 797.842 261.464 798.087 261.219V262.344C798.087 263.379 797.263 264.322 795.848 264.322ZM803.747 260.31C803.747 258.918 804.599 258.123 805.781 258.123C806.935 258.123 807.634 258.879 807.634 260.146V265.492H809.332V259.941C809.332 257.782 808.145 256.651 806.361 256.651C805.048 256.651 804.19 257.259 803.787 258.185H803.679V256.765H802.048V265.492H803.747V260.31ZM814.878 265.663C816.469 265.663 817.094 264.691 817.401 264.134H817.543V265.492H819.202V253.856H817.503V258.18H817.401C817.094 257.64 816.514 256.651 814.889 256.651C812.781 256.651 811.23 258.316 811.23 261.146C811.23 263.969 812.759 265.663 814.878 265.663ZM815.253 264.214C813.736 264.214 812.946 262.879 812.946 261.129C812.946 259.396 813.719 258.094 815.253 258.094C816.736 258.094 817.531 259.305 817.531 261.129C817.531 262.964 816.719 264.214 815.253 264.214ZM826.98 265.492L828.048 262.413H832.594L833.656 265.492H835.52L831.332 253.856H829.304L825.116 265.492H826.98ZM828.56 260.935L830.276 255.969H830.366L832.082 260.935H828.56ZM838.763 260.31C838.763 258.918 839.615 258.123 840.797 258.123C841.95 258.123 842.649 258.879 842.649 260.146V265.492H844.348V259.941C844.348 257.782 843.161 256.651 841.376 256.651C840.064 256.651 839.206 257.259 838.803 258.185H838.695V256.765H837.064V265.492H838.763V260.31ZM849.166 265.685C850.609 265.685 851.422 264.952 851.746 264.299H851.814V265.492H853.473V259.697C853.473 257.157 851.473 256.651 850.087 256.651C848.507 256.651 847.053 257.288 846.484 258.879L848.081 259.242C848.331 258.623 848.967 258.026 850.109 258.026C851.206 258.026 851.768 258.6 851.768 259.589V259.629C851.768 260.248 851.132 260.237 849.564 260.418C847.911 260.612 846.217 261.043 846.217 263.026C846.217 264.742 847.507 265.685 849.166 265.685ZM849.536 264.322C848.575 264.322 847.882 263.89 847.882 263.049C847.882 262.14 848.689 261.816 849.672 261.685C850.223 261.612 851.53 261.464 851.774 261.219V262.344C851.774 263.379 850.95 264.322 849.536 264.322ZM857.435 253.856H855.736V265.492H857.435V253.856ZM860.794 268.765C862.197 268.765 863.084 268.032 863.589 266.657L867.197 256.782L865.362 256.765L863.152 263.538H863.061L860.851 256.765H859.033L862.226 265.606L862.016 266.185C861.584 267.344 860.976 267.441 860.044 267.185L859.635 268.577C859.839 268.668 860.283 268.765 860.794 268.765ZM868.616 265.492H875.622V264.015H870.918V263.935L875.463 258.004V256.765H868.77V258.242H873.344V258.322L868.616 264.327V265.492ZM881.138 265.668C883.041 265.668 884.388 264.731 884.774 263.31L883.166 263.021C882.859 263.844 882.121 264.265 881.155 264.265C879.7 264.265 878.723 263.322 878.678 261.64H884.882V261.038C884.882 257.884 882.996 256.651 881.018 256.651C878.587 256.651 876.984 258.504 876.984 261.185C876.984 263.896 878.564 265.668 881.138 265.668ZM878.683 260.367C878.751 259.129 879.649 258.055 881.03 258.055C882.348 258.055 883.212 259.032 883.217 260.367H878.683Z" fill="#6D6666"/>
<rect x="752.02" y="167" width="116" height="36" rx="4" fill="#84559F"/>
<path d="M770.992 192L772.072 188.772H776.994L778.081 192H780.612L775.997 178.909H773.069L768.461 192H770.992ZM772.711 186.867L774.482 181.594H774.584L776.355 186.867H772.711ZM793.094 178.909H790.735V187.832H790.62L784.458 178.909H782.336V192H784.708V183.083H784.816L790.985 192H793.094V178.909ZM797.359 192L798.439 188.772H803.361L804.448 192H806.979L802.364 178.909H799.436L794.828 192H797.359ZM799.078 186.867L800.849 181.594H800.951L802.722 186.867H799.078ZM808.703 192H816.84V190.012H811.075V178.909H808.703V192ZM816.685 178.909L821.447 187.116V192H823.812V187.116L828.575 178.909H825.896L822.694 184.7H822.566L819.364 178.909H816.685ZM830.011 192H839.702V190.012H832.958L839.663 180.386V178.909H829.973V180.897H836.723L830.011 190.523V192ZM841.996 192H850.562V190.012H844.368V186.439H850.069V184.451H844.368V180.897H850.51V178.909H841.996V192Z" fill="white"/>
<path d="M101.044 276.758L108.887 278.451C112.908 279.282 112.529 280.627 112.252 295.117C112.122 301.945 113.742 311.388 109.957 310.359C109.6 310.002 98.9049 306.883 98.9049 306.883C96.5456 303.805 92.1502 282.68 101.044 276.758V276.758Z" fill="#585858"/>
<path d="M56.2578 290.238L56.9709 300.577C58.2139 304.067 68.455 304.198 69.3594 300.666C69.2602 297.22 69.2515 293.774 69.2703 290.327L56.2578 290.238Z" fill="#5A5A5A"/>
<path d="M103.866 292.408V297.427C103.866 297.427 102.685 301.855 103.128 302.888C103.571 303.921 106.523 309.677 106.523 309.677L100.176 307.759L98.1096 302.445L96.3384 296.393L103.866 292.408Z" fill="url(#paint0_linear_1801_14688)"/>
<path d="M99.7072 298.772L69.0476 300.644C66.1511 298.504 65.6837 295.502 69.1368 291.107L100.331 287.898C104.92 289.651 104.677 299.336 99.7072 298.772V298.772Z" fill="#4D4D4D"/>
<path d="M62.7196 291.642C66.3129 291.642 69.2259 291.064 69.2259 290.35C69.2259 289.636 66.3129 289.058 62.7196 289.058C59.1263 289.058 56.2134 289.636 56.2134 290.35C56.2134 291.064 59.1263 291.642 62.7196 291.642Z" fill="#818181"/>
<path d="M56.5697 289.771L56.748 277.204L69.0474 267.846L68.9579 290.216C66.3201 290.873 61.5448 292.043 56.5693 289.771H56.5697Z" fill="#737373"/>
<path d="M10.0818 262.142C6.55728 264.375 12.6196 276.696 14.4106 283.058L15.6195 283.331L69.5514 251.694L65.4812 245.717L10.0818 262.142Z" fill="#202020"/>
<path opacity="0.668471" d="M91.9257 288.787C79.3368 291.3 70.4634 295.075 67.4061 299.248C63.9205 301.352 60.6691 301.022 56.7454 300.847L56.2124 290.653L58.4777 281.924L69.2683 273.466C69.2683 273.466 68.8882 289.587 69.0881 289.92C69.5706 290.394 69.4406 291.018 69.4406 291.018C71.9127 290.906 86.4029 289.339 91.9256 288.787H91.9257Z" fill="url(#paint1_linear_1801_14688)"/>
<path d="M10.7549 262.053C7.46795 264.552 13.8519 276.764 15.6429 283.127L70.7838 251.763L63.8279 242.089L10.7549 262.053Z" fill="#3B3B3B"/>
<path d="M63.9415 243.295C63.4909 243.29 63.0776 243.408 62.7299 243.622C62.728 243.623 62.7268 243.625 62.7248 243.626C61.7831 244.036 20.7991 261.866 20.1805 261.835L55.9678 291.282L89.5437 262.635C89.5456 262.634 89.5468 262.631 89.5487 262.63C90.4678 262.137 91.005 260.992 90.8406 259.607L89.5261 248.565C89.2969 246.633 87.7991 244.987 86.1646 244.87L64.0899 243.302C64.0388 243.299 63.9916 243.296 63.9415 243.295Z" fill="#A0A0A0"/>
<path d="M52.0503 263.161L22.0311 260.942C19.815 260.778 18.2491 263.069 18.5335 266.059L20.1645 283.205C20.4489 286.195 22.4759 288.751 24.692 288.915L54.7112 291.134C56.9273 291.297 58.4932 289.007 58.2088 286.017L56.5778 268.871C56.2934 265.881 54.2664 263.325 52.0503 263.161Z" fill="#7B7B7B"/>
<path d="M49.5714 265.495L24.9928 263.678C23.1784 263.544 21.8963 265.42 22.1291 267.868L23.4645 281.906C23.6974 284.354 25.357 286.447 27.1715 286.581L51.75 288.398C53.5645 288.532 54.8466 286.656 54.6137 284.209L53.2783 270.17C53.0455 267.722 51.3858 265.629 49.5714 265.495Z" fill="url(#paint2_linear_1801_14688)"/>
<path d="M49.3153 265.698L26.232 263.962C24.5279 263.833 23.3235 265.623 23.5418 267.958L24.7941 281.351C25.0124 283.687 26.5709 285.684 28.2749 285.812L51.3583 287.548C53.0623 287.677 54.2667 285.887 54.0484 283.552L52.7961 270.158C52.5778 267.823 51.0194 265.826 49.3153 265.698Z" fill="#494949"/>
<path d="M19.3 272.863C19.3 272.863 37.2479 272.362 45.9538 274.19C47.3022 274.473 48.6375 274.948 49.8163 275.662C52.4548 277.258 57.0125 283.124 57.0125 283.124L57.9785 283.391L54.4805 265.267L18.6338 263.002L19.3 272.863Z" fill="url(#paint3_linear_1801_14688)"/>
<path d="M63.7116 242.629C63.2084 242.62 62.7482 242.745 62.3619 242.977C62.3619 242.98 62.3619 242.981 62.3524 242.983C61.4167 243.378 19.9141 258.754 10.6663 262.072C9.56075 262.469 9.36568 262.998 9.29199 262.994C9.29199 262.994 31.3248 263.465 44.2456 264.629C46.5401 264.835 49.4799 265.547 50.4735 267.626C52.4468 271.753 54.4267 279.975 54.6732 279.83L55.8897 279.881L92.3285 252.644L92.319 248.654C92.0449 246.53 90.3572 244.707 88.5314 244.564L63.8724 242.639C63.8153 242.635 63.7626 242.631 63.7067 242.63L63.7116 242.629Z" fill="#202020"/>
<g filter="url(#filter4_f_1801_14688)">
<path d="M57.9451 284.256C58.9446 284.056 90.7268 257.938 90.7268 257.938L89.5275 250.941L55.813 268.532L57.9451 284.256Z" fill="url(#paint4_linear_1801_14688)"/>
</g>
<path d="M64.6873 241.757C64.1842 241.747 63.7239 241.873 63.3377 242.105C63.3377 242.107 63.3377 242.109 63.3282 242.111C62.2807 242.553 10.581 262.14 9.89014 262.101C9.89014 262.101 32.3006 262.593 45.2213 263.757C47.5159 263.963 50.4556 264.675 51.4494 266.754C53.4225 270.881 55.7271 280.081 55.9735 279.936L93.3042 251.772L93.2947 247.782C93.0206 245.658 91.333 243.835 89.5072 243.692L64.8481 241.767C64.791 241.763 64.7383 241.759 64.6824 241.758L64.6873 241.757Z" fill="#6E6E6E"/>
<path d="M38.6226 284.989C44.0687 284.989 48.2451 280.634 47.9507 275.261C47.6563 269.889 43.0027 265.533 37.5565 265.533C32.1103 265.533 27.934 269.889 28.2283 275.261C28.5227 280.634 33.1764 284.989 38.6226 284.989Z" fill="#121212"/>
<path opacity="0.668471" d="M39.4166 284.01C44.1279 284.01 47.7408 280.243 47.4861 275.595C47.2314 270.947 43.2057 267.18 38.4944 267.18C33.7831 267.18 30.1703 270.947 30.425 275.595C30.6796 280.243 34.7053 284.01 39.4166 284.01Z" fill="url(#paint5_radial_1801_14688)"/>
<path d="M48.8554 286.398C50.5365 286.398 51.8994 285.036 51.8994 283.354C51.8994 281.673 50.5365 280.311 48.8554 280.311C47.1743 280.311 45.8115 281.673 45.8115 283.354C45.8115 285.036 47.1743 286.398 48.8554 286.398Z" fill="url(#paint6_linear_1801_14688)"/>
<path d="M49.0886 285.899C50.4937 285.899 51.6328 284.76 51.6328 283.355C51.6328 281.95 50.4937 280.811 49.0886 280.811C47.6835 280.811 46.5444 281.95 46.5444 283.355C46.5444 284.76 47.6835 285.899 49.0886 285.899Z" fill="url(#paint7_radial_1801_14688)"/>
<path d="M47.5855 283.114C47.868 283.268 48.2903 283.04 48.5287 282.605C48.7671 282.169 48.7314 281.69 48.449 281.536C48.1665 281.381 47.7442 281.609 47.5058 282.045C47.2674 282.481 47.3031 282.959 47.5855 283.114Z" fill="#FF3636" fill-opacity="0.428571"/>
<path opacity="0.668471" d="M39.2891 283L39.9958 279.608C38.2613 279.12 36.4887 278.886 35.2372 275.179C35.2372 275.179 31.1382 275.085 31.1854 275.273C31.1232 278.785 34.621 283.092 39.2891 283V283Z" fill="url(#paint8_linear_1801_14688)"/>
<path d="M40.9038 262.103C40.9038 262.103 56.1418 259.181 57.603 258.555C59.0642 257.928 59.3386 256.287 63.3865 255.265C67.4644 254.237 70.5388 251.926 70.5388 251.926L76.3896 248.953L86.2003 243.525L91.0013 244.36C91.0013 244.36 93.0887 245.195 93.0887 246.239C93.0887 247.283 93.7149 251.249 93.7149 251.249L55.9331 279.846L52.1758 266.904L49.4622 264.191L40.9038 262.103Z" fill="url(#paint9_linear_1801_14688)"/>
<path d="M10.5825 261.854L63.5712 242.223L65.183 242.028L73.9033 243.257L76.7077 242.961C76.7077 242.961 80.1025 243.847 77.5933 244.585C75.084 245.323 67.9992 244.88 66.6708 245.028C65.3424 245.175 62.6857 245.618 61.5048 246.356C60.324 247.094 58.848 247.98 58.11 248.423C57.3719 248.865 53.8296 249.603 51.9107 249.899C49.9919 250.194 48.0731 249.751 46.8923 251.079C45.7115 252.408 45.1211 254.622 43.6451 255.212C42.1692 255.803 39.0694 255.803 37.5935 255.655C36.1175 255.507 35.3794 255.212 34.789 255.36C34.1986 255.507 31.9847 255.507 30.8039 255.803C29.623 256.098 27.2614 257.721 23.5714 258.607C19.8813 259.493 10.5825 261.854 10.5825 261.854V261.854Z" fill="#656565" fill-opacity="0.579439"/>
<path d="M39.2168 263.183H45.2684C45.2684 263.183 50.1392 263.626 51.9104 262.74C53.6816 261.854 58.4049 260.231 58.9953 259.64C59.5857 259.05 63.4233 258.46 64.1614 258.607C64.8993 258.755 65.7849 259.345 65.9324 260.821C66.0801 262.297 69.7701 263.183 69.7701 263.183C69.7701 263.183 69.7701 267.316 69.6225 268.054C69.4749 268.792 72.5745 268.792 73.1649 265.692C73.7553 262.592 71.9841 260.526 71.8365 259.198C71.6889 257.869 71.9841 256.836 71.9841 255.95C71.9841 255.065 70.5081 252.408 70.3605 251.522C70.2129 250.637 68.1465 252.703 67.2609 253.441C66.3753 254.179 63.5709 255.36 61.9473 255.655C60.3237 255.95 59.1428 256.393 55.8956 257.279C52.6484 258.164 56.0432 258.607 50.582 258.902C45.1208 259.198 38.0359 260.378 36.5599 260.526C35.0839 260.674 33.6078 260.378 29.9178 260.378C26.2278 260.378 10.4346 262.002 10.4346 262.002L39.2168 263.183Z" fill="#656565" fill-opacity="0.579439"/>
<path d="M105.044 171.758L112.887 173.451C116.908 174.282 116.529 175.627 116.252 190.117C116.122 196.945 117.742 206.388 113.957 205.359C113.6 205.002 102.905 201.883 102.905 201.883C100.546 198.805 96.1502 177.68 105.044 171.758V171.758Z" fill="#585858"/>
<path d="M60.2578 185.238L60.9709 195.577C62.2139 199.067 72.455 199.198 73.3594 195.666C73.2602 192.22 73.2515 188.774 73.2703 185.327L60.2578 185.238Z" fill="#5A5A5A"/>
<path d="M107.866 187.408V192.427C107.866 192.427 106.685 196.855 107.128 197.888C107.571 198.921 110.523 204.677 110.523 204.677L104.176 202.759L102.11 197.445L100.338 191.393L107.866 187.408Z" fill="url(#paint10_linear_1801_14688)"/>
<path d="M103.707 193.772L73.0476 195.644C70.1511 193.504 69.6837 190.502 73.1368 186.107L104.331 182.898C108.92 184.651 108.677 194.336 103.707 193.772V193.772Z" fill="#4D4D4D"/>
<path d="M66.7196 186.642C70.3129 186.642 73.2259 186.064 73.2259 185.35C73.2259 184.636 70.3129 184.058 66.7196 184.058C63.1263 184.058 60.2134 184.636 60.2134 185.35C60.2134 186.064 63.1263 186.642 66.7196 186.642Z" fill="#818181"/>
<path d="M60.5697 184.771L60.748 172.204L73.0474 162.846L72.9579 185.216C70.3201 185.873 65.5448 187.043 60.5693 184.771H60.5697Z" fill="#737373"/>
<path d="M14.0818 157.142C10.5573 159.375 16.6196 171.696 18.4106 178.058L19.6195 178.331L73.5514 146.694L69.4812 140.717L14.0818 157.142Z" fill="#202020"/>
<path opacity="0.668471" d="M95.9257 183.787C83.3368 186.3 74.4634 190.075 71.4061 194.248C67.9205 196.352 64.6691 196.022 60.7454 195.847L60.2124 185.653L62.4777 176.924L73.2683 168.466C73.2683 168.466 72.8882 184.587 73.0881 184.92C73.5706 185.394 73.4406 186.018 73.4406 186.018C75.9127 185.906 90.4029 184.339 95.9256 183.787H95.9257Z" fill="url(#paint11_linear_1801_14688)"/>
<path d="M14.7549 157.053C11.4679 159.552 17.8519 171.764 19.6429 178.127L74.7838 146.763L67.8279 137.089L14.7549 157.053Z" fill="#3B3B3B"/>
<path d="M67.9415 138.295C67.4909 138.29 67.0776 138.408 66.7299 138.622C66.728 138.623 66.7268 138.625 66.7248 138.626C65.7831 139.036 24.7991 156.866 24.1805 156.835L59.9678 186.282L93.5437 157.635C93.5456 157.634 93.5468 157.631 93.5487 157.63C94.4678 157.137 95.005 155.992 94.8406 154.607L93.5261 143.565C93.2969 141.633 91.7991 139.987 90.1646 139.87L68.0899 138.302C68.0388 138.299 67.9916 138.296 67.9415 138.295Z" fill="#A0A0A0"/>
<path d="M56.0503 158.161L26.0311 155.942C23.815 155.778 22.2491 158.069 22.5335 161.059L24.1645 178.205C24.4489 181.195 26.4759 183.751 28.692 183.915L58.7112 186.134C60.9273 186.298 62.4932 184.007 62.2088 181.017L60.5778 163.871C60.2934 160.881 58.2664 158.325 56.0503 158.161Z" fill="#7B7B7B"/>
<path d="M53.5714 160.495L28.9928 158.678C27.1784 158.544 25.8963 160.42 26.1291 162.868L27.4645 176.906C27.6974 179.354 29.357 181.447 31.1715 181.581L55.75 183.398C57.5645 183.532 58.8466 181.657 58.6137 179.209L57.2783 165.17C57.0455 162.722 55.3858 160.629 53.5714 160.495Z" fill="url(#paint12_linear_1801_14688)"/>
<path d="M53.3153 160.698L30.232 158.962C28.5279 158.833 27.3235 160.623 27.5418 162.958L28.7941 176.351C29.0124 178.687 30.5709 180.684 32.2749 180.812L55.3583 182.548C57.0623 182.677 58.2667 180.887 58.0484 178.552L56.7961 165.158C56.5778 162.823 55.0194 160.826 53.3153 160.698Z" fill="#494949"/>
<path d="M23.3 167.863C23.3 167.863 41.2479 167.362 49.9538 169.19C51.3022 169.473 52.6375 169.948 53.8163 170.662C56.4548 172.258 61.0125 178.124 61.0125 178.124L61.9785 178.391L58.4805 160.267L22.6338 158.002L23.3 167.863Z" fill="url(#paint13_linear_1801_14688)"/>
<path d="M67.7116 137.629C67.2084 137.62 66.7482 137.745 66.3619 137.977C66.3619 137.98 66.3619 137.981 66.3524 137.983C65.4167 138.378 23.9141 153.754 14.6663 157.072C13.5607 157.469 13.3657 157.998 13.292 157.994C13.292 157.994 35.3248 158.465 48.2456 159.629C50.5401 159.835 53.4799 160.547 54.4735 162.626C56.4468 166.753 58.4267 174.975 58.6732 174.83L59.8897 174.881L96.3285 147.644L96.319 143.654C96.0449 141.53 94.3572 139.707 92.5314 139.564L67.8724 137.639C67.8153 137.635 67.7626 137.631 67.7067 137.63L67.7116 137.629Z" fill="#202020"/>
<g filter="url(#filter5_f_1801_14688)">
<path d="M61.9451 179.256C62.9446 179.056 94.7268 152.938 94.7268 152.938L93.5275 145.941L59.813 163.532L61.9451 179.256Z" fill="url(#paint14_linear_1801_14688)"/>
</g>
<path d="M68.6873 136.757C68.1842 136.747 67.7239 136.873 67.3377 137.105C67.3377 137.107 67.3377 137.109 67.3282 137.111C66.2807 137.553 14.581 157.14 13.8901 157.101C13.8901 157.101 36.3006 157.593 49.2213 158.757C51.5159 158.963 54.4556 159.675 55.4494 161.754C57.4225 165.881 59.7271 175.081 59.9735 174.936L97.3042 146.772L97.2947 142.782C97.0206 140.658 95.333 138.835 93.5072 138.692L68.8481 136.767C68.791 136.763 68.7383 136.759 68.6824 136.758L68.6873 136.757Z" fill="#6E6E6E"/>
<path d="M42.6226 179.989C48.0687 179.989 52.2451 175.634 51.9507 170.261C51.6563 164.889 47.0027 160.533 41.5565 160.533C36.1103 160.533 31.934 164.889 32.2283 170.261C32.5227 175.634 37.1764 179.989 42.6226 179.989Z" fill="#121212"/>
<path opacity="0.668471" d="M43.4166 179.01C48.1279 179.01 51.7408 175.243 51.4861 170.595C51.2314 165.947 47.2057 162.18 42.4944 162.18C37.7831 162.18 34.1703 165.947 34.425 170.595C34.6796 175.243 38.7053 179.01 43.4166 179.01Z" fill="url(#paint15_radial_1801_14688)"/>
<path d="M52.8554 181.398C54.5365 181.398 55.8994 180.036 55.8994 178.354C55.8994 176.673 54.5365 175.311 52.8554 175.311C51.1743 175.311 49.8115 176.673 49.8115 178.354C49.8115 180.036 51.1743 181.398 52.8554 181.398Z" fill="url(#paint16_linear_1801_14688)"/>
<path d="M53.0886 180.899C54.4937 180.899 55.6328 179.76 55.6328 178.355C55.6328 176.95 54.4937 175.811 53.0886 175.811C51.6835 175.811 50.5444 176.95 50.5444 178.355C50.5444 179.76 51.6835 180.899 53.0886 180.899Z" fill="url(#paint17_radial_1801_14688)"/>
<path d="M51.5855 178.114C51.868 178.268 52.2903 178.04 52.5287 177.605C52.7671 177.169 52.7314 176.69 52.449 176.536C52.1665 176.381 51.7442 176.609 51.5058 177.045C51.2674 177.481 51.3031 177.959 51.5855 178.114Z" fill="#FF3636" fill-opacity="0.428571"/>
<path opacity="0.668471" d="M43.2891 178L43.9958 174.608C42.2613 174.12 40.4887 173.886 39.2372 170.179C39.2372 170.179 35.1382 170.085 35.1854 170.273C35.1232 173.785 38.621 178.092 43.2891 178V178Z" fill="url(#paint18_linear_1801_14688)"/>
<path d="M44.9038 157.103C44.9038 157.103 60.1418 154.181 61.603 153.555C63.0642 152.928 63.3386 151.287 67.3865 150.265C71.4644 149.237 74.5388 146.926 74.5388 146.926L80.3896 143.953L90.2003 138.525L95.0013 139.36C95.0013 139.36 97.0887 140.195 97.0887 141.239C97.0887 142.283 97.7149 146.249 97.7149 146.249L59.9331 174.846L56.1758 161.904L53.4622 159.191L44.9038 157.103Z" fill="url(#paint19_linear_1801_14688)"/>
<path d="M14.5825 156.854L67.5712 137.223L69.183 137.028L77.9033 138.257L80.7077 137.961C80.7077 137.961 84.1025 138.847 81.5933 139.585C79.084 140.323 71.9992 139.88 70.6708 140.028C69.3424 140.175 66.6857 140.618 65.5048 141.356C64.324 142.094 62.848 142.98 62.11 143.423C61.3719 143.865 57.8296 144.603 55.9107 144.899C53.9919 145.194 52.0731 144.751 50.8923 146.079C49.7115 147.408 49.1211 149.622 47.6451 150.212C46.1692 150.803 43.0694 150.803 41.5935 150.655C40.1175 150.507 39.3794 150.212 38.789 150.36C38.1986 150.507 35.9847 150.507 34.8039 150.803C33.623 151.098 31.2614 152.721 27.5714 153.607C23.8813 154.493 14.5825 156.854 14.5825 156.854V156.854Z" fill="#656565" fill-opacity="0.579439"/>
<path d="M43.2168 158.183H49.2684C49.2684 158.183 54.1392 158.626 55.9104 157.74C57.6816 156.854 62.4049 155.231 62.9953 154.64C63.5857 154.05 67.4233 153.46 68.1614 153.607C68.8993 153.755 69.7849 154.345 69.9324 155.821C70.0801 157.297 73.7701 158.183 73.7701 158.183C73.7701 158.183 73.7701 162.316 73.6225 163.054C73.4749 163.792 76.5745 163.792 77.1649 160.692C77.7553 157.592 75.9841 155.526 75.8365 154.198C75.6889 152.869 75.9841 151.836 75.9841 150.95C75.9841 150.065 74.5081 147.408 74.3605 146.522C74.2129 145.637 72.1465 147.703 71.2609 148.441C70.3753 149.179 67.5709 150.36 65.9473 150.655C64.3237 150.95 63.1428 151.393 59.8956 152.279C56.6484 153.164 60.0432 153.607 54.582 153.902C49.1208 154.198 42.0359 155.378 40.5599 155.526C39.0839 155.674 37.6078 155.378 33.9178 155.378C30.2278 155.378 14.4346 157.002 14.4346 157.002L43.2168 158.183Z" fill="#656565" fill-opacity="0.579439"/>
<g filter="url(#filter6_dd_1801_14688)">
<path d="M475 181C475 178.791 476.791 177 479 177H669C671.209 177 673 178.791 673 181V293C673 295.209 671.209 297 669 297H479C476.791 297 475 295.209 475 293V181Z" fill="white"/>
</g>
<path d="M475 181C475 178.791 476.791 177 479 177H669C671.209 177 673 178.791 673 181V183H475V181Z" fill="#555F8E"/>
<path d="M551.337 225H548.157L553.79 241H557.368L563.009 225H559.821L555.665 237.594H555.501L551.337 225ZM567.177 241.242C569.06 241.242 570.185 240.359 570.7 239.352H570.794V241H573.513V232.969C573.513 229.797 570.927 228.844 568.638 228.844C566.114 228.844 564.177 229.969 563.552 232.156L566.192 232.531C566.474 231.711 567.271 231.008 568.653 231.008C569.966 231.008 570.685 231.68 570.685 232.859V232.906C570.685 233.719 569.833 233.758 567.716 233.984C565.388 234.234 563.161 234.93 563.161 237.633C563.161 239.992 564.888 241.242 567.177 241.242ZM567.911 239.164C566.731 239.164 565.888 238.625 565.888 237.586C565.888 236.5 566.833 236.047 568.099 235.867C568.841 235.766 570.325 235.578 570.692 235.281V236.695C570.692 238.031 569.614 239.164 567.911 239.164ZM584.005 235.953C584.005 237.781 582.7 238.687 581.45 238.687C580.091 238.687 579.185 237.727 579.185 236.203V229H576.356V236.641C576.356 239.523 577.997 241.156 580.356 241.156C582.153 241.156 583.419 240.211 583.966 238.867H584.091V241H586.833V229H584.005V235.953ZM592.569 225H589.741V241H592.569V225ZM601.47 229H599.103V226.125H596.274V229H594.571V231.187H596.274V237.859C596.259 240.117 597.899 241.227 600.024 241.164C600.829 241.141 601.384 240.984 601.688 240.883L601.212 238.672C601.056 238.711 600.735 238.781 600.384 238.781C599.673 238.781 599.103 238.531 599.103 237.391V231.187H601.47V229Z" fill="#262424"/>
<path d="M508.828 260.42H510.521C510.47 258.557 508.822 257.205 506.459 257.205C504.124 257.205 502.334 258.54 502.334 260.545C502.334 262.165 503.493 263.114 505.362 263.619L506.737 263.994C507.982 264.324 508.942 264.733 508.942 265.767C508.942 266.903 507.857 267.653 506.362 267.653C505.01 267.653 503.885 267.051 503.783 265.784H502.021C502.135 267.892 503.766 269.193 506.374 269.193C509.107 269.193 510.68 267.756 510.68 265.784C510.68 263.688 508.811 262.875 507.334 262.511L506.197 262.216C505.288 261.983 504.078 261.557 504.084 260.443C504.084 259.455 504.987 258.722 506.419 258.722C507.754 258.722 508.703 259.347 508.828 260.42ZM516.716 260.273H514.926V258.182H513.227V260.273H511.949V261.636H513.227V266.79C513.222 268.375 514.432 269.142 515.773 269.114C516.312 269.108 516.676 269.006 516.875 268.932L516.568 267.528C516.455 267.551 516.244 267.602 515.972 267.602C515.42 267.602 514.926 267.42 514.926 266.438V261.636H516.716V260.273ZM522.178 269.176C524.638 269.176 526.246 267.375 526.246 264.676C526.246 261.96 524.638 260.159 522.178 260.159C519.717 260.159 518.109 261.96 518.109 264.676C518.109 267.375 519.717 269.176 522.178 269.176ZM522.183 267.75C520.575 267.75 519.825 266.347 519.825 264.67C519.825 263 520.575 261.58 522.183 261.58C523.78 261.58 524.53 263 524.53 264.67C524.53 266.347 523.78 267.75 522.183 267.75ZM528.142 269H529.841V263.67C529.841 262.528 530.722 261.705 531.926 261.705C532.278 261.705 532.676 261.767 532.812 261.807V260.182C532.642 260.159 532.307 260.142 532.091 260.142C531.068 260.142 530.193 260.722 529.875 261.659H529.784V260.273H528.142V269ZM537.732 269.176C539.635 269.176 540.982 268.239 541.368 266.818L539.76 266.528C539.453 267.352 538.714 267.773 537.749 267.773C536.294 267.773 535.317 266.83 535.271 265.148H541.476V264.545C541.476 261.392 539.589 260.159 537.612 260.159C535.18 260.159 533.578 262.011 533.578 264.693C533.578 267.403 535.158 269.176 537.732 269.176ZM535.277 263.875C535.345 262.636 536.243 261.562 537.624 261.562C538.942 261.562 539.805 262.54 539.811 263.875H535.277ZM550.135 269.193C551.578 269.193 552.391 268.46 552.714 267.807H552.783V269H554.442V263.205C554.442 260.665 552.442 260.159 551.055 260.159C549.476 260.159 548.021 260.795 547.453 262.386L549.05 262.75C549.3 262.131 549.936 261.534 551.078 261.534C552.175 261.534 552.737 262.108 552.737 263.097V263.136C552.737 263.756 552.101 263.744 550.533 263.926C548.879 264.119 547.186 264.551 547.186 266.534C547.186 268.25 548.476 269.193 550.135 269.193ZM550.504 267.83C549.544 267.83 548.851 267.398 548.851 266.557C548.851 265.648 549.658 265.324 550.641 265.193C551.192 265.119 552.499 264.972 552.743 264.727V265.852C552.743 266.886 551.919 267.83 550.504 267.83ZM558.403 263.818C558.403 262.426 559.256 261.631 560.438 261.631C561.591 261.631 562.29 262.386 562.29 263.653V269H563.989V263.449C563.989 261.29 562.801 260.159 561.017 260.159C559.705 260.159 558.847 260.767 558.443 261.693H558.335V260.273H556.705V269H558.403V263.818ZM569.534 269.17C571.125 269.17 571.75 268.199 572.057 267.642H572.199V269H573.858V257.364H572.159V261.688H572.057C571.75 261.148 571.17 260.159 569.545 260.159C567.438 260.159 565.886 261.824 565.886 264.653C565.886 267.477 567.415 269.17 569.534 269.17ZM569.909 267.722C568.392 267.722 567.602 266.386 567.602 264.636C567.602 262.903 568.375 261.602 569.909 261.602C571.392 261.602 572.188 262.812 572.188 264.636C572.188 266.472 571.375 267.722 569.909 267.722ZM582.409 257.364H580.653V269H582.409V257.364ZM586.528 263.818C586.528 262.426 587.381 261.631 588.562 261.631C589.716 261.631 590.415 262.386 590.415 263.653V269H592.114V263.449C592.114 261.29 590.926 260.159 589.142 260.159C587.83 260.159 586.972 260.767 586.568 261.693H586.46V260.273H584.83V269H586.528V263.818ZM598.466 260.273H596.676V258.182H594.977V260.273H593.699V261.636H594.977V266.79C594.972 268.375 596.182 269.142 597.523 269.114C598.062 269.108 598.426 269.006 598.625 268.932L598.318 267.528C598.205 267.551 597.994 267.602 597.722 267.602C597.17 267.602 596.676 267.42 596.676 266.438V261.636H598.466V260.273ZM604.013 269.176C605.916 269.176 607.263 268.239 607.649 266.818L606.041 266.528C605.734 267.352 604.996 267.773 604.03 267.773C602.575 267.773 601.598 266.83 601.553 265.148H607.757V264.545C607.757 261.392 605.871 260.159 603.893 260.159C601.462 260.159 599.859 262.011 599.859 264.693C599.859 267.403 601.439 269.176 604.013 269.176ZM601.558 263.875C601.626 262.636 602.524 261.562 603.905 261.562C605.223 261.562 606.087 262.54 606.092 263.875H601.558ZM613.301 272.455C615.523 272.455 617.239 271.438 617.239 269.193V260.273H615.574V261.688H615.449C615.148 261.148 614.545 260.159 612.92 260.159C610.812 260.159 609.261 261.824 609.261 264.602C609.261 267.386 610.847 268.869 612.909 268.869C614.511 268.869 615.131 267.966 615.438 267.409H615.545V269.125C615.545 270.494 614.608 271.085 613.318 271.085C611.903 271.085 611.352 270.375 611.051 269.875L609.591 270.477C610.051 271.545 611.216 272.455 613.301 272.455ZM613.284 267.46C611.767 267.46 610.977 266.295 610.977 264.58C610.977 262.903 611.75 261.602 613.284 261.602C614.767 261.602 615.562 262.812 615.562 264.58C615.562 266.381 614.75 267.46 613.284 267.46ZM619.517 269H621.216V263.67C621.216 262.528 622.097 261.705 623.301 261.705C623.653 261.705 624.051 261.767 624.188 261.807V260.182C624.017 260.159 623.682 260.142 623.466 260.142C622.443 260.142 621.568 260.722 621.25 261.659H621.159V260.273H619.517V269ZM628.119 269.193C629.562 269.193 630.375 268.46 630.699 267.807H630.767V269H632.426V263.205C632.426 260.665 630.426 260.159 629.04 260.159C627.46 260.159 626.006 260.795 625.438 262.386L627.034 262.75C627.284 262.131 627.92 261.534 629.062 261.534C630.159 261.534 630.722 262.108 630.722 263.097V263.136C630.722 263.756 630.085 263.744 628.517 263.926C626.864 264.119 625.17 264.551 625.17 266.534C625.17 268.25 626.46 269.193 628.119 269.193ZM628.489 267.83C627.528 267.83 626.835 267.398 626.835 266.557C626.835 265.648 627.642 265.324 628.625 265.193C629.176 265.119 630.483 264.972 630.727 264.727V265.852C630.727 266.886 629.903 267.83 628.489 267.83ZM638.763 260.273H636.973V258.182H635.274V260.273H633.996V261.636H635.274V266.79C635.268 268.375 636.479 269.142 637.82 269.114C638.359 269.108 638.723 269.006 638.922 268.932L638.615 267.528C638.501 267.551 638.291 267.602 638.018 267.602C637.467 267.602 636.973 267.42 636.973 266.438V261.636H638.763V260.273ZM644.31 269.176C646.213 269.176 647.56 268.239 647.946 266.818L646.338 266.528C646.031 267.352 645.293 267.773 644.327 267.773C642.872 267.773 641.895 266.83 641.849 265.148H648.054V264.545C648.054 261.392 646.168 260.159 644.19 260.159C641.759 260.159 640.156 262.011 640.156 264.693C640.156 267.403 641.736 269.176 644.31 269.176ZM641.855 263.875C641.923 262.636 642.821 261.562 644.202 261.562C645.52 261.562 646.384 262.54 646.389 263.875H641.855Z" fill="#6D6666"/>
<rect x="529" y="165" width="92" height="36" rx="4" fill="#555F8E"/>
<path d="M553.406 180.508H555.688C555.643 178.296 553.757 176.73 550.97 176.73C548.222 176.73 546.157 178.277 546.163 180.591C546.163 182.47 547.499 183.55 549.653 184.107L551.143 184.49C552.555 184.848 553.489 185.289 553.495 186.305C553.489 187.424 552.428 188.172 550.881 188.172C549.398 188.172 548.247 187.507 548.151 186.133H545.818C545.914 188.734 547.851 190.198 550.9 190.198C554.038 190.198 555.86 188.632 555.866 186.325C555.86 184.055 553.987 183.02 552.018 182.553L550.791 182.246C549.717 181.991 548.554 181.537 548.567 180.444C548.573 179.46 549.455 178.737 550.938 178.737C552.351 178.737 553.284 179.396 553.406 180.508ZM557.405 178.897H561.452V190H563.804V178.897H567.85V176.909H557.405V178.897ZM580.998 183.455C580.998 179.223 578.416 176.73 574.983 176.73C571.545 176.73 568.969 179.223 568.969 183.455C568.969 187.68 571.545 190.179 574.983 190.179C578.416 190.179 580.998 187.686 580.998 183.455ZM578.614 183.455C578.614 186.433 577.118 188.05 574.983 188.05C572.855 188.05 571.353 186.433 571.353 183.455C571.353 180.476 572.855 178.859 574.983 178.859C577.118 178.859 578.614 180.476 578.614 183.455ZM583.24 190H585.612V185.206H588.028L590.598 190H593.244L590.412 184.81C591.953 184.19 592.765 182.873 592.765 181.096C592.765 178.597 591.154 176.909 588.15 176.909H583.24V190ZM585.612 183.237V178.891H587.785C589.556 178.891 590.348 179.702 590.348 181.096C590.348 182.489 589.556 183.237 587.798 183.237H585.612ZM594.947 190H603.513V188.012H597.319V184.439H603.021V182.451H597.319V178.897H603.462V176.909H594.947V190Z" fill="white"/>
<path d="M451 250L459 250L459 252L451 252L451 250ZM459 250L467 250L467 252L459 252L459 250Z" fill="#D1D1D1"/>
<path d="M681 250L689 250L689 252L681 252L681 250ZM689 250L697 250L697 252L689 252L689 250Z" fill="#D1D1D1"/>
<defs>
<filter id="filter0_dd_1801_14688" x="210" y="147" width="267" height="188" filterUnits="userSpaceOnUse" color-interpolation-filters="sRGB">
<feFlood flood-opacity="0" result="BackgroundImageFix"/>
<feColorMatrix in="SourceAlpha" type="matrix" values="0 0 0 0 0 0 0 0 0 0 0 0 0 0 0 0 0 0 127 0" result="hardAlpha"/>
<feOffset dy="3"/>
<feGaussianBlur stdDeviation="2"/>
<feColorMatrix type="matrix" values="0 0 0 0 0 0 0 0 0 0 0 0 0 0 0 0 0 0 0.1 0"/>
<feBlend mode="normal" in2="BackgroundImageFix" result="effect1_dropShadow_1801_14688"/>
<feColorMatrix in="SourceAlpha" type="matrix" values="0 0 0 0 0 0 0 0 0 0 0 0 0 0 0 0 0 0 127 0" result="hardAlpha"/>
<feOffset dy="4"/>
<feGaussianBlur stdDeviation="17"/>
<feColorMatrix type="matrix" values="0 0 0 0 0 0 0 0 0 0 0 0 0 0 0 0 0 0 0.04 0"/>
<feBlend mode="normal" in2="effect1_dropShadow_1801_14688" result="effect2_dropShadow_1801_14688"/>
<feBlend mode="normal" in="SourceGraphic" in2="effect2_dropShadow_1801_14688" result="shape"/>
</filter>
<filter id="filter1_dd_1801_14688" x="74" y="120.55" width="217.295" height="137.005" filterUnits="userSpaceOnUse" color-interpolation-filters="sRGB">
<feFlood flood-opacity="0" result="BackgroundImageFix"/>
<feColorMatrix in="SourceAlpha" type="matrix" values="0 0 0 0 0 0 0 0 0 0 0 0 0 0 0 0 0 0 127 0" result="hardAlpha"/>
<feOffset dy="3"/>
<feGaussianBlur stdDeviation="2"/>
<feColorMatrix type="matrix" values="0 0 0 0 0 0 0 0 0 0 0 0 0 0 0 0 0 0 0.1 0"/>
<feBlend mode="normal" in2="BackgroundImageFix" result="effect1_dropShadow_1801_14688"/>
<feColorMatrix in="SourceAlpha" type="matrix" values="0 0 0 0 0 0 0 0 0 0 0 0 0 0 0 0 0 0 127 0" result="hardAlpha"/>
<feOffset dy="4"/>
<feGaussianBlur stdDeviation="17"/>
<feColorMatrix type="matrix" values="0 0 0 0 0 0 0 0 0 0 0 0 0 0 0 0 0 0 0.04 0"/>
<feBlend mode="normal" in2="effect1_dropShadow_1801_14688" result="effect2_dropShadow_1801_14688"/>
<feBlend mode="normal" in="SourceGraphic" in2="effect2_dropShadow_1801_14688" result="shape"/>
</filter>
<filter id="filter2_dd_1801_14688" x="71" y="232.55" width="217.295" height="137.005" filterUnits="userSpaceOnUse" color-interpolation-filters="sRGB">
<feFlood flood-opacity="0" result="BackgroundImageFix"/>
<feColorMatrix in="SourceAlpha" type="matrix" values="0 0 0 0 0 0 0 0 0 0 0 0 0 0 0 0 0 0 127 0" result="hardAlpha"/>
<feOffset dy="3"/>
<feGaussianBlur stdDeviation="2"/>
<feColorMatrix type="matrix" values="0 0 0 0 0 0 0 0 0 0 0 0 0 0 0 0 0 0 0.1 0"/>
<feBlend mode="normal" in2="BackgroundImageFix" result="effect1_dropShadow_1801_14688"/>
<feColorMatrix in="SourceAlpha" type="matrix" values="0 0 0 0 0 0 0 0 0 0 0 0 0 0 0 0 0 0 127 0" result="hardAlpha"/>
<feOffset dy="4"/>
<feGaussianBlur stdDeviation="17"/>
<feColorMatrix type="matrix" values="0 0 0 0 0 0 0 0 0 0 0 0 0 0 0 0 0 0 0.04 0"/>
<feBlend mode="normal" in2="effect1_dropShadow_1801_14688" result="effect2_dropShadow_1801_14688"/>
<feBlend mode="normal" in="SourceGraphic" in2="effect2_dropShadow_1801_14688" result="shape"/>
</filter>
<filter id="filter3_dd_1801_14688" x="669" y="149" width="276" height="186" filterUnits="userSpaceOnUse" color-interpolation-filters="sRGB">
<feFlood flood-opacity="0" result="BackgroundImageFix"/>
<feColorMatrix in="SourceAlpha" type="matrix" values="0 0 0 0 0 0 0 0 0 0 0 0 0 0 0 0 0 0 127 0" result="hardAlpha"/>
<feOffset dy="3"/>
<feGaussianBlur stdDeviation="2"/>
<feColorMatrix type="matrix" values="0 0 0 0 0 0 0 0 0 0 0 0 0 0 0 0 0 0 0.1 0"/>
<feBlend mode="normal" in2="BackgroundImageFix" result="effect1_dropShadow_1801_14688"/>
<feColorMatrix in="SourceAlpha" type="matrix" values="0 0 0 0 0 0 0 0 0 0 0 0 0 0 0 0 0 0 127 0" result="hardAlpha"/>
<feOffset dy="4"/>
<feGaussianBlur stdDeviation="17"/>
<feColorMatrix type="matrix" values="0 0 0 0 0 0 0 0 0 0 0 0 0 0 0 0 0 0 0.04 0"/>
<feBlend mode="normal" in2="effect1_dropShadow_1801_14688" result="effect2_dropShadow_1801_14688"/>
<feBlend mode="normal" in="SourceGraphic" in2="effect2_dropShadow_1801_14688" result="shape"/>
</filter>
<filter id="filter4_f_1801_14688" x="43.83" y="238.958" width="58.8796" height="57.2804" filterUnits="userSpaceOnUse" color-interpolation-filters="sRGB">
<feFlood flood-opacity="0" result="BackgroundImageFix"/>
<feBlend mode="normal" in="SourceGraphic" in2="BackgroundImageFix" result="shape"/>
<feGaussianBlur stdDeviation="5.99149" result="effect1_foregroundBlur_1801_14688"/>
</filter>
<filter id="filter5_f_1801_14688" x="47.83" y="133.958" width="58.8796" height="57.2804" filterUnits="userSpaceOnUse" color-interpolation-filters="sRGB">
<feFlood flood-opacity="0" result="BackgroundImageFix"/>
<feBlend mode="normal" in="SourceGraphic" in2="BackgroundImageFix" result="shape"/>
<feGaussianBlur stdDeviation="5.99149" result="effect1_foregroundBlur_1801_14688"/>
</filter>
<filter id="filter6_dd_1801_14688" x="441" y="147" width="266" height="188" filterUnits="userSpaceOnUse" color-interpolation-filters="sRGB">
<feFlood flood-opacity="0" result="BackgroundImageFix"/>
<feColorMatrix in="SourceAlpha" type="matrix" values="0 0 0 0 0 0 0 0 0 0 0 0 0 0 0 0 0 0 127 0" result="hardAlpha"/>
<feOffset dy="3"/>
<feGaussianBlur stdDeviation="2"/>
<feColorMatrix type="matrix" values="0 0 0 0 0 0 0 0 0 0 0 0 0 0 0 0 0 0 0.1 0"/>
<feBlend mode="normal" in2="BackgroundImageFix" result="effect1_dropShadow_1801_14688"/>
<feColorMatrix in="SourceAlpha" type="matrix" values="0 0 0 0 0 0 0 0 0 0 0 0 0 0 0 0 0 0 127 0" result="hardAlpha"/>
<feOffset dy="4"/>
<feGaussianBlur stdDeviation="17"/>
<feColorMatrix type="matrix" values="0 0 0 0 0 0 0 0 0 0 0 0 0 0 0 0 0 0 0.04 0"/>
<feBlend mode="normal" in2="effect1_dropShadow_1801_14688" result="effect2_dropShadow_1801_14688"/>
<feBlend mode="normal" in="SourceGraphic" in2="effect2_dropShadow_1801_14688" result="shape"/>
</filter>
<linearGradient id="paint0_linear_1801_14688" x1="98.7" y1="279.788" x2="101.8" y2="313.737" gradientUnits="userSpaceOnUse">
<stop stop-color="#080808"/>
<stop offset="1" stop-color="#080808" stop-opacity="0"/>
</linearGradient>
<linearGradient id="paint1_linear_1801_14688" x1="64.5937" y1="284.96" x2="72.8024" y2="297.587" gradientUnits="userSpaceOnUse">
<stop stop-color="#0E0E0E"/>
<stop offset="1" stop-color="#2F2F2F" stop-opacity="0"/>
</linearGradient>
<linearGradient id="paint2_linear_1801_14688" x1="24.2911" y1="288.072" x2="38.3032" y2="276.778" gradientUnits="userSpaceOnUse">
<stop stop-color="#5D5D5D"/>
<stop offset="1" stop-color="#5D5D5D" stop-opacity="0"/>
</linearGradient>
<linearGradient id="paint3_linear_1801_14688" x1="35.9574" y1="253.474" x2="21.4323" y2="286.256" gradientUnits="userSpaceOnUse">
<stop stop-color="#272727"/>
<stop offset="1" stop-color="#4A4A4A" stop-opacity="0"/>
</linearGradient>
<linearGradient id="paint4_linear_1801_14688" x1="60.4302" y1="269.954" x2="70.9389" y2="280.508" gradientUnits="userSpaceOnUse">
<stop stop-color="#4A4A4A"/>
<stop offset="1" stop-color="#4A4A4A" stop-opacity="0"/>
</linearGradient>
<radialGradient id="paint5_radial_1801_14688" cx="0" cy="0" r="1" gradientUnits="userSpaceOnUse" gradientTransform="translate(36.4237 274.396) rotate(27.5913) scale(15.5657 11.4704)">
<stop stop-color="#004C80"/>
<stop offset="1" stop-color="#004C80" stop-opacity="0"/>
</radialGradient>
<linearGradient id="paint6_linear_1801_14688" x1="45.8115" y1="283.354" x2="54.7643" y2="282.921" gradientUnits="userSpaceOnUse">
<stop/>
<stop offset="1" stop-opacity="0"/>
</linearGradient>
<radialGradient id="paint7_radial_1801_14688" cx="0" cy="0" r="1" gradientUnits="userSpaceOnUse" gradientTransform="translate(48.4888 282.955) scale(2.5442 2.54417)">
<stop stop-color="#FF0000"/>
<stop offset="1" stop-color="#760000"/>
</radialGradient>
<linearGradient id="paint8_linear_1801_14688" x1="27.8817" y1="287.559" x2="38.3047" y2="276.534" gradientUnits="userSpaceOnUse">
<stop stop-color="white"/>
<stop offset="1" stop-color="white" stop-opacity="0"/>
</linearGradient>
<linearGradient id="paint9_linear_1801_14688" x1="54.2631" y1="248.535" x2="73.0288" y2="256.349" gradientUnits="userSpaceOnUse">
<stop stop-color="#858585"/>
<stop offset="1" stop-color="#858585" stop-opacity="0"/>
</linearGradient>
<linearGradient id="paint10_linear_1801_14688" x1="102.7" y1="174.788" x2="105.8" y2="208.737" gradientUnits="userSpaceOnUse">
<stop stop-color="#080808"/>
<stop offset="1" stop-color="#080808" stop-opacity="0"/>
</linearGradient>
<linearGradient id="paint11_linear_1801_14688" x1="68.5937" y1="179.96" x2="76.8024" y2="192.587" gradientUnits="userSpaceOnUse">
<stop stop-color="#0E0E0E"/>
<stop offset="1" stop-color="#2F2F2F" stop-opacity="0"/>
</linearGradient>
<linearGradient id="paint12_linear_1801_14688" x1="28.2911" y1="183.072" x2="42.3032" y2="171.778" gradientUnits="userSpaceOnUse">
<stop stop-color="#5D5D5D"/>
<stop offset="1" stop-color="#5D5D5D" stop-opacity="0"/>
</linearGradient>
<linearGradient id="paint13_linear_1801_14688" x1="39.9574" y1="148.474" x2="25.4323" y2="181.256" gradientUnits="userSpaceOnUse">
<stop stop-color="#272727"/>
<stop offset="1" stop-color="#4A4A4A" stop-opacity="0"/>
</linearGradient>
<linearGradient id="paint14_linear_1801_14688" x1="64.4302" y1="164.954" x2="74.9389" y2="175.508" gradientUnits="userSpaceOnUse">
<stop stop-color="#4A4A4A"/>
<stop offset="1" stop-color="#4A4A4A" stop-opacity="0"/>
</linearGradient>
<radialGradient id="paint15_radial_1801_14688" cx="0" cy="0" r="1" gradientUnits="userSpaceOnUse" gradientTransform="translate(40.4237 169.396) rotate(27.5913) scale(15.5657 11.4704)">
<stop stop-color="#004C80"/>
<stop offset="1" stop-color="#004C80" stop-opacity="0"/>
</radialGradient>
<linearGradient id="paint16_linear_1801_14688" x1="49.8115" y1="178.354" x2="58.7643" y2="177.921" gradientUnits="userSpaceOnUse">
<stop/>
<stop offset="1" stop-opacity="0"/>
</linearGradient>
<radialGradient id="paint17_radial_1801_14688" cx="0" cy="0" r="1" gradientUnits="userSpaceOnUse" gradientTransform="translate(52.4888 177.955) scale(2.5442 2.54417)">
<stop stop-color="#FF0000"/>
<stop offset="1" stop-color="#760000"/>
</radialGradient>
<linearGradient id="paint18_linear_1801_14688" x1="31.8817" y1="182.559" x2="42.3047" y2="171.534" gradientUnits="userSpaceOnUse">
<stop stop-color="white"/>
<stop offset="1" stop-color="white" stop-opacity="0"/>
</linearGradient>
<linearGradient id="paint19_linear_1801_14688" x1="58.2631" y1="143.535" x2="77.0288" y2="151.349" gradientUnits="userSpaceOnUse">
<stop stop-color="#858585"/>
<stop offset="1" stop-color="#858585" stop-opacity="0"/>
</linearGradient>
</defs>
</svg>
