<svg width="726" height="402" viewBox="0 0 726 402" fill="none" xmlns="http://www.w3.org/2000/svg">
<rect opacity="0.3" x="103" y="22" width="440" height="379" rx="12" fill="white" stroke="#A69D9D" stroke-width="2" stroke-miterlimit="16" stroke-linecap="round" stroke-dasharray="10 10"/>
<path d="M210.569 325.545V335H211.926V328.154H212.014L214.802 334.986H215.929L218.717 328.158H218.805V335H220.162V325.545H218.431L215.421 332.895H215.31L212.3 325.545H210.569ZM230.449 330.273C230.449 327.249 228.639 325.416 226.192 325.416C223.736 325.416 221.931 327.249 221.931 330.273C221.931 333.292 223.736 335.129 226.192 335.129C228.639 335.129 230.449 333.297 230.449 330.273ZM229.036 330.273C229.036 332.576 227.817 333.827 226.192 333.827C224.563 333.827 223.349 332.576 223.349 330.273C223.349 327.969 224.563 326.718 226.192 326.718C227.817 326.718 229.036 327.969 229.036 330.273ZM231.367 326.773H234.313V335H235.735V326.773H238.684V325.545H231.367V326.773ZM241.728 325.545H240.301V335H241.728V325.545ZM252.018 330.273C252.018 327.249 250.208 325.416 247.762 325.416C245.306 325.416 243.501 327.249 243.501 330.273C243.501 333.292 245.306 335.129 247.762 335.129C250.208 335.129 252.018 333.297 252.018 330.273ZM250.605 330.273C250.605 332.576 249.387 333.827 247.762 333.827C246.132 333.827 244.918 332.576 244.918 330.273C244.918 327.969 246.132 326.718 247.762 326.718C249.387 326.718 250.605 327.969 250.605 330.273ZM261.428 325.545H260.015V332.489H259.927L255.117 325.545H253.797V335H255.223V328.066H255.311L260.116 335H261.428V325.545Z" fill="#6D6666"/>
<path d="M179.039 359L180.239 355.413H185.708L186.915 359H189.728L184.6 344.455H181.347L176.226 359H179.039ZM180.949 353.297L182.917 347.438H183.03L184.998 353.297H180.949ZM191.644 359H200.685V356.791H194.279V344.455H191.644V359ZM212.15 349.099H214.834C214.387 346.244 211.915 344.256 208.698 344.256C204.891 344.256 202.036 347.054 202.036 351.741C202.036 356.344 204.763 359.199 208.776 359.199C212.377 359.199 214.955 356.884 214.955 353.134V351.386H209.053V353.446H212.405C212.363 355.52 210.978 356.834 208.79 356.834C206.354 356.834 204.685 355.009 204.685 351.713C204.685 348.439 206.383 346.621 208.733 346.621C210.488 346.621 211.681 347.558 212.15 349.099ZM230.5 351.727C230.5 347.026 227.631 344.256 223.817 344.256C219.996 344.256 217.134 347.026 217.134 351.727C217.134 356.422 219.996 359.199 223.817 359.199C227.631 359.199 230.5 356.429 230.5 351.727ZM227.851 351.727C227.851 355.037 226.189 356.834 223.817 356.834C221.452 356.834 219.783 355.037 219.783 351.727C219.783 348.418 221.452 346.621 223.817 346.621C226.189 346.621 227.851 348.418 227.851 351.727ZM232.991 359H235.626V353.673H238.311L241.166 359H244.106L240.96 353.233C242.672 352.544 243.574 351.081 243.574 349.107C243.574 346.33 241.784 344.455 238.446 344.455H232.991V359ZM235.626 351.486V346.656H238.041C240.008 346.656 240.889 347.558 240.889 349.107C240.889 350.655 240.008 351.486 238.055 351.486H235.626ZM248.634 344.455H245.999V359H248.634V344.455ZM250.848 346.663H255.344V359H257.958V346.663H262.453V344.455H250.848V346.663ZM264.691 359H267.325V352.821H274.066V359H276.708V344.455H274.066V350.612H267.325V344.455H264.691V359ZM279.573 344.455V359H282.102V348.986H282.237L286.257 358.957H288.146L292.166 349.007H292.301V359H294.829V344.455H291.605L287.286 354.994H287.116L282.798 344.455H279.573Z" fill="#262424"/>
<g filter="url(#filter0_dd)">
<circle cx="236" cy="263" r="30" fill="#4A796B"/>
</g>
<path d="M354.935 335H356.361V331.422H358.3C358.332 331.422 358.36 331.422 358.392 331.422L360.313 335H361.938L359.842 331.173C361.001 330.744 361.578 329.779 361.578 328.509C361.578 326.769 360.498 325.545 358.305 325.545H354.935V335ZM356.361 330.194V326.769H358.152C359.56 326.769 360.142 327.438 360.142 328.509C360.142 329.576 359.56 330.194 358.171 330.194H356.361ZM363.314 335H369.297V333.772H364.74V330.877H368.932V329.654H364.74V326.773H369.241V325.545H363.314V335ZM377.545 328.532H379.008C378.69 326.69 377.116 325.416 375.075 325.416C372.629 325.416 370.842 327.258 370.842 330.277C370.842 333.269 372.578 335.129 375.14 335.129C377.434 335.129 379.073 333.624 379.073 331.238V330.162H375.357V331.339H377.693C377.66 332.863 376.654 333.827 375.14 333.827C373.473 333.827 372.259 332.567 372.259 330.268C372.259 327.978 373.483 326.718 375.084 326.718C376.34 326.718 377.19 327.411 377.545 328.532ZM382.31 325.545H380.884V335H382.31V325.545ZM392.601 330.273C392.601 327.249 390.791 325.416 388.344 325.416C385.888 325.416 384.083 327.249 384.083 330.273C384.083 333.292 385.888 335.129 388.344 335.129C390.791 335.129 392.601 333.297 392.601 330.273ZM391.188 330.273C391.188 332.576 389.969 333.827 388.344 333.827C386.715 333.827 385.5 332.576 385.5 330.273C385.5 327.969 386.715 326.718 388.344 326.718C389.969 326.718 391.188 327.969 391.188 330.273ZM402.01 325.545H400.597V332.489H400.51L395.699 325.545H394.379V335H395.806V328.066H395.893L400.699 335H402.01V325.545ZM415.744 330.273C415.744 327.249 413.934 325.416 411.488 325.416C409.032 325.416 407.227 327.249 407.227 330.273C407.227 333.292 409.032 335.129 411.488 335.129C413.934 335.129 415.744 333.297 415.744 330.273ZM414.331 330.273C414.331 332.576 413.113 333.827 411.488 333.827C409.858 333.827 408.644 332.576 408.644 330.273C408.644 327.969 409.858 326.718 411.488 326.718C413.113 326.718 414.331 327.969 414.331 330.273ZM417.523 335H418.949V330.877H422.965V329.654H418.949V326.773H423.386V325.545H417.523V335ZM430.007 325.545H428.58V335H430.007V325.545ZM439.715 325.545H438.303V332.489H438.215L433.404 325.545H432.084V335H433.511V328.066H433.598L438.404 335H439.715V325.545ZM441.33 326.773H444.275V335H445.697V326.773H448.647V325.545H441.33V326.773ZM450.264 335H456.247V333.772H451.69V330.877H455.882V329.654H451.69V326.773H456.191V325.545H450.264V335ZM458.097 335H459.523V331.422H461.462C461.495 331.422 461.522 331.422 461.555 331.422L463.475 335H465.1L463.004 331.173C464.163 330.744 464.74 329.779 464.74 328.509C464.74 326.769 463.66 325.545 461.467 325.545H458.097V335ZM459.523 330.194V326.769H461.314C462.723 326.769 463.304 327.438 463.304 328.509C463.304 329.576 462.723 330.194 461.333 330.194H459.523ZM466.476 335H472.459V333.772H467.902V330.877H472.094V329.654H467.902V326.773H472.403V325.545H466.476V335ZM479.465 328.029H480.841C480.799 326.515 479.461 325.416 477.54 325.416C475.643 325.416 474.189 326.501 474.189 328.131C474.189 329.446 475.13 330.217 476.649 330.628L477.766 330.933C478.777 331.201 479.558 331.533 479.558 332.373C479.558 333.297 478.676 333.906 477.462 333.906C476.363 333.906 475.449 333.417 475.366 332.387H473.935C474.027 334.1 475.352 335.157 477.471 335.157C479.692 335.157 480.97 333.989 480.97 332.387C480.97 330.684 479.451 330.023 478.251 329.728L477.328 329.488C476.589 329.299 475.606 328.952 475.611 328.048C475.611 327.244 476.345 326.649 477.508 326.649C478.593 326.649 479.364 327.157 479.465 328.029ZM482.209 326.773H485.154V335H486.576V326.773H489.526V325.545H482.209V326.773Z" fill="#6D6666"/>
<path d="M366.501 359H376.018V356.791H369.136V352.821H375.471V350.612H369.136V346.663H375.961V344.455H366.501V359ZM380.851 344.455H377.833L382.371 351.727L377.776 359H380.816L384.054 353.709H384.168L387.407 359H390.461L385.908 351.727L390.39 344.455H387.385L384.168 349.781H384.054L380.851 344.455ZM392.458 359H395.093V354.085H397.877C401.237 354.085 403.04 352.068 403.04 349.27C403.04 346.493 401.258 344.455 397.913 344.455H392.458V359ZM395.093 351.919V346.656H397.508C399.482 346.656 400.356 347.722 400.356 349.27C400.356 350.818 399.482 351.919 397.522 351.919H395.093ZM418.326 351.727C418.326 347.026 415.457 344.256 411.643 344.256C407.822 344.256 404.96 347.026 404.96 351.727C404.96 356.422 407.822 359.199 411.643 359.199C415.457 359.199 418.326 356.429 418.326 351.727ZM415.677 351.727C415.677 355.037 414.015 356.834 411.643 356.834C409.278 356.834 407.609 355.037 407.609 351.727C407.609 348.418 409.278 346.621 411.643 346.621C414.015 346.621 415.677 348.418 415.677 351.727ZM428.722 348.453H431.258C431.208 345.996 429.113 344.256 426.016 344.256C422.962 344.256 420.668 345.974 420.675 348.545C420.675 350.634 422.16 351.834 424.553 352.452L426.208 352.878C427.778 353.276 428.815 353.766 428.822 354.895C428.815 356.138 427.636 356.969 425.917 356.969C424.269 356.969 422.991 356.23 422.884 354.703H420.292C420.398 357.594 422.55 359.22 425.938 359.22C429.425 359.22 431.45 357.48 431.457 354.916C431.45 352.395 429.369 351.244 427.181 350.726L425.817 350.385C424.624 350.101 423.332 349.597 423.346 348.382C423.353 347.288 424.333 346.486 425.981 346.486C427.55 346.486 428.587 347.217 428.722 348.453ZM436.441 344.455H433.806V359H436.441V344.455ZM438.655 346.663H443.151V359H445.764V346.663H450.26V344.455H438.655V346.663ZM464.869 351.727C464.869 347.026 462 344.256 458.186 344.256C454.365 344.256 451.503 347.026 451.503 351.727C451.503 356.422 454.365 359.199 458.186 359.199C462 359.199 464.869 356.429 464.869 351.727ZM462.22 351.727C462.22 355.037 460.558 356.834 458.186 356.834C455.821 356.834 454.152 355.037 454.152 351.727C454.152 348.418 455.821 346.621 458.186 346.621C460.558 346.621 462.22 348.418 462.22 351.727ZM467.36 359H469.995V353.673H472.68L475.535 359H478.475L475.329 353.233C477.041 352.544 477.943 351.081 477.943 349.107C477.943 346.33 476.153 344.455 472.815 344.455H467.36V359ZM469.995 351.486V346.656H472.41C474.377 346.656 475.258 347.558 475.258 349.107C475.258 350.655 474.377 351.486 472.424 351.486H469.995Z" fill="#262424"/>
<g filter="url(#filter1_dd)">
<circle cx="422" cy="263" r="30" fill="#4A796B"/>
</g>
<path d="M355.4 177H356.508L356.923 174.47H358.285L358.465 173.362H357.103L357.463 171.183H358.834L359.014 170.075H357.643L358.059 167.545H356.951L356.535 170.075H354.319L354.735 167.545H353.627L353.211 170.075H351.85L351.67 171.183H353.031L352.671 173.362H351.3L351.12 174.47H352.491L352.076 177H353.184L353.599 174.47H355.815L355.4 177ZM353.779 173.362L354.139 171.183H356.355L355.995 173.362H353.779ZM363.683 177H365.109V173.676H367.048C369.241 173.676 370.326 172.351 370.326 170.606C370.326 168.866 369.25 167.545 367.053 167.545H363.683V177ZM365.109 172.467V168.769H366.9C368.313 168.769 368.89 169.535 368.89 170.606C368.89 171.677 368.313 172.467 366.919 172.467H365.109ZM373.425 167.545H371.998V177H373.425V167.545ZM376.495 167.545H374.842L377.838 172.273L374.823 177H376.485L378.757 173.353H378.831L381.102 177H382.764L379.8 172.273L382.745 167.545H381.093L378.831 171.243H378.757L376.495 167.545ZM384.16 177H390.143V175.772H385.587V172.877H389.779V171.654H385.587V168.773H390.088V167.545H384.16V177ZM391.993 177H397.704V175.772H393.42V167.545H391.993V177ZM404.488 170.029H405.864C405.822 168.515 404.483 167.416 402.563 167.416C400.665 167.416 399.211 168.501 399.211 170.131C399.211 171.446 400.153 172.217 401.672 172.628L402.789 172.933C403.8 173.201 404.58 173.533 404.58 174.373C404.58 175.297 403.698 175.906 402.484 175.906C401.386 175.906 400.471 175.417 400.388 174.387H398.957C399.05 176.1 400.375 177.157 402.493 177.157C404.714 177.157 405.993 175.989 405.993 174.387C405.993 172.684 404.474 172.023 403.274 171.728L402.35 171.488C401.612 171.299 400.628 170.952 400.633 170.048C400.633 169.244 401.367 168.649 402.53 168.649C403.615 168.649 404.386 169.157 404.488 170.029ZM418.99 170.62C418.667 168.598 417.084 167.416 415.085 167.416C412.638 167.416 410.833 169.249 410.833 172.273C410.833 175.297 412.629 177.129 415.085 177.129C417.162 177.129 418.681 175.827 418.99 173.958L417.55 173.953C417.305 175.163 416.29 175.827 415.094 175.827C413.474 175.827 412.25 174.586 412.25 172.273C412.25 169.978 413.469 168.718 415.099 168.718C416.304 168.718 417.315 169.397 417.55 170.62H418.99ZM420.697 177H422.124V172.877H426.837V177H428.268V167.545H426.837V171.654H422.124V167.545H420.697V177ZM431.144 177L432.012 174.498H435.706L436.569 177H438.083L434.681 167.545H433.033L429.63 177H431.144ZM432.428 173.298L433.822 169.263H433.896L435.29 173.298H432.428ZM447.079 167.545H445.667V174.489H445.579L440.769 167.545H439.448V177H440.875V170.066H440.963L445.768 177H447.079V167.545ZM455.559 170.532H457.022C456.704 168.69 455.129 167.416 453.089 167.416C450.642 167.416 448.856 169.258 448.856 172.277C448.856 175.269 450.591 177.129 453.154 177.129C455.448 177.129 457.087 175.624 457.087 173.238V172.162H453.371V173.339H455.706C455.674 174.863 454.668 175.827 453.154 175.827C451.487 175.827 450.273 174.567 450.273 172.268C450.273 169.978 451.496 168.718 453.098 168.718C454.354 168.718 455.203 169.411 455.559 170.532ZM458.898 177H464.881V175.772H460.324V172.877H464.516V171.654H460.324V168.773H464.825V167.545H458.898V177ZM469.791 177C472.672 177 474.339 175.213 474.339 172.259C474.339 169.318 472.672 167.545 469.888 167.545H466.731V177H469.791ZM468.157 175.754V168.792H469.801C471.869 168.792 472.935 170.029 472.935 172.259C472.935 174.498 471.869 175.754 469.713 175.754H468.157Z" fill="#6D6666"/>
<path d="M361.066 201H363.7V194.821H370.441V201H373.083V186.455H370.441V192.612H363.7V186.455H361.066V201ZM375.948 201H385.465V198.791H378.583V194.821H384.919V192.612H378.583V188.663H385.409V186.455H375.948V201ZM397.266 186.455V195.737C397.266 197.562 395.994 198.869 393.999 198.869C391.996 198.869 390.732 197.562 390.732 195.737V186.455H388.097V195.957C388.097 199.082 390.441 201.22 393.999 201.22C397.543 201.22 399.901 199.082 399.901 195.957V186.455H397.266ZM402.765 201H405.4V195.673H408.084L410.939 201H413.88L410.733 195.233C412.445 194.544 413.347 193.081 413.347 191.107C413.347 188.33 411.557 186.455 408.219 186.455H402.765V201ZM405.4 193.486V188.656H407.814C409.782 188.656 410.662 189.558 410.662 191.107C410.662 192.655 409.782 193.486 407.829 193.486H405.4ZM418.407 186.455H415.773V201H418.407V186.455ZM429.166 190.453H431.701C431.651 187.996 429.556 186.256 426.46 186.256C423.406 186.256 421.112 187.974 421.119 190.545C421.119 192.634 422.603 193.834 424.997 194.452L426.651 194.878C428.221 195.276 429.258 195.766 429.265 196.895C429.258 198.138 428.079 198.969 426.36 198.969C424.713 198.969 423.434 198.23 423.328 196.703H420.735C420.842 199.594 422.994 201.22 426.382 201.22C429.869 201.22 431.893 199.48 431.9 196.916C431.893 194.395 429.812 193.244 427.624 192.726L426.261 192.385C425.068 192.101 423.775 191.597 423.789 190.382C423.796 189.288 424.776 188.486 426.424 188.486C427.994 188.486 429.031 189.217 429.166 190.453ZM433.61 188.663H438.106V201H440.719V188.663H445.215V186.455H433.61V188.663ZM450.087 186.455H447.452V201H450.087V186.455ZM465.391 191.362C464.943 188.131 462.458 186.256 459.233 186.256C455.433 186.256 452.571 189.026 452.571 193.727C452.571 198.422 455.398 201.199 459.233 201.199C462.692 201.199 464.986 198.962 465.391 196.185L462.735 196.17C462.401 197.875 461.009 198.834 459.269 198.834C456.911 198.834 455.22 197.065 455.22 193.727C455.22 190.446 456.896 188.621 459.276 188.621C461.044 188.621 462.429 189.622 462.735 191.362H465.391Z" fill="#262424"/>
<g filter="url(#filter2_dd)">
<circle cx="413" cy="105" r="30" fill="#4A796B"/>
</g>
<path d="M596.714 168.545H595.301V175.489H595.213L590.403 168.545H589.083V178H590.509V171.066H590.597L595.403 178H596.714V168.545ZM607.007 173.273C607.007 170.249 605.198 168.416 602.751 168.416C600.295 168.416 598.49 170.249 598.49 173.273C598.49 176.292 600.295 178.129 602.751 178.129C605.198 178.129 607.007 176.297 607.007 173.273ZM605.595 173.273C605.595 175.576 604.376 176.827 602.751 176.827C601.121 176.827 599.907 175.576 599.907 173.273C599.907 170.969 601.121 169.718 602.751 169.718C604.376 169.718 605.595 170.969 605.595 173.273ZM607.926 169.773H610.871V178H612.293V169.773H615.243V168.545H607.926V169.773ZM618.286 168.545H616.86V178H618.286V168.545ZM620.364 178H621.79V173.877H625.807V172.654H621.79V169.773H626.227V168.545H620.364V178ZM629.408 168.545H627.981V178H629.408V168.545ZM639.338 171.62C639.014 169.598 637.431 168.416 635.432 168.416C632.985 168.416 631.18 170.249 631.18 173.273C631.18 176.297 632.976 178.129 635.432 178.129C637.509 178.129 639.028 176.827 639.338 174.958L637.897 174.953C637.653 176.163 636.637 176.827 635.441 176.827C633.821 176.827 632.598 175.586 632.598 173.273C632.598 170.978 633.816 169.718 635.446 169.718C636.651 169.718 637.662 170.397 637.897 171.62H639.338ZM641.78 178L642.648 175.498H646.341L647.204 178H648.718L645.316 168.545H643.668L640.266 178H641.78ZM643.063 174.298L644.457 170.263H644.531L645.925 174.298H643.063ZM648.487 169.773H651.433V178H652.855V169.773H655.805V168.545H648.487V169.773ZM658.848 168.545H657.422V178H658.848V168.545ZM669.138 173.273C669.138 170.249 667.328 168.416 664.882 168.416C662.426 168.416 660.621 170.249 660.621 173.273C660.621 176.292 662.426 178.129 664.882 178.129C667.328 178.129 669.138 176.297 669.138 173.273ZM667.725 173.273C667.725 175.576 666.507 176.827 664.882 176.827C663.252 176.827 662.038 175.576 662.038 173.273C662.038 170.969 663.252 169.718 664.882 169.718C666.507 169.718 667.725 170.969 667.725 173.273ZM678.548 168.545H677.135V175.489H677.047L672.237 168.545H670.917V178H672.343V171.066H672.431L677.237 178H678.548V168.545ZM685.785 171.029H687.161C687.119 169.515 685.781 168.416 683.86 168.416C681.963 168.416 680.509 169.501 680.509 171.131C680.509 172.446 681.45 173.217 682.969 173.628L684.086 173.933C685.097 174.201 685.877 174.533 685.877 175.373C685.877 176.297 684.996 176.906 683.782 176.906C682.683 176.906 681.769 176.417 681.686 175.387H680.255C680.347 177.1 681.672 178.157 683.791 178.157C686.011 178.157 687.29 176.989 687.29 175.387C687.29 173.684 685.771 173.023 684.571 172.728L683.648 172.488C682.909 172.299 681.926 171.952 681.93 171.048C681.93 170.244 682.664 169.649 683.828 169.649C684.913 169.649 685.684 170.157 685.785 171.029Z" fill="#6D6666"/>
<path d="M631.581 187.455H628.946V202H631.581V187.455ZM647.432 194.727C647.432 190.026 644.562 187.256 640.749 187.256C636.928 187.256 634.065 190.026 634.065 194.727C634.065 199.422 636.928 202.199 640.749 202.199C644.562 202.199 647.432 199.429 647.432 194.727ZM644.783 194.727C644.783 198.037 643.121 199.834 640.749 199.834C638.384 199.834 636.714 198.037 636.714 194.727C636.714 191.418 638.384 189.621 640.749 189.621C643.121 189.621 644.783 191.418 644.783 194.727Z" fill="#262424"/>
<g filter="url(#filter3_dd)">
<circle cx="638" cy="106" r="30" fill="#C13733"/>
</g>
<path d="M197.56 167.773H200.505V176H201.927V167.773H204.877V166.545H197.56V167.773ZM207.92 166.545H206.494V176H207.92V166.545ZM209.998 166.545V176H211.355V169.154H211.443L214.231 175.986H215.357L218.146 169.158H218.233V176H219.591V166.545H217.86L214.85 173.895H214.739L211.729 166.545H209.998ZM221.665 176H227.648V174.772H223.091V171.877H227.283V170.654H223.091V167.773H227.592V166.545H221.665V176ZM232.938 176H236.562C238.759 176 239.752 174.906 239.752 173.456C239.752 171.993 238.727 171.167 237.79 171.116V171.023C238.658 170.802 239.383 170.211 239.383 169.029C239.383 167.63 238.413 166.545 236.4 166.545H232.938V176ZM234.365 174.777V171.748H236.474C237.619 171.748 238.335 172.487 238.335 173.387C238.335 174.181 237.795 174.777 236.424 174.777H234.365ZM234.365 170.636V167.76H236.313C237.444 167.76 237.984 168.355 237.984 169.14C237.984 170.054 237.236 170.636 236.276 170.636H234.365ZM242.243 176L243.111 173.498H246.804L247.667 176H249.181L245.779 166.545H244.131L240.728 176H242.243ZM243.526 172.298L244.92 168.263H244.994L246.388 172.298H243.526ZM255.627 169.029H257.003C256.961 167.515 255.622 166.416 253.702 166.416C251.805 166.416 250.35 167.501 250.35 169.131C250.35 170.446 251.292 171.217 252.811 171.628L253.928 171.933C254.939 172.201 255.719 172.533 255.719 173.373C255.719 174.297 254.838 174.906 253.623 174.906C252.525 174.906 251.611 174.417 251.528 173.387H250.096C250.189 175.1 251.514 176.157 253.633 176.157C255.853 176.157 257.132 174.989 257.132 173.387C257.132 171.684 255.613 171.023 254.413 170.728L253.49 170.488C252.751 170.299 251.768 169.952 251.772 169.048C251.772 168.244 252.506 167.649 253.67 167.649C254.754 167.649 255.525 168.157 255.627 169.029ZM258.837 176H264.82V174.772H260.263V171.877H264.455V170.654H260.263V167.773H264.764V166.545H258.837V176ZM269.73 176C272.611 176 274.278 174.213 274.278 171.259C274.278 168.318 272.611 166.545 269.827 166.545H266.67V176H269.73ZM268.096 174.754V167.792H269.74C271.808 167.792 272.874 169.029 272.874 171.259C272.874 173.498 271.808 174.754 269.652 174.754H268.096Z" fill="#6D6666"/>
<path d="M192.805 190.362C192.357 187.131 189.872 185.256 186.647 185.256C182.847 185.256 179.985 188.026 179.985 192.727C179.985 197.422 182.812 200.199 186.647 200.199C190.106 200.199 192.4 197.962 192.805 195.185L190.149 195.17C189.815 196.875 188.423 197.834 186.683 197.834C184.325 197.834 182.634 196.065 182.634 192.727C182.634 189.446 184.311 187.621 186.69 187.621C188.458 187.621 189.843 188.622 190.149 190.362H192.805ZM208.215 192.727C208.215 188.026 205.346 185.256 201.532 185.256C197.711 185.256 194.849 188.026 194.849 192.727C194.849 197.422 197.711 200.199 201.532 200.199C205.346 200.199 208.215 197.429 208.215 192.727ZM205.566 192.727C205.566 196.037 203.904 197.834 201.532 197.834C199.167 197.834 197.498 196.037 197.498 192.727C197.498 189.418 199.167 187.621 201.532 187.621C203.904 187.621 205.566 189.418 205.566 192.727ZM222.659 185.455H220.039V195.369H219.911L213.064 185.455H210.706V200H213.341V190.092H213.462L220.316 200H222.659V185.455ZM230.459 200C234.891 200 237.519 197.259 237.519 192.713C237.519 188.182 234.891 185.455 230.559 185.455H225.53V200H230.459ZM228.165 197.72V187.734H230.41C233.364 187.734 234.905 189.382 234.905 192.713C234.905 196.058 233.364 197.72 230.331 197.72H228.165ZM242.657 185.455H240.023V200H242.657V185.455ZM244.872 187.663H249.367V200H251.981V187.663H256.477V185.455H244.872V187.663ZM261.349 185.455H258.714V200H261.349V185.455ZM277.199 192.727C277.199 188.026 274.33 185.256 270.516 185.256C266.695 185.256 263.833 188.026 263.833 192.727C263.833 197.422 266.695 200.199 270.516 200.199C274.33 200.199 277.199 197.429 277.199 192.727ZM274.55 192.727C274.55 196.037 272.888 197.834 270.516 197.834C268.151 197.834 266.482 196.037 266.482 192.727C266.482 189.418 268.151 187.621 270.516 187.621C272.888 187.621 274.55 189.418 274.55 192.727ZM291.644 185.455H289.023V195.369H288.895L282.048 185.455H279.691V200H282.325V190.092H282.446L289.3 200H291.644V185.455Z" fill="#262424"/>
<g filter="url(#filter4_dd)">
<circle cx="236" cy="104" r="30" fill="#555F8E"/>
</g>
<rect x="137" width="217" height="50" rx="25" fill="white"/>
<circle cx="174" cy="25" r="13" fill="white"/>
<mask id="mask0" mask-type="alpha" maskUnits="userSpaceOnUse" x="161" y="12" width="26" height="26">
<circle cx="174" cy="25" r="13" fill="white"/>
</mask>
<g mask="url(#mask0)">
<path d="M177.289 18.5481C176.798 18.6839 175.638 15.0446 175.239 15.2591C174.846 15.4736 174.446 16.4889 174.446 16.4889C174.295 16.1171 173.896 15.1161 173.457 15.4307C172.887 15.8454 172.225 17.876 172.225 18.7626C172.225 19.9566 171.131 22.4877 171.131 22.4877C171.131 22.4877 169.015 28.9154 170.174 27.8644C171.334 26.8133 172.716 27.7929 173.332 28.3792C173.941 28.9512 174.597 29.7234 175.927 29.7234C176.333 29.7234 177.493 29.4517 177.506 28.7796C177.532 26.9206 178.207 25.3834 178.207 25.3834C178.207 25.3834 178.718 25.3548 180.795 25.1403C182.865 24.9258 183.435 23.4458 183.435 23.4458C183.435 23.4458 184.47 22.2875 182.721 21.7226C180.107 20.8789 179.733 20.5643 179.733 20.5643C178.305 17.7473 175.979 18.2192 175.979 18.2192C175.632 18.2263 175.324 18.2478 175.042 18.2835C173.083 18.5195 172.67 19.3274 172.67 19.3274" fill="#B4524E"/>
<path d="M182.446 21.644C182.446 21.644 182.033 22.5878 183.435 23.453C183.435 23.453 184.601 22.2232 182.446 21.644Z" fill="#414042"/>
<path d="M176.713 20.8218C176.713 20.8218 178.39 19.9852 178.534 21.644C178.534 21.644 178.213 21.5511 177.892 21.644C177.591 21.7298 177.06 21.8299 176.713 20.8218Z" fill="#414042"/>
<path d="M172.572 19.1631C172.572 19.1631 172.48 18.6197 172.598 18.0048C172.808 16.8608 173.627 15.2378 173.981 15.5953C174.413 16.0386 174.564 16.2674 174.754 18.3337C174.754 18.3337 173.601 18.2837 172.572 19.1631Z" fill="#414042"/>
<path d="M175.042 18.2908C175.042 18.2908 174.754 15.581 175.488 15.438C175.566 15.438 176.883 18.2407 176.929 18.255C177.027 18.2765 176.09 18.112 175.042 18.2908Z" fill="#414042"/>
<path d="M171.216 22.252C171.216 22.252 171.864 27.2283 172.644 27.8432C172.644 27.8432 171.216 26.9637 170.017 28.0148C170.01 28.0219 168.916 28.1864 171.216 22.252Z" fill="#414042"/>
<g opacity="0.66">
<g opacity="0.66">
<g opacity="0.66">
<path opacity="0.66" d="M172.179 19.2559C172.179 19.2559 172.86 29.7304 177.466 28.9869C177.466 28.9869 177.283 29.6232 175.927 29.7376C175.927 29.7376 174.793 29.9163 173.712 28.7509C173.712 28.7509 172.736 27.8929 172.638 27.85C172.638 27.85 172.087 27.4711 171.773 25.4906C171.773 25.4906 171.124 22.4662 171.209 22.2588C171.216 22.2517 172.173 19.5562 172.179 19.2559Z" fill="#6D6E71"/>
</g>
</g>
</g>
<path d="M175.167 24.6826C175.167 24.6826 177.512 25.7194 178.207 25.3976C178.207 25.3976 177.932 26.1412 177.873 26.37C177.873 26.37 177.748 26.849 177.715 27.0206C177.715 27.0135 175.422 27.4711 175.167 24.6826Z" fill="#414042"/>
<path d="M175.167 24.6826C175.167 24.6826 175.337 26.9348 177.715 27.0135C177.715 27.0135 177.532 28.0359 177.532 28.2504C177.532 28.2504 174.118 28.4149 175.167 24.6826Z" fill="#58595B"/>
<g opacity="0.26">
<g opacity="0.26">
<g opacity="0.26">
<path opacity="0.26" d="M182.695 24.3965C182.695 24.3965 177.473 24.8112 175.16 24.6825C175.16 24.6825 177.525 25.7478 178.2 25.3975C178.2 25.3975 180.814 25.1901 181.201 25.09C181.207 25.09 182.026 24.9756 182.695 24.3965Z" fill="#C49A6C"/>
</g>
</g>
</g>
<path d="M170.122 20.8074C169.63 20.9432 168.471 17.3039 168.071 17.5184C167.678 17.7329 167.278 18.7482 167.278 18.7482C167.128 18.3764 166.728 17.3754 166.289 17.69C165.719 18.1047 165.057 20.1353 165.057 21.0218C165.057 22.2159 163.963 24.7469 163.963 24.7469C163.963 24.7469 161.847 31.1747 163.007 30.1237C164.166 29.0726 165.542 30.0522 166.165 30.6385C166.774 31.2104 167.429 31.9826 168.759 31.9826C169.165 31.9826 170.325 31.7109 170.338 31.0388C170.364 29.1799 171.039 27.6426 171.039 27.6426C171.039 27.6426 171.55 27.614 173.627 27.3996C175.697 27.1851 176.267 25.705 176.267 25.705C176.267 25.705 177.303 24.5467 175.553 23.9819C172.939 23.1382 172.566 22.8236 172.566 22.8236C171.137 20.0066 168.812 20.4785 168.812 20.4785C168.464 20.4856 168.156 20.5071 167.875 20.5428C165.916 20.7788 165.503 21.5867 165.503 21.5867" fill="#B4524E"/>
<path d="M175.278 23.896C175.278 23.896 174.865 24.8398 176.267 25.7049C176.267 25.7049 177.434 24.4751 175.278 23.896Z" fill="#414042"/>
<path d="M169.545 23.0737C169.545 23.0737 171.223 22.2372 171.367 23.896C171.367 23.896 171.046 23.803 170.725 23.896C170.423 23.9818 169.893 24.0819 169.545 23.0737Z" fill="#414042"/>
<path d="M165.405 21.415C165.405 21.415 165.313 20.8717 165.431 20.2568C165.641 19.1128 166.46 17.4898 166.813 17.8473C167.246 18.2905 167.396 18.5193 167.586 20.5857C167.586 20.5857 166.433 20.5356 165.405 21.415Z" fill="#414042"/>
<path d="M167.875 20.5427C167.875 20.5427 167.586 17.8329 168.32 17.6899C168.399 17.6899 169.716 20.4927 169.762 20.507C169.86 20.5284 168.923 20.364 167.875 20.5427Z" fill="#414042"/>
<path d="M164.048 24.5039C164.048 24.5039 164.697 29.4802 165.477 30.0951C165.477 30.0951 164.048 29.2157 162.849 30.2667C162.843 30.2739 161.749 30.4383 164.048 24.5039Z" fill="#414042"/>
<path d="M165.012 21.5078C165.012 21.5078 165.693 31.9824 170.299 31.2388C170.299 31.2388 170.115 31.8752 168.759 31.9896C168.759 31.9896 167.626 32.1683 166.545 31.0029C166.545 31.0029 165.568 30.1449 165.47 30.102C165.47 30.102 164.92 29.723 164.605 27.7425C164.605 27.7425 163.957 24.7181 164.042 24.5108C164.048 24.5036 165.005 21.8081 165.012 21.5078Z" fill="#6D6E71"/>
<path d="M167.999 26.9351C167.999 26.9351 170.345 27.9718 171.039 27.65C171.039 27.65 170.856 28.3936 170.803 28.6224C170.803 28.6224 170.777 29.3303 170.738 29.4947C170.731 29.4947 168.255 29.7235 167.999 26.9351Z" fill="#414042"/>
<path d="M167.999 26.9351C167.999 26.9351 168.274 29.2302 170.653 29.316C170.653 29.316 170.364 30.2884 170.364 30.5029C170.364 30.5029 166.951 30.6744 167.999 26.9351Z" fill="#58595B"/>
<g opacity="0.26">
<g opacity="0.26">
<g opacity="0.26">
<path opacity="0.26" d="M175.527 26.6489C175.527 26.6489 170.305 27.0636 167.993 26.9349C167.993 26.9349 170.358 28.0003 171.033 27.6499C171.033 27.6499 173.647 27.4426 174.033 27.3425C174.04 27.3425 174.859 27.2352 175.527 26.6489Z" fill="#C49A6C"/>
</g>
</g>
</g>
<path d="M175.842 27.7859C175.35 27.9217 174.191 24.2824 173.791 24.4969C173.398 24.7114 172.998 25.7267 172.998 25.7267C172.847 25.3549 172.448 24.3539 172.009 24.6685C171.439 25.0832 170.797 27.1138 170.777 28.0004C170.744 29.4661 169.67 31.8327 169.683 31.7255C169.683 31.7255 167.567 38.1532 168.726 37.1022C169.886 36.0511 171.262 37.0307 171.884 37.617C172.494 38.189 173.149 38.9611 174.479 38.9611C174.885 38.9611 176.045 38.6895 176.058 38.0174C176.084 36.1584 176.759 34.6212 176.759 34.6212C176.759 34.6212 177.27 34.5926 179.347 34.3781C181.417 34.1636 181.987 32.6835 181.987 32.6835C181.987 32.6835 183.022 31.5253 181.273 30.9604C178.659 30.1167 178.285 29.8021 178.285 29.8021C176.857 26.9851 174.531 27.457 174.531 27.457C174.184 27.4641 173.876 27.4856 173.594 27.5213C171.635 27.7573 171.223 28.5652 171.223 28.5652" fill="#B4524E"/>
<path d="M180.998 30.8745C180.998 30.8745 180.585 31.8183 181.987 32.6834C181.987 32.6906 183.153 31.4537 180.998 30.8745Z" fill="#414042"/>
<path d="M175.265 30.0522C175.265 30.0522 176.942 29.2157 177.087 30.8745C177.087 30.8745 176.765 30.7815 176.444 30.8745C176.143 30.9603 175.612 31.0604 175.265 30.0522Z" fill="#414042"/>
<path d="M171.131 28.3936C171.131 28.3936 171.039 27.8502 171.157 27.2353C171.367 26.0913 172.186 24.4683 172.54 24.8258C172.972 25.2691 173.123 25.4979 173.313 27.5642C173.306 27.5642 172.153 27.5213 171.131 28.3936Z" fill="#414042"/>
<path d="M173.594 27.5208C173.594 27.5208 173.306 24.811 174.04 24.668C174.119 24.668 175.435 27.4707 175.481 27.485C175.58 27.5065 174.649 27.342 173.594 27.5208Z" fill="#414042"/>
<path d="M169.683 31.6465C169.716 31.768 171.603 37.6452 172.304 38.0027C172.304 38.0027 169.794 36.1223 168.595 37.1734C168.602 37.1734 167.383 37.5809 169.683 31.6465Z" fill="#414042"/>
<path d="M173.719 33.9131C173.719 33.9131 176.064 34.9498 176.759 34.6281C176.759 34.6281 176.484 35.3717 176.425 35.6005C176.425 35.6005 176.3 36.0795 176.268 36.2511C176.268 36.244 173.974 36.7015 173.719 33.9131Z" fill="#414042"/>
<path d="M173.719 33.9131C173.719 33.9131 173.889 36.1653 176.267 36.244C176.267 36.244 176.084 37.2664 176.084 37.4809C176.084 37.4809 172.671 37.6525 173.719 33.9131Z" fill="#58595B"/>
<g opacity="0.26">
<g opacity="0.26">
<g opacity="0.26">
<path opacity="0.26" d="M181.253 33.627C181.253 33.627 176.032 34.0416 173.719 33.9129C173.719 33.9129 176.084 34.9783 176.759 34.6279C176.759 34.6279 179.373 34.4206 179.76 34.3205C179.76 34.3205 180.579 34.2132 181.253 33.627Z" fill="#C49A6C"/>
</g>
</g>
</g>
<path d="M162.659 30.131C162.659 30.131 164.992 36.4086 168.68 37.2809L168.792 35.808L169.617 32.8694L169.689 31.6396C169.689 31.6396 167.298 31.6968 166.106 30.5314C166.106 30.5314 165.85 30.3669 165.477 30.0881C165.103 29.8092 162.856 29.1586 162.915 29.8521C162.974 30.5457 162.823 29.7234 162.823 29.7234L162.659 30.131Z" fill="#414042"/>
<path d="M173.627 39.4829L174.57 38.7822C174.57 38.7822 172.5 39.1683 171.544 36.723C170.587 34.2778 170.109 35.7578 170.109 35.7578L169.65 37.0233L170.718 39.0253L172.88 39.6474L173.627 39.4829Z" fill="#414042"/>
<path d="M164.029 24.5967C164.029 24.5967 164.966 35.629 169.709 31.6965L169.342 31.4963L168.458 31.339L167.613 30.717L166.4 28.7293L165.097 26.0195L164.029 24.5967Z" fill="#6D6E71"/>
<path d="M162.699 28.7222C162.699 28.7222 160.34 38.3388 162.358 37.6524C162.358 37.6524 166.754 36.8158 169.46 39.0824C169.46 39.0824 174.806 43.5224 176.051 38.0885C175.868 38.9108 170.502 39.8974 169.827 36.394C169.264 33.4911 165.47 32.6832 165.47 32.6832L162.699 28.7222Z" fill="#414042"/>
</g>
<path d="M207.555 24.0909C207.555 19.6715 204.911 16.9929 201.335 16.9929C197.745 16.9929 195.107 19.6715 195.107 24.0909C195.107 28.5036 197.745 31.1889 201.335 31.1889C204.911 31.1889 207.555 28.5103 207.555 24.0909ZM205.491 24.0909C205.491 27.4577 203.71 29.2862 201.335 29.2862C198.953 29.2862 197.178 27.4577 197.178 24.0909C197.178 20.7241 198.953 18.8956 201.335 18.8956C203.71 18.8956 205.491 20.7241 205.491 24.0909ZM210.155 31H212.24V26.142H215.074C218.278 26.142 219.864 24.2056 219.864 21.6552C219.864 19.1115 218.292 17.1818 215.08 17.1818H210.155V31ZM212.24 24.3743V18.9698H214.858C216.922 18.9698 217.766 20.0898 217.766 21.6552C217.766 23.2205 216.922 24.3743 214.885 24.3743H212.24ZM222.308 31H231.052V29.2053H224.393V24.9748H230.519V23.1868H224.393V18.9766H230.972V17.1818H222.308V31ZM244.909 17.1818H242.845V27.3295H242.717L235.686 17.1818H233.756V31H235.841V20.8658H235.969L242.993 31H244.909V17.1818ZM260.516 20.8118H262.526C262.466 18.5987 260.509 16.9929 257.702 16.9929C254.929 16.9929 252.804 18.5785 252.804 20.9602C252.804 22.8832 254.18 24.0099 256.4 24.6104L258.033 25.0558C259.51 25.4471 260.651 25.9329 260.651 27.1609C260.651 28.5103 259.362 29.4009 257.587 29.4009C255.982 29.4009 254.646 28.6857 254.524 27.1811H252.433C252.567 29.6843 254.504 31.2294 257.601 31.2294C260.846 31.2294 262.715 29.5224 262.715 27.1811C262.715 24.6914 260.495 23.7266 258.741 23.2947L257.392 22.9439C256.312 22.6673 254.875 22.1612 254.882 20.8388C254.882 19.6648 255.955 18.7944 257.655 18.7944C259.24 18.7944 260.367 19.5366 260.516 20.8118ZM277.21 24.0909C277.21 19.6715 274.565 16.9929 270.989 16.9929C267.399 16.9929 264.761 19.6715 264.761 24.0909C264.761 28.5036 267.399 31.1889 270.989 31.1889C274.565 31.1889 277.21 28.5103 277.21 24.0909ZM275.145 24.0909C275.145 27.4577 273.364 29.2862 270.989 29.2862C268.607 29.2862 266.833 27.4577 266.833 24.0909C266.833 20.7241 268.607 18.8956 270.989 18.8956C273.364 18.8956 275.145 20.7241 275.145 24.0909ZM288.695 17.1818V26.1016C288.695 27.9773 287.4 29.3267 285.295 29.3267C283.196 29.3267 281.894 27.9773 281.894 26.1016V17.1818H279.809V26.2702C279.809 29.1715 281.982 31.2294 285.295 31.2294C288.607 31.2294 290.787 29.1715 290.787 26.2702V17.1818H288.695ZM293.818 31H295.903V25.771H298.737C298.784 25.771 298.824 25.771 298.872 25.771L301.678 31H304.053L300.99 25.4066C302.684 24.7791 303.527 23.369 303.527 21.5135C303.527 18.9698 301.948 17.1818 298.743 17.1818H293.818V31ZM295.903 23.9762V18.9698H298.521C300.579 18.9698 301.429 19.9482 301.429 21.5135C301.429 23.0721 300.579 23.9762 298.548 23.9762H295.903ZM317.541 21.6754C317.069 18.7202 314.754 16.9929 311.833 16.9929C308.257 16.9929 305.619 19.6715 305.619 24.0909C305.619 28.5103 308.243 31.1889 311.833 31.1889C314.869 31.1889 317.089 29.2862 317.541 26.5536L315.436 26.5469C315.078 28.3146 313.594 29.2862 311.846 29.2862C309.478 29.2862 307.69 27.4712 307.69 24.0909C307.69 20.7376 309.471 18.8956 311.853 18.8956C313.614 18.8956 315.092 19.8874 315.436 21.6754H317.541ZM320.036 31H328.78V29.2053H322.121V24.9748H328.247V23.1868H322.121V18.9766H328.699V17.1818H320.036V31Z" fill="#262424"/>
<rect x="138" y="1" width="215" height="48" rx="24" stroke="#A69D9D" stroke-opacity="0.4" stroke-width="2"/>
<path d="M92.044 141.643L99.8872 143.336C103.908 144.167 103.529 145.512 103.252 160.002C103.122 166.83 104.742 176.273 100.957 175.244C100.6 174.887 89.905 171.768 89.905 171.768C87.5457 168.69 83.1503 147.566 92.044 141.643V141.643Z" fill="#585858"/>
<path d="M47.2581 155.124L47.9711 165.462C49.2142 168.953 59.4553 169.084 60.3597 165.551C60.2604 162.105 60.2517 158.659 60.2705 155.213L47.2581 155.124Z" fill="#5A5A5A"/>
<path d="M94.8662 157.293V162.311C94.8662 162.311 93.6854 166.739 94.1281 167.773C94.571 168.806 97.523 174.562 97.523 174.562L91.1762 172.643L89.1097 167.33L87.3385 161.278L94.8662 157.293Z" fill="url(#paint0_linear)"/>
<path d="M90.707 163.657L60.0475 165.529C57.151 163.389 56.6835 160.387 60.1366 155.992L91.3309 152.784C95.9199 154.537 95.6768 164.222 90.707 163.657V163.657Z" fill="#4D4D4D"/>
<path d="M53.7196 156.527C57.3129 156.527 60.2259 155.948 60.2259 155.235C60.2259 154.521 57.3129 153.942 53.7196 153.942C50.1263 153.942 47.2134 154.521 47.2134 155.235C47.2134 155.948 50.1263 156.527 53.7196 156.527Z" fill="#818181"/>
<path d="M47.5698 154.656L47.7481 142.089L60.0476 132.73L59.958 155.101C57.3202 155.758 52.5449 156.928 47.5695 154.656H47.5698Z" fill="#737373"/>
<path d="M1.08179 127.027C-2.44272 129.26 3.61961 141.58 5.41055 147.943L6.61955 148.215L60.5514 116.579L56.4812 110.602L1.08179 127.027Z" fill="#202020"/>
<path opacity="0.668471" d="M82.926 153.672C70.337 156.185 61.4636 159.96 58.4063 164.133C54.9207 166.237 51.6693 165.907 47.7456 165.732L47.2126 155.538L49.4779 146.809L60.2686 138.351C60.2686 138.351 59.8885 154.472 60.0883 154.805C60.5708 155.279 60.4409 155.903 60.4409 155.903C62.9129 155.79 77.4031 154.224 82.9259 153.672H82.926Z" fill="url(#paint1_linear)"/>
<path d="M1.75487 126.939C-1.53205 129.437 4.85193 141.649 6.64294 148.012L61.7838 116.648L54.8279 106.974L1.75487 126.939Z" fill="#3B3B3B"/>
<path d="M54.7857 108.507C54.3327 108.498 53.9183 108.611 53.5706 108.82C53.5687 108.821 53.5675 108.824 53.5655 108.825C52.6224 109.222 11.5777 126.523 10.9556 126.488L47.177 155.914L80.6838 127.85C80.6857 127.849 80.6869 127.847 80.6889 127.846C81.6085 127.365 82.1388 126.237 81.9618 124.865L80.5471 113.931C80.3003 112.018 78.7808 110.377 77.1369 110.248L54.9349 108.515C54.8835 108.511 54.836 108.508 54.7857 108.507Z" fill="#A0A0A0"/>
<path d="M42.8482 128.288L13.0072 125.856C10.8042 125.676 9.26854 127.931 9.57707 130.892L11.3465 147.872C11.655 150.833 13.6909 153.378 15.8939 153.558L45.7349 155.99C47.9378 156.17 49.4735 153.915 49.165 150.955L47.3956 133.974C47.087 131.014 45.0511 128.468 42.8482 128.288Z" fill="#7B7B7B"/>
<path d="M40.4056 130.578L15.973 128.587C14.1693 128.439 12.9119 130.285 13.1645 132.71L14.6133 146.612C14.8659 149.037 16.5328 151.121 18.3365 151.268L42.7691 153.259C44.5728 153.406 45.8302 151.56 45.5775 149.136L44.1288 135.234C43.8762 132.809 42.2093 130.725 40.4056 130.578Z" fill="url(#paint2_linear)"/>
<path d="M40.1574 130.769L17.2133 128.869C15.5196 128.728 14.3388 130.49 14.576 132.803L15.9365 146.069C16.1737 148.382 17.7391 150.371 19.4328 150.511L42.3769 152.412C44.0706 152.552 45.2514 150.791 45.0142 148.477L43.6537 135.211C43.4165 132.898 41.8511 130.909 40.1574 130.769Z" fill="#494949"/>
<path d="M10.2998 137.748C10.2998 137.748 28.2476 137.247 36.9535 139.075C38.3019 139.358 39.6372 139.833 40.8161 140.546C43.4546 142.143 48.0123 148.009 48.0123 148.009L48.9783 148.275L45.4802 130.152L9.63354 127.887L10.2998 137.748Z" fill="url(#paint3_linear)"/>
<path d="M54.7115 107.515C54.2083 107.505 53.7481 107.63 53.3618 107.863C53.3618 107.865 53.3618 107.866 53.3523 107.868C52.4166 108.263 10.914 123.639 1.66622 126.957C0.560624 127.354 0.365555 127.884 0.29187 127.879C0.29187 127.879 22.3247 128.35 35.2455 129.514C37.54 129.721 40.4798 130.432 41.4734 132.511C43.4467 136.638 45.4266 144.86 45.6731 144.715L46.8896 144.766L83.3284 117.529L83.3189 113.539C83.0447 111.415 81.3571 109.592 79.5312 109.449L54.8723 107.525C54.8151 107.52 54.7625 107.516 54.7066 107.515L54.7115 107.515Z" fill="#202020"/>
<g filter="url(#filter5_f)">
<path d="M48.9451 149.141C49.9446 148.942 81.7268 122.823 81.7268 122.823L80.5275 115.827L46.813 133.417L48.9451 149.141Z" fill="url(#paint4_linear)"/>
</g>
<path d="M55.6876 106.642C55.1845 106.632 54.7241 106.758 54.3379 106.99C54.3379 106.992 54.338 106.994 54.3285 106.996C53.2809 107.438 1.58129 127.024 0.890381 126.986C0.890381 126.986 23.3008 127.477 36.2215 128.641C38.5162 128.848 41.4559 129.56 42.4496 131.638C44.4227 135.766 46.7273 144.965 46.9738 144.82L84.3044 116.656L84.295 112.667C84.0208 110.542 82.3333 108.719 80.5074 108.577L55.8484 106.652C55.7913 106.648 55.7386 106.644 55.6827 106.643L55.6876 106.642Z" fill="#6E6E6E"/>
<path d="M29.6226 149.874C35.0687 149.874 39.2451 145.519 38.9507 140.146C38.6563 134.774 34.0027 130.418 28.5565 130.418C23.1103 130.418 18.934 134.774 19.2283 140.146C19.5227 145.519 24.1764 149.874 29.6226 149.874Z" fill="#121212"/>
<path opacity="0.668471" d="M30.4168 148.895C35.1281 148.895 38.7409 145.127 38.4862 140.48C38.2315 135.832 34.2058 132.064 29.4945 132.064C24.7832 132.064 21.1704 135.832 21.4251 140.48C21.6798 145.127 25.7055 148.895 30.4168 148.895Z" fill="url(#paint5_radial)"/>
<path d="M39.8556 151.283C41.5367 151.283 42.8996 149.92 42.8996 148.239C42.8996 146.558 41.5367 145.195 39.8556 145.195C38.1745 145.195 36.8118 146.558 36.8118 148.239C36.8118 149.92 38.1745 151.283 39.8556 151.283Z" fill="url(#paint6_linear)"/>
<path d="M40.0889 150.783C41.494 150.783 42.6332 149.644 42.6332 148.239C42.6332 146.834 41.494 145.695 40.0889 145.695C38.6838 145.695 37.5448 146.834 37.5448 148.239C37.5448 149.644 38.6838 150.783 40.0889 150.783Z" fill="url(#paint7_radial)"/>
<path d="M38.5855 147.998C38.868 148.153 39.2903 147.925 39.5287 147.489C39.7671 147.053 39.7314 146.574 39.449 146.42C39.1665 146.265 38.7442 146.493 38.5058 146.929C38.2674 147.365 38.3031 147.844 38.5855 147.998Z" fill="#FF3636" fill-opacity="0.428571"/>
<path opacity="0.668471" d="M30.2891 147.885L30.9958 144.492C29.2613 144.005 27.4887 143.771 26.2372 140.064C26.2372 140.064 22.1382 139.969 22.1854 140.158C22.1232 143.67 25.621 147.977 30.2891 147.885V147.885Z" fill="url(#paint8_linear)"/>
<path d="M31.9041 126.988C31.9041 126.988 47.1421 124.066 48.6032 123.44C50.0645 122.814 50.3389 121.172 54.3867 120.151C58.4646 119.122 61.539 116.811 61.539 116.811L67.3898 113.838L77.2006 108.411L82.0015 109.246C82.0015 109.246 84.0889 110.081 84.0889 111.124C84.0889 112.168 84.7151 116.134 84.7151 116.134L46.9333 144.731L43.176 131.789L40.4624 129.076L31.9041 126.988Z" fill="url(#paint9_linear)"/>
<path d="M1.58252 126.739L54.5712 107.109L56.183 106.914L64.9033 108.142L67.7077 107.847C67.7077 107.847 71.1025 108.732 68.5933 109.47C66.084 110.208 58.9992 109.765 57.6708 109.913C56.3424 110.061 53.6857 110.503 52.5048 111.241C51.324 111.979 49.848 112.865 49.11 113.308C48.3719 113.751 44.8296 114.489 42.9107 114.784C40.9919 115.079 39.0731 114.636 37.8923 115.965C36.7115 117.293 36.1211 119.507 34.6451 120.097C33.1692 120.688 30.0694 120.688 28.5935 120.54C27.1175 120.393 26.3794 120.097 25.789 120.245C25.1986 120.393 22.9847 120.393 21.8039 120.688C20.623 120.983 18.2614 122.607 14.5714 123.492C10.8813 124.378 1.58252 126.739 1.58252 126.739V126.739Z" fill="#656565" fill-opacity="0.579439"/>
<path d="M30.217 128.068H36.2686C36.2686 128.068 41.1395 128.511 42.9106 127.625C44.6819 126.74 49.4051 125.116 49.9955 124.526C50.5859 123.935 54.4235 123.345 55.1616 123.493C55.8995 123.64 56.7851 124.231 56.9327 125.707C57.0803 127.183 60.7704 128.068 60.7704 128.068C60.7704 128.068 60.7704 132.201 60.6228 132.939C60.4752 133.677 63.5747 133.677 64.1651 130.577C64.7555 127.478 62.9843 125.411 62.8368 124.083C62.6891 122.755 62.9844 121.721 62.9844 120.836C62.9844 119.95 61.5083 117.293 61.3608 116.408C61.2131 115.522 59.1467 117.588 58.2611 118.326C57.3755 119.064 54.5712 120.245 52.9475 120.54C51.3239 120.836 50.1431 121.279 46.8959 122.164C43.6487 123.05 47.0435 123.493 41.5823 123.788C36.121 124.083 29.0362 125.264 27.5602 125.411C26.0841 125.559 24.6081 125.264 20.9181 125.264C17.2281 125.264 1.43481 126.887 1.43481 126.887L30.217 128.068Z" fill="#656565" fill-opacity="0.579439"/>
<defs>
<filter id="filter0_dd" x="172" y="203" width="128" height="128" filterUnits="userSpaceOnUse" color-interpolation-filters="sRGB">
<feFlood flood-opacity="0" result="BackgroundImageFix"/>
<feColorMatrix in="SourceAlpha" type="matrix" values="0 0 0 0 0 0 0 0 0 0 0 0 0 0 0 0 0 0 127 0"/>
<feOffset dy="3"/>
<feGaussianBlur stdDeviation="2"/>
<feColorMatrix type="matrix" values="0 0 0 0 0 0 0 0 0 0 0 0 0 0 0 0 0 0 0.1 0"/>
<feBlend mode="normal" in2="BackgroundImageFix" result="effect1_dropShadow"/>
<feColorMatrix in="SourceAlpha" type="matrix" values="0 0 0 0 0 0 0 0 0 0 0 0 0 0 0 0 0 0 127 0"/>
<feOffset dy="4"/>
<feGaussianBlur stdDeviation="17"/>
<feColorMatrix type="matrix" values="0 0 0 0 0 0 0 0 0 0 0 0 0 0 0 0 0 0 0.04 0"/>
<feBlend mode="normal" in2="effect1_dropShadow" result="effect2_dropShadow"/>
<feBlend mode="normal" in="SourceGraphic" in2="effect2_dropShadow" result="shape"/>
</filter>
<filter id="filter1_dd" x="358" y="203" width="128" height="128" filterUnits="userSpaceOnUse" color-interpolation-filters="sRGB">
<feFlood flood-opacity="0" result="BackgroundImageFix"/>
<feColorMatrix in="SourceAlpha" type="matrix" values="0 0 0 0 0 0 0 0 0 0 0 0 0 0 0 0 0 0 127 0"/>
<feOffset dy="3"/>
<feGaussianBlur stdDeviation="2"/>
<feColorMatrix type="matrix" values="0 0 0 0 0 0 0 0 0 0 0 0 0 0 0 0 0 0 0.1 0"/>
<feBlend mode="normal" in2="BackgroundImageFix" result="effect1_dropShadow"/>
<feColorMatrix in="SourceAlpha" type="matrix" values="0 0 0 0 0 0 0 0 0 0 0 0 0 0 0 0 0 0 127 0"/>
<feOffset dy="4"/>
<feGaussianBlur stdDeviation="17"/>
<feColorMatrix type="matrix" values="0 0 0 0 0 0 0 0 0 0 0 0 0 0 0 0 0 0 0.04 0"/>
<feBlend mode="normal" in2="effect1_dropShadow" result="effect2_dropShadow"/>
<feBlend mode="normal" in="SourceGraphic" in2="effect2_dropShadow" result="shape"/>
</filter>
<filter id="filter2_dd" x="349" y="45" width="128" height="128" filterUnits="userSpaceOnUse" color-interpolation-filters="sRGB">
<feFlood flood-opacity="0" result="BackgroundImageFix"/>
<feColorMatrix in="SourceAlpha" type="matrix" values="0 0 0 0 0 0 0 0 0 0 0 0 0 0 0 0 0 0 127 0"/>
<feOffset dy="3"/>
<feGaussianBlur stdDeviation="2"/>
<feColorMatrix type="matrix" values="0 0 0 0 0 0 0 0 0 0 0 0 0 0 0 0 0 0 0.1 0"/>
<feBlend mode="normal" in2="BackgroundImageFix" result="effect1_dropShadow"/>
<feColorMatrix in="SourceAlpha" type="matrix" values="0 0 0 0 0 0 0 0 0 0 0 0 0 0 0 0 0 0 127 0"/>
<feOffset dy="4"/>
<feGaussianBlur stdDeviation="17"/>
<feColorMatrix type="matrix" values="0 0 0 0 0 0 0 0 0 0 0 0 0 0 0 0 0 0 0.04 0"/>
<feBlend mode="normal" in2="effect1_dropShadow" result="effect2_dropShadow"/>
<feBlend mode="normal" in="SourceGraphic" in2="effect2_dropShadow" result="shape"/>
</filter>
<filter id="filter3_dd" x="574" y="46" width="128" height="128" filterUnits="userSpaceOnUse" color-interpolation-filters="sRGB">
<feFlood flood-opacity="0" result="BackgroundImageFix"/>
<feColorMatrix in="SourceAlpha" type="matrix" values="0 0 0 0 0 0 0 0 0 0 0 0 0 0 0 0 0 0 127 0"/>
<feOffset dy="3"/>
<feGaussianBlur stdDeviation="2"/>
<feColorMatrix type="matrix" values="0 0 0 0 0 0 0 0 0 0 0 0 0 0 0 0 0 0 0.1 0"/>
<feBlend mode="normal" in2="BackgroundImageFix" result="effect1_dropShadow"/>
<feColorMatrix in="SourceAlpha" type="matrix" values="0 0 0 0 0 0 0 0 0 0 0 0 0 0 0 0 0 0 127 0"/>
<feOffset dy="4"/>
<feGaussianBlur stdDeviation="17"/>
<feColorMatrix type="matrix" values="0 0 0 0 0 0 0 0 0 0 0 0 0 0 0 0 0 0 0.04 0"/>
<feBlend mode="normal" in2="effect1_dropShadow" result="effect2_dropShadow"/>
<feBlend mode="normal" in="SourceGraphic" in2="effect2_dropShadow" result="shape"/>
</filter>
<filter id="filter4_dd" x="172" y="44" width="128" height="128" filterUnits="userSpaceOnUse" color-interpolation-filters="sRGB">
<feFlood flood-opacity="0" result="BackgroundImageFix"/>
<feColorMatrix in="SourceAlpha" type="matrix" values="0 0 0 0 0 0 0 0 0 0 0 0 0 0 0 0 0 0 127 0"/>
<feOffset dy="3"/>
<feGaussianBlur stdDeviation="2"/>
<feColorMatrix type="matrix" values="0 0 0 0 0 0 0 0 0 0 0 0 0 0 0 0 0 0 0.1 0"/>
<feBlend mode="normal" in2="BackgroundImageFix" result="effect1_dropShadow"/>
<feColorMatrix in="SourceAlpha" type="matrix" values="0 0 0 0 0 0 0 0 0 0 0 0 0 0 0 0 0 0 127 0"/>
<feOffset dy="4"/>
<feGaussianBlur stdDeviation="17"/>
<feColorMatrix type="matrix" values="0 0 0 0 0 0 0 0 0 0 0 0 0 0 0 0 0 0 0.04 0"/>
<feBlend mode="normal" in2="effect1_dropShadow" result="effect2_dropShadow"/>
<feBlend mode="normal" in="SourceGraphic" in2="effect2_dropShadow" result="shape"/>
</filter>
<filter id="filter5_f" x="34.83" y="103.844" width="58.8798" height="57.2807" filterUnits="userSpaceOnUse" color-interpolation-filters="sRGB">
<feFlood flood-opacity="0" result="BackgroundImageFix"/>
<feBlend mode="normal" in="SourceGraphic" in2="BackgroundImageFix" result="shape"/>
<feGaussianBlur stdDeviation="5.99149" result="effect1_foregroundBlur"/>
</filter>
<linearGradient id="paint0_linear" x1="89.7001" y1="144.673" x2="92.7998" y2="178.621" gradientUnits="userSpaceOnUse">
<stop stop-color="#080808"/>
<stop offset="1" stop-color="#080808" stop-opacity="0"/>
</linearGradient>
<linearGradient id="paint1_linear" x1="55.594" y1="149.845" x2="63.8026" y2="162.472" gradientUnits="userSpaceOnUse">
<stop stop-color="#0E0E0E"/>
<stop offset="1" stop-color="#2F2F2F" stop-opacity="0"/>
</linearGradient>
<linearGradient id="paint2_linear" x1="15.488" y1="152.72" x2="29.2277" y2="141.554" gradientUnits="userSpaceOnUse">
<stop stop-color="#5D5D5D"/>
<stop offset="1" stop-color="#5D5D5D" stop-opacity="0"/>
</linearGradient>
<linearGradient id="paint3_linear" x1="26.9571" y1="118.359" x2="12.4321" y2="151.14" gradientUnits="userSpaceOnUse">
<stop stop-color="#272727"/>
<stop offset="1" stop-color="#4A4A4A" stop-opacity="0"/>
</linearGradient>
<linearGradient id="paint4_linear" x1="51.4302" y1="134.84" x2="61.9389" y2="145.393" gradientUnits="userSpaceOnUse">
<stop stop-color="#4A4A4A"/>
<stop offset="1" stop-color="#4A4A4A" stop-opacity="0"/>
</linearGradient>
<radialGradient id="paint5_radial" cx="0" cy="0" r="1" gradientUnits="userSpaceOnUse" gradientTransform="translate(27.4238 139.281) rotate(27.5913) scale(15.5657 11.4704)">
<stop stop-color="#004C80"/>
<stop offset="1" stop-color="#004C80" stop-opacity="0"/>
</radialGradient>
<linearGradient id="paint6_linear" x1="36.8117" y1="148.239" x2="45.7646" y2="147.806" gradientUnits="userSpaceOnUse">
<stop/>
<stop offset="1" stop-opacity="0"/>
</linearGradient>
<radialGradient id="paint7_radial" cx="0" cy="0" r="1" gradientUnits="userSpaceOnUse" gradientTransform="translate(39.4892 147.839) scale(2.5442)">
<stop stop-color="#FF0000"/>
<stop offset="1" stop-color="#760000"/>
</radialGradient>
<linearGradient id="paint8_linear" x1="18.8817" y1="152.444" x2="29.3047" y2="141.419" gradientUnits="userSpaceOnUse">
<stop stop-color="white"/>
<stop offset="1" stop-color="white" stop-opacity="0"/>
</linearGradient>
<linearGradient id="paint9_linear" x1="45.2634" y1="113.42" x2="64.029" y2="121.234" gradientUnits="userSpaceOnUse">
<stop stop-color="#858585"/>
<stop offset="1" stop-color="#858585" stop-opacity="0"/>
</linearGradient>
</defs>
</svg>
