<svg width="1110" height="598" viewBox="0 0 1110 598" fill="none" xmlns="http://www.w3.org/2000/svg">
<path d="M363 515L380 515L380 320.5M363 126L380 126L380 320.5M380 320.5L452 320.5" stroke="#D1D1D1" stroke-width="2"/>
<path d="M469 516L452 516L452 321.5L452 127L469 127" stroke="#D1D1D1" stroke-width="2"/>
<path d="M341.108 94.2898C340.75 91.7045 338.761 90.2045 336.182 90.2045C333.142 90.2045 330.852 92.4205 330.852 96.1818C330.852 99.9375 333.114 102.159 336.182 102.159C338.949 102.159 340.784 100.369 341.108 98.1477L338.983 98.1364C338.716 99.5 337.602 100.267 336.21 100.267C334.324 100.267 332.972 98.8523 332.972 96.1818C332.972 93.5568 334.312 92.0966 336.216 92.0966C337.631 92.0966 338.739 92.8977 338.983 94.2898H341.108ZM343.038 102H350.271V100.233H345.146V90.3636H343.038V102ZM362.045 96.1818C362.045 92.4205 359.75 90.2045 356.699 90.2045C353.642 90.2045 351.352 92.4205 351.352 96.1818C351.352 99.9375 353.642 102.159 356.699 102.159C359.75 102.159 362.045 99.9432 362.045 96.1818ZM359.926 96.1818C359.926 98.8295 358.597 100.267 356.699 100.267C354.807 100.267 353.472 98.8295 353.472 96.1818C353.472 93.5341 354.807 92.0966 356.699 92.0966C358.597 92.0966 359.926 93.5341 359.926 96.1818ZM371.374 90.3636V97.7898C371.374 99.25 370.357 100.295 368.76 100.295C367.158 100.295 366.146 99.25 366.146 97.7898V90.3636H364.038V97.9659C364.038 100.466 365.913 102.176 368.76 102.176C371.595 102.176 373.482 100.466 373.482 97.9659V90.3636H371.374ZM379.716 102C383.261 102 385.364 99.8068 385.364 96.1705C385.364 92.5455 383.261 90.3636 379.795 90.3636H375.773V102H379.716ZM377.881 100.176V92.1875H379.676C382.04 92.1875 383.273 93.5057 383.273 96.1705C383.273 98.8466 382.04 100.176 379.614 100.176H377.881Z" fill="#6D6666"/>
<path d="M453.148 102H460.761V100.233H455.256V97.0568H460.324V95.2898H455.256V92.1307H460.716V90.3636H453.148V102ZM466.81 102C470.355 102 472.457 99.8068 472.457 96.1705C472.457 92.5455 470.355 90.3636 466.889 90.3636H462.866V102H466.81ZM464.974 100.176V92.1875H466.77C469.134 92.1875 470.366 93.5057 470.366 96.1705C470.366 98.8466 469.134 100.176 466.707 100.176H464.974ZM482.256 94.0795H484.403C484.045 91.7955 482.068 90.2045 479.494 90.2045C476.449 90.2045 474.165 92.4432 474.165 96.1932C474.165 99.875 476.347 102.159 479.557 102.159C482.438 102.159 484.5 100.307 484.5 97.3068V95.9091H479.778V97.5568H482.46C482.426 99.2159 481.318 100.267 479.568 100.267C477.619 100.267 476.284 98.8068 476.284 96.1705C476.284 93.5511 477.642 92.0966 479.523 92.0966C480.926 92.0966 481.881 92.8466 482.256 94.0795ZM486.538 102H494.152V100.233H488.646V97.0568H493.714V95.2898H488.646V92.1307H494.107V90.3636H486.538V102Z" fill="#6D6666"/>
<path d="M193.239 174.053C191.845 174.053 190.529 173.437 189.639 172.322L176.09 155.587C175.2 154.471 174.852 153.048 175.2 151.663L180.039 130.773C180.348 129.388 181.277 128.272 182.555 127.656L202.142 118.346C202.761 118.039 203.458 117.885 204.155 117.885C204.852 117.885 205.548 118.039 206.168 118.346L225.755 127.618C227.032 128.234 227.961 129.349 228.271 130.734L233.11 151.624C233.419 153.009 233.11 154.433 232.219 155.548L218.671 172.283C217.781 173.36 216.465 174.014 215.071 174.014L193.239 174.053Z" fill="#326DE6"/>
<path d="M204.117 118.847C204.658 118.847 205.2 118.962 205.704 119.193L225.291 128.465C226.297 128.965 227.071 129.888 227.304 130.965L232.142 151.855C232.413 152.971 232.142 154.125 231.407 155.01L217.858 171.745C217.162 172.63 216.078 173.13 214.955 173.13H193.239C192.117 173.13 191.033 172.63 190.336 171.745L176.788 155.01C176.091 154.125 175.82 152.971 176.052 151.855L180.891 130.965C181.162 129.85 181.897 128.926 182.904 128.465L202.491 119.154C202.994 118.962 203.575 118.847 204.117 118.847ZM204.117 117.039C203.304 117.039 202.491 117.231 201.717 117.577L182.129 126.887C180.581 127.618 179.497 128.965 179.11 130.619L174.271 151.509C173.884 153.163 174.271 154.856 175.355 156.202L188.904 172.937C189.949 174.245 191.536 174.976 193.2 174.976H214.917C216.581 174.976 218.168 174.245 219.213 172.937L232.762 156.202C233.846 154.894 234.233 153.163 233.846 151.509L229.007 130.619C228.62 128.965 227.536 127.618 225.988 126.887L206.478 117.577C205.742 117.231 204.929 117.039 204.117 117.039Z" fill="white"/>
<path d="M223.742 150.201C223.704 150.201 223.704 150.201 223.742 150.201H223.704C223.665 150.201 223.626 150.201 223.626 150.162C223.549 150.162 223.471 150.124 223.394 150.124C223.123 150.085 222.891 150.047 222.658 150.047C222.542 150.047 222.426 150.047 222.271 150.008H222.233C221.42 149.931 220.762 149.854 220.142 149.662C219.871 149.547 219.794 149.393 219.717 149.239C219.717 149.2 219.678 149.2 219.678 149.162L219.175 149.008C219.407 147.238 219.329 145.392 218.904 143.584C218.478 141.775 217.742 140.083 216.736 138.544L217.123 138.198V138.121C217.123 137.928 217.162 137.736 217.317 137.544C217.781 137.12 218.362 136.774 219.058 136.351C219.175 136.274 219.291 136.236 219.407 136.159C219.639 136.043 219.833 135.928 220.065 135.774C220.104 135.735 220.181 135.697 220.258 135.62C220.297 135.582 220.336 135.582 220.336 135.543C220.878 135.081 220.994 134.312 220.607 133.812C220.413 133.543 220.065 133.389 219.717 133.389C219.407 133.389 219.136 133.504 218.865 133.696C218.826 133.735 218.826 133.735 218.788 133.773C218.71 133.812 218.671 133.889 218.594 133.927C218.4 134.12 218.246 134.274 218.091 134.466C218.013 134.543 217.936 134.658 217.82 134.735C217.278 135.312 216.775 135.774 216.271 136.12C216.155 136.197 216.039 136.236 215.923 136.236C215.846 136.236 215.768 136.236 215.691 136.197H215.613L215.149 136.505C214.646 135.966 214.104 135.505 213.562 135.043C211.239 133.235 208.413 132.119 205.471 131.85L205.433 131.35C205.394 131.311 205.394 131.311 205.355 131.273C205.239 131.157 205.084 131.042 205.046 130.773C205.007 130.157 205.084 129.465 205.162 128.695V128.657C205.162 128.541 205.2 128.387 205.239 128.272C205.278 128.041 205.317 127.81 205.355 127.541V127.31V127.195C205.355 126.502 204.813 125.925 204.155 125.925C203.846 125.925 203.536 126.079 203.304 126.31C203.071 126.541 202.955 126.849 202.955 127.195V127.272V127.503C202.955 127.772 202.994 128.003 203.071 128.234C203.11 128.349 203.11 128.464 203.149 128.618V128.657C203.226 129.426 203.342 130.119 203.265 130.734C203.226 131.004 203.071 131.119 202.955 131.234C202.917 131.273 202.917 131.273 202.878 131.311L202.839 131.811C202.142 131.888 201.446 131.965 200.749 132.119C197.768 132.773 195.136 134.274 193.084 136.428L192.697 136.159H192.62C192.542 136.159 192.465 136.197 192.388 136.197C192.271 136.197 192.155 136.159 192.039 136.082C191.536 135.735 191.033 135.235 190.491 134.658C190.413 134.581 190.336 134.466 190.22 134.389C190.065 134.197 189.91 134.043 189.717 133.85C189.678 133.812 189.6 133.773 189.523 133.696C189.484 133.658 189.446 133.658 189.446 133.62C189.213 133.427 188.904 133.312 188.594 133.312C188.246 133.312 187.897 133.466 187.704 133.735C187.317 134.235 187.433 135.005 187.975 135.466C188.013 135.466 188.013 135.505 188.052 135.505C188.129 135.543 188.168 135.62 188.246 135.659C188.478 135.812 188.671 135.928 188.904 136.043C189.02 136.082 189.136 136.159 189.252 136.236C189.949 136.659 190.529 137.005 190.994 137.428C191.188 137.621 191.188 137.813 191.188 138.005V138.082L191.575 138.428C191.497 138.544 191.42 138.621 191.381 138.736C189.446 141.775 188.71 145.353 189.213 148.893L188.71 149.047C188.71 149.085 188.671 149.085 188.671 149.123C188.594 149.277 188.478 149.431 188.246 149.547C187.665 149.739 186.968 149.816 186.155 149.893H186.117C186 149.893 185.846 149.893 185.729 149.931C185.497 149.931 185.265 149.97 184.994 150.008C184.917 150.008 184.839 150.047 184.762 150.047C184.723 150.047 184.684 150.047 184.646 150.085C183.949 150.239 183.523 150.893 183.639 151.509C183.755 152.047 184.258 152.394 184.878 152.394C184.994 152.394 185.071 152.394 185.188 152.355C185.226 152.355 185.265 152.355 185.265 152.317C185.342 152.317 185.42 152.278 185.497 152.278C185.768 152.201 185.962 152.124 186.194 152.009C186.31 151.97 186.426 151.893 186.542 151.855H186.581C187.317 151.586 187.975 151.355 188.594 151.278H188.671C188.904 151.278 189.058 151.393 189.175 151.47C189.213 151.47 189.213 151.509 189.252 151.509L189.794 151.432C190.723 154.279 192.504 156.818 194.865 158.664C195.407 159.088 195.949 159.434 196.529 159.78L196.297 160.28C196.297 160.319 196.336 160.319 196.336 160.357C196.413 160.511 196.491 160.703 196.413 160.973C196.181 161.55 195.833 162.127 195.407 162.781V162.819C195.329 162.935 195.252 163.012 195.175 163.127C195.02 163.319 194.904 163.512 194.749 163.743C194.71 163.781 194.671 163.858 194.633 163.935C194.633 163.973 194.594 164.012 194.594 164.012C194.284 164.666 194.517 165.397 195.097 165.666C195.252 165.743 195.407 165.782 195.562 165.782C196.026 165.782 196.491 165.474 196.723 165.051C196.723 165.012 196.762 164.974 196.762 164.974C196.8 164.897 196.839 164.82 196.878 164.781C196.994 164.512 197.033 164.32 197.11 164.089C197.149 163.973 197.188 163.858 197.226 163.743C197.497 162.973 197.691 162.358 198.039 161.819C198.194 161.588 198.388 161.55 198.542 161.473C198.581 161.473 198.581 161.473 198.62 161.434L198.891 160.934C200.594 161.588 202.452 161.934 204.31 161.934C205.433 161.934 206.594 161.819 207.678 161.55C208.375 161.396 209.033 161.203 209.691 160.973L209.923 161.396C209.962 161.396 209.962 161.396 210 161.434C210.194 161.473 210.349 161.55 210.504 161.781C210.813 162.319 211.046 162.973 211.317 163.704V163.743C211.355 163.858 211.394 163.973 211.433 164.089C211.51 164.32 211.549 164.55 211.665 164.781C211.704 164.858 211.742 164.897 211.781 164.974C211.781 165.012 211.82 165.051 211.82 165.051C212.052 165.512 212.517 165.782 212.981 165.782C213.136 165.782 213.291 165.743 213.446 165.666C213.717 165.512 213.949 165.281 214.026 164.974C214.104 164.666 214.104 164.32 213.949 164.012C213.949 163.973 213.91 163.973 213.91 163.935C213.871 163.858 213.833 163.781 213.794 163.743C213.678 163.512 213.523 163.319 213.368 163.127C213.291 163.012 213.213 162.935 213.136 162.819V162.781C212.71 162.127 212.323 161.55 212.129 160.973C212.052 160.703 212.129 160.549 212.168 160.357C212.168 160.319 212.207 160.319 212.207 160.28L212.013 159.819C214.065 158.626 215.807 156.933 217.123 154.856C217.82 153.779 218.362 152.586 218.749 151.393L219.213 151.47C219.252 151.47 219.252 151.432 219.291 151.432C219.446 151.355 219.562 151.239 219.794 151.239H219.871C220.491 151.316 221.149 151.547 221.884 151.816H221.923C222.039 151.855 222.155 151.932 222.271 151.97C222.504 152.086 222.697 152.163 222.968 152.24C223.046 152.24 223.123 152.278 223.2 152.278C223.239 152.278 223.278 152.278 223.317 152.317C223.433 152.355 223.51 152.355 223.626 152.355C224.207 152.355 224.71 151.97 224.865 151.47C224.865 151.009 224.439 150.393 223.742 150.201ZM205.82 148.316L204.117 149.123L202.413 148.316L201.988 146.507L203.149 145.046H205.046L206.207 146.507L205.82 148.316ZM215.923 144.315C216.233 145.623 216.31 146.931 216.194 148.2L210.271 146.507C209.729 146.354 209.42 145.815 209.536 145.276C209.575 145.122 209.652 144.969 209.768 144.853L214.452 140.66C215.11 141.737 215.613 142.968 215.923 144.315ZM212.594 138.352L207.523 141.929C207.097 142.199 206.517 142.122 206.168 141.699C206.052 141.583 206.013 141.429 205.975 141.275L205.626 135.005C208.297 135.312 210.736 136.505 212.594 138.352ZM201.368 135.197C201.794 135.12 202.181 135.043 202.607 134.966L202.258 141.121C202.22 141.66 201.794 142.122 201.213 142.122C201.058 142.122 200.865 142.083 200.749 142.006L195.6 138.352C197.188 136.774 199.162 135.697 201.368 135.197ZM193.742 140.66L198.349 144.738C198.775 145.084 198.813 145.738 198.465 146.161C198.349 146.315 198.194 146.43 198 146.469L192 148.2C191.768 145.584 192.349 142.93 193.742 140.66ZM192.697 151.086L198.852 150.047C199.355 150.008 199.82 150.355 199.936 150.855C199.975 151.086 199.975 151.278 199.897 151.47L197.536 157.126C195.368 155.741 193.626 153.625 192.697 151.086ZM206.826 158.741C205.936 158.934 205.046 159.049 204.117 159.049C202.762 159.049 201.446 158.818 200.207 158.434L203.265 152.932C203.575 152.586 204.078 152.432 204.504 152.663C204.697 152.778 204.852 152.932 204.968 153.086L207.949 158.434C207.6 158.549 207.213 158.626 206.826 158.741ZM214.375 153.394C213.407 154.933 212.129 156.164 210.658 157.126L208.22 151.316C208.104 150.855 208.297 150.355 208.762 150.124C208.917 150.047 209.11 150.008 209.304 150.008L215.497 151.047C215.265 151.893 214.878 152.663 214.375 153.394Z" fill="white"/>
<g filter="url(#filter0_dd_1066_14676)">
<rect x="78" y="162" width="252" height="120" rx="4" fill="white"/>
</g>
<path d="M78 166C78 163.791 79.7909 162 82 162H326C328.209 162 330 163.791 330 166V168H78V166Z" fill="#4A796B"/>
<path d="M164.822 226H167.721V219.203H174.369V216.773H167.721V212.43H175.072V210H164.822V226ZM180.934 226.242C182.816 226.242 183.941 225.359 184.457 224.352H184.551V226H187.27V217.969C187.27 214.797 184.684 213.844 182.395 213.844C179.871 213.844 177.934 214.969 177.309 217.156L179.949 217.531C180.23 216.711 181.027 216.008 182.41 216.008C183.723 216.008 184.441 216.68 184.441 217.859V217.906C184.441 218.719 183.59 218.758 181.473 218.984C179.145 219.234 176.918 219.93 176.918 222.633C176.918 224.992 178.645 226.242 180.934 226.242ZM181.668 224.164C180.488 224.164 179.645 223.625 179.645 222.586C179.645 221.5 180.59 221.047 181.855 220.867C182.598 220.766 184.082 220.578 184.449 220.281V221.695C184.449 223.031 183.371 224.164 181.668 224.164ZM195.348 226.234C198.363 226.234 200.285 224.445 200.488 221.898H197.785C197.543 223.188 196.613 223.93 195.371 223.93C193.605 223.93 192.465 222.453 192.465 220C192.465 217.578 193.629 216.125 195.371 216.125C196.73 216.125 197.566 217 197.785 218.156H200.488C200.293 215.555 198.262 213.844 195.332 213.844C191.816 213.844 189.598 216.383 189.598 220.047C189.598 223.68 191.762 226.234 195.348 226.234ZM208.803 214H206.436V211.125H203.607V214H201.904V216.187H203.607V222.859C203.592 225.117 205.232 226.227 207.357 226.164C208.162 226.141 208.717 225.984 209.021 225.883L208.545 223.672C208.389 223.711 208.068 223.781 207.717 223.781C207.006 223.781 206.436 223.531 206.436 222.391V216.187H208.803V214ZM216.273 226.234C219.789 226.234 222.023 223.758 222.023 220.047C222.023 216.328 219.789 213.844 216.273 213.844C212.758 213.844 210.523 216.328 210.523 220.047C210.523 223.758 212.758 226.234 216.273 226.234ZM216.289 223.969C214.344 223.969 213.391 222.234 213.391 220.039C213.391 217.844 214.344 216.086 216.289 216.086C218.203 216.086 219.156 217.844 219.156 220.039C219.156 222.234 218.203 223.969 216.289 223.969ZM224.424 226H227.252V218.945C227.252 217.422 228.4 216.344 229.955 216.344C230.432 216.344 231.025 216.43 231.268 216.508V213.906C231.01 213.859 230.564 213.828 230.252 213.828C228.877 213.828 227.729 214.609 227.291 216H227.166V214H224.424V226ZM235.27 230.5C237.473 230.5 238.746 229.367 239.426 227.453L244.246 214.016L241.223 214L238.449 223.062H238.324L235.559 214H232.559L236.91 226.25L236.668 226.898C236.145 228.266 235.316 228.359 234.082 228L233.426 230.203C233.809 230.359 234.496 230.5 235.27 230.5Z" fill="#262424"/>
<path d="M162.414 245.42H164.107C164.056 243.557 162.408 242.205 160.045 242.205C157.71 242.205 155.92 243.54 155.92 245.545C155.92 247.165 157.079 248.114 158.948 248.619L160.323 248.994C161.567 249.324 162.528 249.733 162.528 250.767C162.528 251.903 161.442 252.653 159.948 252.653C158.596 252.653 157.471 252.051 157.369 250.784H155.607C155.721 252.892 157.352 254.193 159.96 254.193C162.692 254.193 164.266 252.756 164.266 250.784C164.266 248.688 162.397 247.875 160.92 247.511L159.783 247.216C158.874 246.983 157.664 246.557 157.67 245.443C157.67 244.455 158.573 243.722 160.005 243.722C161.34 243.722 162.289 244.347 162.414 245.42ZM169.904 254.176C171.967 254.176 173.302 252.938 173.489 251.239H171.836C171.62 252.182 170.887 252.739 169.915 252.739C168.478 252.739 167.552 251.54 167.552 249.636C167.552 247.767 168.495 246.591 169.915 246.591C170.995 246.591 171.654 247.273 171.836 248.091H173.489C173.308 246.33 171.87 245.159 169.887 245.159C167.427 245.159 165.836 247.011 165.836 249.676C165.836 252.307 167.37 254.176 169.904 254.176ZM177.846 254.193C179.289 254.193 180.102 253.46 180.425 252.807H180.494V254H182.153V248.205C182.153 245.665 180.153 245.159 178.766 245.159C177.187 245.159 175.732 245.795 175.164 247.386L176.761 247.75C177.011 247.131 177.647 246.534 178.789 246.534C179.886 246.534 180.448 247.108 180.448 248.097V248.136C180.448 248.756 179.812 248.744 178.244 248.926C176.59 249.119 174.897 249.551 174.897 251.534C174.897 253.25 176.187 254.193 177.846 254.193ZM178.215 252.83C177.255 252.83 176.562 252.398 176.562 251.557C176.562 250.648 177.369 250.324 178.352 250.193C178.903 250.119 180.21 249.972 180.454 249.727V250.852C180.454 251.886 179.63 252.83 178.215 252.83ZM186.114 242.364H184.415V254H186.114V242.364ZM192.161 254.176C194.065 254.176 195.411 253.239 195.798 251.818L194.19 251.528C193.883 252.352 193.144 252.773 192.178 252.773C190.724 252.773 189.746 251.83 189.701 250.148H195.906V249.545C195.906 246.392 194.019 245.159 192.042 245.159C189.61 245.159 188.008 247.011 188.008 249.693C188.008 252.403 189.587 254.176 192.161 254.176ZM189.707 248.875C189.775 247.636 190.673 246.562 192.053 246.562C193.371 246.562 194.235 247.54 194.241 248.875H189.707ZM204.565 254.193C206.008 254.193 206.82 253.46 207.144 252.807H207.212V254H208.871V248.205C208.871 245.665 206.871 245.159 205.485 245.159C203.906 245.159 202.451 245.795 201.883 247.386L203.479 247.75C203.729 247.131 204.366 246.534 205.508 246.534C206.604 246.534 207.167 247.108 207.167 248.097V248.136C207.167 248.756 206.531 248.744 204.962 248.926C203.309 249.119 201.616 249.551 201.616 251.534C201.616 253.25 202.906 254.193 204.565 254.193ZM204.934 252.83C203.974 252.83 203.281 252.398 203.281 251.557C203.281 250.648 204.087 250.324 205.07 250.193C205.621 250.119 206.928 249.972 207.173 249.727V250.852C207.173 251.886 206.349 252.83 204.934 252.83ZM214.793 257.455C217.015 257.455 218.731 256.438 218.731 254.193V245.273H217.066V246.688H216.941C216.64 246.148 216.038 245.159 214.413 245.159C212.305 245.159 210.754 246.824 210.754 249.602C210.754 252.386 212.339 253.869 214.401 253.869C216.004 253.869 216.623 252.966 216.93 252.409H217.038V254.125C217.038 255.494 216.1 256.085 214.81 256.085C213.396 256.085 212.844 255.375 212.543 254.875L211.083 255.477C211.543 256.545 212.708 257.455 214.793 257.455ZM214.776 252.46C213.259 252.46 212.469 251.295 212.469 249.58C212.469 247.903 213.242 246.602 214.776 246.602C216.259 246.602 217.055 247.812 217.055 249.58C217.055 251.381 216.242 252.46 214.776 252.46ZM224.771 254.176C226.674 254.176 228.021 253.239 228.407 251.818L226.799 251.528C226.492 252.352 225.754 252.773 224.788 252.773C223.333 252.773 222.356 251.83 222.31 250.148H228.515V249.545C228.515 246.392 226.629 245.159 224.651 245.159C222.219 245.159 220.617 247.011 220.617 249.693C220.617 252.403 222.197 254.176 224.771 254.176ZM222.316 248.875C222.384 247.636 223.282 246.562 224.663 246.562C225.981 246.562 226.844 247.54 226.85 248.875H222.316ZM232.099 248.818C232.099 247.426 232.951 246.631 234.133 246.631C235.286 246.631 235.985 247.386 235.985 248.653V254H237.684V248.449C237.684 246.29 236.496 245.159 234.712 245.159C233.4 245.159 232.542 245.767 232.138 246.693H232.031V245.273H230.4V254H232.099V248.818ZM244.036 245.273H242.246V243.182H240.548V245.273H239.269V246.636H240.548V251.79C240.542 253.375 241.752 254.142 243.093 254.114C243.633 254.108 243.996 254.006 244.195 253.932L243.888 252.528C243.775 252.551 243.565 252.602 243.292 252.602C242.741 252.602 242.246 252.42 242.246 251.438V246.636H244.036V245.273ZM252.315 247.403C251.962 246.045 250.9 245.159 249.013 245.159C247.042 245.159 245.644 246.199 245.644 247.744C245.644 248.983 246.394 249.807 248.031 250.17L249.508 250.494C250.349 250.682 250.741 251.057 250.741 251.602C250.741 252.278 250.019 252.807 248.906 252.807C247.888 252.807 247.235 252.369 247.031 251.511L245.388 251.761C245.673 253.307 246.957 254.176 248.917 254.176C251.025 254.176 252.485 253.057 252.485 251.477C252.485 250.244 251.701 249.483 250.099 249.114L248.712 248.795C247.752 248.568 247.337 248.244 247.343 247.653C247.337 246.983 248.065 246.506 249.031 246.506C250.087 246.506 250.576 247.091 250.775 247.676L252.315 247.403Z" fill="#6D6666"/>
<rect x="127" y="150" width="155" height="36" rx="4" fill="#4A796B"/>
<path d="M145.972 175L147.053 171.772H151.974L153.061 175H155.592L150.977 161.909H148.05L143.441 175H145.972ZM147.692 169.867L149.462 164.594H149.565L151.335 169.867H147.692ZM164.22 165.508H166.502C166.457 163.296 164.572 161.73 161.785 161.73C159.036 161.73 156.971 163.277 156.978 165.591C156.978 167.47 158.314 168.55 160.468 169.107L161.957 169.49C163.37 169.848 164.303 170.289 164.309 171.305C164.303 172.424 163.242 173.172 161.695 173.172C160.212 173.172 159.062 172.507 158.966 171.133H156.633C156.729 173.734 158.665 175.198 161.714 175.198C164.853 175.198 166.675 173.632 166.681 171.325C166.675 169.055 164.802 168.02 162.833 167.553L161.606 167.246C160.532 166.991 159.368 166.537 159.381 165.444C159.388 164.46 160.27 163.737 161.753 163.737C163.165 163.737 164.099 164.396 164.22 165.508ZM174.941 175L176.021 171.772H180.943L182.03 175H184.561L179.946 161.909H177.018L172.41 175H174.941ZM176.661 169.867L178.431 164.594H178.533L180.304 169.867H176.661ZM197.865 165.508H200.146C200.102 163.296 198.216 161.73 195.429 161.73C192.681 161.73 190.616 163.277 190.622 165.591C190.622 167.47 191.958 168.55 194.112 169.107L195.602 169.49C197.014 169.848 197.948 170.289 197.954 171.305C197.948 172.424 196.887 173.172 195.34 173.172C193.857 173.172 192.706 172.507 192.61 171.133H190.277C190.373 173.734 192.31 175.198 195.359 175.198C198.497 175.198 200.319 173.632 200.325 171.325C200.319 169.055 198.446 168.02 196.477 167.553L195.25 167.246C194.176 166.991 193.013 166.537 193.026 165.444C193.032 164.46 193.914 163.737 195.397 163.737C196.81 163.737 197.743 164.396 197.865 165.508ZM202.44 175H211.005V173.012H204.811V169.439H210.513V167.451H204.811V163.897H210.954V161.909H202.44V175ZM213.373 175H215.745V170.206H218.161L220.73 175H223.377L220.545 169.81C222.086 169.19 222.897 167.873 222.897 166.096C222.897 163.597 221.287 161.909 218.282 161.909H213.373V175ZM215.745 168.237V163.891H217.918C219.689 163.891 220.481 164.702 220.481 166.096C220.481 167.489 219.689 168.237 217.931 168.237H215.745ZM226.48 161.909H223.879L228.487 175H231.415L236.03 161.909H233.422L230.021 172.213H229.887L226.48 161.909ZM240.126 161.909H237.754V175H240.126V161.909ZM253.899 166.326C253.496 163.418 251.259 161.73 248.357 161.73C244.937 161.73 242.361 164.223 242.361 168.455C242.361 172.68 244.905 175.179 248.357 175.179C251.47 175.179 253.534 173.165 253.899 170.666L251.508 170.653C251.208 172.188 249.955 173.05 248.389 173.05C246.267 173.05 244.745 171.459 244.745 168.455C244.745 165.501 246.254 163.859 248.395 163.859C249.987 163.859 251.233 164.76 251.508 166.326H253.899ZM256.07 175H264.636V173.012H258.442V169.439H264.144V167.451H258.442V163.897H264.585V161.909H256.07V175Z" fill="white"/>
<path d="M922.444 189.643L914.601 191.336C910.58 192.167 910.959 193.512 911.236 208.002C911.366 214.83 909.746 224.273 913.531 223.244C913.888 222.887 924.583 219.768 924.583 219.768C926.942 216.69 931.338 195.566 922.444 189.643V189.643Z" fill="#585858"/>
<path d="M967.23 203.124L966.517 213.462C965.274 216.953 955.033 217.084 954.128 213.551C954.228 210.105 954.236 206.659 954.218 203.213L967.23 203.124Z" fill="#5A5A5A"/>
<path d="M919.622 205.293V210.311C919.622 210.311 920.803 214.739 920.36 215.773C919.917 216.806 916.965 222.562 916.965 222.562L923.312 220.643L925.378 215.33L927.149 209.278L919.622 205.293Z" fill="url(#paint0_linear_1066_14676)"/>
<path d="M923.781 211.657L954.44 213.529C957.337 211.389 957.804 208.387 954.351 203.992L923.157 200.784C918.568 202.537 918.811 212.222 923.781 211.657V211.657Z" fill="#4D4D4D"/>
<path d="M960.768 204.527C957.175 204.527 954.262 203.948 954.262 203.235C954.262 202.521 957.175 201.942 960.768 201.942C964.361 201.942 967.274 202.521 967.274 203.235C967.274 203.948 964.361 204.527 960.768 204.527Z" fill="#818181"/>
<path d="M966.918 202.656L966.74 190.089L954.44 180.73L954.53 203.101C957.168 203.758 961.943 204.928 966.918 202.656H966.918Z" fill="#737373"/>
<path d="M1013.41 175.027C1016.93 177.26 1010.87 189.58 1009.08 195.943L1007.87 196.215L953.936 164.579L958.007 158.602L1013.41 175.027Z" fill="#202020"/>
<path opacity="0.668471" d="M931.562 201.672C944.151 204.185 953.024 207.96 956.082 212.133C959.567 214.237 962.819 213.907 966.742 213.732L967.275 203.538L965.01 194.809L954.219 186.351C954.219 186.351 954.6 202.472 954.4 202.805C953.917 203.279 954.047 203.903 954.047 203.903C951.575 203.79 937.085 202.224 931.562 201.672H931.562Z" fill="url(#paint1_linear_1066_14676)"/>
<path d="M1012.73 174.939C1016.02 177.437 1009.64 189.649 1007.84 196.012L952.704 164.648L959.66 154.974L1012.73 174.939Z" fill="#3B3B3B"/>
<path d="M959.702 156.507C960.155 156.498 960.57 156.611 960.917 156.82C960.919 156.821 960.92 156.824 960.922 156.825C961.865 157.222 1002.91 174.523 1003.53 174.488L967.311 203.914L933.804 175.85C933.802 175.849 933.801 175.847 933.799 175.846C932.879 175.365 932.349 174.237 932.526 172.865L933.941 161.931C934.188 160.018 935.707 158.377 937.351 158.248L959.553 156.515C959.604 156.511 959.652 156.508 959.702 156.507Z" fill="#A0A0A0"/>
<path d="M971.64 176.288L1001.48 173.856C1003.68 173.676 1005.22 175.931 1004.91 178.892L1003.14 195.872C1002.83 198.833 1000.8 201.378 998.594 201.558L968.753 203.99C966.55 204.17 965.015 201.915 965.323 198.955L967.093 181.974C967.401 179.014 969.437 176.468 971.64 176.288Z" fill="#7B7B7B"/>
<path d="M974.082 178.578L998.515 176.587C1000.32 176.439 1001.58 178.285 1001.32 180.71L999.875 194.612C999.622 197.037 997.955 199.121 996.151 199.268L971.719 201.259C969.915 201.406 968.658 199.56 968.91 197.136L970.359 183.234C970.612 180.809 972.279 178.725 974.082 178.578Z" fill="url(#paint2_linear_1066_14676)"/>
<path d="M974.33 178.769L997.274 176.869C998.968 176.728 1000.15 178.49 999.912 180.803L998.551 194.069C998.314 196.382 996.749 198.371 995.055 198.511L972.111 200.412C970.417 200.552 969.236 198.791 969.474 196.477L970.834 183.211C971.071 180.898 972.637 178.909 974.33 178.769Z" fill="#494949"/>
<path d="M1004.19 185.748C1004.19 185.748 986.24 185.247 977.534 187.075C976.186 187.358 974.85 187.833 973.671 188.546C971.033 190.143 966.475 196.009 966.475 196.009L965.509 196.275L969.007 178.152L1004.85 175.887L1004.19 185.748Z" fill="url(#paint3_linear_1066_14676)"/>
<path d="M959.776 155.515C960.279 155.505 960.74 155.63 961.126 155.863C961.126 155.865 961.126 155.866 961.135 155.868C962.071 156.263 1003.57 171.639 1012.82 174.957C1013.93 175.354 1014.12 175.884 1014.2 175.879C1014.2 175.879 992.163 176.35 979.242 177.514C976.948 177.721 974.008 178.432 973.014 180.511C971.041 184.638 969.061 192.86 968.815 192.715L967.598 192.766L931.159 165.529L931.169 161.539C931.443 159.415 933.131 157.592 934.956 157.449L959.615 155.525C959.673 155.52 959.725 155.516 959.781 155.515L959.776 155.515Z" fill="#202020"/>
<g filter="url(#filter1_f_1066_14676)">
<path d="M965.543 197.141C964.543 196.942 932.761 170.823 932.761 170.823L933.96 163.827L967.675 181.417L965.543 197.141Z" fill="url(#paint4_linear_1066_14676)"/>
</g>
<path d="M958.8 154.642C959.304 154.632 959.764 154.758 960.15 154.99C960.15 154.992 960.15 154.994 960.16 154.996C961.207 155.438 1012.91 175.024 1013.6 174.986C1013.6 174.986 991.187 175.477 978.266 176.641C975.972 176.848 973.032 177.56 972.038 179.638C970.065 183.766 967.761 192.965 967.514 192.82L930.184 164.656L930.193 160.667C930.467 158.542 932.155 156.719 933.981 156.577L958.64 154.652C958.697 154.648 958.749 154.644 958.805 154.643L958.8 154.642Z" fill="#6E6E6E"/>
<path d="M984.865 197.874C979.419 197.874 975.243 193.519 975.537 188.146C975.831 182.774 980.485 178.418 985.931 178.418C991.377 178.418 995.554 182.774 995.259 188.146C994.965 193.519 990.311 197.874 984.865 197.874Z" fill="#121212"/>
<path opacity="0.668471" d="M984.071 196.895C979.36 196.895 975.747 193.127 976.002 188.48C976.256 183.832 980.282 180.064 984.993 180.064C989.705 180.064 993.317 183.832 993.063 188.48C992.808 193.127 988.782 196.895 984.071 196.895Z" fill="url(#paint5_radial_1066_14676)"/>
<path d="M974.632 199.283C972.951 199.283 971.588 197.92 971.588 196.239C971.588 194.558 972.951 193.195 974.632 193.195C976.313 193.195 977.676 194.558 977.676 196.239C977.676 197.92 976.313 199.283 974.632 199.283Z" fill="url(#paint6_linear_1066_14676)"/>
<path d="M974.399 198.783C972.994 198.783 971.854 197.644 971.854 196.239C971.854 194.834 972.994 193.695 974.399 193.695C975.804 193.695 976.943 194.834 976.943 196.239C976.943 197.644 975.804 198.783 974.399 198.783Z" fill="url(#paint7_radial_1066_14676)"/>
<path d="M975.902 195.998C975.619 196.153 975.197 195.925 974.959 195.489C974.72 195.053 974.756 194.574 975.038 194.42C975.321 194.265 975.743 194.493 975.982 194.929C976.22 195.365 976.184 195.844 975.902 195.998Z" fill="#FF3636" fill-opacity="0.428571"/>
<path opacity="0.668471" d="M984.199 195.885L983.492 192.492C985.227 192.005 986.999 191.771 988.251 188.064C988.251 188.064 992.35 187.969 992.302 188.158C992.365 191.67 988.867 195.977 984.199 195.885V195.885Z" fill="url(#paint8_linear_1066_14676)"/>
<path d="M982.584 174.988C982.584 174.988 967.346 172.066 965.885 171.44C964.424 170.814 964.149 169.172 960.101 168.151C956.023 167.122 952.949 164.811 952.949 164.811L947.098 161.838L937.287 156.411L932.487 157.246C932.487 157.246 930.399 158.081 930.399 159.124C930.399 160.168 929.773 164.134 929.773 164.134L967.555 192.731L971.312 179.789L974.026 177.076L982.584 174.988Z" fill="url(#paint9_linear_1066_14676)"/>
<path d="M1012.91 174.739L959.917 155.109L958.305 154.914L949.584 156.142L946.78 155.847C946.78 155.847 943.385 156.732 945.894 157.47C948.404 158.208 955.489 157.765 956.817 157.913C958.145 158.061 960.802 158.503 961.983 159.241C963.164 159.979 964.64 160.865 965.378 161.308C966.116 161.751 969.658 162.489 971.577 162.784C973.496 163.079 975.415 162.636 976.596 163.965C977.776 165.293 978.367 167.507 979.843 168.097C981.319 168.688 984.418 168.688 985.894 168.54C987.37 168.393 988.108 168.097 988.699 168.245C989.289 168.393 991.503 168.393 992.684 168.688C993.865 168.983 996.226 170.607 999.916 171.492C1003.61 172.378 1012.91 174.739 1012.91 174.739V174.739Z" fill="#656565" fill-opacity="0.579439"/>
<path d="M984.271 176.068H978.219C978.219 176.068 973.348 176.511 971.577 175.625C969.806 174.74 965.082 173.116 964.492 172.526C963.902 171.935 960.064 171.345 959.326 171.493C958.588 171.64 957.702 172.231 957.555 173.707C957.407 175.183 953.717 176.068 953.717 176.068C953.717 176.068 953.717 180.201 953.865 180.939C954.012 181.677 950.913 181.677 950.322 178.577C949.732 175.478 951.503 173.411 951.651 172.083C951.798 170.755 951.503 169.721 951.503 168.836C951.503 167.95 952.979 165.293 953.127 164.408C953.274 163.522 955.341 165.588 956.226 166.326C957.112 167.064 959.916 168.245 961.54 168.54C963.164 168.836 964.344 169.279 967.592 170.164C970.839 171.05 967.444 171.493 972.905 171.788C978.367 172.083 985.451 173.264 986.927 173.411C988.403 173.559 989.879 173.264 993.569 173.264C997.259 173.264 1013.05 174.887 1013.05 174.887L984.271 176.068Z" fill="#656565" fill-opacity="0.579439"/>
<path d="M924.444 397.643L916.601 399.336C912.58 400.167 912.959 401.512 913.236 416.002C913.366 422.83 911.746 432.273 915.531 431.244C915.888 430.887 926.583 427.768 926.583 427.768C928.942 424.69 933.338 403.566 924.444 397.643V397.643Z" fill="#585858"/>
<path d="M969.23 411.124L968.517 421.462C967.274 424.953 957.033 425.084 956.128 421.551C956.228 418.105 956.236 414.659 956.218 411.213L969.23 411.124Z" fill="#5A5A5A"/>
<path d="M921.622 413.293V418.311C921.622 418.311 922.803 422.739 922.36 423.773C921.917 424.806 918.965 430.562 918.965 430.562L925.312 428.643L927.378 423.33L929.149 417.278L921.622 413.293Z" fill="url(#paint10_linear_1066_14676)"/>
<path d="M925.781 419.657L956.44 421.529C959.337 419.389 959.804 416.387 956.351 411.992L925.157 408.784C920.568 410.537 920.811 420.222 925.781 419.657V419.657Z" fill="#4D4D4D"/>
<path d="M962.768 412.527C959.175 412.527 956.262 411.948 956.262 411.235C956.262 410.521 959.175 409.942 962.768 409.942C966.361 409.942 969.274 410.521 969.274 411.235C969.274 411.948 966.361 412.527 962.768 412.527Z" fill="#818181"/>
<path d="M968.918 410.656L968.74 398.089L956.44 388.73L956.53 411.101C959.168 411.758 963.943 412.928 968.918 410.656H968.918Z" fill="#737373"/>
<path d="M1015.41 383.027C1018.93 385.26 1012.87 397.58 1011.08 403.943L1009.87 404.215L955.936 372.579L960.007 366.602L1015.41 383.027Z" fill="#202020"/>
<path opacity="0.668471" d="M933.562 409.672C946.151 412.185 955.024 415.96 958.082 420.133C961.567 422.237 964.819 421.907 968.742 421.732L969.275 411.538L967.01 402.809L956.219 394.351C956.219 394.351 956.6 410.472 956.4 410.805C955.917 411.279 956.047 411.903 956.047 411.903C953.575 411.79 939.085 410.224 933.562 409.672H933.562Z" fill="url(#paint11_linear_1066_14676)"/>
<path d="M1014.73 382.939C1018.02 385.437 1011.64 397.649 1009.84 404.012L954.704 372.648L961.66 362.974L1014.73 382.939Z" fill="#3B3B3B"/>
<path d="M961.702 364.507C962.155 364.498 962.57 364.611 962.917 364.82C962.919 364.821 962.92 364.824 962.922 364.825C963.865 365.222 1004.91 382.523 1005.53 382.488L969.311 411.914L935.804 383.85C935.802 383.849 935.801 383.847 935.799 383.846C934.879 383.365 934.349 382.237 934.526 380.865L935.941 369.931C936.188 368.018 937.707 366.377 939.351 366.248L961.553 364.515C961.604 364.511 961.652 364.508 961.702 364.507Z" fill="#A0A0A0"/>
<path d="M973.64 384.288L1003.48 381.856C1005.68 381.676 1007.22 383.931 1006.91 386.892L1005.14 403.872C1004.83 406.833 1002.8 409.378 1000.59 409.558L970.753 411.99C968.55 412.17 967.015 409.915 967.323 406.955L969.093 389.974C969.401 387.014 971.437 384.468 973.64 384.288Z" fill="#7B7B7B"/>
<path d="M976.082 386.578L1000.51 384.587C1002.32 384.439 1003.58 386.285 1003.32 388.71L1001.87 402.612C1001.62 405.037 999.955 407.121 998.151 407.268L973.719 409.259C971.915 409.406 970.658 407.56 970.91 405.136L972.359 391.234C972.612 388.809 974.279 386.725 976.082 386.578Z" fill="url(#paint12_linear_1066_14676)"/>
<path d="M976.33 386.769L999.274 384.869C1000.97 384.728 1002.15 386.49 1001.91 388.803L1000.55 402.069C1000.31 404.382 998.749 406.371 997.055 406.511L974.111 408.412C972.417 408.552 971.236 406.791 971.474 404.477L972.834 391.211C973.071 388.898 974.637 386.909 976.33 386.769Z" fill="#494949"/>
<path d="M1006.19 393.748C1006.19 393.748 988.24 393.247 979.534 395.075C978.186 395.358 976.85 395.833 975.671 396.546C973.033 398.143 968.475 404.009 968.475 404.009L967.509 404.275L971.007 386.152L1006.85 383.887L1006.19 393.748Z" fill="url(#paint13_linear_1066_14676)"/>
<path d="M961.776 363.515C962.279 363.505 962.74 363.63 963.126 363.863C963.126 363.865 963.126 363.866 963.135 363.868C964.071 364.263 1005.57 379.639 1014.82 382.957C1015.93 383.354 1016.12 383.884 1016.2 383.879C1016.2 383.879 994.163 384.35 981.242 385.514C978.948 385.721 976.008 386.432 975.014 388.511C973.041 392.638 971.061 400.86 970.815 400.715L969.598 400.766L933.159 373.529L933.169 369.539C933.443 367.415 935.131 365.592 936.956 365.449L961.615 363.525C961.673 363.52 961.725 363.516 961.781 363.515L961.776 363.515Z" fill="#202020"/>
<g filter="url(#filter2_f_1066_14676)">
<path d="M967.543 405.141C966.543 404.942 934.761 378.823 934.761 378.823L935.96 371.827L969.675 389.417L967.543 405.141Z" fill="url(#paint14_linear_1066_14676)"/>
</g>
<path d="M960.8 362.642C961.304 362.632 961.764 362.758 962.15 362.99C962.15 362.992 962.15 362.994 962.16 362.996C963.207 363.438 1014.91 383.024 1015.6 382.986C1015.6 382.986 993.187 383.477 980.266 384.641C977.972 384.848 975.032 385.56 974.038 387.638C972.065 391.766 969.761 400.965 969.514 400.82L932.184 372.656L932.193 368.667C932.467 366.542 934.155 364.719 935.981 364.577L960.64 362.652C960.697 362.648 960.749 362.644 960.805 362.643L960.8 362.642Z" fill="#6E6E6E"/>
<path d="M986.865 405.874C981.419 405.874 977.243 401.519 977.537 396.146C977.831 390.774 982.485 386.418 987.931 386.418C993.377 386.418 997.554 390.774 997.259 396.146C996.965 401.519 992.311 405.874 986.865 405.874Z" fill="#121212"/>
<path opacity="0.668471" d="M986.071 404.895C981.36 404.895 977.747 401.127 978.002 396.48C978.256 391.832 982.282 388.064 986.993 388.064C991.705 388.064 995.317 391.832 995.063 396.48C994.808 401.127 990.782 404.895 986.071 404.895Z" fill="url(#paint15_radial_1066_14676)"/>
<path d="M976.632 407.283C974.951 407.283 973.588 405.92 973.588 404.239C973.588 402.558 974.951 401.195 976.632 401.195C978.313 401.195 979.676 402.558 979.676 404.239C979.676 405.92 978.313 407.283 976.632 407.283Z" fill="url(#paint16_linear_1066_14676)"/>
<path d="M976.399 406.783C974.994 406.783 973.854 405.644 973.854 404.239C973.854 402.834 974.994 401.695 976.399 401.695C977.804 401.695 978.943 402.834 978.943 404.239C978.943 405.644 977.804 406.783 976.399 406.783Z" fill="url(#paint17_radial_1066_14676)"/>
<path d="M977.902 403.998C977.619 404.153 977.197 403.925 976.959 403.489C976.72 403.053 976.756 402.574 977.038 402.42C977.321 402.265 977.743 402.493 977.982 402.929C978.22 403.365 978.184 403.844 977.902 403.998Z" fill="#FF3636" fill-opacity="0.428571"/>
<path opacity="0.668471" d="M986.199 403.885L985.492 400.492C987.227 400.005 988.999 399.771 990.251 396.064C990.251 396.064 994.35 395.969 994.302 396.158C994.365 399.67 990.867 403.977 986.199 403.885V403.885Z" fill="url(#paint18_linear_1066_14676)"/>
<path d="M984.584 382.988C984.584 382.988 969.346 380.066 967.885 379.44C966.424 378.814 966.149 377.172 962.101 376.151C958.023 375.122 954.949 372.811 954.949 372.811L949.098 369.838L939.287 364.411L934.487 365.246C934.487 365.246 932.399 366.081 932.399 367.124C932.399 368.168 931.773 372.134 931.773 372.134L969.555 400.731L973.312 387.789L976.026 385.076L984.584 382.988Z" fill="url(#paint19_linear_1066_14676)"/>
<path d="M1014.91 382.739L961.917 363.109L960.305 362.914L951.584 364.142L948.78 363.847C948.78 363.847 945.385 364.732 947.894 365.47C950.404 366.208 957.489 365.765 958.817 365.913C960.145 366.061 962.802 366.503 963.983 367.241C965.164 367.979 966.64 368.865 967.378 369.308C968.116 369.751 971.658 370.489 973.577 370.784C975.496 371.079 977.415 370.636 978.596 371.965C979.776 373.293 980.367 375.507 981.843 376.097C983.319 376.688 986.418 376.688 987.894 376.54C989.37 376.393 990.108 376.097 990.699 376.245C991.289 376.393 993.503 376.393 994.684 376.688C995.865 376.983 998.226 378.607 1001.92 379.492C1005.61 380.378 1014.91 382.739 1014.91 382.739V382.739Z" fill="#656565" fill-opacity="0.579439"/>
<path d="M986.271 384.068H980.219C980.219 384.068 975.348 384.511 973.577 383.625C971.806 382.74 967.082 381.116 966.492 380.526C965.902 379.935 962.064 379.345 961.326 379.493C960.588 379.64 959.702 380.231 959.555 381.707C959.407 383.183 955.717 384.068 955.717 384.068C955.717 384.068 955.717 388.201 955.865 388.939C956.012 389.677 952.913 389.677 952.322 386.577C951.732 383.478 953.503 381.411 953.651 380.083C953.798 378.755 953.503 377.721 953.503 376.836C953.503 375.95 954.979 373.293 955.127 372.408C955.274 371.522 957.341 373.588 958.226 374.326C959.112 375.064 961.916 376.245 963.54 376.54C965.164 376.836 966.344 377.279 969.592 378.164C972.839 379.05 969.444 379.493 974.905 379.788C980.367 380.083 987.451 381.264 988.927 381.411C990.403 381.559 991.879 381.264 995.569 381.264C999.259 381.264 1015.05 382.887 1015.05 382.887L986.271 384.068Z" fill="#656565" fill-opacity="0.579439"/>
<path d="M920.444 289.643L912.601 291.336C908.58 292.167 908.959 293.512 909.236 308.002C909.366 314.83 907.746 324.273 911.531 323.244C911.888 322.887 922.583 319.768 922.583 319.768C924.942 316.69 929.338 295.566 920.444 289.643V289.643Z" fill="#585858"/>
<path d="M965.23 303.124L964.517 313.462C963.274 316.953 953.033 317.084 952.128 313.551C952.228 310.105 952.236 306.659 952.218 303.213L965.23 303.124Z" fill="#5A5A5A"/>
<path d="M917.622 305.293V310.311C917.622 310.311 918.803 314.739 918.36 315.773C917.917 316.806 914.965 322.562 914.965 322.562L921.312 320.643L923.378 315.33L925.149 309.278L917.622 305.293Z" fill="url(#paint20_linear_1066_14676)"/>
<path d="M921.781 311.657L952.44 313.529C955.337 311.389 955.804 308.387 952.351 303.992L921.157 300.784C916.568 302.537 916.811 312.222 921.781 311.657V311.657Z" fill="#4D4D4D"/>
<path d="M958.768 304.527C955.175 304.527 952.262 303.948 952.262 303.235C952.262 302.521 955.175 301.942 958.768 301.942C962.361 301.942 965.274 302.521 965.274 303.235C965.274 303.948 962.361 304.527 958.768 304.527Z" fill="#818181"/>
<path d="M964.918 302.656L964.74 290.089L952.44 280.73L952.53 303.101C955.168 303.758 959.943 304.928 964.918 302.656H964.918Z" fill="#737373"/>
<path d="M1011.41 275.027C1014.93 277.26 1008.87 289.58 1007.08 295.943L1005.87 296.215L951.936 264.579L956.007 258.602L1011.41 275.027Z" fill="#202020"/>
<path opacity="0.668471" d="M929.562 301.672C942.151 304.185 951.024 307.96 954.082 312.133C957.567 314.237 960.819 313.907 964.742 313.732L965.275 303.538L963.01 294.809L952.219 286.351C952.219 286.351 952.6 302.472 952.4 302.805C951.917 303.279 952.047 303.903 952.047 303.903C949.575 303.79 935.085 302.224 929.562 301.672H929.562Z" fill="url(#paint21_linear_1066_14676)"/>
<path d="M1010.73 274.939C1014.02 277.437 1007.64 289.649 1005.84 296.012L950.704 264.648L957.66 254.974L1010.73 274.939Z" fill="#3B3B3B"/>
<path d="M957.702 256.507C958.155 256.498 958.57 256.611 958.917 256.82C958.919 256.821 958.92 256.824 958.922 256.825C959.865 257.222 1000.91 274.523 1001.53 274.488L965.311 303.914L931.804 275.85C931.802 275.849 931.801 275.847 931.799 275.846C930.879 275.365 930.349 274.237 930.526 272.865L931.941 261.931C932.188 260.018 933.707 258.377 935.351 258.248L957.553 256.515C957.604 256.511 957.652 256.508 957.702 256.507Z" fill="#A0A0A0"/>
<path d="M969.64 276.288L999.481 273.856C1001.68 273.676 1003.22 275.931 1002.91 278.892L1001.14 295.872C1000.83 298.833 998.797 301.378 996.594 301.558L966.753 303.99C964.55 304.17 963.015 301.915 963.323 298.955L965.093 281.974C965.401 279.014 967.437 276.468 969.64 276.288Z" fill="#7B7B7B"/>
<path d="M972.082 278.578L996.515 276.587C998.319 276.439 999.576 278.285 999.323 280.71L997.875 294.612C997.622 297.037 995.955 299.121 994.151 299.268L969.719 301.259C967.915 301.406 966.658 299.56 966.91 297.136L968.359 283.234C968.612 280.809 970.279 278.725 972.082 278.578Z" fill="url(#paint22_linear_1066_14676)"/>
<path d="M972.33 278.769L995.274 276.869C996.968 276.728 998.149 278.49 997.912 280.803L996.551 294.069C996.314 296.382 994.749 298.371 993.055 298.511L970.111 300.412C968.417 300.552 967.236 298.791 967.474 296.477L968.834 283.211C969.071 280.898 970.637 278.909 972.33 278.769Z" fill="#494949"/>
<path d="M1002.19 285.748C1002.19 285.748 984.24 285.247 975.534 287.075C974.186 287.358 972.85 287.833 971.671 288.546C969.033 290.143 964.475 296.009 964.475 296.009L963.509 296.275L967.007 278.152L1002.85 275.887L1002.19 285.748Z" fill="url(#paint23_linear_1066_14676)"/>
<path d="M957.776 255.515C958.279 255.505 958.74 255.63 959.126 255.863C959.126 255.865 959.126 255.866 959.135 255.868C960.071 256.263 1001.57 271.639 1010.82 274.957C1011.93 275.354 1012.12 275.884 1012.2 275.879C1012.2 275.879 990.163 276.35 977.242 277.514C974.948 277.721 972.008 278.432 971.014 280.511C969.041 284.638 967.061 292.86 966.815 292.715L965.598 292.766L929.159 265.529L929.169 261.539C929.443 259.415 931.131 257.592 932.956 257.449L957.615 255.525C957.673 255.52 957.725 255.516 957.781 255.515L957.776 255.515Z" fill="#202020"/>
<g filter="url(#filter3_f_1066_14676)">
<path d="M963.543 297.141C962.543 296.942 930.761 270.823 930.761 270.823L931.96 263.827L965.675 281.417L963.543 297.141Z" fill="url(#paint24_linear_1066_14676)"/>
</g>
<path d="M956.8 254.642C957.304 254.632 957.764 254.758 958.15 254.99C958.15 254.992 958.15 254.994 958.16 254.996C959.207 255.438 1010.91 275.024 1011.6 274.986C1011.6 274.986 989.187 275.477 976.266 276.641C973.972 276.848 971.032 277.56 970.038 279.638C968.065 283.766 965.761 292.965 965.514 292.82L928.184 264.656L928.193 260.667C928.467 258.542 930.155 256.719 931.981 256.577L956.64 254.652C956.697 254.648 956.749 254.644 956.805 254.643L956.8 254.642Z" fill="#6E6E6E"/>
<path d="M982.865 297.874C977.419 297.874 973.243 293.519 973.537 288.146C973.831 282.774 978.485 278.418 983.931 278.418C989.377 278.418 993.554 282.774 993.259 288.146C992.965 293.519 988.311 297.874 982.865 297.874Z" fill="#121212"/>
<path opacity="0.668471" d="M982.071 296.895C977.36 296.895 973.747 293.127 974.002 288.48C974.256 283.832 978.282 280.064 982.993 280.064C987.705 280.064 991.317 283.832 991.063 288.48C990.808 293.127 986.782 296.895 982.071 296.895Z" fill="url(#paint25_radial_1066_14676)"/>
<path d="M972.632 299.283C970.951 299.283 969.588 297.92 969.588 296.239C969.588 294.558 970.951 293.195 972.632 293.195C974.313 293.195 975.676 294.558 975.676 296.239C975.676 297.92 974.313 299.283 972.632 299.283Z" fill="url(#paint26_linear_1066_14676)"/>
<path d="M972.399 298.783C970.994 298.783 969.854 297.644 969.854 296.239C969.854 294.834 970.994 293.695 972.399 293.695C973.804 293.695 974.943 294.834 974.943 296.239C974.943 297.644 973.804 298.783 972.399 298.783Z" fill="url(#paint27_radial_1066_14676)"/>
<path d="M973.902 295.998C973.619 296.153 973.197 295.925 972.959 295.489C972.72 295.053 972.756 294.574 973.038 294.42C973.321 294.265 973.743 294.493 973.982 294.929C974.22 295.365 974.184 295.844 973.902 295.998Z" fill="#FF3636" fill-opacity="0.428571"/>
<path opacity="0.668471" d="M982.199 295.885L981.492 292.492C983.227 292.005 984.999 291.771 986.251 288.064C986.251 288.064 990.35 287.969 990.302 288.158C990.365 291.67 986.867 295.977 982.199 295.885V295.885Z" fill="url(#paint28_linear_1066_14676)"/>
<path d="M980.584 274.988C980.584 274.988 965.346 272.066 963.885 271.44C962.424 270.814 962.149 269.172 958.101 268.151C954.023 267.122 950.949 264.811 950.949 264.811L945.098 261.838L935.287 256.411L930.487 257.246C930.487 257.246 928.399 258.081 928.399 259.124C928.399 260.168 927.773 264.134 927.773 264.134L965.555 292.731L969.312 279.789L972.026 277.076L980.584 274.988Z" fill="url(#paint29_linear_1066_14676)"/>
<path d="M1010.91 274.739L957.917 255.109L956.305 254.914L947.584 256.142L944.78 255.847C944.78 255.847 941.385 256.732 943.894 257.47C946.404 258.208 953.489 257.765 954.817 257.913C956.145 258.061 958.802 258.503 959.983 259.241C961.164 259.979 962.64 260.865 963.378 261.308C964.116 261.751 967.658 262.489 969.577 262.784C971.496 263.079 973.415 262.636 974.596 263.965C975.776 265.293 976.367 267.507 977.843 268.097C979.319 268.688 982.418 268.688 983.894 268.54C985.37 268.393 986.108 268.097 986.699 268.245C987.289 268.393 989.503 268.393 990.684 268.688C991.865 268.983 994.226 270.607 997.916 271.492C1001.61 272.378 1010.91 274.739 1010.91 274.739V274.739Z" fill="#656565" fill-opacity="0.579439"/>
<path d="M982.271 276.068H976.219C976.219 276.068 971.348 276.511 969.577 275.625C967.806 274.74 963.082 273.116 962.492 272.526C961.902 271.935 958.064 271.345 957.326 271.493C956.588 271.64 955.702 272.231 955.555 273.707C955.407 275.183 951.717 276.068 951.717 276.068C951.717 276.068 951.717 280.201 951.865 280.939C952.012 281.677 948.913 281.677 948.322 278.577C947.732 275.478 949.503 273.411 949.651 272.083C949.798 270.755 949.503 269.721 949.503 268.836C949.503 267.95 950.979 265.293 951.127 264.408C951.274 263.522 953.341 265.588 954.226 266.326C955.112 267.064 957.916 268.245 959.54 268.54C961.164 268.836 962.344 269.279 965.592 270.164C968.839 271.05 965.444 271.493 970.905 271.788C976.367 272.083 983.451 273.264 984.927 273.411C986.403 273.559 987.879 273.264 991.569 273.264C995.259 273.264 1011.05 274.887 1011.05 274.887L982.271 276.068Z" fill="#656565" fill-opacity="0.579439"/>
<g filter="url(#filter4_dd_1066_14676)">
<rect x="34" y="306.55" width="149.295" height="69.0046" rx="4" fill="white"/>
</g>
<path d="M34 310C34 308.095 35.5447 306.55 37.4502 306.55H179.845C181.751 306.55 183.295 308.095 183.295 310V310H34V310Z" fill="#4A796B"/>
<path d="M80.93 354.401L82.2503 350.456H88.2659L89.594 354.401H92.6878L87.0472 338.401H83.469L77.8362 354.401H80.93ZM83.0315 348.128L85.1956 341.683H85.3206L87.4846 348.128H83.0315ZM99.5237 359.151C102.766 359.151 105.157 357.667 105.157 354.597V342.401H102.367V344.386H102.211C101.782 343.519 100.883 342.245 98.7659 342.245C95.9925 342.245 93.8128 344.417 93.8128 348.362C93.8128 352.276 95.9925 354.229 98.7581 354.229C100.813 354.229 101.774 353.128 102.211 352.245H102.352V354.519C102.352 356.284 101.18 357.011 99.5706 357.011C97.8675 357.011 97.1175 356.206 96.7737 355.503L94.2268 356.12C94.7425 357.8 96.469 359.151 99.5237 359.151ZM99.5472 352.011C97.68 352.011 96.6956 350.558 96.6956 348.347C96.6956 346.167 97.6643 344.565 99.5472 344.565C101.367 344.565 102.367 346.073 102.367 348.347C102.367 350.636 101.352 352.011 99.5472 352.011ZM113.367 354.636C116.164 354.636 118.086 353.269 118.586 351.183L115.946 350.886C115.563 351.901 114.625 352.433 113.407 352.433C111.578 352.433 110.367 351.229 110.344 349.175H118.703V348.308C118.703 344.097 116.172 342.245 113.219 342.245C109.782 342.245 107.539 344.769 107.539 348.472C107.539 352.237 109.75 354.636 113.367 354.636ZM110.352 347.269C110.438 345.737 111.571 344.448 113.258 344.448C114.883 344.448 115.977 345.636 115.992 347.269H110.352ZM123.924 347.37C123.924 345.636 124.971 344.636 126.463 344.636C127.924 344.636 128.799 345.597 128.799 347.198V354.401H131.627V346.761C131.635 343.886 129.994 342.245 127.518 342.245C125.721 342.245 124.487 343.104 123.94 344.44H123.799V342.401H121.096V354.401H123.924V347.37ZM140.494 342.401H138.127V339.526H135.299V342.401H133.596V344.589H135.299V351.261C135.283 353.519 136.924 354.628 139.049 354.565C139.854 354.542 140.408 354.386 140.713 354.284L140.237 352.073C140.08 352.112 139.76 352.183 139.408 352.183C138.698 352.183 138.127 351.933 138.127 350.792V344.589H140.494V342.401Z" fill="#262424"/>
<rect x="55.4443" y="292" width="107" height="36" rx="4" fill="#4A796B"/>
<path d="M72.7355 317H75.107V312.206H77.5232L80.0928 317H82.7391L79.9074 311.81C81.4479 311.19 82.2597 309.873 82.2597 308.096C82.2597 305.597 80.6489 303.909 77.6446 303.909H72.7355V317ZM75.107 310.237V305.891H77.2803C79.0509 305.891 79.8435 306.702 79.8435 308.096C79.8435 309.489 79.0509 310.237 77.2931 310.237H75.107ZM84.4426 317H93.0079V315.012H86.814V311.439H92.5157V309.451H86.814V305.897H92.9568V303.909H84.4426V317ZM106.581 308.326C106.179 305.418 103.941 303.73 101.04 303.73C97.6198 303.73 95.0438 306.223 95.0438 310.455C95.0438 314.68 97.5878 317.179 101.04 317.179C104.152 317.179 106.217 315.165 106.581 312.666L104.191 312.653C103.89 314.188 102.638 315.05 101.071 315.05C98.9493 315.05 97.428 313.459 97.428 310.455C97.428 307.501 98.9365 305.859 101.078 305.859C102.669 305.859 103.916 306.76 104.191 308.326H106.581ZM120.451 310.455C120.451 306.223 117.868 303.73 114.436 303.73C110.997 303.73 108.421 306.223 108.421 310.455C108.421 314.68 110.997 317.179 114.436 317.179C117.868 317.179 120.451 314.686 120.451 310.455ZM118.066 310.455C118.066 313.433 116.571 315.05 114.436 315.05C112.307 315.05 110.805 313.433 110.805 310.455C110.805 307.476 112.307 305.859 114.436 305.859C116.571 305.859 118.066 307.476 118.066 310.455ZM122.693 317H125.064V312.206H127.48L130.05 317H132.696L129.864 311.81C131.405 311.19 132.217 309.873 132.217 308.096C132.217 305.597 130.606 303.909 127.602 303.909H122.693V317ZM125.064 310.237V305.891H127.237C129.008 305.891 129.801 306.702 129.801 308.096C129.801 309.489 129.008 310.237 127.25 310.237H125.064ZM138.836 317C142.824 317 145.189 314.533 145.189 310.442C145.189 306.364 142.824 303.909 138.925 303.909H134.4V317H138.836ZM136.771 314.948V305.961H138.791C141.45 305.961 142.837 307.444 142.837 310.442C142.837 313.452 141.45 314.948 138.721 314.948H136.771Z" fill="white"/>
<g filter="url(#filter5_dd_1066_14676)">
<rect x="107" y="402.55" width="149.295" height="69.0046" rx="4" fill="white"/>
</g>
<path d="M109 406C109 404.095 110.545 402.55 112.45 402.55H254.845C256.751 402.55 258.295 404.095 258.295 406V406H109V406Z" fill="#4A796B"/>
<path d="M153.93 450.401L155.25 446.456H161.266L162.594 450.401H165.688L160.047 434.401H156.469L150.836 450.401H153.93ZM156.032 444.128L158.196 437.683H158.321L160.485 444.128H156.032ZM172.524 455.151C175.766 455.151 178.157 453.667 178.157 450.597V438.401H175.367V440.386H175.211C174.782 439.519 173.883 438.245 171.766 438.245C168.992 438.245 166.813 440.417 166.813 444.362C166.813 448.276 168.992 450.229 171.758 450.229C173.813 450.229 174.774 449.128 175.211 448.245H175.352V450.519C175.352 452.284 174.18 453.011 172.571 453.011C170.867 453.011 170.117 452.206 169.774 451.503L167.227 452.12C167.742 453.8 169.469 455.151 172.524 455.151ZM172.547 448.011C170.68 448.011 169.696 446.558 169.696 444.347C169.696 442.167 170.664 440.565 172.547 440.565C174.367 440.565 175.367 442.073 175.367 444.347C175.367 446.636 174.352 448.011 172.547 448.011ZM186.367 450.636C189.164 450.636 191.086 449.269 191.586 447.183L188.946 446.886C188.563 447.901 187.625 448.433 186.407 448.433C184.578 448.433 183.367 447.229 183.344 445.175H191.703V444.308C191.703 440.097 189.172 438.245 186.219 438.245C182.782 438.245 180.539 440.769 180.539 444.472C180.539 448.237 182.75 450.636 186.367 450.636ZM183.352 443.269C183.438 441.737 184.571 440.448 186.258 440.448C187.883 440.448 188.977 441.636 188.992 443.269H183.352ZM196.924 443.37C196.924 441.636 197.971 440.636 199.463 440.636C200.924 440.636 201.799 441.597 201.799 443.198V450.401H204.627V442.761C204.635 439.886 202.994 438.245 200.518 438.245C198.721 438.245 197.487 439.104 196.94 440.44H196.799V438.401H194.096V450.401H196.924V443.37ZM213.494 438.401H211.127V435.526H208.299V438.401H206.596V440.589H208.299V447.261C208.283 449.519 209.924 450.628 212.049 450.565C212.854 450.542 213.408 450.386 213.713 450.284L213.237 448.073C213.08 448.112 212.76 448.183 212.408 448.183C211.698 448.183 211.127 447.933 211.127 446.792V440.589H213.494V438.401Z" fill="#262424"/>
<rect x="128.444" y="388" width="107" height="36" rx="4" fill="#4A796B"/>
<path d="M145.736 413H148.107V408.206H150.523L153.093 413H155.739L152.907 407.81C154.448 407.19 155.26 405.873 155.26 404.096C155.26 401.597 153.649 399.909 150.645 399.909H145.736V413ZM148.107 406.237V401.891H150.28C152.051 401.891 152.843 402.702 152.843 404.096C152.843 405.489 152.051 406.237 150.293 406.237H148.107ZM157.443 413H166.008V411.012H159.814V407.439H165.516V405.451H159.814V401.897H165.957V399.909H157.443V413ZM179.581 404.326C179.179 401.418 176.941 399.73 174.04 399.73C170.62 399.73 168.044 402.223 168.044 406.455C168.044 410.68 170.588 413.179 174.04 413.179C177.152 413.179 179.217 411.165 179.581 408.666L177.191 408.653C176.89 410.188 175.638 411.05 174.071 411.05C171.949 411.05 170.428 409.459 170.428 406.455C170.428 403.501 171.937 401.859 174.078 401.859C175.669 401.859 176.916 402.76 177.191 404.326H179.581ZM193.451 406.455C193.451 402.223 190.868 399.73 187.436 399.73C183.997 399.73 181.421 402.223 181.421 406.455C181.421 410.68 183.997 413.179 187.436 413.179C190.868 413.179 193.451 410.686 193.451 406.455ZM191.066 406.455C191.066 409.433 189.571 411.05 187.436 411.05C185.307 411.05 183.805 409.433 183.805 406.455C183.805 403.476 185.307 401.859 187.436 401.859C189.571 401.859 191.066 403.476 191.066 406.455ZM195.693 413H198.064V408.206H200.48L203.05 413H205.696L202.864 407.81C204.405 407.19 205.217 405.873 205.217 404.096C205.217 401.597 203.606 399.909 200.602 399.909H195.693V413ZM198.064 406.237V401.891H200.237C202.008 401.891 202.801 402.702 202.801 404.096C202.801 405.489 202.008 406.237 200.25 406.237H198.064ZM211.836 413C215.824 413 218.189 410.533 218.189 406.442C218.189 402.364 215.824 399.909 211.925 399.909H207.4V413H211.836ZM209.771 410.948V401.961H211.791C214.45 401.961 215.837 403.444 215.837 406.442C215.837 409.452 214.45 410.948 211.721 410.948H209.771Z" fill="white"/>
<g filter="url(#filter6_dd_1066_14676)">
<rect x="191" y="306.55" width="149.295" height="69.0046" rx="4" fill="white"/>
</g>
<path d="M191 310C191 308.095 192.545 306.55 194.45 306.55H336.845C338.751 306.55 340.295 308.095 340.295 310V310H191V310Z" fill="#4A796B"/>
<path d="M237.93 354.401L239.251 350.456H245.266L246.595 354.401H249.688L244.048 338.401H240.47L234.837 354.401H237.93ZM240.032 348.128L242.196 341.683H242.321L244.485 348.128H240.032ZM256.524 359.151C259.766 359.151 262.157 357.667 262.157 354.597V342.401H259.368V344.386H259.212C258.782 343.519 257.884 342.245 255.766 342.245C252.993 342.245 250.813 344.417 250.813 348.362C250.813 352.276 252.993 354.229 255.759 354.229C257.813 354.229 258.774 353.128 259.212 352.245H259.352V354.519C259.352 356.284 258.18 357.011 256.571 357.011C254.868 357.011 254.118 356.206 253.774 355.503L251.227 356.12C251.743 357.8 253.47 359.151 256.524 359.151ZM256.548 352.011C254.68 352.011 253.696 350.558 253.696 348.347C253.696 346.167 254.665 344.565 256.548 344.565C258.368 344.565 259.368 346.073 259.368 348.347C259.368 350.636 258.352 352.011 256.548 352.011ZM270.368 354.636C273.165 354.636 275.087 353.269 275.587 351.183L272.946 350.886C272.563 351.901 271.626 352.433 270.407 352.433C268.579 352.433 267.368 351.229 267.345 349.175H275.704V348.308C275.704 344.097 273.173 342.245 270.22 342.245C266.782 342.245 264.54 344.769 264.54 348.472C264.54 352.237 266.751 354.636 270.368 354.636ZM267.352 347.269C267.438 345.737 268.571 344.448 270.259 344.448C271.884 344.448 272.977 345.636 272.993 347.269H267.352ZM280.925 347.37C280.925 345.636 281.971 344.636 283.464 344.636C284.925 344.636 285.8 345.597 285.8 347.198V354.401H288.628V346.761C288.636 343.886 286.995 342.245 284.518 342.245C282.721 342.245 281.487 343.104 280.94 344.44H280.8V342.401H278.096V354.401H280.925V347.37ZM297.495 342.401H295.128V339.526H292.3V342.401H290.596V344.589H292.3V351.261C292.284 353.519 293.925 354.628 296.05 354.565C296.854 354.542 297.409 354.386 297.714 354.284L297.237 352.073C297.081 352.112 296.761 352.183 296.409 352.183C295.698 352.183 295.128 351.933 295.128 350.792V344.589H297.495V342.401Z" fill="#262424"/>
<rect x="212.444" y="292" width="107" height="36" rx="4" fill="#4A796B"/>
<path d="M229.735 317H232.106V312.206H234.523L237.092 317H239.739L236.907 311.81C238.447 311.19 239.259 309.873 239.259 308.096C239.259 305.597 237.648 303.909 234.644 303.909H229.735V317ZM232.106 310.237V305.891H234.28C236.05 305.891 236.843 306.702 236.843 308.096C236.843 309.489 236.05 310.237 234.293 310.237H232.106ZM241.442 317H250.007V315.012H243.814V311.439H249.515V309.451H243.814V305.897H249.956V303.909H241.442V317ZM263.581 308.326C263.178 305.418 260.941 303.73 258.039 303.73C254.619 303.73 252.043 306.223 252.043 310.455C252.043 314.68 254.587 317.179 258.039 317.179C261.152 317.179 263.217 315.165 263.581 312.666L261.19 312.653C260.89 314.188 259.637 315.05 258.071 315.05C255.949 315.05 254.428 313.459 254.428 310.455C254.428 307.501 255.936 305.859 258.077 305.859C259.669 305.859 260.915 306.76 261.19 308.326H263.581ZM277.45 310.455C277.45 306.223 274.868 303.73 271.435 303.73C267.996 303.73 265.42 306.223 265.42 310.455C265.42 314.68 267.996 317.179 271.435 317.179C274.868 317.179 277.45 314.686 277.45 310.455ZM275.066 310.455C275.066 313.433 273.57 315.05 271.435 315.05C269.307 315.05 267.804 313.433 267.804 310.455C267.804 307.476 269.307 305.859 271.435 305.859C273.57 305.859 275.066 307.476 275.066 310.455ZM279.692 317H282.064V312.206H284.48L287.049 317H289.696L286.864 311.81C288.404 311.19 289.216 309.873 289.216 308.096C289.216 305.597 287.605 303.909 284.601 303.909H279.692V317ZM282.064 310.237V305.891H284.237C286.007 305.891 286.8 306.702 286.8 308.096C286.8 309.489 286.007 310.237 284.25 310.237H282.064ZM295.835 317C299.824 317 302.189 314.533 302.189 310.442C302.189 306.364 299.824 303.909 295.925 303.909H291.399V317H295.835ZM293.771 314.948V305.961H295.79C298.45 305.961 299.837 307.444 299.837 310.442C299.837 313.452 298.45 314.948 295.72 314.948H293.771Z" fill="white"/>
<defs>
<filter id="filter0_dd_1066_14676" x="44" y="132" width="320" height="188" filterUnits="userSpaceOnUse" color-interpolation-filters="sRGB">
<feFlood flood-opacity="0" result="BackgroundImageFix"/>
<feColorMatrix in="SourceAlpha" type="matrix" values="0 0 0 0 0 0 0 0 0 0 0 0 0 0 0 0 0 0 127 0" result="hardAlpha"/>
<feOffset dy="3"/>
<feGaussianBlur stdDeviation="2"/>
<feColorMatrix type="matrix" values="0 0 0 0 0 0 0 0 0 0 0 0 0 0 0 0 0 0 0.1 0"/>
<feBlend mode="normal" in2="BackgroundImageFix" result="effect1_dropShadow_1066_14676"/>
<feColorMatrix in="SourceAlpha" type="matrix" values="0 0 0 0 0 0 0 0 0 0 0 0 0 0 0 0 0 0 127 0" result="hardAlpha"/>
<feOffset dy="4"/>
<feGaussianBlur stdDeviation="17"/>
<feColorMatrix type="matrix" values="0 0 0 0 0 0 0 0 0 0 0 0 0 0 0 0 0 0 0.04 0"/>
<feBlend mode="normal" in2="effect1_dropShadow_1066_14676" result="effect2_dropShadow_1066_14676"/>
<feBlend mode="normal" in="SourceGraphic" in2="effect2_dropShadow_1066_14676" result="shape"/>
</filter>
<filter id="filter1_f_1066_14676" x="920.778" y="151.844" width="58.8796" height="57.2809" filterUnits="userSpaceOnUse" color-interpolation-filters="sRGB">
<feFlood flood-opacity="0" result="BackgroundImageFix"/>
<feBlend mode="normal" in="SourceGraphic" in2="BackgroundImageFix" result="shape"/>
<feGaussianBlur stdDeviation="5.99149" result="effect1_foregroundBlur_1066_14676"/>
</filter>
<filter id="filter2_f_1066_14676" x="922.778" y="359.844" width="58.8796" height="57.2809" filterUnits="userSpaceOnUse" color-interpolation-filters="sRGB">
<feFlood flood-opacity="0" result="BackgroundImageFix"/>
<feBlend mode="normal" in="SourceGraphic" in2="BackgroundImageFix" result="shape"/>
<feGaussianBlur stdDeviation="5.99149" result="effect1_foregroundBlur_1066_14676"/>
</filter>
<filter id="filter3_f_1066_14676" x="918.778" y="251.844" width="58.8796" height="57.2809" filterUnits="userSpaceOnUse" color-interpolation-filters="sRGB">
<feFlood flood-opacity="0" result="BackgroundImageFix"/>
<feBlend mode="normal" in="SourceGraphic" in2="BackgroundImageFix" result="shape"/>
<feGaussianBlur stdDeviation="5.99149" result="effect1_foregroundBlur_1066_14676"/>
</filter>
<filter id="filter4_dd_1066_14676" x="0" y="276.55" width="217.295" height="137.004" filterUnits="userSpaceOnUse" color-interpolation-filters="sRGB">
<feFlood flood-opacity="0" result="BackgroundImageFix"/>
<feColorMatrix in="SourceAlpha" type="matrix" values="0 0 0 0 0 0 0 0 0 0 0 0 0 0 0 0 0 0 127 0" result="hardAlpha"/>
<feOffset dy="3"/>
<feGaussianBlur stdDeviation="2"/>
<feColorMatrix type="matrix" values="0 0 0 0 0 0 0 0 0 0 0 0 0 0 0 0 0 0 0.1 0"/>
<feBlend mode="normal" in2="BackgroundImageFix" result="effect1_dropShadow_1066_14676"/>
<feColorMatrix in="SourceAlpha" type="matrix" values="0 0 0 0 0 0 0 0 0 0 0 0 0 0 0 0 0 0 127 0" result="hardAlpha"/>
<feOffset dy="4"/>
<feGaussianBlur stdDeviation="17"/>
<feColorMatrix type="matrix" values="0 0 0 0 0 0 0 0 0 0 0 0 0 0 0 0 0 0 0.04 0"/>
<feBlend mode="normal" in2="effect1_dropShadow_1066_14676" result="effect2_dropShadow_1066_14676"/>
<feBlend mode="normal" in="SourceGraphic" in2="effect2_dropShadow_1066_14676" result="shape"/>
</filter>
<filter id="filter5_dd_1066_14676" x="73" y="372.55" width="217.295" height="137.004" filterUnits="userSpaceOnUse" color-interpolation-filters="sRGB">
<feFlood flood-opacity="0" result="BackgroundImageFix"/>
<feColorMatrix in="SourceAlpha" type="matrix" values="0 0 0 0 0 0 0 0 0 0 0 0 0 0 0 0 0 0 127 0" result="hardAlpha"/>
<feOffset dy="3"/>
<feGaussianBlur stdDeviation="2"/>
<feColorMatrix type="matrix" values="0 0 0 0 0 0 0 0 0 0 0 0 0 0 0 0 0 0 0.1 0"/>
<feBlend mode="normal" in2="BackgroundImageFix" result="effect1_dropShadow_1066_14676"/>
<feColorMatrix in="SourceAlpha" type="matrix" values="0 0 0 0 0 0 0 0 0 0 0 0 0 0 0 0 0 0 127 0" result="hardAlpha"/>
<feOffset dy="4"/>
<feGaussianBlur stdDeviation="17"/>
<feColorMatrix type="matrix" values="0 0 0 0 0 0 0 0 0 0 0 0 0 0 0 0 0 0 0.04 0"/>
<feBlend mode="normal" in2="effect1_dropShadow_1066_14676" result="effect2_dropShadow_1066_14676"/>
<feBlend mode="normal" in="SourceGraphic" in2="effect2_dropShadow_1066_14676" result="shape"/>
</filter>
<filter id="filter6_dd_1066_14676" x="157" y="276.55" width="217.295" height="137.004" filterUnits="userSpaceOnUse" color-interpolation-filters="sRGB">
<feFlood flood-opacity="0" result="BackgroundImageFix"/>
<feColorMatrix in="SourceAlpha" type="matrix" values="0 0 0 0 0 0 0 0 0 0 0 0 0 0 0 0 0 0 127 0" result="hardAlpha"/>
<feOffset dy="3"/>
<feGaussianBlur stdDeviation="2"/>
<feColorMatrix type="matrix" values="0 0 0 0 0 0 0 0 0 0 0 0 0 0 0 0 0 0 0.1 0"/>
<feBlend mode="normal" in2="BackgroundImageFix" result="effect1_dropShadow_1066_14676"/>
<feColorMatrix in="SourceAlpha" type="matrix" values="0 0 0 0 0 0 0 0 0 0 0 0 0 0 0 0 0 0 127 0" result="hardAlpha"/>
<feOffset dy="4"/>
<feGaussianBlur stdDeviation="17"/>
<feColorMatrix type="matrix" values="0 0 0 0 0 0 0 0 0 0 0 0 0 0 0 0 0 0 0.04 0"/>
<feBlend mode="normal" in2="effect1_dropShadow_1066_14676" result="effect2_dropShadow_1066_14676"/>
<feBlend mode="normal" in="SourceGraphic" in2="effect2_dropShadow_1066_14676" result="shape"/>
</filter>
<linearGradient id="paint0_linear_1066_14676" x1="924.788" y1="192.673" x2="921.688" y2="226.621" gradientUnits="userSpaceOnUse">
<stop stop-color="#080808"/>
<stop offset="1" stop-color="#080808" stop-opacity="0"/>
</linearGradient>
<linearGradient id="paint1_linear_1066_14676" x1="958.894" y1="197.845" x2="950.685" y2="210.472" gradientUnits="userSpaceOnUse">
<stop stop-color="#0E0E0E"/>
<stop offset="1" stop-color="#2F2F2F" stop-opacity="0"/>
</linearGradient>
<linearGradient id="paint2_linear_1066_14676" x1="999" y1="200.72" x2="985.26" y2="189.554" gradientUnits="userSpaceOnUse">
<stop stop-color="#5D5D5D"/>
<stop offset="1" stop-color="#5D5D5D" stop-opacity="0"/>
</linearGradient>
<linearGradient id="paint3_linear_1066_14676" x1="987.53" y1="166.359" x2="1002.06" y2="199.14" gradientUnits="userSpaceOnUse">
<stop stop-color="#272727"/>
<stop offset="1" stop-color="#4A4A4A" stop-opacity="0"/>
</linearGradient>
<linearGradient id="paint4_linear_1066_14676" x1="963.058" y1="182.84" x2="952.549" y2="193.393" gradientUnits="userSpaceOnUse">
<stop stop-color="#4A4A4A"/>
<stop offset="1" stop-color="#4A4A4A" stop-opacity="0"/>
</linearGradient>
<radialGradient id="paint5_radial_1066_14676" cx="0" cy="0" r="1" gradientUnits="userSpaceOnUse" gradientTransform="translate(987.064 187.281) rotate(152.409) scale(15.5657 11.4704)">
<stop stop-color="#004C80"/>
<stop offset="1" stop-color="#004C80" stop-opacity="0"/>
</radialGradient>
<linearGradient id="paint6_linear_1066_14676" x1="977.676" y1="196.239" x2="968.723" y2="195.806" gradientUnits="userSpaceOnUse">
<stop/>
<stop offset="1" stop-opacity="0"/>
</linearGradient>
<radialGradient id="paint7_radial_1066_14676" cx="0" cy="0" r="1" gradientUnits="userSpaceOnUse" gradientTransform="translate(974.999 195.839) rotate(180) scale(2.5442)">
<stop stop-color="#FF0000"/>
<stop offset="1" stop-color="#760000"/>
</radialGradient>
<linearGradient id="paint8_linear_1066_14676" x1="995.606" y1="200.444" x2="985.183" y2="189.419" gradientUnits="userSpaceOnUse">
<stop stop-color="white"/>
<stop offset="1" stop-color="white" stop-opacity="0"/>
</linearGradient>
<linearGradient id="paint9_linear_1066_14676" x1="969.225" y1="161.42" x2="950.459" y2="169.234" gradientUnits="userSpaceOnUse">
<stop stop-color="#858585"/>
<stop offset="1" stop-color="#858585" stop-opacity="0"/>
</linearGradient>
<linearGradient id="paint10_linear_1066_14676" x1="926.788" y1="400.673" x2="923.688" y2="434.621" gradientUnits="userSpaceOnUse">
<stop stop-color="#080808"/>
<stop offset="1" stop-color="#080808" stop-opacity="0"/>
</linearGradient>
<linearGradient id="paint11_linear_1066_14676" x1="960.894" y1="405.845" x2="952.685" y2="418.472" gradientUnits="userSpaceOnUse">
<stop stop-color="#0E0E0E"/>
<stop offset="1" stop-color="#2F2F2F" stop-opacity="0"/>
</linearGradient>
<linearGradient id="paint12_linear_1066_14676" x1="1001" y1="408.72" x2="987.26" y2="397.554" gradientUnits="userSpaceOnUse">
<stop stop-color="#5D5D5D"/>
<stop offset="1" stop-color="#5D5D5D" stop-opacity="0"/>
</linearGradient>
<linearGradient id="paint13_linear_1066_14676" x1="989.53" y1="374.359" x2="1004.06" y2="407.14" gradientUnits="userSpaceOnUse">
<stop stop-color="#272727"/>
<stop offset="1" stop-color="#4A4A4A" stop-opacity="0"/>
</linearGradient>
<linearGradient id="paint14_linear_1066_14676" x1="965.058" y1="390.84" x2="954.549" y2="401.393" gradientUnits="userSpaceOnUse">
<stop stop-color="#4A4A4A"/>
<stop offset="1" stop-color="#4A4A4A" stop-opacity="0"/>
</linearGradient>
<radialGradient id="paint15_radial_1066_14676" cx="0" cy="0" r="1" gradientUnits="userSpaceOnUse" gradientTransform="translate(989.064 395.281) rotate(152.409) scale(15.5657 11.4704)">
<stop stop-color="#004C80"/>
<stop offset="1" stop-color="#004C80" stop-opacity="0"/>
</radialGradient>
<linearGradient id="paint16_linear_1066_14676" x1="979.676" y1="404.239" x2="970.723" y2="403.806" gradientUnits="userSpaceOnUse">
<stop/>
<stop offset="1" stop-opacity="0"/>
</linearGradient>
<radialGradient id="paint17_radial_1066_14676" cx="0" cy="0" r="1" gradientUnits="userSpaceOnUse" gradientTransform="translate(976.999 403.839) rotate(180) scale(2.5442)">
<stop stop-color="#FF0000"/>
<stop offset="1" stop-color="#760000"/>
</radialGradient>
<linearGradient id="paint18_linear_1066_14676" x1="997.606" y1="408.444" x2="987.183" y2="397.419" gradientUnits="userSpaceOnUse">
<stop stop-color="white"/>
<stop offset="1" stop-color="white" stop-opacity="0"/>
</linearGradient>
<linearGradient id="paint19_linear_1066_14676" x1="971.225" y1="369.42" x2="952.459" y2="377.234" gradientUnits="userSpaceOnUse">
<stop stop-color="#858585"/>
<stop offset="1" stop-color="#858585" stop-opacity="0"/>
</linearGradient>
<linearGradient id="paint20_linear_1066_14676" x1="922.788" y1="292.673" x2="919.688" y2="326.621" gradientUnits="userSpaceOnUse">
<stop stop-color="#080808"/>
<stop offset="1" stop-color="#080808" stop-opacity="0"/>
</linearGradient>
<linearGradient id="paint21_linear_1066_14676" x1="956.894" y1="297.845" x2="948.685" y2="310.472" gradientUnits="userSpaceOnUse">
<stop stop-color="#0E0E0E"/>
<stop offset="1" stop-color="#2F2F2F" stop-opacity="0"/>
</linearGradient>
<linearGradient id="paint22_linear_1066_14676" x1="997" y1="300.72" x2="983.26" y2="289.554" gradientUnits="userSpaceOnUse">
<stop stop-color="#5D5D5D"/>
<stop offset="1" stop-color="#5D5D5D" stop-opacity="0"/>
</linearGradient>
<linearGradient id="paint23_linear_1066_14676" x1="985.53" y1="266.359" x2="1000.06" y2="299.14" gradientUnits="userSpaceOnUse">
<stop stop-color="#272727"/>
<stop offset="1" stop-color="#4A4A4A" stop-opacity="0"/>
</linearGradient>
<linearGradient id="paint24_linear_1066_14676" x1="961.058" y1="282.84" x2="950.549" y2="293.393" gradientUnits="userSpaceOnUse">
<stop stop-color="#4A4A4A"/>
<stop offset="1" stop-color="#4A4A4A" stop-opacity="0"/>
</linearGradient>
<radialGradient id="paint25_radial_1066_14676" cx="0" cy="0" r="1" gradientUnits="userSpaceOnUse" gradientTransform="translate(985.064 287.281) rotate(152.409) scale(15.5657 11.4704)">
<stop stop-color="#004C80"/>
<stop offset="1" stop-color="#004C80" stop-opacity="0"/>
</radialGradient>
<linearGradient id="paint26_linear_1066_14676" x1="975.676" y1="296.239" x2="966.723" y2="295.806" gradientUnits="userSpaceOnUse">
<stop/>
<stop offset="1" stop-opacity="0"/>
</linearGradient>
<radialGradient id="paint27_radial_1066_14676" cx="0" cy="0" r="1" gradientUnits="userSpaceOnUse" gradientTransform="translate(972.999 295.839) rotate(180) scale(2.5442)">
<stop stop-color="#FF0000"/>
<stop offset="1" stop-color="#760000"/>
</radialGradient>
<linearGradient id="paint28_linear_1066_14676" x1="993.606" y1="300.444" x2="983.183" y2="289.419" gradientUnits="userSpaceOnUse">
<stop stop-color="white"/>
<stop offset="1" stop-color="white" stop-opacity="0"/>
</linearGradient>
<linearGradient id="paint29_linear_1066_14676" x1="967.225" y1="261.42" x2="948.459" y2="269.234" gradientUnits="userSpaceOnUse">
<stop stop-color="#858585"/>
<stop offset="1" stop-color="#858585" stop-opacity="0"/>
</linearGradient>
</defs>
</svg>
