<svg width="1099" height="598" viewBox="0 0 1099 598" fill="none" xmlns="http://www.w3.org/2000/svg">
<path d="M352 515L369 515L369 320.5M352 126L369 126L369 320.5M369 320.5L441 320.5" stroke="#D1D1D1" stroke-width="2"/>
<path d="M458 516L441 516L441 321.5L441 127L458 127" stroke="#D1D1D1" stroke-width="2"/>
<path d="M330.108 94.2898C329.75 91.7045 327.761 90.2045 325.182 90.2045C322.142 90.2045 319.852 92.4205 319.852 96.1818C319.852 99.9375 322.114 102.159 325.182 102.159C327.949 102.159 329.784 100.369 330.108 98.1477L327.983 98.1364C327.716 99.5 326.602 100.267 325.21 100.267C323.324 100.267 321.972 98.8523 321.972 96.1818C321.972 93.5568 323.312 92.0966 325.216 92.0966C326.631 92.0966 327.739 92.8977 327.983 94.2898H330.108ZM332.038 102H339.271V100.233H334.146V90.3636H332.038V102ZM351.045 96.1818C351.045 92.4205 348.75 90.2045 345.699 90.2045C342.642 90.2045 340.352 92.4205 340.352 96.1818C340.352 99.9375 342.642 102.159 345.699 102.159C348.75 102.159 351.045 99.9432 351.045 96.1818ZM348.926 96.1818C348.926 98.8295 347.597 100.267 345.699 100.267C343.807 100.267 342.472 98.8295 342.472 96.1818C342.472 93.5341 343.807 92.0966 345.699 92.0966C347.597 92.0966 348.926 93.5341 348.926 96.1818ZM360.374 90.3636V97.7898C360.374 99.25 359.357 100.295 357.76 100.295C356.158 100.295 355.146 99.25 355.146 97.7898V90.3636H353.038V97.9659C353.038 100.466 354.913 102.176 357.76 102.176C360.595 102.176 362.482 100.466 362.482 97.9659V90.3636H360.374ZM368.716 102C372.261 102 374.364 99.8068 374.364 96.1705C374.364 92.5455 372.261 90.3636 368.795 90.3636H364.773V102H368.716ZM366.881 100.176V92.1875H368.676C371.04 92.1875 372.273 93.5057 372.273 96.1705C372.273 98.8466 371.04 100.176 368.614 100.176H366.881Z" fill="#6D6666"/>
<path d="M442.148 102H449.761V100.233H444.256V97.0568H449.324V95.2898H444.256V92.1307H449.716V90.3636H442.148V102ZM455.81 102C459.355 102 461.457 99.8068 461.457 96.1705C461.457 92.5455 459.355 90.3636 455.889 90.3636H451.866V102H455.81ZM453.974 100.176V92.1875H455.77C458.134 92.1875 459.366 93.5057 459.366 96.1705C459.366 98.8466 458.134 100.176 455.707 100.176H453.974ZM471.256 94.0795H473.403C473.045 91.7955 471.068 90.2045 468.494 90.2045C465.449 90.2045 463.165 92.4432 463.165 96.1932C463.165 99.875 465.347 102.159 468.557 102.159C471.438 102.159 473.5 100.307 473.5 97.3068V95.9091H468.778V97.5568H471.46C471.426 99.2159 470.318 100.267 468.568 100.267C466.619 100.267 465.284 98.8068 465.284 96.1705C465.284 93.5511 466.642 92.0966 468.523 92.0966C469.926 92.0966 470.881 92.8466 471.256 94.0795ZM475.538 102H483.152V100.233H477.646V97.0568H482.714V95.2898H477.646V92.1307H483.107V90.3636H475.538V102Z" fill="#6D6666"/>
<path d="M595.239 171.053C593.845 171.053 592.529 170.437 591.639 169.322L578.09 152.587C577.2 151.471 576.852 150.048 577.2 148.663L582.039 127.773C582.348 126.388 583.277 125.272 584.555 124.656L604.142 115.346C604.761 115.039 605.458 114.885 606.155 114.885C606.852 114.885 607.548 115.039 608.168 115.346L627.755 124.618C629.032 125.234 629.961 126.349 630.271 127.734L635.11 148.624C635.419 150.009 635.11 151.433 634.219 152.548L620.671 169.283C619.781 170.36 618.465 171.014 617.071 171.014L595.239 171.053Z" fill="#326DE6"/>
<path d="M606.117 115.847C606.658 115.847 607.2 115.962 607.704 116.193L627.291 125.465C628.297 125.965 629.071 126.888 629.304 127.965L634.142 148.855C634.413 149.971 634.142 151.125 633.407 152.01L619.858 168.745C619.162 169.63 618.078 170.13 616.955 170.13H595.239C594.117 170.13 593.033 169.63 592.336 168.745L578.788 152.01C578.091 151.125 577.82 149.971 578.052 148.855L582.891 127.965C583.162 126.85 583.897 125.926 584.904 125.465L604.491 116.154C604.994 115.962 605.575 115.847 606.117 115.847ZM606.117 114.039C605.304 114.039 604.491 114.231 603.717 114.577L584.129 123.887C582.581 124.618 581.497 125.965 581.11 127.619L576.271 148.509C575.884 150.163 576.271 151.856 577.355 153.202L590.904 169.937C591.949 171.245 593.536 171.976 595.2 171.976H616.917C618.581 171.976 620.168 171.245 621.213 169.937L634.762 153.202C635.846 151.894 636.233 150.163 635.846 148.509L631.007 127.619C630.62 125.965 629.536 124.618 627.988 123.887L608.478 114.577C607.742 114.231 606.929 114.039 606.117 114.039Z" fill="white"/>
<path d="M625.742 147.201C625.704 147.201 625.704 147.201 625.742 147.201H625.704C625.665 147.201 625.626 147.201 625.626 147.162C625.549 147.162 625.471 147.124 625.394 147.124C625.123 147.085 624.891 147.047 624.658 147.047C624.542 147.047 624.426 147.047 624.271 147.008H624.233C623.42 146.931 622.762 146.854 622.142 146.662C621.871 146.547 621.794 146.393 621.717 146.239C621.717 146.2 621.678 146.2 621.678 146.162L621.175 146.008C621.407 144.238 621.329 142.392 620.904 140.584C620.478 138.775 619.742 137.083 618.736 135.544L619.123 135.198V135.121C619.123 134.928 619.162 134.736 619.317 134.544C619.781 134.12 620.362 133.774 621.058 133.351C621.175 133.274 621.291 133.236 621.407 133.159C621.639 133.043 621.833 132.928 622.065 132.774C622.104 132.735 622.181 132.697 622.258 132.62C622.297 132.582 622.336 132.582 622.336 132.543C622.878 132.081 622.994 131.312 622.607 130.812C622.413 130.543 622.065 130.389 621.717 130.389C621.407 130.389 621.136 130.504 620.865 130.696C620.826 130.735 620.826 130.735 620.788 130.773C620.71 130.812 620.671 130.889 620.594 130.927C620.4 131.12 620.246 131.274 620.091 131.466C620.013 131.543 619.936 131.658 619.82 131.735C619.278 132.312 618.775 132.774 618.271 133.12C618.155 133.197 618.039 133.236 617.923 133.236C617.846 133.236 617.768 133.236 617.691 133.197H617.613L617.149 133.505C616.646 132.966 616.104 132.505 615.562 132.043C613.239 130.235 610.413 129.119 607.471 128.85L607.433 128.35C607.394 128.311 607.394 128.311 607.355 128.273C607.239 128.157 607.084 128.042 607.046 127.773C607.007 127.157 607.084 126.465 607.162 125.695V125.657C607.162 125.541 607.2 125.387 607.239 125.272C607.278 125.041 607.317 124.81 607.355 124.541V124.31V124.195C607.355 123.502 606.813 122.925 606.155 122.925C605.846 122.925 605.536 123.079 605.304 123.31C605.071 123.541 604.955 123.849 604.955 124.195V124.272V124.503C604.955 124.772 604.994 125.003 605.071 125.234C605.11 125.349 605.11 125.464 605.149 125.618V125.657C605.226 126.426 605.342 127.119 605.265 127.734C605.226 128.004 605.071 128.119 604.955 128.234C604.917 128.273 604.917 128.273 604.878 128.311L604.839 128.811C604.142 128.888 603.446 128.965 602.749 129.119C599.768 129.773 597.136 131.274 595.084 133.428L594.697 133.159H594.62C594.542 133.159 594.465 133.197 594.388 133.197C594.271 133.197 594.155 133.159 594.039 133.082C593.536 132.735 593.033 132.235 592.491 131.658C592.413 131.581 592.336 131.466 592.22 131.389C592.065 131.197 591.91 131.043 591.717 130.85C591.678 130.812 591.6 130.773 591.523 130.696C591.484 130.658 591.446 130.658 591.446 130.62C591.213 130.427 590.904 130.312 590.594 130.312C590.246 130.312 589.897 130.466 589.704 130.735C589.317 131.235 589.433 132.005 589.975 132.466C590.013 132.466 590.013 132.505 590.052 132.505C590.129 132.543 590.168 132.62 590.246 132.659C590.478 132.812 590.671 132.928 590.904 133.043C591.02 133.082 591.136 133.159 591.252 133.236C591.949 133.659 592.529 134.005 592.994 134.428C593.188 134.621 593.188 134.813 593.188 135.005V135.082L593.575 135.428C593.497 135.544 593.42 135.621 593.381 135.736C591.446 138.775 590.71 142.353 591.213 145.893L590.71 146.047C590.71 146.085 590.671 146.085 590.671 146.123C590.594 146.277 590.478 146.431 590.246 146.547C589.665 146.739 588.968 146.816 588.155 146.893H588.117C588 146.893 587.846 146.893 587.729 146.931C587.497 146.931 587.265 146.97 586.994 147.008C586.917 147.008 586.839 147.047 586.762 147.047C586.723 147.047 586.684 147.047 586.646 147.085C585.949 147.239 585.523 147.893 585.639 148.509C585.755 149.047 586.258 149.394 586.878 149.394C586.994 149.394 587.071 149.394 587.188 149.355C587.226 149.355 587.265 149.355 587.265 149.317C587.342 149.317 587.42 149.278 587.497 149.278C587.768 149.201 587.962 149.124 588.194 149.009C588.31 148.97 588.426 148.893 588.542 148.855H588.581C589.317 148.586 589.975 148.355 590.594 148.278H590.671C590.904 148.278 591.058 148.393 591.175 148.47C591.213 148.47 591.213 148.509 591.252 148.509L591.794 148.432C592.723 151.279 594.504 153.818 596.865 155.664C597.407 156.088 597.949 156.434 598.529 156.78L598.297 157.28C598.297 157.319 598.336 157.319 598.336 157.357C598.413 157.511 598.491 157.703 598.413 157.973C598.181 158.55 597.833 159.127 597.407 159.781V159.819C597.329 159.935 597.252 160.012 597.175 160.127C597.02 160.319 596.904 160.512 596.749 160.743C596.71 160.781 596.671 160.858 596.633 160.935C596.633 160.973 596.594 161.012 596.594 161.012C596.284 161.666 596.517 162.397 597.097 162.666C597.252 162.743 597.407 162.782 597.562 162.782C598.026 162.782 598.491 162.474 598.723 162.051C598.723 162.012 598.762 161.974 598.762 161.974C598.8 161.897 598.839 161.82 598.878 161.781C598.994 161.512 599.033 161.32 599.11 161.089C599.149 160.973 599.188 160.858 599.226 160.743C599.497 159.973 599.691 159.358 600.039 158.819C600.194 158.588 600.388 158.55 600.542 158.473C600.581 158.473 600.581 158.473 600.62 158.434L600.891 157.934C602.594 158.588 604.452 158.934 606.31 158.934C607.433 158.934 608.594 158.819 609.678 158.55C610.375 158.396 611.033 158.203 611.691 157.973L611.923 158.396C611.962 158.396 611.962 158.396 612 158.434C612.194 158.473 612.349 158.55 612.504 158.781C612.813 159.319 613.046 159.973 613.317 160.704V160.743C613.355 160.858 613.394 160.973 613.433 161.089C613.51 161.32 613.549 161.55 613.665 161.781C613.704 161.858 613.742 161.897 613.781 161.974C613.781 162.012 613.82 162.051 613.82 162.051C614.052 162.512 614.517 162.782 614.981 162.782C615.136 162.782 615.291 162.743 615.446 162.666C615.717 162.512 615.949 162.281 616.026 161.974C616.104 161.666 616.104 161.32 615.949 161.012C615.949 160.973 615.91 160.973 615.91 160.935C615.871 160.858 615.833 160.781 615.794 160.743C615.678 160.512 615.523 160.319 615.368 160.127C615.291 160.012 615.213 159.935 615.136 159.819V159.781C614.71 159.127 614.323 158.55 614.129 157.973C614.052 157.703 614.129 157.549 614.168 157.357C614.168 157.319 614.207 157.319 614.207 157.28L614.013 156.819C616.065 155.626 617.807 153.933 619.123 151.856C619.82 150.779 620.362 149.586 620.749 148.393L621.213 148.47C621.252 148.47 621.252 148.432 621.291 148.432C621.446 148.355 621.562 148.239 621.794 148.239H621.871C622.491 148.316 623.149 148.547 623.884 148.816H623.923C624.039 148.855 624.155 148.932 624.271 148.97C624.504 149.086 624.697 149.163 624.968 149.24C625.046 149.24 625.123 149.278 625.2 149.278C625.239 149.278 625.278 149.278 625.317 149.317C625.433 149.355 625.51 149.355 625.626 149.355C626.207 149.355 626.71 148.97 626.865 148.47C626.865 148.009 626.439 147.393 625.742 147.201ZM607.82 145.316L606.117 146.123L604.413 145.316L603.988 143.507L605.149 142.046H607.046L608.207 143.507L607.82 145.316ZM617.923 141.315C618.233 142.623 618.31 143.931 618.194 145.2L612.271 143.507C611.729 143.354 611.42 142.815 611.536 142.276C611.575 142.122 611.652 141.969 611.768 141.853L616.452 137.66C617.11 138.737 617.613 139.968 617.923 141.315ZM614.594 135.352L609.523 138.929C609.097 139.199 608.517 139.122 608.168 138.699C608.052 138.583 608.013 138.429 607.975 138.275L607.626 132.005C610.297 132.312 612.736 133.505 614.594 135.352ZM603.368 132.197C603.794 132.12 604.181 132.043 604.607 131.966L604.258 138.121C604.22 138.66 603.794 139.122 603.213 139.122C603.058 139.122 602.865 139.083 602.749 139.006L597.6 135.352C599.188 133.774 601.162 132.697 603.368 132.197ZM595.742 137.66L600.349 141.738C600.775 142.084 600.813 142.738 600.465 143.161C600.349 143.315 600.194 143.43 600 143.469L594 145.2C593.768 142.584 594.349 139.93 595.742 137.66ZM594.697 148.086L600.852 147.047C601.355 147.008 601.82 147.355 601.936 147.855C601.975 148.086 601.975 148.278 601.897 148.47L599.536 154.126C597.368 152.741 595.626 150.625 594.697 148.086ZM608.826 155.741C607.936 155.934 607.046 156.049 606.117 156.049C604.762 156.049 603.446 155.818 602.207 155.434L605.265 149.932C605.575 149.586 606.078 149.432 606.504 149.663C606.697 149.778 606.852 149.932 606.968 150.086L609.949 155.434C609.6 155.549 609.213 155.626 608.826 155.741ZM616.375 150.394C615.407 151.933 614.129 153.164 612.658 154.126L610.22 148.316C610.104 147.855 610.297 147.355 610.762 147.124C610.917 147.047 611.11 147.008 611.304 147.008L617.497 148.047C617.265 148.893 616.878 149.663 616.375 150.394Z" fill="white"/>
<path d="M183.239 360.053C181.845 360.053 180.529 359.437 179.639 358.322L166.09 341.587C165.2 340.471 164.852 339.048 165.2 337.663L170.039 316.773C170.348 315.388 171.277 314.272 172.555 313.656L192.142 304.346C192.761 304.039 193.458 303.885 194.155 303.885C194.852 303.885 195.548 304.039 196.168 304.346L215.755 313.618C217.032 314.234 217.961 315.349 218.271 316.734L223.11 337.624C223.419 339.009 223.11 340.433 222.219 341.548L208.671 358.283C207.781 359.36 206.465 360.014 205.071 360.014L183.239 360.053Z" fill="#326DE6"/>
<path d="M194.117 304.847C194.658 304.847 195.2 304.962 195.704 305.193L215.291 314.465C216.297 314.965 217.071 315.888 217.304 316.965L222.142 337.855C222.413 338.971 222.142 340.125 221.407 341.01L207.858 357.745C207.162 358.63 206.078 359.13 204.955 359.13H183.239C182.117 359.13 181.033 358.63 180.336 357.745L166.788 341.01C166.091 340.125 165.82 338.971 166.052 337.855L170.891 316.965C171.162 315.85 171.897 314.926 172.904 314.465L192.491 305.154C192.994 304.962 193.575 304.847 194.117 304.847ZM194.117 303.039C193.304 303.039 192.491 303.231 191.717 303.577L172.129 312.887C170.581 313.618 169.497 314.965 169.11 316.619L164.271 337.509C163.884 339.163 164.271 340.856 165.355 342.202L178.904 358.937C179.949 360.245 181.536 360.976 183.2 360.976H204.917C206.581 360.976 208.168 360.245 209.213 358.937L222.762 342.202C223.846 340.894 224.233 339.163 223.846 337.509L219.007 316.619C218.62 314.965 217.536 313.618 215.988 312.887L196.478 303.577C195.742 303.231 194.929 303.039 194.117 303.039Z" fill="white"/>
<path d="M213.742 336.201C213.704 336.201 213.704 336.201 213.742 336.201H213.704C213.665 336.201 213.626 336.201 213.626 336.162C213.549 336.162 213.471 336.124 213.394 336.124C213.123 336.085 212.891 336.047 212.658 336.047C212.542 336.047 212.426 336.047 212.271 336.008H212.233C211.42 335.931 210.762 335.854 210.142 335.662C209.871 335.547 209.794 335.393 209.717 335.239C209.717 335.2 209.678 335.2 209.678 335.162L209.175 335.008C209.407 333.238 209.329 331.392 208.904 329.584C208.478 327.775 207.742 326.083 206.736 324.544L207.123 324.198V324.121C207.123 323.928 207.162 323.736 207.317 323.544C207.781 323.12 208.362 322.774 209.058 322.351C209.175 322.274 209.291 322.236 209.407 322.159C209.639 322.043 209.833 321.928 210.065 321.774C210.104 321.735 210.181 321.697 210.258 321.62C210.297 321.582 210.336 321.582 210.336 321.543C210.878 321.081 210.994 320.312 210.607 319.812C210.413 319.543 210.065 319.389 209.717 319.389C209.407 319.389 209.136 319.504 208.865 319.696C208.826 319.735 208.826 319.735 208.788 319.773C208.71 319.812 208.671 319.889 208.594 319.927C208.4 320.12 208.246 320.274 208.091 320.466C208.013 320.543 207.936 320.658 207.82 320.735C207.278 321.312 206.775 321.774 206.271 322.12C206.155 322.197 206.039 322.236 205.923 322.236C205.846 322.236 205.768 322.236 205.691 322.197H205.613L205.149 322.505C204.646 321.966 204.104 321.505 203.562 321.043C201.239 319.235 198.413 318.119 195.471 317.85L195.433 317.35C195.394 317.311 195.394 317.311 195.355 317.273C195.239 317.157 195.084 317.042 195.046 316.773C195.007 316.157 195.084 315.465 195.162 314.695V314.657C195.162 314.541 195.2 314.387 195.239 314.272C195.278 314.041 195.317 313.81 195.355 313.541V313.31V313.195C195.355 312.502 194.813 311.925 194.155 311.925C193.846 311.925 193.536 312.079 193.304 312.31C193.071 312.541 192.955 312.849 192.955 313.195V313.272V313.503C192.955 313.772 192.994 314.003 193.071 314.234C193.11 314.349 193.11 314.464 193.149 314.618V314.657C193.226 315.426 193.342 316.119 193.265 316.734C193.226 317.004 193.071 317.119 192.955 317.234C192.917 317.273 192.917 317.273 192.878 317.311L192.839 317.811C192.142 317.888 191.446 317.965 190.749 318.119C187.768 318.773 185.136 320.274 183.084 322.428L182.697 322.159H182.62C182.542 322.159 182.465 322.197 182.388 322.197C182.271 322.197 182.155 322.159 182.039 322.082C181.536 321.735 181.033 321.235 180.491 320.658C180.413 320.581 180.336 320.466 180.22 320.389C180.065 320.197 179.91 320.043 179.717 319.85C179.678 319.812 179.6 319.773 179.523 319.696C179.484 319.658 179.446 319.658 179.446 319.62C179.213 319.427 178.904 319.312 178.594 319.312C178.246 319.312 177.897 319.466 177.704 319.735C177.317 320.235 177.433 321.005 177.975 321.466C178.013 321.466 178.013 321.505 178.052 321.505C178.129 321.543 178.168 321.62 178.246 321.659C178.478 321.812 178.671 321.928 178.904 322.043C179.02 322.082 179.136 322.159 179.252 322.236C179.949 322.659 180.529 323.005 180.994 323.428C181.188 323.621 181.188 323.813 181.188 324.005V324.082L181.575 324.428C181.497 324.544 181.42 324.621 181.381 324.736C179.446 327.775 178.71 331.353 179.213 334.893L178.71 335.047C178.71 335.085 178.671 335.085 178.671 335.123C178.594 335.277 178.478 335.431 178.246 335.547C177.665 335.739 176.968 335.816 176.155 335.893H176.117C176 335.893 175.846 335.893 175.729 335.931C175.497 335.931 175.265 335.97 174.994 336.008C174.917 336.008 174.839 336.047 174.762 336.047C174.723 336.047 174.684 336.047 174.646 336.085C173.949 336.239 173.523 336.893 173.639 337.509C173.755 338.047 174.258 338.394 174.878 338.394C174.994 338.394 175.071 338.394 175.188 338.355C175.226 338.355 175.265 338.355 175.265 338.317C175.342 338.317 175.42 338.278 175.497 338.278C175.768 338.201 175.962 338.124 176.194 338.009C176.31 337.97 176.426 337.893 176.542 337.855H176.581C177.317 337.586 177.975 337.355 178.594 337.278H178.671C178.904 337.278 179.058 337.393 179.175 337.47C179.213 337.47 179.213 337.509 179.252 337.509L179.794 337.432C180.723 340.279 182.504 342.818 184.865 344.664C185.407 345.088 185.949 345.434 186.529 345.78L186.297 346.28C186.297 346.319 186.336 346.319 186.336 346.357C186.413 346.511 186.491 346.703 186.413 346.973C186.181 347.55 185.833 348.127 185.407 348.781V348.819C185.329 348.935 185.252 349.012 185.175 349.127C185.02 349.319 184.904 349.512 184.749 349.743C184.71 349.781 184.671 349.858 184.633 349.935C184.633 349.973 184.594 350.012 184.594 350.012C184.284 350.666 184.517 351.397 185.097 351.666C185.252 351.743 185.407 351.782 185.562 351.782C186.026 351.782 186.491 351.474 186.723 351.051C186.723 351.012 186.762 350.974 186.762 350.974C186.8 350.897 186.839 350.82 186.878 350.781C186.994 350.512 187.033 350.32 187.11 350.089C187.149 349.973 187.188 349.858 187.226 349.743C187.497 348.973 187.691 348.358 188.039 347.819C188.194 347.588 188.388 347.55 188.542 347.473C188.581 347.473 188.581 347.473 188.62 347.434L188.891 346.934C190.594 347.588 192.452 347.934 194.31 347.934C195.433 347.934 196.594 347.819 197.678 347.55C198.375 347.396 199.033 347.203 199.691 346.973L199.923 347.396C199.962 347.396 199.962 347.396 200 347.434C200.194 347.473 200.349 347.55 200.504 347.781C200.813 348.319 201.046 348.973 201.317 349.704V349.743C201.355 349.858 201.394 349.973 201.433 350.089C201.51 350.32 201.549 350.55 201.665 350.781C201.704 350.858 201.742 350.897 201.781 350.974C201.781 351.012 201.82 351.051 201.82 351.051C202.052 351.512 202.517 351.782 202.981 351.782C203.136 351.782 203.291 351.743 203.446 351.666C203.717 351.512 203.949 351.281 204.026 350.974C204.104 350.666 204.104 350.32 203.949 350.012C203.949 349.973 203.91 349.973 203.91 349.935C203.871 349.858 203.833 349.781 203.794 349.743C203.678 349.512 203.523 349.319 203.368 349.127C203.291 349.012 203.213 348.935 203.136 348.819V348.781C202.71 348.127 202.323 347.55 202.129 346.973C202.052 346.703 202.129 346.549 202.168 346.357C202.168 346.319 202.207 346.319 202.207 346.28L202.013 345.819C204.065 344.626 205.807 342.933 207.123 340.856C207.82 339.779 208.362 338.586 208.749 337.393L209.213 337.47C209.252 337.47 209.252 337.432 209.291 337.432C209.446 337.355 209.562 337.239 209.794 337.239H209.871C210.491 337.316 211.149 337.547 211.884 337.816H211.923C212.039 337.855 212.155 337.932 212.271 337.97C212.504 338.086 212.697 338.163 212.968 338.24C213.046 338.24 213.123 338.278 213.2 338.278C213.239 338.278 213.278 338.278 213.317 338.317C213.433 338.355 213.51 338.355 213.626 338.355C214.207 338.355 214.71 337.97 214.865 337.47C214.865 337.009 214.439 336.393 213.742 336.201ZM195.82 334.316L194.117 335.123L192.413 334.316L191.988 332.507L193.149 331.046H195.046L196.207 332.507L195.82 334.316ZM205.923 330.315C206.233 331.623 206.31 332.931 206.194 334.2L200.271 332.507C199.729 332.354 199.42 331.815 199.536 331.276C199.575 331.122 199.652 330.969 199.768 330.853L204.452 326.66C205.11 327.737 205.613 328.968 205.923 330.315ZM202.594 324.352L197.523 327.929C197.097 328.199 196.517 328.122 196.168 327.699C196.052 327.583 196.013 327.429 195.975 327.275L195.626 321.005C198.297 321.312 200.736 322.505 202.594 324.352ZM191.368 321.197C191.794 321.12 192.181 321.043 192.607 320.966L192.258 327.121C192.22 327.66 191.794 328.122 191.213 328.122C191.058 328.122 190.865 328.083 190.749 328.006L185.6 324.352C187.188 322.774 189.162 321.697 191.368 321.197ZM183.742 326.66L188.349 330.738C188.775 331.084 188.813 331.738 188.465 332.161C188.349 332.315 188.194 332.43 188 332.469L182 334.2C181.768 331.584 182.349 328.93 183.742 326.66ZM182.697 337.086L188.852 336.047C189.355 336.008 189.82 336.355 189.936 336.855C189.975 337.086 189.975 337.278 189.897 337.47L187.536 343.126C185.368 341.741 183.626 339.625 182.697 337.086ZM196.826 344.741C195.936 344.934 195.046 345.049 194.117 345.049C192.762 345.049 191.446 344.818 190.207 344.434L193.265 338.932C193.575 338.586 194.078 338.432 194.504 338.663C194.697 338.778 194.852 338.932 194.968 339.086L197.949 344.434C197.6 344.549 197.213 344.626 196.826 344.741ZM204.375 339.394C203.407 340.933 202.129 342.164 200.658 343.126L198.22 337.316C198.104 336.855 198.297 336.355 198.762 336.124C198.917 336.047 199.11 336.008 199.304 336.008L205.497 337.047C205.265 337.893 204.878 338.663 204.375 339.394Z" fill="white"/>
<path d="M911.444 189.643L903.601 191.336C899.58 192.167 899.959 193.512 900.236 208.002C900.366 214.83 898.746 224.273 902.531 223.244C902.888 222.887 913.583 219.768 913.583 219.768C915.942 216.69 920.338 195.566 911.444 189.643V189.643Z" fill="#585858"/>
<path d="M956.23 203.124L955.517 213.462C954.274 216.953 944.033 217.084 943.128 213.551C943.228 210.105 943.236 206.659 943.218 203.213L956.23 203.124Z" fill="#5A5A5A"/>
<path d="M908.622 205.293V210.311C908.622 210.311 909.803 214.739 909.36 215.773C908.917 216.806 905.965 222.562 905.965 222.562L912.312 220.643L914.378 215.33L916.149 209.278L908.622 205.293Z" fill="url(#paint0_linear)"/>
<path d="M912.781 211.657L943.44 213.529C946.337 211.389 946.804 208.387 943.351 203.992L912.157 200.784C907.568 202.537 907.811 212.222 912.781 211.657V211.657Z" fill="#4D4D4D"/>
<path d="M949.768 204.527C946.175 204.527 943.262 203.948 943.262 203.235C943.262 202.521 946.175 201.942 949.768 201.942C953.361 201.942 956.274 202.521 956.274 203.235C956.274 203.948 953.361 204.527 949.768 204.527Z" fill="#818181"/>
<path d="M955.918 202.656L955.74 190.089L943.44 180.73L943.53 203.101C946.168 203.758 950.943 204.928 955.918 202.656H955.918Z" fill="#737373"/>
<path d="M1002.41 175.027C1005.93 177.26 999.868 189.58 998.077 195.943L996.868 196.215L942.936 164.579L947.007 158.602L1002.41 175.027Z" fill="#202020"/>
<path opacity="0.668471" d="M920.562 201.672C933.151 204.185 942.024 207.96 945.082 212.133C948.567 214.237 951.819 213.907 955.742 213.732L956.275 203.538L954.01 194.809L943.219 186.351C943.219 186.351 943.6 202.472 943.4 202.805C942.917 203.279 943.047 203.903 943.047 203.903C940.575 203.79 926.085 202.224 920.562 201.672H920.562Z" fill="url(#paint1_linear)"/>
<path d="M1001.73 174.939C1005.02 177.437 998.636 189.649 996.845 196.012L941.704 164.648L948.66 154.974L1001.73 174.939Z" fill="#3B3B3B"/>
<path d="M948.702 156.507C949.155 156.498 949.57 156.611 949.917 156.82C949.919 156.821 949.92 156.824 949.922 156.825C950.865 157.222 991.91 174.523 992.532 174.488L956.311 203.914L922.804 175.85C922.802 175.849 922.801 175.847 922.799 175.846C921.879 175.365 921.349 174.237 921.526 172.865L922.941 161.931C923.188 160.018 924.707 158.377 926.351 158.248L948.553 156.515C948.604 156.511 948.652 156.508 948.702 156.507Z" fill="#A0A0A0"/>
<path d="M960.64 176.288L990.481 173.856C992.684 173.676 994.22 175.931 993.911 178.892L992.142 195.872C991.833 198.833 989.797 201.378 987.594 201.558L957.753 203.99C955.55 204.17 954.015 201.915 954.323 198.955L956.093 181.974C956.401 179.014 958.437 176.468 960.64 176.288Z" fill="#7B7B7B"/>
<path d="M963.082 178.578L987.515 176.587C989.319 176.439 990.576 178.285 990.323 180.71L988.875 194.612C988.622 197.037 986.955 199.121 985.151 199.268L960.719 201.259C958.915 201.406 957.658 199.56 957.91 197.136L959.359 183.234C959.612 180.809 961.279 178.725 963.082 178.578Z" fill="url(#paint2_linear)"/>
<path d="M963.33 178.769L986.274 176.869C987.968 176.728 989.149 178.49 988.912 180.803L987.551 194.069C987.314 196.382 985.749 198.371 984.055 198.511L961.111 200.412C959.417 200.552 958.236 198.791 958.474 196.477L959.834 183.211C960.071 180.898 961.637 178.909 963.33 178.769Z" fill="#494949"/>
<path d="M993.188 185.748C993.188 185.748 975.24 185.247 966.534 187.075C965.186 187.358 963.85 187.833 962.671 188.546C960.033 190.143 955.475 196.009 955.475 196.009L954.509 196.275L958.007 178.152L993.854 175.887L993.188 185.748Z" fill="url(#paint3_linear)"/>
<path d="M948.776 155.515C949.279 155.505 949.74 155.63 950.126 155.863C950.126 155.865 950.126 155.866 950.135 155.868C951.071 156.263 992.574 171.639 1001.82 174.957C1002.93 175.354 1003.12 175.884 1003.2 175.879C1003.2 175.879 981.163 176.35 968.242 177.514C965.948 177.721 963.008 178.432 962.014 180.511C960.041 184.638 958.061 192.86 957.815 192.715L956.598 192.766L920.159 165.529L920.169 161.539C920.443 159.415 922.131 157.592 923.956 157.449L948.615 155.525C948.673 155.52 948.725 155.516 948.781 155.515L948.776 155.515Z" fill="#202020"/>
<g filter="url(#filter0_f)">
<path d="M954.543 197.141C953.543 196.942 921.761 170.823 921.761 170.823L922.96 163.827L956.675 181.417L954.543 197.141Z" fill="url(#paint4_linear)"/>
</g>
<path d="M947.8 154.642C948.304 154.632 948.764 154.758 949.15 154.99C949.15 154.992 949.15 154.994 949.16 154.996C950.207 155.438 1001.91 175.024 1002.6 174.986C1002.6 174.986 980.187 175.477 967.266 176.641C964.972 176.848 962.032 177.56 961.038 179.638C959.065 183.766 956.761 192.965 956.514 192.82L919.184 164.656L919.193 160.667C919.467 158.542 921.155 156.719 922.981 156.577L947.64 154.652C947.697 154.648 947.749 154.644 947.805 154.643L947.8 154.642Z" fill="#6E6E6E"/>
<path d="M973.865 197.874C968.419 197.874 964.243 193.519 964.537 188.146C964.831 182.774 969.485 178.418 974.931 178.418C980.377 178.418 984.554 182.774 984.259 188.146C983.965 193.519 979.311 197.874 973.865 197.874Z" fill="#121212"/>
<path opacity="0.668471" d="M973.071 196.895C968.36 196.895 964.747 193.127 965.002 188.48C965.256 183.832 969.282 180.064 973.993 180.064C978.705 180.064 982.317 183.832 982.063 188.48C981.808 193.127 977.782 196.895 973.071 196.895Z" fill="url(#paint5_radial)"/>
<path d="M963.632 199.283C961.951 199.283 960.588 197.92 960.588 196.239C960.588 194.558 961.951 193.195 963.632 193.195C965.313 193.195 966.676 194.558 966.676 196.239C966.676 197.92 965.313 199.283 963.632 199.283Z" fill="url(#paint6_linear)"/>
<path d="M963.399 198.783C961.994 198.783 960.854 197.644 960.854 196.239C960.854 194.834 961.994 193.695 963.399 193.695C964.804 193.695 965.943 194.834 965.943 196.239C965.943 197.644 964.804 198.783 963.399 198.783Z" fill="url(#paint7_radial)"/>
<path d="M964.902 195.998C964.619 196.153 964.197 195.925 963.959 195.489C963.72 195.053 963.756 194.574 964.038 194.42C964.321 194.265 964.743 194.493 964.982 194.929C965.22 195.365 965.184 195.844 964.902 195.998Z" fill="#FF3636" fill-opacity="0.428571"/>
<path opacity="0.668471" d="M973.199 195.885L972.492 192.492C974.227 192.005 975.999 191.771 977.251 188.064C977.251 188.064 981.35 187.969 981.302 188.158C981.365 191.67 977.867 195.977 973.199 195.885V195.885Z" fill="url(#paint8_linear)"/>
<path d="M971.584 174.988C971.584 174.988 956.346 172.066 954.885 171.44C953.424 170.814 953.149 169.172 949.101 168.151C945.023 167.122 941.949 164.811 941.949 164.811L936.098 161.838L926.287 156.411L921.487 157.246C921.487 157.246 919.399 158.081 919.399 159.124C919.399 160.168 918.773 164.134 918.773 164.134L956.555 192.731L960.312 179.789L963.026 177.076L971.584 174.988Z" fill="url(#paint9_linear)"/>
<path d="M1001.91 174.739L948.917 155.109L947.305 154.914L938.584 156.142L935.78 155.847C935.78 155.847 932.385 156.732 934.894 157.47C937.404 158.208 944.489 157.765 945.817 157.913C947.145 158.061 949.802 158.503 950.983 159.241C952.164 159.979 953.64 160.865 954.378 161.308C955.116 161.751 958.658 162.489 960.577 162.784C962.496 163.079 964.415 162.636 965.596 163.965C966.776 165.293 967.367 167.507 968.843 168.097C970.319 168.688 973.418 168.688 974.894 168.54C976.37 168.393 977.108 168.097 977.699 168.245C978.289 168.393 980.503 168.393 981.684 168.688C982.865 168.983 985.226 170.607 988.916 171.492C992.606 172.378 1001.91 174.739 1001.91 174.739V174.739Z" fill="#656565" fill-opacity="0.579439"/>
<path d="M973.271 176.068H967.219C967.219 176.068 962.348 176.511 960.577 175.625C958.806 174.74 954.082 173.116 953.492 172.526C952.902 171.935 949.064 171.345 948.326 171.493C947.588 171.64 946.702 172.231 946.555 173.707C946.407 175.183 942.717 176.068 942.717 176.068C942.717 176.068 942.717 180.201 942.865 180.939C943.012 181.677 939.913 181.677 939.322 178.577C938.732 175.478 940.503 173.411 940.651 172.083C940.798 170.755 940.503 169.721 940.503 168.836C940.503 167.95 941.979 165.293 942.127 164.408C942.274 163.522 944.341 165.588 945.226 166.326C946.112 167.064 948.916 168.245 950.54 168.54C952.164 168.836 953.344 169.279 956.592 170.164C959.839 171.05 956.444 171.493 961.905 171.788C967.367 172.083 974.451 173.264 975.927 173.411C977.403 173.559 978.879 173.264 982.569 173.264C986.259 173.264 1002.05 174.887 1002.05 174.887L973.271 176.068Z" fill="#656565" fill-opacity="0.579439"/>
<path d="M913.444 397.643L905.601 399.336C901.58 400.167 901.959 401.512 902.236 416.002C902.366 422.83 900.746 432.273 904.531 431.244C904.888 430.887 915.583 427.768 915.583 427.768C917.942 424.69 922.338 403.566 913.444 397.643V397.643Z" fill="#585858"/>
<path d="M958.23 411.124L957.517 421.462C956.274 424.953 946.033 425.084 945.128 421.551C945.228 418.105 945.236 414.659 945.218 411.213L958.23 411.124Z" fill="#5A5A5A"/>
<path d="M910.622 413.293V418.311C910.622 418.311 911.803 422.739 911.36 423.773C910.917 424.806 907.965 430.562 907.965 430.562L914.312 428.643L916.378 423.33L918.149 417.278L910.622 413.293Z" fill="url(#paint10_linear)"/>
<path d="M914.781 419.657L945.44 421.529C948.337 419.389 948.804 416.387 945.351 411.992L914.157 408.784C909.568 410.537 909.811 420.222 914.781 419.657V419.657Z" fill="#4D4D4D"/>
<path d="M951.768 412.527C948.175 412.527 945.262 411.948 945.262 411.235C945.262 410.521 948.175 409.942 951.768 409.942C955.361 409.942 958.274 410.521 958.274 411.235C958.274 411.948 955.361 412.527 951.768 412.527Z" fill="#818181"/>
<path d="M957.918 410.656L957.74 398.089L945.44 388.73L945.53 411.101C948.168 411.758 952.943 412.928 957.918 410.656H957.918Z" fill="#737373"/>
<path d="M1004.41 383.027C1007.93 385.26 1001.87 397.58 1000.08 403.943L998.868 404.215L944.936 372.579L949.007 366.602L1004.41 383.027Z" fill="#202020"/>
<path opacity="0.668471" d="M922.562 409.672C935.151 412.185 944.024 415.96 947.082 420.133C950.567 422.237 953.819 421.907 957.742 421.732L958.275 411.538L956.01 402.809L945.219 394.351C945.219 394.351 945.6 410.472 945.4 410.805C944.917 411.279 945.047 411.903 945.047 411.903C942.575 411.79 928.085 410.224 922.562 409.672H922.562Z" fill="url(#paint11_linear)"/>
<path d="M1003.73 382.939C1007.02 385.437 1000.64 397.649 998.845 404.012L943.704 372.648L950.66 362.974L1003.73 382.939Z" fill="#3B3B3B"/>
<path d="M950.702 364.507C951.155 364.498 951.57 364.611 951.917 364.82C951.919 364.821 951.92 364.824 951.922 364.825C952.865 365.222 993.91 382.523 994.532 382.488L958.311 411.914L924.804 383.85C924.802 383.849 924.801 383.847 924.799 383.846C923.879 383.365 923.349 382.237 923.526 380.865L924.941 369.931C925.188 368.018 926.707 366.377 928.351 366.248L950.553 364.515C950.604 364.511 950.652 364.508 950.702 364.507Z" fill="#A0A0A0"/>
<path d="M962.64 384.288L992.481 381.856C994.684 381.676 996.22 383.931 995.911 386.892L994.142 403.872C993.833 406.833 991.797 409.378 989.594 409.558L959.753 411.99C957.55 412.17 956.015 409.915 956.323 406.955L958.093 389.974C958.401 387.014 960.437 384.468 962.64 384.288Z" fill="#7B7B7B"/>
<path d="M965.082 386.578L989.515 384.587C991.319 384.439 992.576 386.285 992.323 388.71L990.875 402.612C990.622 405.037 988.955 407.121 987.151 407.268L962.719 409.259C960.915 409.406 959.658 407.56 959.91 405.136L961.359 391.234C961.612 388.809 963.279 386.725 965.082 386.578Z" fill="url(#paint12_linear)"/>
<path d="M965.33 386.769L988.274 384.869C989.968 384.728 991.149 386.49 990.912 388.803L989.551 402.069C989.314 404.382 987.749 406.371 986.055 406.511L963.111 408.412C961.417 408.552 960.236 406.791 960.474 404.477L961.834 391.211C962.071 388.898 963.637 386.909 965.33 386.769Z" fill="#494949"/>
<path d="M995.188 393.748C995.188 393.748 977.24 393.247 968.534 395.075C967.186 395.358 965.85 395.833 964.671 396.546C962.033 398.143 957.475 404.009 957.475 404.009L956.509 404.275L960.007 386.152L995.854 383.887L995.188 393.748Z" fill="url(#paint13_linear)"/>
<path d="M950.776 363.515C951.279 363.505 951.74 363.63 952.126 363.863C952.126 363.865 952.126 363.866 952.135 363.868C953.071 364.263 994.574 379.639 1003.82 382.957C1004.93 383.354 1005.12 383.884 1005.2 383.879C1005.2 383.879 983.163 384.35 970.242 385.514C967.948 385.721 965.008 386.432 964.014 388.511C962.041 392.638 960.061 400.86 959.815 400.715L958.598 400.766L922.159 373.529L922.169 369.539C922.443 367.415 924.131 365.592 925.956 365.449L950.615 363.525C950.673 363.52 950.725 363.516 950.781 363.515L950.776 363.515Z" fill="#202020"/>
<g filter="url(#filter1_f)">
<path d="M956.543 405.141C955.543 404.942 923.761 378.823 923.761 378.823L924.96 371.827L958.675 389.417L956.543 405.141Z" fill="url(#paint14_linear)"/>
</g>
<path d="M949.8 362.642C950.304 362.632 950.764 362.758 951.15 362.99C951.15 362.992 951.15 362.994 951.16 362.996C952.207 363.438 1003.91 383.024 1004.6 382.986C1004.6 382.986 982.187 383.477 969.266 384.641C966.972 384.848 964.032 385.56 963.038 387.638C961.065 391.766 958.761 400.965 958.514 400.82L921.184 372.656L921.193 368.667C921.467 366.542 923.155 364.719 924.981 364.577L949.64 362.652C949.697 362.648 949.749 362.644 949.805 362.643L949.8 362.642Z" fill="#6E6E6E"/>
<path d="M975.865 405.874C970.419 405.874 966.243 401.519 966.537 396.146C966.831 390.774 971.485 386.418 976.931 386.418C982.377 386.418 986.554 390.774 986.259 396.146C985.965 401.519 981.311 405.874 975.865 405.874Z" fill="#121212"/>
<path opacity="0.668471" d="M975.071 404.895C970.36 404.895 966.747 401.127 967.002 396.48C967.256 391.832 971.282 388.064 975.993 388.064C980.705 388.064 984.317 391.832 984.063 396.48C983.808 401.127 979.782 404.895 975.071 404.895Z" fill="url(#paint15_radial)"/>
<path d="M965.632 407.283C963.951 407.283 962.588 405.92 962.588 404.239C962.588 402.558 963.951 401.195 965.632 401.195C967.313 401.195 968.676 402.558 968.676 404.239C968.676 405.92 967.313 407.283 965.632 407.283Z" fill="url(#paint16_linear)"/>
<path d="M965.399 406.783C963.994 406.783 962.854 405.644 962.854 404.239C962.854 402.834 963.994 401.695 965.399 401.695C966.804 401.695 967.943 402.834 967.943 404.239C967.943 405.644 966.804 406.783 965.399 406.783Z" fill="url(#paint17_radial)"/>
<path d="M966.902 403.998C966.619 404.153 966.197 403.925 965.959 403.489C965.72 403.053 965.756 402.574 966.038 402.42C966.321 402.265 966.743 402.493 966.982 402.929C967.22 403.365 967.184 403.844 966.902 403.998Z" fill="#FF3636" fill-opacity="0.428571"/>
<path opacity="0.668471" d="M975.199 403.885L974.492 400.492C976.227 400.005 977.999 399.771 979.251 396.064C979.251 396.064 983.35 395.969 983.302 396.158C983.365 399.67 979.867 403.977 975.199 403.885V403.885Z" fill="url(#paint18_linear)"/>
<path d="M973.584 382.988C973.584 382.988 958.346 380.066 956.885 379.44C955.424 378.814 955.149 377.172 951.101 376.151C947.023 375.122 943.949 372.811 943.949 372.811L938.098 369.838L928.287 364.411L923.487 365.246C923.487 365.246 921.399 366.081 921.399 367.124C921.399 368.168 920.773 372.134 920.773 372.134L958.555 400.731L962.312 387.789L965.026 385.076L973.584 382.988Z" fill="url(#paint19_linear)"/>
<path d="M1003.91 382.739L950.917 363.109L949.305 362.914L940.584 364.142L937.78 363.847C937.78 363.847 934.385 364.732 936.894 365.47C939.404 366.208 946.489 365.765 947.817 365.913C949.145 366.061 951.802 366.503 952.983 367.241C954.164 367.979 955.64 368.865 956.378 369.308C957.116 369.751 960.658 370.489 962.577 370.784C964.496 371.079 966.415 370.636 967.596 371.965C968.776 373.293 969.367 375.507 970.843 376.097C972.319 376.688 975.418 376.688 976.894 376.54C978.37 376.393 979.108 376.097 979.699 376.245C980.289 376.393 982.503 376.393 983.684 376.688C984.865 376.983 987.226 378.607 990.916 379.492C994.606 380.378 1003.91 382.739 1003.91 382.739V382.739Z" fill="#656565" fill-opacity="0.579439"/>
<path d="M975.271 384.068H969.219C969.219 384.068 964.348 384.511 962.577 383.625C960.806 382.74 956.082 381.116 955.492 380.526C954.902 379.935 951.064 379.345 950.326 379.493C949.588 379.64 948.702 380.231 948.555 381.707C948.407 383.183 944.717 384.068 944.717 384.068C944.717 384.068 944.717 388.201 944.865 388.939C945.012 389.677 941.913 389.677 941.322 386.577C940.732 383.478 942.503 381.411 942.651 380.083C942.798 378.755 942.503 377.721 942.503 376.836C942.503 375.95 943.979 373.293 944.127 372.408C944.274 371.522 946.341 373.588 947.226 374.326C948.112 375.064 950.916 376.245 952.54 376.54C954.164 376.836 955.344 377.279 958.592 378.164C961.839 379.05 958.444 379.493 963.905 379.788C969.367 380.083 976.451 381.264 977.927 381.411C979.403 381.559 980.879 381.264 984.569 381.264C988.259 381.264 1004.05 382.887 1004.05 382.887L975.271 384.068Z" fill="#656565" fill-opacity="0.579439"/>
<path d="M909.444 289.643L901.601 291.336C897.58 292.167 897.959 293.512 898.236 308.002C898.366 314.83 896.746 324.273 900.531 323.244C900.888 322.887 911.583 319.768 911.583 319.768C913.942 316.69 918.338 295.566 909.444 289.643V289.643Z" fill="#585858"/>
<path d="M954.23 303.124L953.517 313.462C952.274 316.953 942.033 317.084 941.128 313.551C941.228 310.105 941.236 306.659 941.218 303.213L954.23 303.124Z" fill="#5A5A5A"/>
<path d="M906.622 305.293V310.311C906.622 310.311 907.803 314.739 907.36 315.773C906.917 316.806 903.965 322.562 903.965 322.562L910.312 320.643L912.378 315.33L914.149 309.278L906.622 305.293Z" fill="url(#paint20_linear)"/>
<path d="M910.781 311.657L941.44 313.529C944.337 311.389 944.804 308.387 941.351 303.992L910.157 300.784C905.568 302.537 905.811 312.222 910.781 311.657V311.657Z" fill="#4D4D4D"/>
<path d="M947.768 304.527C944.175 304.527 941.262 303.948 941.262 303.235C941.262 302.521 944.175 301.942 947.768 301.942C951.361 301.942 954.274 302.521 954.274 303.235C954.274 303.948 951.361 304.527 947.768 304.527Z" fill="#818181"/>
<path d="M953.918 302.656L953.74 290.089L941.44 280.73L941.53 303.101C944.168 303.758 948.943 304.928 953.918 302.656H953.918Z" fill="#737373"/>
<path d="M1000.41 275.027C1003.93 277.26 997.868 289.58 996.077 295.943L994.868 296.215L940.936 264.579L945.007 258.602L1000.41 275.027Z" fill="#202020"/>
<path opacity="0.668471" d="M918.562 301.672C931.151 304.185 940.024 307.96 943.082 312.133C946.567 314.237 949.819 313.907 953.742 313.732L954.275 303.538L952.01 294.809L941.219 286.351C941.219 286.351 941.6 302.472 941.4 302.805C940.917 303.279 941.047 303.903 941.047 303.903C938.575 303.79 924.085 302.224 918.562 301.672H918.562Z" fill="url(#paint21_linear)"/>
<path d="M999.733 274.939C1003.02 277.437 996.636 289.649 994.845 296.012L939.704 264.648L946.66 254.974L999.733 274.939Z" fill="#3B3B3B"/>
<path d="M946.702 256.507C947.155 256.498 947.57 256.611 947.917 256.82C947.919 256.821 947.92 256.824 947.922 256.825C948.865 257.222 989.91 274.523 990.532 274.488L954.311 303.914L920.804 275.85C920.802 275.849 920.801 275.847 920.799 275.846C919.879 275.365 919.349 274.237 919.526 272.865L920.941 261.931C921.188 260.018 922.707 258.377 924.351 258.248L946.553 256.515C946.604 256.511 946.652 256.508 946.702 256.507Z" fill="#A0A0A0"/>
<path d="M958.64 276.288L988.481 273.856C990.684 273.676 992.22 275.931 991.911 278.892L990.142 295.872C989.833 298.833 987.797 301.378 985.594 301.558L955.753 303.99C953.55 304.17 952.015 301.915 952.323 298.955L954.093 281.974C954.401 279.014 956.437 276.468 958.64 276.288Z" fill="#7B7B7B"/>
<path d="M961.082 278.578L985.515 276.587C987.319 276.439 988.576 278.285 988.323 280.71L986.875 294.612C986.622 297.037 984.955 299.121 983.151 299.268L958.719 301.259C956.915 301.406 955.658 299.56 955.91 297.136L957.359 283.234C957.612 280.809 959.279 278.725 961.082 278.578Z" fill="url(#paint22_linear)"/>
<path d="M961.33 278.769L984.274 276.869C985.968 276.728 987.149 278.49 986.912 280.803L985.551 294.069C985.314 296.382 983.749 298.371 982.055 298.511L959.111 300.412C957.417 300.552 956.236 298.791 956.474 296.477L957.834 283.211C958.071 280.898 959.637 278.909 961.33 278.769Z" fill="#494949"/>
<path d="M991.188 285.748C991.188 285.748 973.24 285.247 964.534 287.075C963.186 287.358 961.85 287.833 960.671 288.546C958.033 290.143 953.475 296.009 953.475 296.009L952.509 296.275L956.007 278.152L991.854 275.887L991.188 285.748Z" fill="url(#paint23_linear)"/>
<path d="M946.776 255.515C947.279 255.505 947.74 255.63 948.126 255.863C948.126 255.865 948.126 255.866 948.135 255.868C949.071 256.263 990.574 271.639 999.821 274.957C1000.93 275.354 1001.12 275.884 1001.2 275.879C1001.2 275.879 979.163 276.35 966.242 277.514C963.948 277.721 961.008 278.432 960.014 280.511C958.041 284.638 956.061 292.86 955.815 292.715L954.598 292.766L918.159 265.529L918.169 261.539C918.443 259.415 920.131 257.592 921.956 257.449L946.615 255.525C946.673 255.52 946.725 255.516 946.781 255.515L946.776 255.515Z" fill="#202020"/>
<g filter="url(#filter2_f)">
<path d="M952.543 297.141C951.543 296.942 919.761 270.823 919.761 270.823L920.96 263.827L954.675 281.417L952.543 297.141Z" fill="url(#paint24_linear)"/>
</g>
<path d="M945.8 254.642C946.304 254.632 946.764 254.758 947.15 254.99C947.15 254.992 947.15 254.994 947.16 254.996C948.207 255.438 999.907 275.024 1000.6 274.986C1000.6 274.986 978.187 275.477 965.266 276.641C962.972 276.848 960.032 277.56 959.038 279.638C957.065 283.766 954.761 292.965 954.514 292.82L917.184 264.656L917.193 260.667C917.467 258.542 919.155 256.719 920.981 256.577L945.64 254.652C945.697 254.648 945.749 254.644 945.805 254.643L945.8 254.642Z" fill="#6E6E6E"/>
<path d="M971.865 297.874C966.419 297.874 962.243 293.519 962.537 288.146C962.831 282.774 967.485 278.418 972.931 278.418C978.377 278.418 982.554 282.774 982.259 288.146C981.965 293.519 977.311 297.874 971.865 297.874Z" fill="#121212"/>
<path opacity="0.668471" d="M971.071 296.895C966.36 296.895 962.747 293.127 963.002 288.48C963.256 283.832 967.282 280.064 971.993 280.064C976.705 280.064 980.317 283.832 980.063 288.48C979.808 293.127 975.782 296.895 971.071 296.895Z" fill="url(#paint25_radial)"/>
<path d="M961.632 299.283C959.951 299.283 958.588 297.92 958.588 296.239C958.588 294.558 959.951 293.195 961.632 293.195C963.313 293.195 964.676 294.558 964.676 296.239C964.676 297.92 963.313 299.283 961.632 299.283Z" fill="url(#paint26_linear)"/>
<path d="M961.399 298.783C959.994 298.783 958.854 297.644 958.854 296.239C958.854 294.834 959.994 293.695 961.399 293.695C962.804 293.695 963.943 294.834 963.943 296.239C963.943 297.644 962.804 298.783 961.399 298.783Z" fill="url(#paint27_radial)"/>
<path d="M962.902 295.998C962.619 296.153 962.197 295.925 961.959 295.489C961.72 295.053 961.756 294.574 962.038 294.42C962.321 294.265 962.743 294.493 962.982 294.929C963.22 295.365 963.184 295.844 962.902 295.998Z" fill="#FF3636" fill-opacity="0.428571"/>
<path opacity="0.668471" d="M971.199 295.885L970.492 292.492C972.227 292.005 973.999 291.771 975.251 288.064C975.251 288.064 979.35 287.969 979.302 288.158C979.365 291.67 975.867 295.977 971.199 295.885V295.885Z" fill="url(#paint28_linear)"/>
<path d="M969.584 274.988C969.584 274.988 954.346 272.066 952.885 271.44C951.424 270.814 951.149 269.172 947.101 268.151C943.023 267.122 939.949 264.811 939.949 264.811L934.098 261.838L924.287 256.411L919.487 257.246C919.487 257.246 917.399 258.081 917.399 259.124C917.399 260.168 916.773 264.134 916.773 264.134L954.555 292.731L958.312 279.789L961.026 277.076L969.584 274.988Z" fill="url(#paint29_linear)"/>
<path d="M999.905 274.739L946.917 255.109L945.305 254.914L936.584 256.142L933.78 255.847C933.78 255.847 930.385 256.732 932.894 257.47C935.404 258.208 942.489 257.765 943.817 257.913C945.145 258.061 947.802 258.503 948.983 259.241C950.164 259.979 951.64 260.865 952.378 261.308C953.116 261.751 956.658 262.489 958.577 262.784C960.496 263.079 962.415 262.636 963.596 263.965C964.776 265.293 965.367 267.507 966.843 268.097C968.319 268.688 971.418 268.688 972.894 268.54C974.37 268.393 975.108 268.097 975.699 268.245C976.289 268.393 978.503 268.393 979.684 268.688C980.865 268.983 983.226 270.607 986.916 271.492C990.606 272.378 999.905 274.739 999.905 274.739V274.739Z" fill="#656565" fill-opacity="0.579439"/>
<path d="M971.271 276.068H965.219C965.219 276.068 960.348 276.511 958.577 275.625C956.806 274.74 952.082 273.116 951.492 272.526C950.902 271.935 947.064 271.345 946.326 271.493C945.588 271.64 944.702 272.231 944.555 273.707C944.407 275.183 940.717 276.068 940.717 276.068C940.717 276.068 940.717 280.201 940.865 280.939C941.012 281.677 937.913 281.677 937.322 278.577C936.732 275.478 938.503 273.411 938.651 272.083C938.798 270.755 938.503 269.721 938.503 268.836C938.503 267.95 939.979 265.293 940.127 264.408C940.274 263.522 942.341 265.588 943.226 266.326C944.112 267.064 946.916 268.245 948.54 268.54C950.164 268.836 951.344 269.279 954.592 270.164C957.839 271.05 954.444 271.493 959.905 271.788C965.367 272.083 972.451 273.264 973.927 273.411C975.403 273.559 976.879 273.264 980.569 273.264C984.259 273.264 1000.05 274.887 1000.05 274.887L971.271 276.068Z" fill="#656565" fill-opacity="0.579439"/>
<g filter="url(#filter3_dd)">
<rect x="480" y="163" width="252" height="120" rx="4" fill="white"/>
</g>
<path d="M480 167C480 164.791 481.791 163 484 163H728C730.209 163 732 164.791 732 167V169H480V167Z" fill="#4A796B"/>
<path d="M566.822 227H569.721V220.203H576.369V217.773H569.721V213.43H577.072V211H566.822V227ZM582.934 227.242C584.816 227.242 585.941 226.359 586.457 225.352H586.551V227H589.27V218.969C589.27 215.797 586.684 214.844 584.395 214.844C581.871 214.844 579.934 215.969 579.309 218.156L581.949 218.531C582.23 217.711 583.027 217.008 584.41 217.008C585.723 217.008 586.441 217.68 586.441 218.859V218.906C586.441 219.719 585.59 219.758 583.473 219.984C581.145 220.234 578.918 220.93 578.918 223.633C578.918 225.992 580.645 227.242 582.934 227.242ZM583.668 225.164C582.488 225.164 581.645 224.625 581.645 223.586C581.645 222.5 582.59 222.047 583.855 221.867C584.598 221.766 586.082 221.578 586.449 221.281V222.695C586.449 224.031 585.371 225.164 583.668 225.164ZM597.348 227.234C600.363 227.234 602.285 225.445 602.488 222.898H599.785C599.543 224.188 598.613 224.93 597.371 224.93C595.605 224.93 594.465 223.453 594.465 221C594.465 218.578 595.629 217.125 597.371 217.125C598.73 217.125 599.566 218 599.785 219.156H602.488C602.293 216.555 600.262 214.844 597.332 214.844C593.816 214.844 591.598 217.383 591.598 221.047C591.598 224.68 593.762 227.234 597.348 227.234ZM610.803 215H608.436V212.125H605.607V215H603.904V217.187H605.607V223.859C605.592 226.117 607.232 227.227 609.357 227.164C610.162 227.141 610.717 226.984 611.021 226.883L610.545 224.672C610.389 224.711 610.068 224.781 609.717 224.781C609.006 224.781 608.436 224.531 608.436 223.391V217.187H610.803V215ZM618.273 227.234C621.789 227.234 624.023 224.758 624.023 221.047C624.023 217.328 621.789 214.844 618.273 214.844C614.758 214.844 612.523 217.328 612.523 221.047C612.523 224.758 614.758 227.234 618.273 227.234ZM618.289 224.969C616.344 224.969 615.391 223.234 615.391 221.039C615.391 218.844 616.344 217.086 618.289 217.086C620.203 217.086 621.156 218.844 621.156 221.039C621.156 223.234 620.203 224.969 618.289 224.969ZM626.424 227H629.252V219.945C629.252 218.422 630.4 217.344 631.955 217.344C632.432 217.344 633.025 217.43 633.268 217.508V214.906C633.01 214.859 632.564 214.828 632.252 214.828C630.877 214.828 629.729 215.609 629.291 217H629.166V215H626.424V227ZM637.27 231.5C639.473 231.5 640.746 230.367 641.426 228.453L646.246 215.016L643.223 215L640.449 224.062H640.324L637.559 215H634.559L638.91 227.25L638.668 227.898C638.145 229.266 637.316 229.359 636.082 229L635.426 231.203C635.809 231.359 636.496 231.5 637.27 231.5Z" fill="#262424"/>
<path d="M564.414 246.42H566.107C566.056 244.557 564.408 243.205 562.045 243.205C559.71 243.205 557.92 244.54 557.92 246.545C557.92 248.165 559.079 249.114 560.948 249.619L562.323 249.994C563.567 250.324 564.528 250.733 564.528 251.767C564.528 252.903 563.442 253.653 561.948 253.653C560.596 253.653 559.471 253.051 559.369 251.784H557.607C557.721 253.892 559.352 255.193 561.96 255.193C564.692 255.193 566.266 253.756 566.266 251.784C566.266 249.688 564.397 248.875 562.92 248.511L561.783 248.216C560.874 247.983 559.664 247.557 559.67 246.443C559.67 245.455 560.573 244.722 562.005 244.722C563.34 244.722 564.289 245.347 564.414 246.42ZM571.904 255.176C573.967 255.176 575.302 253.938 575.489 252.239H573.836C573.62 253.182 572.887 253.739 571.915 253.739C570.478 253.739 569.552 252.54 569.552 250.636C569.552 248.767 570.495 247.591 571.915 247.591C572.995 247.591 573.654 248.273 573.836 249.091H575.489C575.308 247.33 573.87 246.159 571.887 246.159C569.427 246.159 567.836 248.011 567.836 250.676C567.836 253.307 569.37 255.176 571.904 255.176ZM579.846 255.193C581.289 255.193 582.102 254.46 582.425 253.807H582.494V255H584.153V249.205C584.153 246.665 582.153 246.159 580.766 246.159C579.187 246.159 577.732 246.795 577.164 248.386L578.761 248.75C579.011 248.131 579.647 247.534 580.789 247.534C581.886 247.534 582.448 248.108 582.448 249.097V249.136C582.448 249.756 581.812 249.744 580.244 249.926C578.59 250.119 576.897 250.551 576.897 252.534C576.897 254.25 578.187 255.193 579.846 255.193ZM580.215 253.83C579.255 253.83 578.562 253.398 578.562 252.557C578.562 251.648 579.369 251.324 580.352 251.193C580.903 251.119 582.21 250.972 582.454 250.727V251.852C582.454 252.886 581.63 253.83 580.215 253.83ZM588.114 243.364H586.415V255H588.114V243.364ZM594.161 255.176C596.065 255.176 597.411 254.239 597.798 252.818L596.19 252.528C595.883 253.352 595.144 253.773 594.178 253.773C592.724 253.773 591.746 252.83 591.701 251.148H597.906V250.545C597.906 247.392 596.019 246.159 594.042 246.159C591.61 246.159 590.008 248.011 590.008 250.693C590.008 253.403 591.587 255.176 594.161 255.176ZM591.707 249.875C591.775 248.636 592.673 247.562 594.053 247.562C595.371 247.562 596.235 248.54 596.241 249.875H591.707ZM606.565 255.193C608.008 255.193 608.82 254.46 609.144 253.807H609.212V255H610.871V249.205C610.871 246.665 608.871 246.159 607.485 246.159C605.906 246.159 604.451 246.795 603.883 248.386L605.479 248.75C605.729 248.131 606.366 247.534 607.508 247.534C608.604 247.534 609.167 248.108 609.167 249.097V249.136C609.167 249.756 608.531 249.744 606.962 249.926C605.309 250.119 603.616 250.551 603.616 252.534C603.616 254.25 604.906 255.193 606.565 255.193ZM606.934 253.83C605.974 253.83 605.281 253.398 605.281 252.557C605.281 251.648 606.087 251.324 607.07 251.193C607.621 251.119 608.928 250.972 609.173 250.727V251.852C609.173 252.886 608.349 253.83 606.934 253.83ZM616.793 258.455C619.015 258.455 620.731 257.438 620.731 255.193V246.273H619.066V247.688H618.941C618.64 247.148 618.038 246.159 616.413 246.159C614.305 246.159 612.754 247.824 612.754 250.602C612.754 253.386 614.339 254.869 616.401 254.869C618.004 254.869 618.623 253.966 618.93 253.409H619.038V255.125C619.038 256.494 618.1 257.085 616.81 257.085C615.396 257.085 614.844 256.375 614.543 255.875L613.083 256.477C613.543 257.545 614.708 258.455 616.793 258.455ZM616.776 253.46C615.259 253.46 614.469 252.295 614.469 250.58C614.469 248.903 615.242 247.602 616.776 247.602C618.259 247.602 619.055 248.812 619.055 250.58C619.055 252.381 618.242 253.46 616.776 253.46ZM626.771 255.176C628.674 255.176 630.021 254.239 630.407 252.818L628.799 252.528C628.492 253.352 627.754 253.773 626.788 253.773C625.333 253.773 624.356 252.83 624.31 251.148H630.515V250.545C630.515 247.392 628.629 246.159 626.651 246.159C624.219 246.159 622.617 248.011 622.617 250.693C622.617 253.403 624.197 255.176 626.771 255.176ZM624.316 249.875C624.384 248.636 625.282 247.562 626.663 247.562C627.981 247.562 628.844 248.54 628.85 249.875H624.316ZM634.099 249.818C634.099 248.426 634.951 247.631 636.133 247.631C637.286 247.631 637.985 248.386 637.985 249.653V255H639.684V249.449C639.684 247.29 638.496 246.159 636.712 246.159C635.4 246.159 634.542 246.767 634.138 247.693H634.031V246.273H632.4V255H634.099V249.818ZM646.036 246.273H644.246V244.182H642.548V246.273H641.269V247.636H642.548V252.79C642.542 254.375 643.752 255.142 645.093 255.114C645.633 255.108 645.996 255.006 646.195 254.932L645.888 253.528C645.775 253.551 645.565 253.602 645.292 253.602C644.741 253.602 644.246 253.42 644.246 252.438V247.636H646.036V246.273ZM654.315 248.403C653.962 247.045 652.9 246.159 651.013 246.159C649.042 246.159 647.644 247.199 647.644 248.744C647.644 249.983 648.394 250.807 650.031 251.17L651.508 251.494C652.349 251.682 652.741 252.057 652.741 252.602C652.741 253.278 652.019 253.807 650.906 253.807C649.888 253.807 649.235 253.369 649.031 252.511L647.388 252.761C647.673 254.307 648.957 255.176 650.917 255.176C653.025 255.176 654.485 254.057 654.485 252.477C654.485 251.244 653.701 250.483 652.099 250.114L650.712 249.795C649.752 249.568 649.337 249.244 649.343 248.653C649.337 247.983 650.065 247.506 651.031 247.506C652.087 247.506 652.576 248.091 652.775 248.676L654.315 248.403Z" fill="#6D6666"/>
<rect x="553" y="151" width="107" height="36" rx="4" fill="#4A796B"/>
<path d="M570.291 176H572.663V171.206H575.079L577.648 176H580.295L577.463 170.81C579.004 170.19 579.815 168.873 579.815 167.096C579.815 164.597 578.205 162.909 575.2 162.909H570.291V176ZM572.663 169.237V164.891H574.836C576.607 164.891 577.399 165.702 577.399 167.096C577.399 168.489 576.607 169.237 574.849 169.237H572.663ZM581.998 176H590.564V174.012H584.37V170.439H590.071V168.451H584.37V164.897H590.512V162.909H581.998V176ZM604.137 167.326C603.734 164.418 601.497 162.73 598.595 162.73C595.175 162.73 592.599 165.223 592.599 169.455C592.599 173.68 595.143 176.179 598.595 176.179C601.708 176.179 603.773 174.165 604.137 171.666L601.746 171.653C601.446 173.188 600.193 174.05 598.627 174.05C596.505 174.05 594.984 172.459 594.984 169.455C594.984 166.501 596.492 164.859 598.634 164.859C600.225 164.859 601.472 165.76 601.746 167.326H604.137ZM618.006 169.455C618.006 165.223 615.424 162.73 611.991 162.73C608.552 162.73 605.976 165.223 605.976 169.455C605.976 173.68 608.552 176.179 611.991 176.179C615.424 176.179 618.006 173.686 618.006 169.455ZM615.622 169.455C615.622 172.433 614.126 174.05 611.991 174.05C609.863 174.05 608.361 172.433 608.361 169.455C608.361 166.476 609.863 164.859 611.991 164.859C614.126 164.859 615.622 166.476 615.622 169.455ZM620.248 176H622.62V171.206H625.036L627.605 176H630.252L627.42 170.81C628.961 170.19 629.772 168.873 629.772 167.096C629.772 164.597 628.162 162.909 625.157 162.909H620.248V176ZM622.62 169.237V164.891H624.793C626.564 164.891 627.356 165.702 627.356 167.096C627.356 168.489 626.564 169.237 624.806 169.237H622.62ZM636.391 176C640.38 176 642.745 173.533 642.745 169.442C642.745 165.364 640.38 162.909 636.481 162.909H631.955V176H636.391ZM634.327 173.948V164.961H636.347C639.006 164.961 640.393 166.444 640.393 169.442C640.393 172.452 639.006 173.948 636.276 173.948H634.327Z" fill="white"/>
<g filter="url(#filter4_dd)">
<rect x="67" y="344" width="252" height="120" rx="4" fill="white"/>
</g>
<path d="M67 348C67 345.791 68.7909 344 71 344H315C317.209 344 319 345.791 319 348V350H67V348Z" fill="#4A796B"/>
<path d="M153.822 408H156.721V401.203H163.369V398.773H156.721V394.43H164.072V392H153.822V408ZM169.934 408.242C171.816 408.242 172.941 407.359 173.457 406.352H173.551V408H176.27V399.969C176.27 396.797 173.684 395.844 171.395 395.844C168.871 395.844 166.934 396.969 166.309 399.156L168.949 399.531C169.23 398.711 170.027 398.008 171.41 398.008C172.723 398.008 173.441 398.68 173.441 399.859V399.906C173.441 400.719 172.59 400.758 170.473 400.984C168.145 401.234 165.918 401.93 165.918 404.633C165.918 406.992 167.645 408.242 169.934 408.242ZM170.668 406.164C169.488 406.164 168.645 405.625 168.645 404.586C168.645 403.5 169.59 403.047 170.855 402.867C171.598 402.766 173.082 402.578 173.449 402.281V403.695C173.449 405.031 172.371 406.164 170.668 406.164ZM184.348 408.234C187.363 408.234 189.285 406.445 189.488 403.898H186.785C186.543 405.188 185.613 405.93 184.371 405.93C182.605 405.93 181.465 404.453 181.465 402C181.465 399.578 182.629 398.125 184.371 398.125C185.73 398.125 186.566 399 186.785 400.156H189.488C189.293 397.555 187.262 395.844 184.332 395.844C180.816 395.844 178.598 398.383 178.598 402.047C178.598 405.68 180.762 408.234 184.348 408.234ZM197.803 396H195.436V393.125H192.607V396H190.904V398.187H192.607V404.859C192.592 407.117 194.232 408.227 196.357 408.164C197.162 408.141 197.717 407.984 198.021 407.883L197.545 405.672C197.389 405.711 197.068 405.781 196.717 405.781C196.006 405.781 195.436 405.531 195.436 404.391V398.187H197.803V396ZM205.273 408.234C208.789 408.234 211.023 405.758 211.023 402.047C211.023 398.328 208.789 395.844 205.273 395.844C201.758 395.844 199.523 398.328 199.523 402.047C199.523 405.758 201.758 408.234 205.273 408.234ZM205.289 405.969C203.344 405.969 202.391 404.234 202.391 402.039C202.391 399.844 203.344 398.086 205.289 398.086C207.203 398.086 208.156 399.844 208.156 402.039C208.156 404.234 207.203 405.969 205.289 405.969ZM213.424 408H216.252V400.945C216.252 399.422 217.4 398.344 218.955 398.344C219.432 398.344 220.025 398.43 220.268 398.508V395.906C220.01 395.859 219.564 395.828 219.252 395.828C217.877 395.828 216.729 396.609 216.291 398H216.166V396H213.424V408ZM224.27 412.5C226.473 412.5 227.746 411.367 228.426 409.453L233.246 396.016L230.223 396L227.449 405.062H227.324L224.559 396H221.559L225.91 408.25L225.668 408.898C225.145 410.266 224.316 410.359 223.082 410L222.426 412.203C222.809 412.359 223.496 412.5 224.27 412.5Z" fill="#262424"/>
<path d="M151.414 427.42H153.107C153.056 425.557 151.408 424.205 149.045 424.205C146.71 424.205 144.92 425.54 144.92 427.545C144.92 429.165 146.079 430.114 147.948 430.619L149.323 430.994C150.567 431.324 151.528 431.733 151.528 432.767C151.528 433.903 150.442 434.653 148.948 434.653C147.596 434.653 146.471 434.051 146.369 432.784H144.607C144.721 434.892 146.352 436.193 148.96 436.193C151.692 436.193 153.266 434.756 153.266 432.784C153.266 430.688 151.397 429.875 149.92 429.511L148.783 429.216C147.874 428.983 146.664 428.557 146.67 427.443C146.67 426.455 147.573 425.722 149.005 425.722C150.34 425.722 151.289 426.347 151.414 427.42ZM158.904 436.176C160.967 436.176 162.302 434.938 162.489 433.239H160.836C160.62 434.182 159.887 434.739 158.915 434.739C157.478 434.739 156.552 433.54 156.552 431.636C156.552 429.767 157.495 428.591 158.915 428.591C159.995 428.591 160.654 429.273 160.836 430.091H162.489C162.308 428.33 160.87 427.159 158.887 427.159C156.427 427.159 154.836 429.011 154.836 431.676C154.836 434.307 156.37 436.176 158.904 436.176ZM166.846 436.193C168.289 436.193 169.102 435.46 169.425 434.807H169.494V436H171.153V430.205C171.153 427.665 169.153 427.159 167.766 427.159C166.187 427.159 164.732 427.795 164.164 429.386L165.761 429.75C166.011 429.131 166.647 428.534 167.789 428.534C168.886 428.534 169.448 429.108 169.448 430.097V430.136C169.448 430.756 168.812 430.744 167.244 430.926C165.59 431.119 163.897 431.551 163.897 433.534C163.897 435.25 165.187 436.193 166.846 436.193ZM167.215 434.83C166.255 434.83 165.562 434.398 165.562 433.557C165.562 432.648 166.369 432.324 167.352 432.193C167.903 432.119 169.21 431.972 169.454 431.727V432.852C169.454 433.886 168.63 434.83 167.215 434.83ZM175.114 424.364H173.415V436H175.114V424.364ZM181.161 436.176C183.065 436.176 184.411 435.239 184.798 433.818L183.19 433.528C182.883 434.352 182.144 434.773 181.178 434.773C179.724 434.773 178.746 433.83 178.701 432.148H184.906V431.545C184.906 428.392 183.019 427.159 181.042 427.159C178.61 427.159 177.008 429.011 177.008 431.693C177.008 434.403 178.587 436.176 181.161 436.176ZM178.707 430.875C178.775 429.636 179.673 428.562 181.053 428.562C182.371 428.562 183.235 429.54 183.241 430.875H178.707ZM193.565 436.193C195.008 436.193 195.82 435.46 196.144 434.807H196.212V436H197.871V430.205C197.871 427.665 195.871 427.159 194.485 427.159C192.906 427.159 191.451 427.795 190.883 429.386L192.479 429.75C192.729 429.131 193.366 428.534 194.508 428.534C195.604 428.534 196.167 429.108 196.167 430.097V430.136C196.167 430.756 195.531 430.744 193.962 430.926C192.309 431.119 190.616 431.551 190.616 433.534C190.616 435.25 191.906 436.193 193.565 436.193ZM193.934 434.83C192.974 434.83 192.281 434.398 192.281 433.557C192.281 432.648 193.087 432.324 194.07 432.193C194.621 432.119 195.928 431.972 196.173 431.727V432.852C196.173 433.886 195.349 434.83 193.934 434.83ZM203.793 439.455C206.015 439.455 207.731 438.438 207.731 436.193V427.273H206.066V428.688H205.941C205.64 428.148 205.038 427.159 203.413 427.159C201.305 427.159 199.754 428.824 199.754 431.602C199.754 434.386 201.339 435.869 203.401 435.869C205.004 435.869 205.623 434.966 205.93 434.409H206.038V436.125C206.038 437.494 205.1 438.085 203.81 438.085C202.396 438.085 201.844 437.375 201.543 436.875L200.083 437.477C200.543 438.545 201.708 439.455 203.793 439.455ZM203.776 434.46C202.259 434.46 201.469 433.295 201.469 431.58C201.469 429.903 202.242 428.602 203.776 428.602C205.259 428.602 206.055 429.812 206.055 431.58C206.055 433.381 205.242 434.46 203.776 434.46ZM213.771 436.176C215.674 436.176 217.021 435.239 217.407 433.818L215.799 433.528C215.492 434.352 214.754 434.773 213.788 434.773C212.333 434.773 211.356 433.83 211.31 432.148H217.515V431.545C217.515 428.392 215.629 427.159 213.651 427.159C211.219 427.159 209.617 429.011 209.617 431.693C209.617 434.403 211.197 436.176 213.771 436.176ZM211.316 430.875C211.384 429.636 212.282 428.562 213.663 428.562C214.981 428.562 215.844 429.54 215.85 430.875H211.316ZM221.099 430.818C221.099 429.426 221.951 428.631 223.133 428.631C224.286 428.631 224.985 429.386 224.985 430.653V436H226.684V430.449C226.684 428.29 225.496 427.159 223.712 427.159C222.4 427.159 221.542 427.767 221.138 428.693H221.031V427.273H219.4V436H221.099V430.818ZM233.036 427.273H231.246V425.182H229.548V427.273H228.269V428.636H229.548V433.79C229.542 435.375 230.752 436.142 232.093 436.114C232.633 436.108 232.996 436.006 233.195 435.932L232.888 434.528C232.775 434.551 232.565 434.602 232.292 434.602C231.741 434.602 231.246 434.42 231.246 433.438V428.636H233.036V427.273ZM241.315 429.403C240.962 428.045 239.9 427.159 238.013 427.159C236.042 427.159 234.644 428.199 234.644 429.744C234.644 430.983 235.394 431.807 237.031 432.17L238.508 432.494C239.349 432.682 239.741 433.057 239.741 433.602C239.741 434.278 239.019 434.807 237.906 434.807C236.888 434.807 236.235 434.369 236.031 433.511L234.388 433.761C234.673 435.307 235.957 436.176 237.917 436.176C240.025 436.176 241.485 435.057 241.485 433.477C241.485 432.244 240.701 431.483 239.099 431.114L237.712 430.795C236.752 430.568 236.337 430.244 236.343 429.653C236.337 428.983 237.065 428.506 238.031 428.506C239.087 428.506 239.576 429.091 239.775 429.676L241.315 429.403Z" fill="#6D6666"/>
<rect x="106.5" y="332" width="174" height="36" rx="4" fill="#4A796B"/>
<path d="M123.791 357H126.163V352.577H128.668C131.692 352.577 133.315 350.761 133.315 348.243C133.315 345.744 131.711 343.909 128.7 343.909H123.791V357ZM126.163 350.627V345.891H128.336C130.113 345.891 130.899 346.849 130.899 348.243C130.899 349.636 130.113 350.627 128.349 350.627H126.163ZM135.375 357H137.747V352.206H140.163L142.732 357H145.379L142.547 351.81C144.088 351.19 144.899 349.873 144.899 348.096C144.899 345.597 143.289 343.909 140.284 343.909H135.375V357ZM137.747 350.237V345.891H139.92C141.691 345.891 142.483 346.702 142.483 348.096C142.483 349.489 141.691 350.237 139.933 350.237H137.747ZM149.454 343.909H147.082V357H149.454V343.909ZM153.773 343.909H151.172L155.78 357H158.708L163.323 343.909H160.715L157.314 354.213H157.18L153.773 343.909ZM165.199 357L166.279 353.772H171.201L172.288 357H174.819L170.204 343.909H167.276L162.668 357H165.199ZM166.918 351.867L168.689 346.594H168.791L170.562 351.867H166.918ZM174.386 345.897H178.432V357H180.784V345.897H184.83V343.909H174.386V345.897ZM186.844 357H195.409V355.012H189.215V351.439H194.917V349.451H189.215V345.897H195.358V343.909H186.844V357ZM213.448 348.326C213.045 345.418 210.808 343.73 207.906 343.73C204.486 343.73 201.91 346.223 201.91 350.455C201.91 354.68 204.454 357.179 207.906 357.179C211.019 357.179 213.083 355.165 213.448 352.666L211.057 352.653C210.757 354.188 209.504 355.05 207.938 355.05C205.816 355.05 204.294 353.459 204.294 350.455C204.294 347.501 205.803 345.859 207.944 345.859C209.536 345.859 210.782 346.76 211.057 348.326H213.448ZM215.619 357H223.756V355.012H217.991V343.909H215.619V357ZM237.002 350.455C237.002 346.223 234.42 343.73 230.987 343.73C227.548 343.73 224.972 346.223 224.972 350.455C224.972 354.68 227.548 357.179 230.987 357.179C234.42 357.179 237.002 354.686 237.002 350.455ZM234.618 350.455C234.618 353.433 233.122 355.05 230.987 355.05C228.859 355.05 227.357 353.433 227.357 350.455C227.357 347.476 228.859 345.859 230.987 345.859C233.122 345.859 234.618 347.476 234.618 350.455ZM247.496 343.909V352.263C247.496 353.906 246.352 355.082 244.556 355.082C242.754 355.082 241.616 353.906 241.616 352.263V343.909H239.244V352.462C239.244 355.274 241.354 357.198 244.556 357.198C247.746 357.198 249.868 355.274 249.868 352.462V343.909H247.496ZM256.882 357C260.87 357 263.235 354.533 263.235 350.442C263.235 346.364 260.87 343.909 256.971 343.909H252.445V357H256.882ZM254.817 354.948V345.961H256.837C259.496 345.961 260.883 347.444 260.883 350.442C260.883 353.452 259.496 354.948 256.767 354.948H254.817Z" fill="white"/>
<g filter="url(#filter5_dd)">
<rect x="758" y="161.55" width="149.295" height="69.0046" rx="4" fill="white"/>
</g>
<path d="M758 165C758 163.095 759.545 161.55 761.45 161.55H903.845C905.751 161.55 907.295 163.095 907.295 165V165H758V165Z" fill="#4A796B"/>
<path d="M804.93 209.401L806.251 205.456H812.266L813.595 209.401H816.688L811.048 193.401H807.47L801.837 209.401H804.93ZM807.032 203.128L809.196 196.683H809.321L811.485 203.128H807.032ZM823.524 214.151C826.766 214.151 829.157 212.667 829.157 209.597V197.401H826.368V199.386H826.212C825.782 198.519 824.884 197.245 822.766 197.245C819.993 197.245 817.813 199.417 817.813 203.362C817.813 207.276 819.993 209.229 822.759 209.229C824.813 209.229 825.774 208.128 826.212 207.245H826.352V209.519C826.352 211.284 825.18 212.011 823.571 212.011C821.868 212.011 821.118 211.206 820.774 210.503L818.227 211.12C818.743 212.8 820.47 214.151 823.524 214.151ZM823.548 207.011C821.68 207.011 820.696 205.558 820.696 203.347C820.696 201.167 821.665 199.565 823.548 199.565C825.368 199.565 826.368 201.073 826.368 203.347C826.368 205.636 825.352 207.011 823.548 207.011ZM837.368 209.636C840.165 209.636 842.087 208.269 842.587 206.183L839.946 205.886C839.563 206.901 838.626 207.433 837.407 207.433C835.579 207.433 834.368 206.229 834.345 204.175H842.704V203.308C842.704 199.097 840.173 197.245 837.22 197.245C833.782 197.245 831.54 199.769 831.54 203.472C831.54 207.237 833.751 209.636 837.368 209.636ZM834.352 202.269C834.438 200.737 835.571 199.448 837.259 199.448C838.884 199.448 839.977 200.636 839.993 202.269H834.352ZM847.925 202.37C847.925 200.636 848.971 199.636 850.464 199.636C851.925 199.636 852.8 200.597 852.8 202.198V209.401H855.628V201.761C855.636 198.886 853.995 197.245 851.518 197.245C849.721 197.245 848.487 198.104 847.94 199.44H847.8V197.401H845.096V209.401H847.925V202.37ZM864.495 197.401H862.128V194.526H859.3V197.401H857.596V199.589H859.3V206.261C859.284 208.519 860.925 209.628 863.05 209.565C863.854 209.542 864.409 209.386 864.714 209.284L864.237 207.073C864.081 207.112 863.761 207.183 863.409 207.183C862.698 207.183 862.128 206.933 862.128 205.792V199.589H864.495V197.401Z" fill="#262424"/>
<rect x="779.444" y="147" width="107" height="36" rx="4" fill="#4A796B"/>
<path d="M796.735 172H799.106V167.206H801.523L804.092 172H806.739L803.907 166.81C805.447 166.19 806.259 164.873 806.259 163.096C806.259 160.597 804.648 158.909 801.644 158.909H796.735V172ZM799.106 165.237V160.891H801.28C803.05 160.891 803.843 161.702 803.843 163.096C803.843 164.489 803.05 165.237 801.293 165.237H799.106ZM808.442 172H817.007V170.012H810.814V166.439H816.515V164.451H810.814V160.897H816.956V158.909H808.442V172ZM830.581 163.326C830.178 160.418 827.941 158.73 825.039 158.73C821.619 158.73 819.043 161.223 819.043 165.455C819.043 169.68 821.587 172.179 825.039 172.179C828.152 172.179 830.217 170.165 830.581 167.666L828.19 167.653C827.89 169.188 826.637 170.05 825.071 170.05C822.949 170.05 821.428 168.459 821.428 165.455C821.428 162.501 822.936 160.859 825.077 160.859C826.669 160.859 827.915 161.76 828.19 163.326H830.581ZM844.45 165.455C844.45 161.223 841.868 158.73 838.435 158.73C834.996 158.73 832.42 161.223 832.42 165.455C832.42 169.68 834.996 172.179 838.435 172.179C841.868 172.179 844.45 169.686 844.45 165.455ZM842.066 165.455C842.066 168.433 840.57 170.05 838.435 170.05C836.307 170.05 834.804 168.433 834.804 165.455C834.804 162.476 836.307 160.859 838.435 160.859C840.57 160.859 842.066 162.476 842.066 165.455ZM846.692 172H849.064V167.206H851.48L854.049 172H856.696L853.864 166.81C855.404 166.19 856.216 164.873 856.216 163.096C856.216 160.597 854.605 158.909 851.601 158.909H846.692V172ZM849.064 165.237V160.891H851.237C853.007 160.891 853.8 161.702 853.8 163.096C853.8 164.489 853.007 165.237 851.25 165.237H849.064ZM862.835 172C866.824 172 869.189 169.533 869.189 165.442C869.189 161.364 866.824 158.909 862.925 158.909H858.399V172H862.835ZM860.771 169.948V160.961H862.79C865.45 160.961 866.837 162.444 866.837 165.442C866.837 168.452 865.45 169.948 862.72 169.948H860.771Z" fill="white"/>
<g filter="url(#filter6_dd)">
<rect x="755" y="273.55" width="149.295" height="69.0046" rx="4" fill="white"/>
</g>
<path d="M757 277C757 275.095 758.545 273.55 760.45 273.55H902.845C904.751 273.55 906.295 275.095 906.295 277V277H757V277Z" fill="#4A796B"/>
<path d="M801.93 321.401L803.25 317.456H809.266L810.594 321.401H813.688L808.047 305.401H804.469L798.836 321.401H801.93ZM804.032 315.128L806.196 308.683H806.321L808.485 315.128H804.032ZM820.524 326.151C823.766 326.151 826.157 324.667 826.157 321.597V309.401H823.367V311.386H823.211C822.782 310.519 821.883 309.245 819.766 309.245C816.992 309.245 814.813 311.417 814.813 315.362C814.813 319.276 816.992 321.229 819.758 321.229C821.813 321.229 822.774 320.128 823.211 319.245H823.352V321.519C823.352 323.284 822.18 324.011 820.571 324.011C818.867 324.011 818.117 323.206 817.774 322.503L815.227 323.12C815.742 324.8 817.469 326.151 820.524 326.151ZM820.547 319.011C818.68 319.011 817.696 317.558 817.696 315.347C817.696 313.167 818.664 311.565 820.547 311.565C822.367 311.565 823.367 313.073 823.367 315.347C823.367 317.636 822.352 319.011 820.547 319.011ZM834.367 321.636C837.164 321.636 839.086 320.269 839.586 318.183L836.946 317.886C836.563 318.901 835.625 319.433 834.407 319.433C832.578 319.433 831.367 318.229 831.344 316.175H839.703V315.308C839.703 311.097 837.172 309.245 834.219 309.245C830.782 309.245 828.539 311.769 828.539 315.472C828.539 319.237 830.75 321.636 834.367 321.636ZM831.352 314.269C831.438 312.737 832.571 311.448 834.258 311.448C835.883 311.448 836.977 312.636 836.992 314.269H831.352ZM844.924 314.37C844.924 312.636 845.971 311.636 847.463 311.636C848.924 311.636 849.799 312.597 849.799 314.198V321.401H852.627V313.761C852.635 310.886 850.994 309.245 848.518 309.245C846.721 309.245 845.487 310.104 844.94 311.44H844.799V309.401H842.096V321.401H844.924V314.37ZM861.494 309.401H859.127V306.526H856.299V309.401H854.596V311.589H856.299V318.261C856.283 320.519 857.924 321.628 860.049 321.565C860.854 321.542 861.408 321.386 861.713 321.284L861.237 319.073C861.08 319.112 860.76 319.183 860.408 319.183C859.698 319.183 859.127 318.933 859.127 317.792V311.589H861.494V309.401Z" fill="#262424"/>
<rect x="776.444" y="259" width="107" height="36" rx="4" fill="#4A796B"/>
<path d="M793.736 284H796.107V279.206H798.523L801.093 284H803.739L800.907 278.81C802.448 278.19 803.26 276.873 803.26 275.096C803.26 272.597 801.649 270.909 798.645 270.909H793.736V284ZM796.107 277.237V272.891H798.28C800.051 272.891 800.843 273.702 800.843 275.096C800.843 276.489 800.051 277.237 798.293 277.237H796.107ZM805.443 284H814.008V282.012H807.814V278.439H813.516V276.451H807.814V272.897H813.957V270.909H805.443V284ZM827.581 275.326C827.179 272.418 824.941 270.73 822.04 270.73C818.62 270.73 816.044 273.223 816.044 277.455C816.044 281.68 818.588 284.179 822.04 284.179C825.152 284.179 827.217 282.165 827.581 279.666L825.191 279.653C824.89 281.188 823.638 282.05 822.071 282.05C819.949 282.05 818.428 280.459 818.428 277.455C818.428 274.501 819.937 272.859 822.078 272.859C823.669 272.859 824.916 273.76 825.191 275.326H827.581ZM841.451 277.455C841.451 273.223 838.868 270.73 835.436 270.73C831.997 270.73 829.421 273.223 829.421 277.455C829.421 281.68 831.997 284.179 835.436 284.179C838.868 284.179 841.451 281.686 841.451 277.455ZM839.066 277.455C839.066 280.433 837.571 282.05 835.436 282.05C833.307 282.05 831.805 280.433 831.805 277.455C831.805 274.476 833.307 272.859 835.436 272.859C837.571 272.859 839.066 274.476 839.066 277.455ZM843.693 284H846.064V279.206H848.48L851.05 284H853.696L850.864 278.81C852.405 278.19 853.217 276.873 853.217 275.096C853.217 272.597 851.606 270.909 848.602 270.909H843.693V284ZM846.064 277.237V272.891H848.237C850.008 272.891 850.801 273.702 850.801 275.096C850.801 276.489 850.008 277.237 848.25 277.237H846.064ZM859.836 284C863.824 284 866.189 281.533 866.189 277.442C866.189 273.364 863.824 270.909 859.925 270.909H855.4V284H859.836ZM857.771 281.948V272.961H859.791C862.45 272.961 863.837 274.444 863.837 277.442C863.837 280.452 862.45 281.948 859.721 281.948H857.771Z" fill="white"/>
<g filter="url(#filter7_dd)">
<rect x="756" y="381.55" width="149.295" height="69.0046" rx="4" fill="white"/>
</g>
<path d="M756 385C756 383.095 757.545 381.55 759.45 381.55H901.845C903.751 381.55 905.295 383.095 905.295 385V385H756V385Z" fill="#4A796B"/>
<path d="M802.93 429.401L804.251 425.456H810.266L811.595 429.401H814.688L809.048 413.401H805.47L799.837 429.401H802.93ZM805.032 423.128L807.196 416.683H807.321L809.485 423.128H805.032ZM821.524 434.151C824.766 434.151 827.157 432.667 827.157 429.597V417.401H824.368V419.386H824.212C823.782 418.519 822.884 417.245 820.766 417.245C817.993 417.245 815.813 419.417 815.813 423.362C815.813 427.276 817.993 429.229 820.759 429.229C822.813 429.229 823.774 428.128 824.212 427.245H824.352V429.519C824.352 431.284 823.18 432.011 821.571 432.011C819.868 432.011 819.118 431.206 818.774 430.503L816.227 431.12C816.743 432.8 818.47 434.151 821.524 434.151ZM821.548 427.011C819.68 427.011 818.696 425.558 818.696 423.347C818.696 421.167 819.665 419.565 821.548 419.565C823.368 419.565 824.368 421.073 824.368 423.347C824.368 425.636 823.352 427.011 821.548 427.011ZM835.368 429.636C838.165 429.636 840.087 428.269 840.587 426.183L837.946 425.886C837.563 426.901 836.626 427.433 835.407 427.433C833.579 427.433 832.368 426.229 832.345 424.175H840.704V423.308C840.704 419.097 838.173 417.245 835.22 417.245C831.782 417.245 829.54 419.769 829.54 423.472C829.54 427.237 831.751 429.636 835.368 429.636ZM832.352 422.269C832.438 420.737 833.571 419.448 835.259 419.448C836.884 419.448 837.977 420.636 837.993 422.269H832.352ZM845.925 422.37C845.925 420.636 846.971 419.636 848.464 419.636C849.925 419.636 850.8 420.597 850.8 422.198V429.401H853.628V421.761C853.636 418.886 851.995 417.245 849.518 417.245C847.721 417.245 846.487 418.104 845.94 419.44H845.8V417.401H843.096V429.401H845.925V422.37ZM862.495 417.401H860.128V414.526H857.3V417.401H855.596V419.589H857.3V426.261C857.284 428.519 858.925 429.628 861.05 429.565C861.854 429.542 862.409 429.386 862.714 429.284L862.237 427.073C862.081 427.112 861.761 427.183 861.409 427.183C860.698 427.183 860.128 426.933 860.128 425.792V419.589H862.495V417.401Z" fill="#262424"/>
<rect x="777.444" y="367" width="107" height="36" rx="4" fill="#4A796B"/>
<path d="M794.735 392H797.106V387.206H799.523L802.092 392H804.739L801.907 386.81C803.447 386.19 804.259 384.873 804.259 383.096C804.259 380.597 802.648 378.909 799.644 378.909H794.735V392ZM797.106 385.237V380.891H799.28C801.05 380.891 801.843 381.702 801.843 383.096C801.843 384.489 801.05 385.237 799.293 385.237H797.106ZM806.442 392H815.007V390.012H808.814V386.439H814.515V384.451H808.814V380.897H814.956V378.909H806.442V392ZM828.581 383.326C828.178 380.418 825.941 378.73 823.039 378.73C819.619 378.73 817.043 381.223 817.043 385.455C817.043 389.68 819.587 392.179 823.039 392.179C826.152 392.179 828.217 390.165 828.581 387.666L826.19 387.653C825.89 389.188 824.637 390.05 823.071 390.05C820.949 390.05 819.428 388.459 819.428 385.455C819.428 382.501 820.936 380.859 823.077 380.859C824.669 380.859 825.915 381.76 826.19 383.326H828.581ZM842.45 385.455C842.45 381.223 839.868 378.73 836.435 378.73C832.996 378.73 830.42 381.223 830.42 385.455C830.42 389.68 832.996 392.179 836.435 392.179C839.868 392.179 842.45 389.686 842.45 385.455ZM840.066 385.455C840.066 388.433 838.57 390.05 836.435 390.05C834.307 390.05 832.804 388.433 832.804 385.455C832.804 382.476 834.307 380.859 836.435 380.859C838.57 380.859 840.066 382.476 840.066 385.455ZM844.692 392H847.064V387.206H849.48L852.049 392H854.696L851.864 386.81C853.404 386.19 854.216 384.873 854.216 383.096C854.216 380.597 852.605 378.909 849.601 378.909H844.692V392ZM847.064 385.237V380.891H849.237C851.007 380.891 851.8 381.702 851.8 383.096C851.8 384.489 851.007 385.237 849.25 385.237H847.064ZM860.835 392C864.824 392 867.189 389.533 867.189 385.442C867.189 381.364 864.824 378.909 860.925 378.909H856.399V392H860.835ZM858.771 389.948V380.961H860.79C863.45 380.961 864.837 382.444 864.837 385.442C864.837 388.452 863.45 389.948 860.72 389.948H858.771Z" fill="white"/>
<defs>
<filter id="filter0_f" x="909.778" y="151.844" width="58.8796" height="57.2809" filterUnits="userSpaceOnUse" color-interpolation-filters="sRGB">
<feFlood flood-opacity="0" result="BackgroundImageFix"/>
<feBlend mode="normal" in="SourceGraphic" in2="BackgroundImageFix" result="shape"/>
<feGaussianBlur stdDeviation="5.99149" result="effect1_foregroundBlur"/>
</filter>
<filter id="filter1_f" x="911.778" y="359.844" width="58.8796" height="57.2809" filterUnits="userSpaceOnUse" color-interpolation-filters="sRGB">
<feFlood flood-opacity="0" result="BackgroundImageFix"/>
<feBlend mode="normal" in="SourceGraphic" in2="BackgroundImageFix" result="shape"/>
<feGaussianBlur stdDeviation="5.99149" result="effect1_foregroundBlur"/>
</filter>
<filter id="filter2_f" x="907.778" y="251.844" width="58.8796" height="57.2809" filterUnits="userSpaceOnUse" color-interpolation-filters="sRGB">
<feFlood flood-opacity="0" result="BackgroundImageFix"/>
<feBlend mode="normal" in="SourceGraphic" in2="BackgroundImageFix" result="shape"/>
<feGaussianBlur stdDeviation="5.99149" result="effect1_foregroundBlur"/>
</filter>
<filter id="filter3_dd" x="446" y="133" width="320" height="188" filterUnits="userSpaceOnUse" color-interpolation-filters="sRGB">
<feFlood flood-opacity="0" result="BackgroundImageFix"/>
<feColorMatrix in="SourceAlpha" type="matrix" values="0 0 0 0 0 0 0 0 0 0 0 0 0 0 0 0 0 0 127 0" result="hardAlpha"/>
<feOffset dy="3"/>
<feGaussianBlur stdDeviation="2"/>
<feColorMatrix type="matrix" values="0 0 0 0 0 0 0 0 0 0 0 0 0 0 0 0 0 0 0.1 0"/>
<feBlend mode="normal" in2="BackgroundImageFix" result="effect1_dropShadow"/>
<feColorMatrix in="SourceAlpha" type="matrix" values="0 0 0 0 0 0 0 0 0 0 0 0 0 0 0 0 0 0 127 0" result="hardAlpha"/>
<feOffset dy="4"/>
<feGaussianBlur stdDeviation="17"/>
<feColorMatrix type="matrix" values="0 0 0 0 0 0 0 0 0 0 0 0 0 0 0 0 0 0 0.04 0"/>
<feBlend mode="normal" in2="effect1_dropShadow" result="effect2_dropShadow"/>
<feBlend mode="normal" in="SourceGraphic" in2="effect2_dropShadow" result="shape"/>
</filter>
<filter id="filter4_dd" x="33" y="314" width="320" height="188" filterUnits="userSpaceOnUse" color-interpolation-filters="sRGB">
<feFlood flood-opacity="0" result="BackgroundImageFix"/>
<feColorMatrix in="SourceAlpha" type="matrix" values="0 0 0 0 0 0 0 0 0 0 0 0 0 0 0 0 0 0 127 0" result="hardAlpha"/>
<feOffset dy="3"/>
<feGaussianBlur stdDeviation="2"/>
<feColorMatrix type="matrix" values="0 0 0 0 0 0 0 0 0 0 0 0 0 0 0 0 0 0 0.1 0"/>
<feBlend mode="normal" in2="BackgroundImageFix" result="effect1_dropShadow"/>
<feColorMatrix in="SourceAlpha" type="matrix" values="0 0 0 0 0 0 0 0 0 0 0 0 0 0 0 0 0 0 127 0" result="hardAlpha"/>
<feOffset dy="4"/>
<feGaussianBlur stdDeviation="17"/>
<feColorMatrix type="matrix" values="0 0 0 0 0 0 0 0 0 0 0 0 0 0 0 0 0 0 0.04 0"/>
<feBlend mode="normal" in2="effect1_dropShadow" result="effect2_dropShadow"/>
<feBlend mode="normal" in="SourceGraphic" in2="effect2_dropShadow" result="shape"/>
</filter>
<filter id="filter5_dd" x="724" y="131.55" width="217.295" height="137.004" filterUnits="userSpaceOnUse" color-interpolation-filters="sRGB">
<feFlood flood-opacity="0" result="BackgroundImageFix"/>
<feColorMatrix in="SourceAlpha" type="matrix" values="0 0 0 0 0 0 0 0 0 0 0 0 0 0 0 0 0 0 127 0" result="hardAlpha"/>
<feOffset dy="3"/>
<feGaussianBlur stdDeviation="2"/>
<feColorMatrix type="matrix" values="0 0 0 0 0 0 0 0 0 0 0 0 0 0 0 0 0 0 0.1 0"/>
<feBlend mode="normal" in2="BackgroundImageFix" result="effect1_dropShadow"/>
<feColorMatrix in="SourceAlpha" type="matrix" values="0 0 0 0 0 0 0 0 0 0 0 0 0 0 0 0 0 0 127 0" result="hardAlpha"/>
<feOffset dy="4"/>
<feGaussianBlur stdDeviation="17"/>
<feColorMatrix type="matrix" values="0 0 0 0 0 0 0 0 0 0 0 0 0 0 0 0 0 0 0.04 0"/>
<feBlend mode="normal" in2="effect1_dropShadow" result="effect2_dropShadow"/>
<feBlend mode="normal" in="SourceGraphic" in2="effect2_dropShadow" result="shape"/>
</filter>
<filter id="filter6_dd" x="721" y="243.55" width="217.295" height="137.004" filterUnits="userSpaceOnUse" color-interpolation-filters="sRGB">
<feFlood flood-opacity="0" result="BackgroundImageFix"/>
<feColorMatrix in="SourceAlpha" type="matrix" values="0 0 0 0 0 0 0 0 0 0 0 0 0 0 0 0 0 0 127 0" result="hardAlpha"/>
<feOffset dy="3"/>
<feGaussianBlur stdDeviation="2"/>
<feColorMatrix type="matrix" values="0 0 0 0 0 0 0 0 0 0 0 0 0 0 0 0 0 0 0.1 0"/>
<feBlend mode="normal" in2="BackgroundImageFix" result="effect1_dropShadow"/>
<feColorMatrix in="SourceAlpha" type="matrix" values="0 0 0 0 0 0 0 0 0 0 0 0 0 0 0 0 0 0 127 0" result="hardAlpha"/>
<feOffset dy="4"/>
<feGaussianBlur stdDeviation="17"/>
<feColorMatrix type="matrix" values="0 0 0 0 0 0 0 0 0 0 0 0 0 0 0 0 0 0 0.04 0"/>
<feBlend mode="normal" in2="effect1_dropShadow" result="effect2_dropShadow"/>
<feBlend mode="normal" in="SourceGraphic" in2="effect2_dropShadow" result="shape"/>
</filter>
<filter id="filter7_dd" x="722" y="351.55" width="217.295" height="137.004" filterUnits="userSpaceOnUse" color-interpolation-filters="sRGB">
<feFlood flood-opacity="0" result="BackgroundImageFix"/>
<feColorMatrix in="SourceAlpha" type="matrix" values="0 0 0 0 0 0 0 0 0 0 0 0 0 0 0 0 0 0 127 0" result="hardAlpha"/>
<feOffset dy="3"/>
<feGaussianBlur stdDeviation="2"/>
<feColorMatrix type="matrix" values="0 0 0 0 0 0 0 0 0 0 0 0 0 0 0 0 0 0 0.1 0"/>
<feBlend mode="normal" in2="BackgroundImageFix" result="effect1_dropShadow"/>
<feColorMatrix in="SourceAlpha" type="matrix" values="0 0 0 0 0 0 0 0 0 0 0 0 0 0 0 0 0 0 127 0" result="hardAlpha"/>
<feOffset dy="4"/>
<feGaussianBlur stdDeviation="17"/>
<feColorMatrix type="matrix" values="0 0 0 0 0 0 0 0 0 0 0 0 0 0 0 0 0 0 0.04 0"/>
<feBlend mode="normal" in2="effect1_dropShadow" result="effect2_dropShadow"/>
<feBlend mode="normal" in="SourceGraphic" in2="effect2_dropShadow" result="shape"/>
</filter>
<linearGradient id="paint0_linear" x1="913.788" y1="192.673" x2="910.688" y2="226.621" gradientUnits="userSpaceOnUse">
<stop stop-color="#080808"/>
<stop offset="1" stop-color="#080808" stop-opacity="0"/>
</linearGradient>
<linearGradient id="paint1_linear" x1="947.894" y1="197.845" x2="939.685" y2="210.472" gradientUnits="userSpaceOnUse">
<stop stop-color="#0E0E0E"/>
<stop offset="1" stop-color="#2F2F2F" stop-opacity="0"/>
</linearGradient>
<linearGradient id="paint2_linear" x1="988" y1="200.72" x2="974.26" y2="189.554" gradientUnits="userSpaceOnUse">
<stop stop-color="#5D5D5D"/>
<stop offset="1" stop-color="#5D5D5D" stop-opacity="0"/>
</linearGradient>
<linearGradient id="paint3_linear" x1="976.53" y1="166.359" x2="991.055" y2="199.14" gradientUnits="userSpaceOnUse">
<stop stop-color="#272727"/>
<stop offset="1" stop-color="#4A4A4A" stop-opacity="0"/>
</linearGradient>
<linearGradient id="paint4_linear" x1="952.058" y1="182.84" x2="941.549" y2="193.393" gradientUnits="userSpaceOnUse">
<stop stop-color="#4A4A4A"/>
<stop offset="1" stop-color="#4A4A4A" stop-opacity="0"/>
</linearGradient>
<radialGradient id="paint5_radial" cx="0" cy="0" r="1" gradientUnits="userSpaceOnUse" gradientTransform="translate(976.064 187.281) rotate(152.409) scale(15.5657 11.4704)">
<stop stop-color="#004C80"/>
<stop offset="1" stop-color="#004C80" stop-opacity="0"/>
</radialGradient>
<linearGradient id="paint6_linear" x1="966.676" y1="196.239" x2="957.723" y2="195.806" gradientUnits="userSpaceOnUse">
<stop/>
<stop offset="1" stop-opacity="0"/>
</linearGradient>
<radialGradient id="paint7_radial" cx="0" cy="0" r="1" gradientUnits="userSpaceOnUse" gradientTransform="translate(963.999 195.839) rotate(180) scale(2.5442)">
<stop stop-color="#FF0000"/>
<stop offset="1" stop-color="#760000"/>
</radialGradient>
<linearGradient id="paint8_linear" x1="984.606" y1="200.444" x2="974.183" y2="189.419" gradientUnits="userSpaceOnUse">
<stop stop-color="white"/>
<stop offset="1" stop-color="white" stop-opacity="0"/>
</linearGradient>
<linearGradient id="paint9_linear" x1="958.225" y1="161.42" x2="939.459" y2="169.234" gradientUnits="userSpaceOnUse">
<stop stop-color="#858585"/>
<stop offset="1" stop-color="#858585" stop-opacity="0"/>
</linearGradient>
<linearGradient id="paint10_linear" x1="915.788" y1="400.673" x2="912.688" y2="434.621" gradientUnits="userSpaceOnUse">
<stop stop-color="#080808"/>
<stop offset="1" stop-color="#080808" stop-opacity="0"/>
</linearGradient>
<linearGradient id="paint11_linear" x1="949.894" y1="405.845" x2="941.685" y2="418.472" gradientUnits="userSpaceOnUse">
<stop stop-color="#0E0E0E"/>
<stop offset="1" stop-color="#2F2F2F" stop-opacity="0"/>
</linearGradient>
<linearGradient id="paint12_linear" x1="990" y1="408.72" x2="976.26" y2="397.554" gradientUnits="userSpaceOnUse">
<stop stop-color="#5D5D5D"/>
<stop offset="1" stop-color="#5D5D5D" stop-opacity="0"/>
</linearGradient>
<linearGradient id="paint13_linear" x1="978.53" y1="374.359" x2="993.055" y2="407.14" gradientUnits="userSpaceOnUse">
<stop stop-color="#272727"/>
<stop offset="1" stop-color="#4A4A4A" stop-opacity="0"/>
</linearGradient>
<linearGradient id="paint14_linear" x1="954.058" y1="390.84" x2="943.549" y2="401.393" gradientUnits="userSpaceOnUse">
<stop stop-color="#4A4A4A"/>
<stop offset="1" stop-color="#4A4A4A" stop-opacity="0"/>
</linearGradient>
<radialGradient id="paint15_radial" cx="0" cy="0" r="1" gradientUnits="userSpaceOnUse" gradientTransform="translate(978.064 395.281) rotate(152.409) scale(15.5657 11.4704)">
<stop stop-color="#004C80"/>
<stop offset="1" stop-color="#004C80" stop-opacity="0"/>
</radialGradient>
<linearGradient id="paint16_linear" x1="968.676" y1="404.239" x2="959.723" y2="403.806" gradientUnits="userSpaceOnUse">
<stop/>
<stop offset="1" stop-opacity="0"/>
</linearGradient>
<radialGradient id="paint17_radial" cx="0" cy="0" r="1" gradientUnits="userSpaceOnUse" gradientTransform="translate(965.999 403.839) rotate(180) scale(2.5442)">
<stop stop-color="#FF0000"/>
<stop offset="1" stop-color="#760000"/>
</radialGradient>
<linearGradient id="paint18_linear" x1="986.606" y1="408.444" x2="976.183" y2="397.419" gradientUnits="userSpaceOnUse">
<stop stop-color="white"/>
<stop offset="1" stop-color="white" stop-opacity="0"/>
</linearGradient>
<linearGradient id="paint19_linear" x1="960.225" y1="369.42" x2="941.459" y2="377.234" gradientUnits="userSpaceOnUse">
<stop stop-color="#858585"/>
<stop offset="1" stop-color="#858585" stop-opacity="0"/>
</linearGradient>
<linearGradient id="paint20_linear" x1="911.788" y1="292.673" x2="908.688" y2="326.621" gradientUnits="userSpaceOnUse">
<stop stop-color="#080808"/>
<stop offset="1" stop-color="#080808" stop-opacity="0"/>
</linearGradient>
<linearGradient id="paint21_linear" x1="945.894" y1="297.845" x2="937.685" y2="310.472" gradientUnits="userSpaceOnUse">
<stop stop-color="#0E0E0E"/>
<stop offset="1" stop-color="#2F2F2F" stop-opacity="0"/>
</linearGradient>
<linearGradient id="paint22_linear" x1="986" y1="300.72" x2="972.26" y2="289.554" gradientUnits="userSpaceOnUse">
<stop stop-color="#5D5D5D"/>
<stop offset="1" stop-color="#5D5D5D" stop-opacity="0"/>
</linearGradient>
<linearGradient id="paint23_linear" x1="974.53" y1="266.359" x2="989.055" y2="299.14" gradientUnits="userSpaceOnUse">
<stop stop-color="#272727"/>
<stop offset="1" stop-color="#4A4A4A" stop-opacity="0"/>
</linearGradient>
<linearGradient id="paint24_linear" x1="950.058" y1="282.84" x2="939.549" y2="293.393" gradientUnits="userSpaceOnUse">
<stop stop-color="#4A4A4A"/>
<stop offset="1" stop-color="#4A4A4A" stop-opacity="0"/>
</linearGradient>
<radialGradient id="paint25_radial" cx="0" cy="0" r="1" gradientUnits="userSpaceOnUse" gradientTransform="translate(974.064 287.281) rotate(152.409) scale(15.5657 11.4704)">
<stop stop-color="#004C80"/>
<stop offset="1" stop-color="#004C80" stop-opacity="0"/>
</radialGradient>
<linearGradient id="paint26_linear" x1="964.676" y1="296.239" x2="955.723" y2="295.806" gradientUnits="userSpaceOnUse">
<stop/>
<stop offset="1" stop-opacity="0"/>
</linearGradient>
<radialGradient id="paint27_radial" cx="0" cy="0" r="1" gradientUnits="userSpaceOnUse" gradientTransform="translate(961.999 295.839) rotate(180) scale(2.5442)">
<stop stop-color="#FF0000"/>
<stop offset="1" stop-color="#760000"/>
</radialGradient>
<linearGradient id="paint28_linear" x1="982.606" y1="300.444" x2="972.183" y2="289.419" gradientUnits="userSpaceOnUse">
<stop stop-color="white"/>
<stop offset="1" stop-color="white" stop-opacity="0"/>
</linearGradient>
<linearGradient id="paint29_linear" x1="956.225" y1="261.42" x2="937.459" y2="269.234" gradientUnits="userSpaceOnUse">
<stop stop-color="#858585"/>
<stop offset="1" stop-color="#858585" stop-opacity="0"/>
</linearGradient>
</defs>
</svg>
