<svg width="1099" height="598" viewBox="0 0 1099 598" fill="none" xmlns="http://www.w3.org/2000/svg">
<path d="M352 515L369 515L369 320.5M352 126L369 126L369 320.5M369 320.5L441 320.5" stroke="#D1D1D1" stroke-width="2"/>
<path d="M458 516L441 516L441 321.5L441 127L458 127" stroke="#D1D1D1" stroke-width="2"/>
<g filter="url(#filter0_dd)">
<rect x="41" y="146" width="252" height="120" rx="4" fill="white"/>
</g>
<path d="M156.239 155.053C154.845 155.053 153.529 154.437 152.639 153.322L139.09 136.587C138.2 135.471 137.852 134.048 138.2 132.663L143.039 111.773C143.348 110.388 144.277 109.272 145.555 108.656L165.142 99.3464C165.761 99.0387 166.458 98.8848 167.155 98.8848C167.852 98.8848 168.548 99.0387 169.168 99.3464L188.755 108.618C190.032 109.234 190.961 110.349 191.271 111.734L196.11 132.624C196.419 134.009 196.11 135.433 195.219 136.548L181.671 153.283C180.781 154.36 179.465 155.014 178.071 155.014L156.239 155.053Z" fill="#326DE6"/>
<path d="M167.117 99.8467C167.658 99.8467 168.2 99.9621 168.704 100.193L188.291 109.465C189.297 109.965 190.071 110.888 190.304 111.965L195.142 132.855C195.413 133.971 195.142 135.125 194.407 136.01L180.858 152.745C180.162 153.63 179.078 154.13 177.955 154.13H156.239C155.117 154.13 154.033 153.63 153.336 152.745L139.788 136.01C139.091 135.125 138.82 133.971 139.052 132.855L143.891 111.965C144.162 110.85 144.897 109.926 145.904 109.465L165.491 100.154C165.994 99.9621 166.575 99.8467 167.117 99.8467ZM167.117 98.0386C166.304 98.0386 165.491 98.2309 164.717 98.5772L145.129 107.887C143.581 108.618 142.497 109.965 142.11 111.619L137.271 132.509C136.884 134.163 137.271 135.856 138.355 137.202L151.904 153.937C152.949 155.245 154.536 155.976 156.2 155.976H177.917C179.581 155.976 181.168 155.245 182.213 153.937L195.762 137.202C196.846 135.894 197.233 134.163 196.846 132.509L192.007 111.619C191.62 109.965 190.536 108.618 188.988 107.887L169.478 98.5772C168.742 98.2309 167.929 98.0386 167.117 98.0386Z" fill="white"/>
<path d="M186.742 131.201C186.704 131.201 186.704 131.201 186.742 131.201H186.704C186.665 131.201 186.626 131.201 186.626 131.162C186.549 131.162 186.471 131.124 186.394 131.124C186.123 131.085 185.891 131.047 185.658 131.047C185.542 131.047 185.426 131.047 185.271 131.008H185.233C184.42 130.931 183.762 130.854 183.142 130.662C182.871 130.547 182.794 130.393 182.717 130.239C182.717 130.2 182.678 130.2 182.678 130.162L182.175 130.008C182.407 128.238 182.329 126.392 181.904 124.584C181.478 122.775 180.742 121.083 179.736 119.544L180.123 119.198V119.121C180.123 118.928 180.162 118.736 180.317 118.544C180.781 118.12 181.362 117.774 182.058 117.351C182.175 117.274 182.291 117.236 182.407 117.159C182.639 117.043 182.833 116.928 183.065 116.774C183.104 116.735 183.181 116.697 183.258 116.62C183.297 116.582 183.336 116.582 183.336 116.543C183.878 116.081 183.994 115.312 183.607 114.812C183.413 114.543 183.065 114.389 182.717 114.389C182.407 114.389 182.136 114.504 181.865 114.696C181.826 114.735 181.826 114.735 181.788 114.773C181.71 114.812 181.671 114.889 181.594 114.927C181.4 115.12 181.246 115.274 181.091 115.466C181.013 115.543 180.936 115.658 180.82 115.735C180.278 116.312 179.775 116.774 179.271 117.12C179.155 117.197 179.039 117.236 178.923 117.236C178.846 117.236 178.768 117.236 178.691 117.197H178.613L178.149 117.505C177.646 116.966 177.104 116.505 176.562 116.043C174.239 114.235 171.413 113.119 168.471 112.85L168.433 112.35C168.394 112.311 168.394 112.311 168.355 112.273C168.239 112.157 168.084 112.042 168.046 111.773C168.007 111.157 168.084 110.465 168.162 109.695V109.657C168.162 109.541 168.2 109.387 168.239 109.272C168.278 109.041 168.317 108.81 168.355 108.541V108.31V108.195C168.355 107.502 167.813 106.925 167.155 106.925C166.846 106.925 166.536 107.079 166.304 107.31C166.071 107.541 165.955 107.849 165.955 108.195V108.272V108.503C165.955 108.772 165.994 109.003 166.071 109.234C166.11 109.349 166.11 109.464 166.149 109.618V109.657C166.226 110.426 166.342 111.119 166.265 111.734C166.226 112.004 166.071 112.119 165.955 112.234C165.917 112.273 165.917 112.273 165.878 112.311L165.839 112.811C165.142 112.888 164.446 112.965 163.749 113.119C160.768 113.773 158.136 115.274 156.084 117.428L155.697 117.159H155.62C155.542 117.159 155.465 117.197 155.388 117.197C155.271 117.197 155.155 117.159 155.039 117.082C154.536 116.735 154.033 116.235 153.491 115.658C153.413 115.581 153.336 115.466 153.22 115.389C153.065 115.197 152.91 115.043 152.717 114.85C152.678 114.812 152.6 114.773 152.523 114.696C152.484 114.658 152.446 114.658 152.446 114.62C152.213 114.427 151.904 114.312 151.594 114.312C151.246 114.312 150.897 114.466 150.704 114.735C150.317 115.235 150.433 116.005 150.975 116.466C151.013 116.466 151.013 116.505 151.052 116.505C151.129 116.543 151.168 116.62 151.246 116.659C151.478 116.812 151.671 116.928 151.904 117.043C152.02 117.082 152.136 117.159 152.252 117.236C152.949 117.659 153.529 118.005 153.994 118.428C154.188 118.621 154.188 118.813 154.188 119.005V119.082L154.575 119.428C154.497 119.544 154.42 119.621 154.381 119.736C152.446 122.775 151.71 126.353 152.213 129.893L151.71 130.047C151.71 130.085 151.671 130.085 151.671 130.123C151.594 130.277 151.478 130.431 151.246 130.547C150.665 130.739 149.968 130.816 149.155 130.893H149.117C149 130.893 148.846 130.893 148.729 130.931C148.497 130.931 148.265 130.97 147.994 131.008C147.917 131.008 147.839 131.047 147.762 131.047C147.723 131.047 147.684 131.047 147.646 131.085C146.949 131.239 146.523 131.893 146.639 132.509C146.755 133.047 147.258 133.394 147.878 133.394C147.994 133.394 148.071 133.394 148.188 133.355C148.226 133.355 148.265 133.355 148.265 133.317C148.342 133.317 148.42 133.278 148.497 133.278C148.768 133.201 148.962 133.124 149.194 133.009C149.31 132.97 149.426 132.893 149.542 132.855H149.581C150.317 132.586 150.975 132.355 151.594 132.278H151.671C151.904 132.278 152.058 132.393 152.175 132.47C152.213 132.47 152.213 132.509 152.252 132.509L152.794 132.432C153.723 135.279 155.504 137.818 157.865 139.664C158.407 140.088 158.949 140.434 159.529 140.78L159.297 141.28C159.297 141.319 159.336 141.319 159.336 141.357C159.413 141.511 159.491 141.703 159.413 141.973C159.181 142.55 158.833 143.127 158.407 143.781V143.819C158.329 143.935 158.252 144.012 158.175 144.127C158.02 144.319 157.904 144.512 157.749 144.743C157.71 144.781 157.671 144.858 157.633 144.935C157.633 144.973 157.594 145.012 157.594 145.012C157.284 145.666 157.517 146.397 158.097 146.666C158.252 146.743 158.407 146.782 158.562 146.782C159.026 146.782 159.491 146.474 159.723 146.051C159.723 146.012 159.762 145.974 159.762 145.974C159.8 145.897 159.839 145.82 159.878 145.781C159.994 145.512 160.033 145.32 160.11 145.089C160.149 144.973 160.188 144.858 160.226 144.743C160.497 143.973 160.691 143.358 161.039 142.819C161.194 142.588 161.388 142.55 161.542 142.473C161.581 142.473 161.581 142.473 161.62 142.434L161.891 141.934C163.594 142.588 165.452 142.934 167.31 142.934C168.433 142.934 169.594 142.819 170.678 142.55C171.375 142.396 172.033 142.203 172.691 141.973L172.923 142.396C172.962 142.396 172.962 142.396 173 142.434C173.194 142.473 173.349 142.55 173.504 142.781C173.813 143.319 174.046 143.973 174.317 144.704V144.743C174.355 144.858 174.394 144.973 174.433 145.089C174.51 145.32 174.549 145.55 174.665 145.781C174.704 145.858 174.742 145.897 174.781 145.974C174.781 146.012 174.82 146.051 174.82 146.051C175.052 146.512 175.517 146.782 175.981 146.782C176.136 146.782 176.291 146.743 176.446 146.666C176.717 146.512 176.949 146.281 177.026 145.974C177.104 145.666 177.104 145.32 176.949 145.012C176.949 144.973 176.91 144.973 176.91 144.935C176.871 144.858 176.833 144.781 176.794 144.743C176.678 144.512 176.523 144.319 176.368 144.127C176.291 144.012 176.213 143.935 176.136 143.819V143.781C175.71 143.127 175.323 142.55 175.129 141.973C175.052 141.703 175.129 141.549 175.168 141.357C175.168 141.319 175.207 141.319 175.207 141.28L175.013 140.819C177.065 139.626 178.807 137.933 180.123 135.856C180.82 134.779 181.362 133.586 181.749 132.393L182.213 132.47C182.252 132.47 182.252 132.432 182.291 132.432C182.446 132.355 182.562 132.239 182.794 132.239H182.871C183.491 132.316 184.149 132.547 184.884 132.816H184.923C185.039 132.855 185.155 132.932 185.271 132.97C185.504 133.086 185.697 133.163 185.968 133.24C186.046 133.24 186.123 133.278 186.2 133.278C186.239 133.278 186.278 133.278 186.317 133.317C186.433 133.355 186.51 133.355 186.626 133.355C187.207 133.355 187.71 132.97 187.865 132.47C187.865 132.009 187.439 131.393 186.742 131.201ZM168.82 129.316L167.117 130.123L165.413 129.316L164.988 127.507L166.149 126.046H168.046L169.207 127.507L168.82 129.316ZM178.923 125.315C179.233 126.623 179.31 127.931 179.194 129.2L173.271 127.507C172.729 127.354 172.42 126.815 172.536 126.276C172.575 126.122 172.652 125.969 172.768 125.853L177.452 121.66C178.11 122.737 178.613 123.968 178.923 125.315ZM175.594 119.352L170.523 122.929C170.097 123.199 169.517 123.122 169.168 122.699C169.052 122.583 169.013 122.429 168.975 122.275L168.626 116.005C171.297 116.312 173.736 117.505 175.594 119.352ZM164.368 116.197C164.794 116.12 165.181 116.043 165.607 115.966L165.258 122.121C165.22 122.66 164.794 123.122 164.213 123.122C164.058 123.122 163.865 123.083 163.749 123.006L158.6 119.352C160.188 117.774 162.162 116.697 164.368 116.197ZM156.742 121.66L161.349 125.738C161.775 126.084 161.813 126.738 161.465 127.161C161.349 127.315 161.194 127.43 161 127.469L155 129.2C154.768 126.584 155.349 123.93 156.742 121.66ZM155.697 132.086L161.852 131.047C162.355 131.008 162.82 131.355 162.936 131.855C162.975 132.086 162.975 132.278 162.897 132.47L160.536 138.126C158.368 136.741 156.626 134.625 155.697 132.086ZM169.826 139.741C168.936 139.934 168.046 140.049 167.117 140.049C165.762 140.049 164.446 139.818 163.207 139.434L166.265 133.932C166.575 133.586 167.078 133.432 167.504 133.663C167.697 133.778 167.852 133.932 167.968 134.086L170.949 139.434C170.6 139.549 170.213 139.626 169.826 139.741ZM177.375 134.394C176.407 135.933 175.129 137.164 173.658 138.126L171.22 132.316C171.104 131.855 171.297 131.355 171.762 131.124C171.917 131.047 172.11 131.008 172.304 131.008L178.497 132.047C178.265 132.893 177.878 133.663 177.375 134.394Z" fill="white"/>
<path d="M41 150C41 147.791 42.7909 146 45 146H289C291.209 146 293 147.791 293 150V152H41V150Z" fill="#555F8E"/>
<path d="M143.337 194H140.157L145.79 210H149.368L155.009 194H151.821L147.665 206.594H147.501L143.337 194ZM159.177 210.242C161.06 210.242 162.185 209.359 162.7 208.352H162.794V210H165.513V201.969C165.513 198.797 162.927 197.844 160.638 197.844C158.114 197.844 156.177 198.969 155.552 201.156L158.192 201.531C158.474 200.711 159.271 200.008 160.653 200.008C161.966 200.008 162.685 200.68 162.685 201.859V201.906C162.685 202.719 161.833 202.758 159.716 202.984C157.388 203.234 155.161 203.93 155.161 206.633C155.161 208.992 156.888 210.242 159.177 210.242ZM159.911 208.164C158.731 208.164 157.888 207.625 157.888 206.586C157.888 205.5 158.833 205.047 160.099 204.867C160.841 204.766 162.325 204.578 162.692 204.281V205.695C162.692 207.031 161.614 208.164 159.911 208.164ZM176.005 204.953C176.005 206.781 174.7 207.687 173.45 207.687C172.091 207.687 171.185 206.727 171.185 205.203V198H168.356V205.641C168.356 208.523 169.997 210.156 172.356 210.156C174.153 210.156 175.419 209.211 175.966 207.867H176.091V210H178.833V198H176.005V204.953ZM184.569 194H181.741V210H184.569V194ZM193.47 198H191.103V195.125H188.274V198H186.571V200.187H188.274V206.859C188.259 209.117 189.899 210.227 192.024 210.164C192.829 210.141 193.384 209.984 193.688 209.883L193.212 207.672C193.056 207.711 192.735 207.781 192.384 207.781C191.673 207.781 191.103 207.531 191.103 206.391V200.187H193.47V198Z" fill="#262424"/>
<path d="M100.828 229.42H102.521C102.47 227.557 100.822 226.205 98.4588 226.205C96.1236 226.205 94.3338 227.54 94.3338 229.545C94.3338 231.165 95.4929 232.114 97.3622 232.619L98.7372 232.994C99.9815 233.324 100.942 233.733 100.942 234.767C100.942 235.903 99.8565 236.653 98.3622 236.653C97.0099 236.653 95.8849 236.051 95.7827 234.784H94.0213C94.1349 236.892 95.7656 238.193 98.3736 238.193C101.107 238.193 102.68 236.756 102.68 234.784C102.68 232.688 100.811 231.875 99.3338 231.511L98.1974 231.216C97.2884 230.983 96.0781 230.557 96.0838 229.443C96.0838 228.455 96.9872 227.722 98.419 227.722C99.7543 227.722 100.703 228.347 100.828 229.42ZM108.716 229.273H106.926V227.182H105.227V229.273H103.949V230.636H105.227V235.79C105.222 237.375 106.432 238.142 107.773 238.114C108.312 238.108 108.676 238.006 108.875 237.932L108.568 236.528C108.455 236.551 108.244 236.602 107.972 236.602C107.42 236.602 106.926 236.42 106.926 235.438V230.636H108.716V229.273ZM114.178 238.176C116.638 238.176 118.246 236.375 118.246 233.676C118.246 230.96 116.638 229.159 114.178 229.159C111.717 229.159 110.109 230.96 110.109 233.676C110.109 236.375 111.717 238.176 114.178 238.176ZM114.183 236.75C112.575 236.75 111.825 235.347 111.825 233.67C111.825 232 112.575 230.58 114.183 230.58C115.78 230.58 116.53 232 116.53 233.67C116.53 235.347 115.78 236.75 114.183 236.75ZM120.142 238H121.841V232.67C121.841 231.528 122.722 230.705 123.926 230.705C124.278 230.705 124.676 230.767 124.812 230.807V229.182C124.642 229.159 124.307 229.142 124.091 229.142C123.068 229.142 122.193 229.722 121.875 230.659H121.784V229.273H120.142V238ZM129.732 238.176C131.635 238.176 132.982 237.239 133.368 235.818L131.76 235.528C131.453 236.352 130.714 236.773 129.749 236.773C128.294 236.773 127.317 235.83 127.271 234.148H133.476V233.545C133.476 230.392 131.589 229.159 129.612 229.159C127.18 229.159 125.578 231.011 125.578 233.693C125.578 236.403 127.158 238.176 129.732 238.176ZM127.277 232.875C127.345 231.636 128.243 230.562 129.624 230.562C130.942 230.562 131.805 231.54 131.811 232.875H127.277ZM142.135 238.193C143.578 238.193 144.391 237.46 144.714 236.807H144.783V238H146.442V232.205C146.442 229.665 144.442 229.159 143.055 229.159C141.476 229.159 140.021 229.795 139.453 231.386L141.05 231.75C141.3 231.131 141.936 230.534 143.078 230.534C144.175 230.534 144.737 231.108 144.737 232.097V232.136C144.737 232.756 144.101 232.744 142.533 232.926C140.879 233.119 139.186 233.551 139.186 235.534C139.186 237.25 140.476 238.193 142.135 238.193ZM142.504 236.83C141.544 236.83 140.851 236.398 140.851 235.557C140.851 234.648 141.658 234.324 142.641 234.193C143.192 234.119 144.499 233.972 144.743 233.727V234.852C144.743 235.886 143.919 236.83 142.504 236.83ZM150.403 232.818C150.403 231.426 151.256 230.631 152.438 230.631C153.591 230.631 154.29 231.386 154.29 232.653V238H155.989V232.449C155.989 230.29 154.801 229.159 153.017 229.159C151.705 229.159 150.847 229.767 150.443 230.693H150.335V229.273H148.705V238H150.403V232.818ZM161.534 238.17C163.125 238.17 163.75 237.199 164.057 236.642H164.199V238H165.858V226.364H164.159V230.688H164.057C163.75 230.148 163.17 229.159 161.545 229.159C159.438 229.159 157.886 230.824 157.886 233.653C157.886 236.477 159.415 238.17 161.534 238.17ZM161.909 236.722C160.392 236.722 159.602 235.386 159.602 233.636C159.602 231.903 160.375 230.602 161.909 230.602C163.392 230.602 164.188 231.812 164.188 233.636C164.188 235.472 163.375 236.722 161.909 236.722ZM174.409 226.364H172.653V238H174.409V226.364ZM178.528 232.818C178.528 231.426 179.381 230.631 180.562 230.631C181.716 230.631 182.415 231.386 182.415 232.653V238H184.114V232.449C184.114 230.29 182.926 229.159 181.142 229.159C179.83 229.159 178.972 229.767 178.568 230.693H178.46V229.273H176.83V238H178.528V232.818ZM190.466 229.273H188.676V227.182H186.977V229.273H185.699V230.636H186.977V235.79C186.972 237.375 188.182 238.142 189.523 238.114C190.062 238.108 190.426 238.006 190.625 237.932L190.318 236.528C190.205 236.551 189.994 236.602 189.722 236.602C189.17 236.602 188.676 236.42 188.676 235.438V230.636H190.466V229.273ZM196.013 238.176C197.916 238.176 199.263 237.239 199.649 235.818L198.041 235.528C197.734 236.352 196.996 236.773 196.03 236.773C194.575 236.773 193.598 235.83 193.553 234.148H199.757V233.545C199.757 230.392 197.871 229.159 195.893 229.159C193.462 229.159 191.859 231.011 191.859 233.693C191.859 236.403 193.439 238.176 196.013 238.176ZM193.558 232.875C193.626 231.636 194.524 230.562 195.905 230.562C197.223 230.562 198.087 231.54 198.092 232.875H193.558ZM205.301 241.455C207.523 241.455 209.239 240.438 209.239 238.193V229.273H207.574V230.688H207.449C207.148 230.148 206.545 229.159 204.92 229.159C202.812 229.159 201.261 230.824 201.261 233.602C201.261 236.386 202.847 237.869 204.909 237.869C206.511 237.869 207.131 236.966 207.438 236.409H207.545V238.125C207.545 239.494 206.608 240.085 205.318 240.085C203.903 240.085 203.352 239.375 203.051 238.875L201.591 239.477C202.051 240.545 203.216 241.455 205.301 241.455ZM205.284 236.46C203.767 236.46 202.977 235.295 202.977 233.58C202.977 231.903 203.75 230.602 205.284 230.602C206.767 230.602 207.562 231.812 207.562 233.58C207.562 235.381 206.75 236.46 205.284 236.46ZM211.517 238H213.216V232.67C213.216 231.528 214.097 230.705 215.301 230.705C215.653 230.705 216.051 230.767 216.188 230.807V229.182C216.017 229.159 215.682 229.142 215.466 229.142C214.443 229.142 213.568 229.722 213.25 230.659H213.159V229.273H211.517V238ZM220.119 238.193C221.562 238.193 222.375 237.46 222.699 236.807H222.767V238H224.426V232.205C224.426 229.665 222.426 229.159 221.04 229.159C219.46 229.159 218.006 229.795 217.438 231.386L219.034 231.75C219.284 231.131 219.92 230.534 221.062 230.534C222.159 230.534 222.722 231.108 222.722 232.097V232.136C222.722 232.756 222.085 232.744 220.517 232.926C218.864 233.119 217.17 233.551 217.17 235.534C217.17 237.25 218.46 238.193 220.119 238.193ZM220.489 236.83C219.528 236.83 218.835 236.398 218.835 235.557C218.835 234.648 219.642 234.324 220.625 234.193C221.176 234.119 222.483 233.972 222.727 233.727V234.852C222.727 235.886 221.903 236.83 220.489 236.83ZM230.763 229.273H228.973V227.182H227.274V229.273H225.996V230.636H227.274V235.79C227.268 237.375 228.479 238.142 229.82 238.114C230.359 238.108 230.723 238.006 230.922 237.932L230.615 236.528C230.501 236.551 230.291 236.602 230.018 236.602C229.467 236.602 228.973 236.42 228.973 235.438V230.636H230.763V229.273ZM236.31 238.176C238.213 238.176 239.56 237.239 239.946 235.818L238.338 235.528C238.031 236.352 237.293 236.773 236.327 236.773C234.872 236.773 233.895 235.83 233.849 234.148H240.054V233.545C240.054 230.392 238.168 229.159 236.19 229.159C233.759 229.159 232.156 231.011 232.156 233.693C232.156 236.403 233.736 238.176 236.31 238.176ZM233.855 232.875C233.923 231.636 234.821 230.562 236.202 230.562C237.52 230.562 238.384 231.54 238.389 232.875H233.855Z" fill="#6D6666"/>
<rect x="89.5" y="134" width="155" height="36" rx="4" fill="#555F8E"/>
<path d="M108.472 159L109.553 155.772H114.474L115.561 159H118.092L113.477 145.909H110.55L105.941 159H108.472ZM110.192 153.867L111.962 148.594H112.065L113.835 153.867H110.192ZM126.72 149.508H129.002C128.957 147.296 127.072 145.73 124.285 145.73C121.536 145.73 119.471 147.277 119.478 149.591C119.478 151.47 120.814 152.55 122.968 153.107L124.457 153.49C125.87 153.848 126.803 154.289 126.809 155.305C126.803 156.424 125.742 157.172 124.195 157.172C122.712 157.172 121.562 156.507 121.466 155.133H119.133C119.229 157.734 121.165 159.198 124.214 159.198C127.353 159.198 129.175 157.632 129.181 155.325C129.175 153.055 127.302 152.02 125.333 151.553L124.106 151.246C123.032 150.991 121.868 150.537 121.881 149.444C121.888 148.46 122.77 147.737 124.253 147.737C125.665 147.737 126.599 148.396 126.72 149.508ZM137.441 159L138.521 155.772H143.443L144.53 159H147.061L142.446 145.909H139.518L134.91 159H137.441ZM139.161 153.867L140.931 148.594H141.033L142.804 153.867H139.161ZM160.365 149.508H162.646C162.602 147.296 160.716 145.73 157.929 145.73C155.181 145.73 153.116 147.277 153.122 149.591C153.122 151.47 154.458 152.55 156.612 153.107L158.102 153.49C159.514 153.848 160.448 154.289 160.454 155.305C160.448 156.424 159.387 157.172 157.84 157.172C156.357 157.172 155.206 156.507 155.11 155.133H152.777C152.873 157.734 154.81 159.198 157.859 159.198C160.997 159.198 162.819 157.632 162.825 155.325C162.819 153.055 160.946 152.02 158.977 151.553L157.75 151.246C156.676 150.991 155.513 150.537 155.526 149.444C155.532 148.46 156.414 147.737 157.897 147.737C159.31 147.737 160.243 148.396 160.365 149.508ZM164.94 159H173.505V157.012H167.311V153.439H173.013V151.451H167.311V147.897H173.454V145.909H164.94V159ZM175.873 159H178.245V154.206H180.661L183.23 159H185.877L183.045 153.81C184.586 153.19 185.397 151.873 185.397 150.096C185.397 147.597 183.787 145.909 180.782 145.909H175.873V159ZM178.245 152.237V147.891H180.418C182.189 147.891 182.981 148.702 182.981 150.096C182.981 151.489 182.189 152.237 180.431 152.237H178.245ZM188.98 145.909H186.379L190.987 159H193.915L198.53 145.909H195.922L192.521 156.213H192.387L188.98 145.909ZM202.626 145.909H200.254V159H202.626V145.909ZM216.399 150.326C215.996 147.418 213.759 145.73 210.857 145.73C207.437 145.73 204.861 148.223 204.861 152.455C204.861 156.68 207.405 159.179 210.857 159.179C213.97 159.179 216.034 157.165 216.399 154.666L214.008 154.653C213.708 156.188 212.455 157.05 210.889 157.05C208.767 157.05 207.245 155.459 207.245 152.455C207.245 149.501 208.754 147.859 210.895 147.859C212.487 147.859 213.733 148.76 214.008 150.326H216.399ZM218.57 159H227.136V157.012H220.942V153.439H226.644V151.451H220.942V147.897H227.085V145.909H218.57V159Z" fill="white"/>
<g filter="url(#filter1_dd)">
<circle cx="83" cy="288" r="38" fill="white"/>
</g>
<path d="M73.2828 287.369C73.2828 287.918 73.3422 288.364 73.4463 288.691C73.5651 289.018 73.7138 289.375 73.9218 289.761C73.9961 289.88 74.0258 289.999 74.0258 290.103C74.0258 290.252 73.9367 290.4 73.7435 290.549L72.8072 291.173C72.6735 291.262 72.5397 291.307 72.4208 291.307C72.2722 291.307 72.1236 291.233 71.975 291.099C71.7669 290.876 71.5886 290.638 71.44 290.4C71.2914 290.148 71.1428 289.865 70.9793 289.523C69.8201 290.891 68.3637 291.574 66.6101 291.574C65.3617 291.574 64.366 291.218 63.6378 290.504C62.9096 289.791 62.5381 288.84 62.5381 287.651C62.5381 286.388 62.9839 285.362 63.8905 284.59C64.797 283.817 66.0008 283.43 67.5315 283.43C68.0368 283.43 68.5569 283.475 69.1068 283.549C69.6566 283.624 70.2214 283.742 70.8158 283.876V282.791C70.8158 281.662 70.578 280.874 70.1173 280.414C69.6418 279.953 68.8393 279.73 67.6949 279.73C67.1748 279.73 66.6398 279.789 66.0899 279.923C65.5401 280.057 65.0051 280.22 64.4849 280.428C64.2471 280.532 64.0688 280.592 63.9648 280.622C63.8607 280.651 63.7864 280.666 63.727 280.666C63.5189 280.666 63.4149 280.518 63.4149 280.205V279.477C63.4149 279.239 63.4446 279.061 63.5189 278.957C63.5932 278.853 63.727 278.749 63.935 278.645C64.4552 278.378 65.0794 278.155 65.8076 277.976C66.5358 277.783 67.3086 277.694 68.1259 277.694C69.8944 277.694 71.1873 278.095 72.0196 278.898C72.8369 279.7 73.2531 280.919 73.2531 282.554V287.369H73.2828ZM67.2491 289.628C67.7395 289.628 68.2448 289.538 68.7798 289.36C69.3148 289.182 69.7904 288.855 70.1916 288.409C70.4294 288.127 70.6078 287.814 70.6969 287.458C70.7861 287.101 70.8455 286.67 70.8455 286.165V285.541C70.4146 285.437 69.9539 285.347 69.4783 285.288C69.0027 285.229 68.542 285.199 68.0813 285.199C67.0856 285.199 66.3574 285.392 65.867 285.793C65.3766 286.195 65.1388 286.759 65.1388 287.502C65.1388 288.201 65.3171 288.721 65.6887 289.078C66.0453 289.449 66.5655 289.628 67.2491 289.628ZM79.1827 291.233C78.9152 291.233 78.7369 291.188 78.618 291.084C78.4991 290.995 78.3951 290.787 78.3059 290.504L74.8135 279.017C74.7243 278.719 74.6797 278.526 74.6797 278.422C74.6797 278.184 74.7986 278.051 75.0364 278.051H76.4928C76.7752 278.051 76.9684 278.095 77.0724 278.199C77.1913 278.288 77.2805 278.496 77.3696 278.779L79.8663 288.617L82.1847 278.779C82.259 278.482 82.3482 278.288 82.4671 278.199C82.5859 278.11 82.794 278.051 83.0615 278.051H84.2504C84.5328 278.051 84.726 278.095 84.8449 278.199C84.9637 278.288 85.0678 278.496 85.1272 278.779L87.4753 288.736L90.0463 278.779C90.1355 278.482 90.2395 278.288 90.3435 278.199C90.4624 278.11 90.6556 278.051 90.9231 278.051H92.3052C92.543 278.051 92.6767 278.169 92.6767 278.422C92.6767 278.496 92.6619 278.571 92.647 278.66C92.6322 278.749 92.6024 278.868 92.543 279.031L88.9614 290.519C88.8723 290.816 88.7682 291.01 88.6493 291.099C88.5304 291.188 88.3373 291.247 88.0846 291.247H86.8065C86.5242 291.247 86.331 291.203 86.2121 291.099C86.0932 290.995 85.9892 290.802 85.9297 290.504L83.6262 280.919L81.3376 290.489C81.2633 290.787 81.1741 290.98 81.0552 291.084C80.9363 291.188 80.7283 291.233 80.4608 291.233H79.1827ZM98.2794 291.634C97.5067 291.634 96.7339 291.545 95.9908 291.366C95.2477 291.188 94.6682 290.995 94.2818 290.772C94.044 290.638 93.8805 290.489 93.8211 290.356C93.7616 290.222 93.7319 290.073 93.7319 289.94V289.182C93.7319 288.87 93.8508 288.721 94.0737 288.721C94.1629 288.721 94.252 288.736 94.3412 288.766C94.4304 288.795 94.5641 288.855 94.7127 288.914C95.218 289.137 95.7679 289.315 96.3475 289.434C96.9419 289.553 97.5215 289.613 98.116 289.613C99.0522 289.613 99.7804 289.449 100.286 289.122C100.791 288.795 101.058 288.32 101.058 287.71C101.058 287.294 100.925 286.952 100.657 286.67C100.39 286.388 99.8845 286.135 99.1563 285.897L97.0014 285.229C95.9165 284.887 95.114 284.381 94.6236 283.713C94.1331 283.059 93.8805 282.331 93.8805 281.558C93.8805 280.934 94.0143 280.384 94.2818 279.908C94.5493 279.433 94.9059 279.017 95.3518 278.69C95.7976 278.348 96.3029 278.095 96.8973 277.917C97.4918 277.739 98.116 277.664 98.7699 277.664C99.0968 277.664 99.4386 277.679 99.7656 277.724C100.107 277.768 100.419 277.828 100.732 277.887C101.029 277.961 101.311 278.036 101.579 278.125C101.846 278.214 102.054 278.303 102.203 278.392C102.411 278.511 102.559 278.63 102.649 278.764C102.738 278.883 102.782 279.046 102.782 279.254V279.953C102.782 280.265 102.664 280.428 102.441 280.428C102.322 280.428 102.129 280.369 101.876 280.25C101.029 279.864 100.078 279.67 99.0225 279.67C98.1754 279.67 97.5067 279.804 97.046 280.087C96.5853 280.369 96.3475 280.8 96.3475 281.409C96.3475 281.825 96.4961 282.182 96.7933 282.464C97.0905 282.747 97.6404 283.029 98.4281 283.282L100.538 283.951C101.608 284.292 102.381 284.768 102.842 285.377C103.303 285.987 103.525 286.685 103.525 287.458C103.525 288.097 103.392 288.676 103.139 289.182C102.872 289.687 102.515 290.133 102.054 290.489C101.594 290.861 101.044 291.129 100.405 291.322C99.7358 291.53 99.0374 291.634 98.2794 291.634Z" fill="#252F3E"/>
<path d="M101.088 298.856C96.1988 302.468 89.0951 304.385 82.9871 304.385C74.427 304.385 66.714 301.219 60.8884 295.958C60.4277 295.542 60.8438 294.978 61.3937 295.305C67.6948 298.96 75.4673 301.175 83.5072 301.175C88.9316 301.175 94.891 300.045 100.375 297.727C101.192 297.355 101.891 298.262 101.088 298.856V298.856ZM103.124 296.538C102.5 295.736 98.9927 296.152 97.4025 296.345C96.927 296.404 96.8527 295.988 97.2836 295.676C100.078 293.714 104.67 294.279 105.205 294.933C105.74 295.602 105.056 300.194 102.44 302.393C102.039 302.735 101.653 302.557 101.831 302.111C102.426 300.64 103.748 297.326 103.124 296.538Z" fill="#FF9900"/>
<g filter="url(#filter2_dd)">
<circle cx="143.5" cy="288.5" r="38.5" fill="white"/>
</g>
<path d="M149.63 281.409L152.858 278.18L153.073 276.821C147.19 271.471 137.839 272.078 132.535 278.086C131.062 279.755 129.969 281.836 129.387 283.984L130.543 283.821L137 282.757L137.498 282.247C140.37 279.093 145.226 278.668 148.542 281.352L149.63 281.409Z" fill="#EA4335"/>
<path d="M157.458 283.889C156.716 281.157 155.192 278.7 153.074 276.821L148.543 281.352C150.456 282.915 151.546 285.27 151.499 287.74V288.545C153.726 288.545 155.532 290.35 155.532 292.577C155.532 294.805 153.726 296.565 151.499 296.565H143.423L142.63 297.426V302.262L143.423 303.021H151.499C157.292 303.066 162.025 298.452 162.07 292.659C162.097 289.148 160.366 285.856 157.458 283.889Z" fill="#4285F4"/>
<path d="M135.358 303.021H143.423V296.565H135.358C134.783 296.564 134.226 296.441 133.704 296.202L132.56 296.553L129.309 299.782L129.025 300.88C130.849 302.257 133.073 303.031 135.358 303.021Z" fill="#34A853"/>
<path d="M135.357 282.077C129.564 282.111 124.896 286.835 124.931 292.628C124.95 295.863 126.461 298.908 129.025 300.88L133.704 296.202C131.674 295.285 130.772 292.896 131.689 290.867C132.606 288.837 134.995 287.935 137.024 288.852C137.918 289.256 138.635 289.973 139.039 290.867L143.717 286.189C141.727 283.586 138.634 282.065 135.357 282.077Z" fill="#FBBC05"/>
<g filter="url(#filter3_dd)">
<circle cx="190.5" cy="291.5" r="38.5" fill="white"/>
</g>
<path d="M199.233 294.465C198.267 293.941 197.707 293.352 197.583 292.709C197.465 292.088 197.738 291.398 198.419 290.599C200.047 288.706 200.944 286.273 200.944 283.751C200.94 280.984 199.854 278.332 197.924 276.376C195.994 274.42 193.377 273.319 190.648 273.315L190.602 273.316L190.556 273.315C187.827 273.319 185.21 274.42 183.28 276.376C181.35 278.332 180.264 280.984 180.261 283.751C180.258 286.268 181.155 288.7 182.786 290.599C183.472 291.404 183.739 292.067 183.631 292.682C183.512 293.322 182.956 293.921 181.977 294.463C180.468 293.194 179.14 291.499 178.326 289.798C177.881 288.874 177.54 287.902 177.309 286.901C177.071 285.868 176.952 284.811 176.953 283.75C176.949 281.905 177.313 280.079 178.022 278.38C178.708 276.738 179.689 275.262 180.939 273.996C182.179 272.737 183.648 271.733 185.265 271.04C186.941 270.321 188.743 269.953 190.563 269.956H190.655C192.475 269.953 194.277 270.321 195.954 271.04C197.574 271.735 199.03 272.729 200.279 273.996C201.522 275.253 202.512 276.741 203.196 278.38C203.905 280.079 204.269 281.905 204.266 283.75C204.266 284.813 204.145 285.873 203.904 286.901C203.673 287.902 203.332 288.874 202.886 289.798C202.067 291.499 200.739 293.195 199.234 294.464L199.233 294.465ZM194.204 297.046C194.046 296.945 193.506 296.538 192.979 295.798C192.474 295.092 191.879 293.919 191.911 292.349C191.928 291.41 192.117 290.483 192.467 289.614C192.818 288.748 193.319 287.954 193.948 287.269L193.952 287.263L194.092 287.098C194.332 286.816 194.58 286.525 194.777 286.184C195.021 285.766 195.198 285.326 195.304 284.875C195.466 284.175 195.475 283.447 195.33 282.743C195.196 282.099 194.926 281.476 194.549 280.938C194.18 280.413 193.712 279.966 193.173 279.624C192.609 279.269 191.978 279.036 191.321 278.941C191.096 278.908 190.87 278.892 190.643 278.892H190.545C190.319 278.892 190.093 278.908 189.868 278.94C189.211 279.036 188.581 279.268 188.017 279.624C187.477 279.966 187.009 280.412 186.64 280.937C186.262 281.479 185.996 282.093 185.859 282.742C185.714 283.446 185.723 284.174 185.886 284.875C185.991 285.325 186.169 285.765 186.412 286.184C186.611 286.525 186.858 286.815 187.097 287.097L187.238 287.262L187.241 287.269C187.877 287.963 188.376 288.752 188.723 289.614C189.073 290.482 189.261 291.409 189.279 292.348C189.31 293.918 188.716 295.09 188.21 295.797C187.683 296.531 187.142 296.944 186.985 297.045L186.196 296.805C185.414 296.539 184.653 296.193 183.928 295.791C185.172 295.118 185.962 293.788 185.962 292.345C185.962 291.39 185.596 290.473 184.874 289.622C184.863 289.61 184.852 289.599 184.844 289.59L184.628 289.351L184.048 288.662C183.389 287.766 182.916 286.742 182.66 285.655C182.385 284.471 182.369 283.241 182.615 282.051C182.842 280.961 183.299 279.91 183.943 278.993C184.56 278.112 185.364 277.346 186.267 276.775C187.223 276.173 188.292 275.778 189.406 275.616C189.784 275.562 190.166 275.534 190.548 275.535H190.651C191.033 275.535 191.415 275.562 191.793 275.616C192.908 275.778 193.976 276.173 194.932 276.775C195.843 277.353 196.633 278.107 197.257 278.993C197.895 279.903 198.352 280.961 198.585 282.051C198.83 283.243 198.815 284.475 198.54 285.661C198.283 286.749 197.811 287.772 197.151 288.668C196.97 288.913 196.779 289.125 196.571 289.357L196.362 289.591C196.347 289.605 196.335 289.615 196.325 289.63C195.593 290.517 195.237 291.409 195.237 292.351C195.238 293.058 195.428 293.752 195.787 294.359C196.145 294.965 196.659 295.463 197.274 295.798C196.55 296.205 195.791 296.544 195.006 296.811L194.221 297.051L194.204 297.046ZM190.602 286.606C189.89 286.605 189.207 286.317 188.703 285.807C188.199 285.296 187.916 284.604 187.915 283.882C187.916 283.16 188.199 282.468 188.703 281.958C189.207 281.447 189.89 281.16 190.602 281.159C191.314 281.16 191.997 281.448 192.5 281.958C193.004 282.468 193.287 283.16 193.289 283.882C193.287 284.604 193.004 285.296 192.5 285.807C191.997 286.317 191.314 286.605 190.602 286.606" fill="#F0424D"/>
<path d="M181.374 309.42C181.374 311.23 181.214 311.73 180.784 312.167C180.529 312.425 180.131 312.603 179.381 312.603H176.758C175.914 312.603 175.404 312.457 175.047 312.103C174.49 311.537 174.331 310.858 174.331 308.242C174.331 305.625 174.49 304.945 175.047 304.381C175.398 304.025 175.902 303.88 176.758 303.88H179.371C180.151 303.88 180.502 304.041 180.773 304.316C181.187 304.736 181.347 305.318 181.347 306.949H179.738C179.706 305.818 179.643 305.619 179.547 305.527C179.451 305.436 179.319 305.383 178.958 305.383H176.966C176.472 305.383 176.339 305.431 176.234 305.545C176.074 305.706 175.994 306.007 175.994 308.242C175.994 310.477 176.074 310.778 176.234 310.94C176.345 311.053 176.473 311.102 176.966 311.102H178.974C179.324 311.102 179.485 311.069 179.601 310.957C179.717 310.845 179.777 310.521 179.777 309.422H181.386L181.374 309.42ZM184.178 307.449H188.097C188.097 305.979 188.001 305.657 187.859 305.511C187.762 305.414 187.619 305.349 187.126 305.349H185.15C184.656 305.349 184.522 305.398 184.401 305.527C184.257 305.672 184.194 305.963 184.173 307.449L184.178 307.449ZM184.178 308.791C184.195 310.503 184.289 310.842 184.417 310.971C184.546 311.1 184.657 311.133 185.15 311.133H187.374C187.741 311.133 187.853 311.068 187.948 310.971C188.059 310.858 188.091 310.664 188.123 309.888H189.732C189.7 311.245 189.572 311.73 189.142 312.167C188.872 312.441 188.505 312.603 187.74 312.603H184.946C184.101 312.603 183.591 312.457 183.235 312.103C182.676 311.537 182.518 310.858 182.518 308.242C182.518 305.625 182.677 304.945 183.235 304.381C183.585 304.025 184.09 303.88 184.946 303.88H187.303C188.148 303.88 188.689 304.041 189.014 304.364C189.571 304.93 189.731 305.609 189.731 308.161V308.597C189.731 308.726 189.683 308.791 189.539 308.791H184.166H184.178ZM196.225 310.907C196.082 311.052 195.874 311.117 195.349 311.117H194.106C193.596 311.117 193.153 310.972 192.544 310.658L192.433 310.601V305.849C193.07 305.527 193.516 305.365 194.042 305.365H195.354C195.879 305.365 196.087 305.429 196.23 305.575C196.47 305.817 196.532 306.285 196.532 308.235C196.532 310.185 196.468 310.663 196.23 310.895L196.225 310.907ZM195.746 303.863H194.583C193.866 303.863 193.516 304.025 192.432 304.93V303.88H190.777V314.532H192.433V311.574C193.517 312.462 193.867 312.624 194.585 312.624H195.747C196.672 312.624 197.134 312.462 197.5 312.092C197.956 311.629 198.185 310.961 198.185 308.246C198.185 305.532 197.961 304.869 197.5 304.401C197.134 304.03 196.672 303.867 195.747 303.867L195.746 303.863ZM206.153 304.369C205.833 304.045 205.42 303.868 204.671 303.868H203.317C202.6 303.868 202.249 304.03 201.166 304.934V301.609C200.651 301.32 200.096 301.109 199.521 300.984C199.517 300.984 199.513 300.987 199.509 300.988V312.603H201.166V305.849L201.51 305.684C201.975 305.473 202.35 305.365 202.776 305.365H203.892C204.45 305.365 204.609 305.43 204.784 305.608C204.943 305.77 205.012 306.027 205.012 306.448V312.603H206.67V306.335C206.67 305.123 206.494 304.703 206.159 304.364" fill="#333C46"/>
<g filter="url(#filter4_dd)">
<circle cx="245.75" cy="291.75" r="38.75" fill="white"/>
</g>
<path d="M236.439 287.415H239.409V296.082H236.439V287.415ZM232.839 287.535L226.81 291.173C226.767 291.199 226.719 291.212 226.671 291.212C226.622 291.212 226.574 291.199 226.531 291.173L220.502 287.535C220.37 287.456 220.222 287.415 220.071 287.415H220.064C219.858 287.401 219.656 287.48 219.501 287.632C219.347 287.785 219.252 288.001 219.237 288.232V296.073H222.205V292.34C222.21 292.284 222.229 292.231 222.257 292.185C222.286 292.139 222.325 292.102 222.37 292.077C222.415 292.052 222.465 292.04 222.515 292.042C222.565 292.045 222.613 292.061 222.656 292.09L226.035 294.133C226.202 294.232 226.389 294.285 226.578 294.286C226.767 294.288 226.954 294.239 227.123 294.143L230.688 292.076C230.731 292.048 230.779 292.033 230.829 292.031C230.879 292.029 230.928 292.042 230.972 292.067C231.017 292.092 231.055 292.129 231.083 292.175C231.112 292.221 231.129 292.274 231.135 292.329V296.073H234.102V288.232C234.088 288.001 233.993 287.786 233.839 287.633C233.684 287.48 233.483 287.402 233.277 287.415H233.27C233.12 287.415 232.972 287.456 232.839 287.535V287.535ZM254.219 287.415H251.207V291.36C251.201 291.414 251.184 291.467 251.157 291.512C251.129 291.557 251.093 291.594 251.05 291.62C251.007 291.645 250.959 291.659 250.91 291.658C250.861 291.658 250.813 291.645 250.77 291.619L242.964 287.511C242.843 287.447 242.71 287.415 242.576 287.415H242.571C242.365 287.401 242.163 287.48 242.008 287.632C241.854 287.785 241.759 288.001 241.744 288.232V296.073H244.732V292.132C244.737 292.078 244.755 292.026 244.782 291.981C244.809 291.935 244.846 291.898 244.889 291.873C244.932 291.847 244.98 291.834 245.029 291.834C245.077 291.834 245.125 291.847 245.168 291.873L253.005 295.981C253.126 296.044 253.258 296.077 253.392 296.077C253.598 296.09 253.8 296.012 253.955 295.859C254.109 295.706 254.204 295.491 254.219 295.26V287.415ZM256.554 296.082V287.415H257.921V296.082H256.554ZM265.964 296.237C262.287 296.237 259.679 294.513 259.679 291.75C259.679 289.002 262.303 287.263 265.964 287.263C269.624 287.263 272.264 288.987 272.264 291.75C272.264 294.513 269.687 296.237 265.964 296.237ZM265.964 288.412C263.23 288.412 261.124 289.592 261.124 291.75C261.124 293.923 263.23 295.088 265.964 295.088C268.697 295.088 270.818 293.923 270.818 291.75C270.818 289.592 268.697 288.412 265.964 288.412Z" fill="#C72C48"/>
<path d="M330.108 94.2898C329.75 91.7045 327.761 90.2045 325.182 90.2045C322.142 90.2045 319.852 92.4205 319.852 96.1818C319.852 99.9375 322.114 102.159 325.182 102.159C327.949 102.159 329.784 100.369 330.108 98.1477L327.983 98.1364C327.716 99.5 326.602 100.267 325.21 100.267C323.324 100.267 321.972 98.8523 321.972 96.1818C321.972 93.5568 323.312 92.0966 325.216 92.0966C326.631 92.0966 327.739 92.8977 327.983 94.2898H330.108ZM332.038 102H339.271V100.233H334.146V90.3636H332.038V102ZM351.045 96.1818C351.045 92.4205 348.75 90.2045 345.699 90.2045C342.642 90.2045 340.352 92.4205 340.352 96.1818C340.352 99.9375 342.642 102.159 345.699 102.159C348.75 102.159 351.045 99.9432 351.045 96.1818ZM348.926 96.1818C348.926 98.8295 347.597 100.267 345.699 100.267C343.807 100.267 342.472 98.8295 342.472 96.1818C342.472 93.5341 343.807 92.0966 345.699 92.0966C347.597 92.0966 348.926 93.5341 348.926 96.1818ZM360.374 90.3636V97.7898C360.374 99.25 359.357 100.295 357.76 100.295C356.158 100.295 355.146 99.25 355.146 97.7898V90.3636H353.038V97.9659C353.038 100.466 354.913 102.176 357.76 102.176C360.595 102.176 362.482 100.466 362.482 97.9659V90.3636H360.374ZM368.716 102C372.261 102 374.364 99.8068 374.364 96.1705C374.364 92.5455 372.261 90.3636 368.795 90.3636H364.773V102H368.716ZM366.881 100.176V92.1875H368.676C371.04 92.1875 372.273 93.5057 372.273 96.1705C372.273 98.8466 371.04 100.176 368.614 100.176H366.881Z" fill="#6D6666"/>
<path d="M442.148 102H449.761V100.233H444.256V97.0568H449.324V95.2898H444.256V92.1307H449.716V90.3636H442.148V102ZM455.81 102C459.355 102 461.457 99.8068 461.457 96.1705C461.457 92.5455 459.355 90.3636 455.889 90.3636H451.866V102H455.81ZM453.974 100.176V92.1875H455.77C458.134 92.1875 459.366 93.5057 459.366 96.1705C459.366 98.8466 458.134 100.176 455.707 100.176H453.974ZM471.256 94.0795H473.403C473.045 91.7955 471.068 90.2045 468.494 90.2045C465.449 90.2045 463.165 92.4432 463.165 96.1932C463.165 99.875 465.347 102.159 468.557 102.159C471.438 102.159 473.5 100.307 473.5 97.3068V95.9091H468.778V97.5568H471.46C471.426 99.2159 470.318 100.267 468.568 100.267C466.619 100.267 465.284 98.8068 465.284 96.1705C465.284 93.5511 466.642 92.0966 468.523 92.0966C469.926 92.0966 470.881 92.8466 471.256 94.0795ZM475.538 102H483.152V100.233H477.646V97.0568H482.714V95.2898H477.646V92.1307H483.107V90.3636H475.538V102Z" fill="#6D6666"/>
<defs>
<filter id="filter0_dd" x="7" y="116" width="320" height="188" filterUnits="userSpaceOnUse" color-interpolation-filters="sRGB">
<feFlood flood-opacity="0" result="BackgroundImageFix"/>
<feColorMatrix in="SourceAlpha" type="matrix" values="0 0 0 0 0 0 0 0 0 0 0 0 0 0 0 0 0 0 127 0" result="hardAlpha"/>
<feOffset dy="3"/>
<feGaussianBlur stdDeviation="2"/>
<feColorMatrix type="matrix" values="0 0 0 0 0 0 0 0 0 0 0 0 0 0 0 0 0 0 0.1 0"/>
<feBlend mode="normal" in2="BackgroundImageFix" result="effect1_dropShadow"/>
<feColorMatrix in="SourceAlpha" type="matrix" values="0 0 0 0 0 0 0 0 0 0 0 0 0 0 0 0 0 0 127 0" result="hardAlpha"/>
<feOffset dy="4"/>
<feGaussianBlur stdDeviation="17"/>
<feColorMatrix type="matrix" values="0 0 0 0 0 0 0 0 0 0 0 0 0 0 0 0 0 0 0.04 0"/>
<feBlend mode="normal" in2="effect1_dropShadow" result="effect2_dropShadow"/>
<feBlend mode="normal" in="SourceGraphic" in2="effect2_dropShadow" result="shape"/>
</filter>
<filter id="filter1_dd" x="11" y="220" width="144" height="144" filterUnits="userSpaceOnUse" color-interpolation-filters="sRGB">
<feFlood flood-opacity="0" result="BackgroundImageFix"/>
<feColorMatrix in="SourceAlpha" type="matrix" values="0 0 0 0 0 0 0 0 0 0 0 0 0 0 0 0 0 0 127 0" result="hardAlpha"/>
<feOffset dy="3"/>
<feGaussianBlur stdDeviation="2"/>
<feColorMatrix type="matrix" values="0 0 0 0 0 0 0 0 0 0 0 0 0 0 0 0 0 0 0.1 0"/>
<feBlend mode="normal" in2="BackgroundImageFix" result="effect1_dropShadow"/>
<feColorMatrix in="SourceAlpha" type="matrix" values="0 0 0 0 0 0 0 0 0 0 0 0 0 0 0 0 0 0 127 0" result="hardAlpha"/>
<feOffset dy="4"/>
<feGaussianBlur stdDeviation="17"/>
<feColorMatrix type="matrix" values="0 0 0 0 0 0 0 0 0 0 0 0 0 0 0 0 0 0 0.04 0"/>
<feBlend mode="normal" in2="effect1_dropShadow" result="effect2_dropShadow"/>
<feBlend mode="normal" in="SourceGraphic" in2="effect2_dropShadow" result="shape"/>
</filter>
<filter id="filter2_dd" x="71" y="220" width="145" height="145" filterUnits="userSpaceOnUse" color-interpolation-filters="sRGB">
<feFlood flood-opacity="0" result="BackgroundImageFix"/>
<feColorMatrix in="SourceAlpha" type="matrix" values="0 0 0 0 0 0 0 0 0 0 0 0 0 0 0 0 0 0 127 0" result="hardAlpha"/>
<feOffset dy="3"/>
<feGaussianBlur stdDeviation="2"/>
<feColorMatrix type="matrix" values="0 0 0 0 0 0 0 0 0 0 0 0 0 0 0 0 0 0 0.1 0"/>
<feBlend mode="normal" in2="BackgroundImageFix" result="effect1_dropShadow"/>
<feColorMatrix in="SourceAlpha" type="matrix" values="0 0 0 0 0 0 0 0 0 0 0 0 0 0 0 0 0 0 127 0" result="hardAlpha"/>
<feOffset dy="4"/>
<feGaussianBlur stdDeviation="17"/>
<feColorMatrix type="matrix" values="0 0 0 0 0 0 0 0 0 0 0 0 0 0 0 0 0 0 0.04 0"/>
<feBlend mode="normal" in2="effect1_dropShadow" result="effect2_dropShadow"/>
<feBlend mode="normal" in="SourceGraphic" in2="effect2_dropShadow" result="shape"/>
</filter>
<filter id="filter3_dd" x="118" y="223" width="145" height="145" filterUnits="userSpaceOnUse" color-interpolation-filters="sRGB">
<feFlood flood-opacity="0" result="BackgroundImageFix"/>
<feColorMatrix in="SourceAlpha" type="matrix" values="0 0 0 0 0 0 0 0 0 0 0 0 0 0 0 0 0 0 127 0" result="hardAlpha"/>
<feOffset dy="3"/>
<feGaussianBlur stdDeviation="2"/>
<feColorMatrix type="matrix" values="0 0 0 0 0 0 0 0 0 0 0 0 0 0 0 0 0 0 0.1 0"/>
<feBlend mode="normal" in2="BackgroundImageFix" result="effect1_dropShadow"/>
<feColorMatrix in="SourceAlpha" type="matrix" values="0 0 0 0 0 0 0 0 0 0 0 0 0 0 0 0 0 0 127 0" result="hardAlpha"/>
<feOffset dy="4"/>
<feGaussianBlur stdDeviation="17"/>
<feColorMatrix type="matrix" values="0 0 0 0 0 0 0 0 0 0 0 0 0 0 0 0 0 0 0.04 0"/>
<feBlend mode="normal" in2="effect1_dropShadow" result="effect2_dropShadow"/>
<feBlend mode="normal" in="SourceGraphic" in2="effect2_dropShadow" result="shape"/>
</filter>
<filter id="filter4_dd" x="173" y="223" width="145.5" height="145.5" filterUnits="userSpaceOnUse" color-interpolation-filters="sRGB">
<feFlood flood-opacity="0" result="BackgroundImageFix"/>
<feColorMatrix in="SourceAlpha" type="matrix" values="0 0 0 0 0 0 0 0 0 0 0 0 0 0 0 0 0 0 127 0" result="hardAlpha"/>
<feOffset dy="3"/>
<feGaussianBlur stdDeviation="2"/>
<feColorMatrix type="matrix" values="0 0 0 0 0 0 0 0 0 0 0 0 0 0 0 0 0 0 0.1 0"/>
<feBlend mode="normal" in2="BackgroundImageFix" result="effect1_dropShadow"/>
<feColorMatrix in="SourceAlpha" type="matrix" values="0 0 0 0 0 0 0 0 0 0 0 0 0 0 0 0 0 0 127 0" result="hardAlpha"/>
<feOffset dy="4"/>
<feGaussianBlur stdDeviation="17"/>
<feColorMatrix type="matrix" values="0 0 0 0 0 0 0 0 0 0 0 0 0 0 0 0 0 0 0.04 0"/>
<feBlend mode="normal" in2="effect1_dropShadow" result="effect2_dropShadow"/>
<feBlend mode="normal" in="SourceGraphic" in2="effect2_dropShadow" result="shape"/>
</filter>
</defs>
</svg>
