<svg xmlns="http://www.w3.org/2000/svg" xmlns:xlink="http://www.w3.org/1999/xlink" viewBox="0 0 1082.9 701.14"><defs><style>.cls-1,.cls-10,.cls-11,.cls-12,.cls-13,.cls-14,.cls-15,.cls-16,.cls-17,.cls-18,.cls-19,.cls-2,.cls-20,.cls-3,.cls-4,.cls-5,.cls-6,.cls-7,.cls-9{fill:none;}.cls-10,.cls-11,.cls-12,.cls-13,.cls-14,.cls-15,.cls-16,.cls-17,.cls-18,.cls-19,.cls-2,.cls-20,.cls-3,.cls-30,.cls-4,.cls-5,.cls-6,.cls-7,.cls-9{stroke-miterlimit:10;}.cls-10,.cls-11,.cls-12,.cls-13,.cls-14,.cls-15,.cls-16,.cls-17,.cls-18,.cls-19,.cls-2,.cls-20,.cls-3,.cls-4,.cls-5,.cls-6,.cls-7,.cls-9{stroke-width:10px;}.cls-2{stroke:url(#linear-gradient);}.cls-3{stroke-dasharray:21.39 21.39;stroke:url(#linear-gradient-2);}.cls-4{stroke:url(#linear-gradient-3);}.cls-5{stroke:url(#linear-gradient-4);}.cls-6{stroke-dasharray:21.42 21.42;stroke:url(#linear-gradient-5);}.cls-7{stroke:url(#linear-gradient-6);}.cls-28,.cls-48,.cls-50,.cls-8{fill:#943733;}.cls-9{stroke:url(#linear-gradient-7);}.cls-10,.cls-13{stroke-dasharray:4 4;}.cls-10{stroke:url(#linear-gradient-8);}.cls-11{stroke:url(#linear-gradient-9);}.cls-12{stroke:url(#linear-gradient-10);}.cls-13{stroke:url(#linear-gradient-11);}.cls-14{stroke:url(#linear-gradient-12);}.cls-15{stroke:url(#linear-gradient-13);}.cls-16,.cls-19{stroke-dasharray:3.98 3.98;}.cls-16{stroke:url(#linear-gradient-14);}.cls-17{stroke:url(#linear-gradient-15);}.cls-18{stroke:url(#linear-gradient-16);}.cls-19{stroke:url(#linear-gradient-17);}.cls-20{stroke:url(#linear-gradient-18);}.cls-21,.cls-22,.cls-30{fill:#fff;}.cls-22{font-size:40px;}.cls-22,.cls-28,.cls-48,.cls-50{font-family:MyriadPro-Regular, Myriad Pro;}.cls-23{letter-spacing:0.1em;}.cls-24{font-size:14px;}.cls-25{letter-spacing:0.01em;}.cls-26{letter-spacing:-0.06em;}.cls-27{letter-spacing:0em;}.cls-28,.cls-48,.cls-50{font-size:15px;}.cls-28{letter-spacing:0.5em;}.cls-29{letter-spacing:0.46em;}.cls-30{stroke:#943733;stroke-width:7px;}.cls-31{clip-path:url(#clip-path);}.cls-32{fill:#b4524e;}.cls-33{fill:#414042;}.cls-34{opacity:0.66;}.cls-35{clip-path:url(#clip-path-15);}.cls-36{fill:#6d6e71;}.cls-37{fill:#58595b;}.cls-38{opacity:0.26;}.cls-39{clip-path:url(#clip-path-22);}.cls-40{fill:#c49a6c;}.cls-41{clip-path:url(#clip-path-33);}.cls-42{clip-path:url(#clip-path-43);}.cls-43{clip-path:url(#clip-path-52);}.cls-44{clip-path:url(#clip-path-66);}.cls-45{clip-path:url(#clip-path-73);}.cls-46{clip-path:url(#clip-path-84);}.cls-47{clip-path:url(#clip-path-94);}.cls-48{letter-spacing:0.25em;}.cls-49{letter-spacing:0.3em;}.cls-50{letter-spacing:0.3em;}.cls-51{letter-spacing:0.3em;}.cls-52{letter-spacing:0.3em;}.cls-53{letter-spacing:0.29em;}.cls-54{letter-spacing:0.3em;}.cls-55{letter-spacing:0.3em;}</style><linearGradient id="linear-gradient" x1="295.28" y1="441.95" x2="633.43" y2="441.95" gradientUnits="userSpaceOnUse"><stop offset="0" stop-color="#943733"/><stop offset="0.09" stop-color="#9b402f"/><stop offset="0.25" stop-color="#af5a23"/><stop offset="0.44" stop-color="#d08310"/><stop offset="0.55" stop-color="#e59e03"/><stop offset="0.78" stop-color="#e5c500"/><stop offset="0.99" stop-color="#943733"/></linearGradient><linearGradient id="linear-gradient-2" x1="295.28" y1="411.17" x2="633.43" y2="411.17" xlink:href="#linear-gradient"/><linearGradient id="linear-gradient-3" x1="295.28" y1="382.32" x2="633.43" y2="382.32" xlink:href="#linear-gradient"/><linearGradient id="linear-gradient-4" x1="295.25" y1="300.35" x2="633.46" y2="300.35" xlink:href="#linear-gradient"/><linearGradient id="linear-gradient-5" x1="295.25" y1="332.23" x2="633.46" y2="332.23" xlink:href="#linear-gradient"/><linearGradient id="linear-gradient-6" x1="295.25" y1="362.12" x2="633.46" y2="362.12" xlink:href="#linear-gradient"/><linearGradient id="linear-gradient-7" x1="738.95" y1="367.29" x2="779.06" y2="367.29" xlink:href="#linear-gradient"/><linearGradient id="linear-gradient-8" x1="738.95" y1="366.99" x2="779.06" y2="366.99" xlink:href="#linear-gradient"/><linearGradient id="linear-gradient-9" x1="738.95" y1="366.72" x2="779.06" y2="366.72" xlink:href="#linear-gradient"/><linearGradient id="linear-gradient-10" x1="939.83" y1="365.42" x2="979.94" y2="365.42" xlink:href="#linear-gradient"/><linearGradient id="linear-gradient-11" x1="939.83" y1="365.12" x2="979.94" y2="365.12" xlink:href="#linear-gradient"/><linearGradient id="linear-gradient-12" x1="939.83" y1="364.85" x2="979.94" y2="364.85" xlink:href="#linear-gradient"/><linearGradient id="linear-gradient-13" x1="690.08" y1="438.12" x2="700.55" y2="438.12" xlink:href="#linear-gradient"/><linearGradient id="linear-gradient-14" x1="690.08" y1="458.03" x2="700.55" y2="458.03" xlink:href="#linear-gradient"/><linearGradient id="linear-gradient-15" x1="690.08" y1="475.95" x2="700.55" y2="475.95" xlink:href="#linear-gradient"/><linearGradient id="linear-gradient-16" x1="693.04" y1="247.57" x2="703.51" y2="247.57" xlink:href="#linear-gradient"/><linearGradient id="linear-gradient-17" x1="693.04" y1="267.48" x2="703.51" y2="267.48" xlink:href="#linear-gradient"/><linearGradient id="linear-gradient-18" x1="693.04" y1="285.4" x2="703.51" y2="285.4" xlink:href="#linear-gradient"/><clipPath id="clip-path" transform="translate(-128.19 -174.11)"><rect class="cls-1" x="305.61" y="413.44" width="98.48" height="94.05"/></clipPath><clipPath id="clip-path-15" transform="translate(-128.19 -174.11)"><rect class="cls-1" x="351" y="437.53" width="18.82" height="27.59"/></clipPath><clipPath id="clip-path-22" transform="translate(-128.19 -174.11)"><rect class="cls-1" x="362.9" y="451.06" width="22.64" height="2.81"/></clipPath><clipPath id="clip-path-33" transform="translate(-128.19 -174.11)"><rect class="cls-1" x="341.35" y="456.99" width="22.64" height="2.81"/></clipPath><clipPath id="clip-path-43" transform="translate(-128.19 -174.11)"><rect class="cls-1" x="358.55" y="475.35" width="22.64" height="2.81"/></clipPath><clipPath id="clip-path-52" transform="translate(-128.19 -174.11)"><rect class="cls-1" x="305.48" y="560.77" width="98.48" height="94.05"/></clipPath><clipPath id="clip-path-66" transform="translate(-128.19 -174.11)"><rect class="cls-1" x="350.86" y="584.86" width="18.82" height="27.59"/></clipPath><clipPath id="clip-path-73" transform="translate(-128.19 -174.11)"><rect class="cls-1" x="362.77" y="598.39" width="22.64" height="2.81"/></clipPath><clipPath id="clip-path-84" transform="translate(-128.19 -174.11)"><rect class="cls-1" x="341.22" y="604.32" width="22.64" height="2.81"/></clipPath><clipPath id="clip-path-94" transform="translate(-128.19 -174.11)"><rect class="cls-1" x="358.42" y="622.68" width="22.64" height="2.81"/></clipPath></defs><title>kerberos-architecture</title><g id="Layer_1" data-name="Layer 1"><line class="cls-2" x1="296.18" y1="442.89" x2="306.51" y2="441"/><line class="cls-3" x1="327.55" y1="437.15" x2="611.67" y2="385.19"/><line class="cls-4" x1="622.2" y1="383.26" x2="632.53" y2="381.38"/><line class="cls-5" x1="296.18" y1="299.37" x2="306.5" y2="301.33"/><line class="cls-6" x1="327.54" y1="305.31" x2="611.69" y2="359.15"/><line class="cls-7" x1="622.21" y1="361.14" x2="632.53" y2="363.09"/><rect class="cls-8" x="607.89" y="174.11" width="101.86" height="701.14" rx="15" transform="translate(1189.45 875.26) rotate(180)"/><path class="cls-8" d="M819.44,481a37.25,37.25,0,0,0-10.74,2.82A37.74,37.74,0,0,0,786.54,511c-.46,2.21-.93,6.76-.73,7.23a6.55,6.55,0,0,0,1.92,1.17c5.27,2.49,14.78,4.29,26.22,5,4.16.25,14.86.25,19,0,11.95-.75,22.22-2.8,27.1-5.43,1.06-.59,1-.47.73-3.88a37.76,37.76,0,0,0-23.7-31.65,36.35,36.35,0,0,0-14-2.53C821.36,480.9,819.71,480.94,819.44,481Zm9.58,4.45a33.55,33.55,0,0,1,27,26.06,12.06,12.06,0,0,1,.34,2,4.66,4.66,0,0,1-1.34-.41c-5.52-2.19-16.09-3.59-29-3.8-14.19-.24-26.77,1.12-33.9,3.64a7,7,0,0,1-1.75.49c-.17-.17.59-3.46,1.28-5.56a33.21,33.21,0,0,1,13.5-17.5,33.87,33.87,0,0,1,14.25-5.23A51.59,51.59,0,0,1,829,485.45Z" transform="translate(-128.19 -174.11)"/><path class="cls-8" d="M786.91,523.66l5.66,21.21c4.9,18.4,5.72,21.3,6.25,22.06,3.63,5.27,10.76,8.8,19.68,9.76a68.15,68.15,0,0,0,10.5,0c8.74-.94,15.42-4.37,18.87-9.68.88-1.35.94-1.61,6.45-22,3.06-11.36,5.58-20.81,5.62-21s-.49-.12-2.72.62c-10.88,3.65-30.4,5.12-47.7,3.61-8.6-.76-16.79-2.29-21.12-4C787.57,523.88,786.91,523.64,786.91,523.66Z" transform="translate(-128.19 -174.11)"/><circle class="cls-8" cx="1044.1" cy="333.7" r="3.09"/><path class="cls-8" d="M1172.29,511a3.16,3.16,0,1,1,3.16-3.16A3.17,3.17,0,0,1,1172.29,511Zm0-6.17a3,3,0,1,0,3,3A3,3,0,0,0,1172.29,504.8Z" transform="translate(-128.19 -174.11)"/><path class="cls-8" d="M1203.49,570.49V503.93a8.47,8.47,0,0,0-8.46-8.46h-69a8.47,8.47,0,0,0-8.46,8.46v66.56a8.46,8.46,0,0,0,8.46,8.45h69A8.46,8.46,0,0,0,1203.49,570.49ZM1120.79,504c0-1.23,0-5.23,5.24-5.23h69.19c4.72,0,5.34,3.7,5.34,4.92V516.2h-79.77Zm0,66.32V519.68h79.77l-.41,50.82c0,1.23-.62,4.93-5.75,4.93h-68.68C1121.61,575.43,1120.79,571.53,1120.79,570.3Z" transform="translate(-128.19 -174.11)"/><path class="cls-1" d="M1195,579h-69a8.53,8.53,0,0,1-8.53-8.52V503.93a8.53,8.53,0,0,1,8.53-8.53h69a8.53,8.53,0,0,1,8.53,8.53v66.56A8.53,8.53,0,0,1,1195,579Zm8.39-75.08a8.4,8.4,0,0,0-8.39-8.39h-69a8.4,8.4,0,0,0-8.39,8.39v66.56a8.39,8.39,0,0,0,8.39,8.38h69a8.39,8.39,0,0,0,8.39-8.38m-8.39,2.29h-69a2.3,2.3,0,0,1-2.3-2.29V519.61h73.63v50.88A2.3,2.3,0,0,1,1195,572.78Zm-71.19-53v50.74a2.16,2.16,0,0,0,2.16,2.15h69a2.16,2.16,0,0,0,2.16-2.15V519.75Zm73.49-6.23H1123.7v-9.59a2.3,2.3,0,0,1,2.3-2.3h69a2.3,2.3,0,0,1,2.3,2.3v9.59Z" transform="translate(-128.19 -174.11)"/><circle class="cls-8" cx="1053.05" cy="333.46" r="3.09"/><circle class="cls-8" cx="1061.56" cy="333.46" r="3.09"/><line class="cls-9" x1="739.03" y1="367.31" x2="741.03" y2="367.27"/><line class="cls-10" x1="745.02" y1="367.21" x2="774.99" y2="366.76"/><line class="cls-11" x1="776.99" y1="366.73" x2="778.99" y2="366.7"/><line class="cls-12" x1="939.91" y1="365.44" x2="941.91" y2="365.41"/><line class="cls-13" x1="945.9" y1="365.35" x2="975.87" y2="364.9"/><line class="cls-14" x1="977.87" y1="364.87" x2="979.86" y2="364.84"/><line class="cls-15" x1="695.55" y1="437.12" x2="695.53" y2="439.12"/><line class="cls-16" x1="695.48" y1="443.1" x2="695.13" y2="472.96"/><line class="cls-17" x1="695.1" y1="474.95" x2="695.08" y2="476.95"/><g id="surface1"><path class="cls-8" d="M850.3,281.79v-6.68H848v6a9.24,9.24,0,0,0-1.18-.1h-2.35v-5.87h-2.35V281h-3.52v-5.87h-2.36V281h-3.52v-5.87h-2.35V281h-3.53v-5.87h-2.35V281h-3.53v-5.87h-2.35V281H815v-5.87h-2.35V281h-3.53v-5.87h-2.35V281h-2.35a9.24,9.24,0,0,0-1.18.1v-6h-2.35v6.68a8.27,8.27,0,0,0-3.89,3.9h-6.69V288h6a9.22,9.22,0,0,0-.09,1.17v2.35h-5.88v2.35h5.88v3.53h-5.88v2.35h5.88v3.53h-5.88v2.35h5.88v3.52h-5.88v2.36h5.88v3.52h-5.88v2.35h5.88V321h-5.88v2.35h5.88v3.53h-5.88v2.35h5.88v2.35a9.22,9.22,0,0,0,.09,1.17h-6v2.35H797a8.27,8.27,0,0,0,3.89,3.9v6.68h2.35v-6a9.24,9.24,0,0,0,1.18.1h2.35v5.87h2.35v-5.87h3.53v5.87H815v-5.87h3.52v5.87h2.35v-5.87h3.53v5.87h2.35v-5.87h3.53v5.87h2.35v-5.87h3.52v5.87h2.36v-5.87h3.52v5.87h2.35v-5.87h2.35a9.24,9.24,0,0,0,1.18-.1v6h2.35V339a8.29,8.29,0,0,0,3.9-3.9h6.68V332.7h-6a7.68,7.68,0,0,0,.09-1.17v-2.35h5.88v-2.35H855V323.3h5.88V321H855v-3.53h5.88v-2.35H855v-3.52h5.88v-2.36H855v-3.52h5.88v-2.35H855v-3.53h5.88v-2.35H855v-3.53h5.88v-2.35H855v-2.35a7.68,7.68,0,0,0-.09-1.17h6v-2.35H854.2A8.29,8.29,0,0,0,850.3,281.79Zm2.35,49.74a5.87,5.87,0,0,1-5.88,5.87H804.46a5.88,5.88,0,0,1-5.88-5.87V289.21a5.88,5.88,0,0,1,5.88-5.87h42.31a5.87,5.87,0,0,1,5.88,5.87Z" transform="translate(-128.19 -174.11)"/><path class="cls-8" d="M845.6,286.86h-40a3.53,3.53,0,0,0-3.52,3.53v40a3.53,3.53,0,0,0,3.52,3.53h40a3.53,3.53,0,0,0,3.52-3.53v-40A3.53,3.53,0,0,0,845.6,286.86Zm1.17,43.49a1.17,1.17,0,0,1-1.17,1.18h-40a1.17,1.17,0,0,1-1.17-1.18v-40a1.17,1.17,0,0,1,1.17-1.18h40a1.17,1.17,0,0,1,1.17,1.18Z" transform="translate(-128.19 -174.11)"/><path class="cls-8" d="M842.07,291.56h2.35v2.35h-2.35Z" transform="translate(-128.19 -174.11)"/><path class="cls-8" d="M806.81,326.83h2.35v2.35h-2.35Z" transform="translate(-128.19 -174.11)"/><path class="cls-8" d="M806.81,293.91v3.53h2.35v-3.53h3.53v-2.35h-3.53A2.35,2.35,0,0,0,806.81,293.91Z" transform="translate(-128.19 -174.11)"/><path class="cls-8" d="M842.07,326.83h-3.52v2.35h5.87V323.3h-2.35Z" transform="translate(-128.19 -174.11)"/></g><line class="cls-18" x1="698.51" y1="246.57" x2="698.49" y2="248.57"/><line class="cls-19" x1="698.44" y1="252.55" x2="698.08" y2="282.41"/><line class="cls-20" x1="698.06" y1="284.4" x2="698.04" y2="286.4"/></g><g id="Layer_2" data-name="Layer 2"><rect class="cls-21" x="491.73" y="266.49" width="21.44" height="16.95"/><rect class="cls-21" x="541.85" y="266.49" width="21.44" height="16.95"/><polyline class="cls-21" points="538.64 305.47 517.2 305.47 517.2 288.52"/><polyline class="cls-21" points="538.85 327.51 517.4 327.51 517.4 311.56"/><rect class="cls-21" x="542.26" y="311.56" width="21.44" height="15.95"/><polyline class="cls-21" points="538.85 283.44 517.4 283.44 517.4 266.49"/><text class="cls-22" transform="translate(502.86 387.12)"><tspan class="cls-23">FW</tspan><tspan class="cls-24"><tspan x="0" y="16.8">FIR</tspan><tspan class="cls-25" x="17.7" y="16.8">E</tspan><tspan class="cls-26" x="24.71" y="16.8">W</tspan><tspan class="cls-27" x="35.76" y="16.8">ALL</tspan></tspan></text><rect class="cls-21" x="491.73" y="288.52" width="21.44" height="16.95"/><rect class="cls-21" x="491.73" y="310.56" width="21.44" height="16.95"/><rect class="cls-21" x="541.85" y="289.52" width="21.44" height="15.95"/><text x="-128.19" y="-174.11"/><text x="-128.19" y="-174.11"/><text x="-128.19" y="-174.11"/><text class="cls-28" transform="translate(296.18 40.18)">ON-PREMISE</text><text class="cls-28" transform="translate(616.92 40.18)">C<tspan class="cls-29" x="16.2" y="0">L</tspan><tspan x="30.19" y="0">OUD</tspan></text><circle class="cls-30" cx="225.32" cy="287.85" r="56.09"/><g class="cls-31"><g class="cls-31"><path class="cls-32" d="M369.27,435.68c-1.46.36-5-9.21-6.15-8.64s-2.38,3.23-2.38,3.23c-.45-1-1.66-3.62-3-2.78-1.71,1.1-3.7,6.44-3.7,8.76,0,3.14-3.29,9.8-3.29,9.8S344.42,463,347.9,460.2s7.64-.18,9.5,1.35,3.8,3.54,7.79,3.54c1.22,0,4.71-.7,4.74-2.48a23.09,23.09,0,0,1,2.1-8.93s1.55-.07,7.78-.63,7.94-4.47,7.94-4.47,3.12-3.05-2.15-4.53c-7.85-2.22-9-3.05-9-3.05-4.29-7.41-11.28-6.17-11.28-6.17-1,0-2,.08-2.81.17-5.88.62-7.13,2.74-7.13,2.74" transform="translate(-128.19 -174.11)"/></g></g><g class="cls-31"><g class="cls-31"><path class="cls-33" d="M384.79,443.81s-1.25,2.49,3,4.77c0,0,3.52-3.24-3-4.77" transform="translate(-128.19 -174.11)"/></g></g><g class="cls-31"><g class="cls-31"><path class="cls-33" d="M367.55,441.66s5-2.21,5.47,2.15a4.32,4.32,0,0,0-1.93,0c-.9.23-2.5.5-3.54-2.15" transform="translate(-128.19 -174.11)"/></g></g><g class="cls-31"><g class="cls-31"><path class="cls-33" d="M355.11,437.29a8.83,8.83,0,0,1,.08-3.05c.62-3,3.09-7.29,4.14-6.34,1.3,1.18,1.75,1.77,2.33,7.21a11.29,11.29,0,0,0-6.55,2.18" transform="translate(-128.19 -174.11)"/></g></g><g class="cls-31"><g class="cls-31"><path class="cls-33" d="M362.53,435s-.87-7.13,1.34-7.51c.24,0,4.19,7.37,4.33,7.4a25.56,25.56,0,0,0-5.67.11" transform="translate(-128.19 -174.11)"/></g></g><g class="cls-31"><g class="cls-31"><path class="cls-33" d="M351,445.42s2,13.08,4.29,14.71c0,0-4.3-2.31-7.9.46,0,0-3.3.44,3.61-15.17" transform="translate(-128.19 -174.11)"/></g></g><g class="cls-31"><g class="cls-31"><g class="cls-34"><g class="cls-35"><path class="cls-36" d="M353.93,437.53s2,27.56,15.89,25.59c0,0-.56,1.67-4.63,2a8.69,8.69,0,0,1-6.66-2.6s-2.94-2.26-3.22-2.36c0,0-1.66-1-2.6-6.21,0,0-1.95-8-1.69-8.5,0,0,2.88-7.09,2.91-7.89" transform="translate(-128.19 -174.11)"/></g></g></g></g><g class="cls-31"><g class="cls-31"><path class="cls-33" d="M362.9,451.81s7.05,2.73,9.13,1.87c0,0-.83,2-1,2.56,0,0-.37,1.26-.49,1.7,0,0-6.89,1.2-7.65-6.13" transform="translate(-128.19 -174.11)"/></g></g><g class="cls-31"><g class="cls-31"><path class="cls-37" d="M362.9,451.81s.51,5.92,7.65,6.13c0,0-.54,2.69-.54,3.26,0,0-10.26.44-7.11-9.39" transform="translate(-128.19 -174.11)"/></g></g><g class="cls-31"><g class="cls-31"><g class="cls-38"><g class="cls-39"><path class="cls-40" d="M385.54,451.06s-15.69,1.09-22.64.75c0,0,7.1,2.81,9.13,1.87,0,0,7.87-.55,9-.8a10.31,10.31,0,0,0,4.48-1.82" transform="translate(-128.19 -174.11)"/></g></g></g><g class="cls-31"><path class="cls-32" d="M347.73,441.61c-1.47.36-5-9.21-6.16-8.65s-2.38,3.24-2.38,3.24c-.45-1-1.65-3.62-3-2.78-1.72,1.09-3.71,6.44-3.71,8.76,0,3.14-3.29,9.8-3.29,9.8s-6.35,16.92-2.86,14.15,7.63-.18,9.49,1.35,3.8,3.54,7.8,3.54c1.21,0,4.71-.71,4.73-2.48a23,23,0,0,1,2.11-8.93s1.54-.07,7.77-.64,7.94-4.46,7.94-4.46,3.12-3.05-2.15-4.54c-7.85-2.21-9-3-9-3-4.29-7.41-11.28-6.17-11.28-6.17-1,0-2,.08-2.81.17-5.88.62-7.13,2.74-7.13,2.74" transform="translate(-128.19 -174.11)"/></g><g class="cls-31"><path class="cls-33" d="M363.24,449.74s-1.24,2.48,3,4.77c0,0,3.52-3.24-3-4.77" transform="translate(-128.19 -174.11)"/></g><g class="cls-31"><path class="cls-33" d="M346,447.58s5-2.2,5.48,2.16a4.37,4.37,0,0,0-1.94,0c-.9.23-2.5.49-3.54-2.16" transform="translate(-128.19 -174.11)"/></g><g class="cls-31"><path class="cls-33" d="M333.56,443.22a8.83,8.83,0,0,1,.08-3.05c.63-3,3.09-7.29,4.14-6.34,1.3,1.18,1.75,1.77,2.34,7.2a11.37,11.37,0,0,0-6.56,2.19" transform="translate(-128.19 -174.11)"/></g><g class="cls-31"><path class="cls-33" d="M341,440.93s-.86-7.14,1.34-7.51c.25,0,4.19,7.37,4.34,7.4a24.94,24.94,0,0,0-5.68.11" transform="translate(-128.19 -174.11)"/></g><g class="cls-31"><path class="cls-33" d="M329.47,451.35s1.95,13.08,4.29,14.71c0,0-4.3-2.31-7.9.46,0,0-3.3.44,3.61-15.17" transform="translate(-128.19 -174.11)"/></g><g class="cls-31"><path class="cls-36" d="M332.38,443.46s2,27.56,15.89,25.59c0,0-.56,1.67-4.62,2a8.71,8.71,0,0,1-6.67-2.6s-2.94-2.26-3.22-2.36c0,0-1.66-1-2.6-6.21,0,0-1.94-8-1.69-8.5,0,0,2.89-7.09,2.91-7.89" transform="translate(-128.19 -174.11)"/></g><g class="cls-31"><path class="cls-33" d="M341.35,457.74s7,2.73,9.14,1.87c0,0-.56,2-.72,2.56,0,0-.09,1.86-.2,2.3,0,0-7.45.6-8.22-6.73" transform="translate(-128.19 -174.11)"/></g><g class="cls-31"><path class="cls-37" d="M341.35,457.74s.83,6.05,8,6.26a22.3,22.3,0,0,0-.87,3.13s-10.26.44-7.11-9.39" transform="translate(-128.19 -174.11)"/></g><g class="cls-31"><g class="cls-38"><g class="cls-41"><path class="cls-40" d="M364,457s-15.69,1.08-22.64.75c0,0,7.1,2.81,9.14,1.87,0,0,7.86-.55,9-.8A10.3,10.3,0,0,0,364,457" transform="translate(-128.19 -174.11)"/></g></g></g><g class="cls-31"><path class="cls-32" d="M364.93,460c-1.47.37-5-9.21-6.16-8.64s-2.38,3.23-2.38,3.23c-.45-1-1.65-3.62-3-2.78-1.71,1.1-3.65,6.44-3.7,8.76-.1,3.85-3.33,10.09-3.29,9.8,0,0-6.36,16.92-2.87,14.16s7.63-.19,9.5,1.34,3.79,3.55,7.79,3.55c1.21,0,4.71-.71,4.74-2.49a22.8,22.8,0,0,1,2.1-8.92s1.54-.08,7.78-.64,7.94-4.47,7.94-4.47,3.11-3-2.16-4.53c-7.85-2.22-9-3-9-3C368,457.88,361,459.12,361,459.12c-1,0-2,.08-2.82.17-5.88.62-7.13,2.74-7.13,2.74" transform="translate(-128.19 -174.11)"/></g><g class="cls-31"><path class="cls-33" d="M380.44,468.11s-1.24,2.48,3,4.76c0,0,3.51-3.24-3-4.76" transform="translate(-128.19 -174.11)"/></g><g class="cls-31"><path class="cls-33" d="M363.2,466s5-2.21,5.48,2.16a4.37,4.37,0,0,0-1.94,0c-.9.22-2.5.49-3.54-2.16" transform="translate(-128.19 -174.11)"/></g><g class="cls-31"><path class="cls-33" d="M350.77,461.58a8.67,8.67,0,0,1,.07-3.05c.63-3,3.1-7.28,4.15-6.33,1.29,1.17,1.74,1.76,2.33,7.2a11.27,11.27,0,0,0-6.55,2.18" transform="translate(-128.19 -174.11)"/></g><g class="cls-31"><path class="cls-33" d="M358.18,459.29s-.86-7.13,1.34-7.51c.25,0,4.19,7.37,4.34,7.41a24.51,24.51,0,0,0-5.68.1" transform="translate(-128.19 -174.11)"/></g><g class="cls-31"><path class="cls-33" d="M346.43,470.14c.1.31,5.77,15.78,7.88,16.72,0,0-7.54-4.95-11.14-2.18,0,0-3.66,1.07,3.26-14.54" transform="translate(-128.19 -174.11)"/></g><g class="cls-31"><path class="cls-33" d="M358.55,476.1s7.06,2.73,9.14,1.88c0,0-.84,1.95-1,2.55,0,0-.37,1.26-.48,1.7,0,0-6.89,1.2-7.66-6.13" transform="translate(-128.19 -174.11)"/></g><g class="cls-31"><path class="cls-37" d="M358.55,476.1s.51,5.92,7.66,6.13c0,0-.55,2.69-.55,3.26,0,0-10.26.44-7.11-9.39" transform="translate(-128.19 -174.11)"/></g><g class="cls-31"><g class="cls-38"><g class="cls-42"><path class="cls-40" d="M381.19,475.35s-15.69,1.09-22.64.75c0,0,7.1,2.81,9.14,1.88,0,0,7.86-.56,9-.81a10.3,10.3,0,0,0,4.47-1.82" transform="translate(-128.19 -174.11)"/></g></g></g></g><g class="cls-31"><g class="cls-31"><path class="cls-33" d="M325.31,466.15s7,16.52,18.1,18.82l.33-3.88,2.48-7.72.21-3.23s-7.19.14-10.78-2.92c0,0-.77-.43-1.89-1.16s-7.88-2.46-7.7-.63-.29-.34-.29-.34Z" transform="translate(-128.19 -174.11)"/></g></g><g class="cls-31"><g class="cls-31"><path class="cls-33" d="M358.27,490.76l2.82-1.84a8.71,8.71,0,0,1-9.09-5.43c-2.89-6.43-4.31-2.54-4.31-2.54l-1.39,3.34,3.22,5.25,6.5,1.65Z" transform="translate(-128.19 -174.11)"/></g></g><g class="cls-31"><g class="cls-31"><path class="cls-36" d="M329.42,451.58s2.81,29,17.08,18.68l-1.1-.53-2.66-.42-2.54-1.64-3.65-5.23-3.93-7.13Z" transform="translate(-128.19 -174.11)"/></g></g><g class="cls-31"><g class="cls-31"><path class="cls-33" d="M325.41,462.44s-7.09,25.3-1,23.49c0,0,13.22-2.19,21.35,3.77,0,0,16.07,11.68,19.82-2.61-.55,2.16-16.67,4.75-18.71-4.45-1.69-7.64-13.1-9.77-13.1-9.77Z" transform="translate(-128.19 -174.11)"/></g></g><path class="cls-8" d="M228.74,431a6,6,0,0,1-7,4.75l-11.11-2.09a5.33,5.33,0,0,1-.66-.17l20.25-10.68Zm-92.44,1.69v12.94h5.95v-5.48h18.62l12.79-12.79,31.06,5.83L245.43,413l-81-15.2-.22,1.18-8.5-2,.12,25.69,3.79.72-.23,1.26,7.48,1.41-.37,0-8.13,8.13H142.28v-6h-5.95v4.49Z" transform="translate(-128.19 -174.11)"/><rect class="cls-8" x="0.13" y="278.34" width="170.98" height="14.53" rx="7.27"/><circle class="cls-30" cx="225.18" cy="435.18" r="56.09"/><g class="cls-43"><g class="cls-43"><path class="cls-32" d="M369.14,583c-1.47.36-5-9.21-6.16-8.64s-2.37,3.23-2.37,3.23c-.45-1-1.66-3.62-3-2.78-1.71,1.1-3.7,6.44-3.7,8.76,0,3.14-3.29,9.8-3.29,9.8s-6.36,16.92-2.87,14.15,7.63-.18,9.5,1.35,3.8,3.54,7.79,3.54c1.22,0,4.71-.71,4.74-2.48a23.09,23.09,0,0,1,2.1-8.93s1.55-.07,7.78-.64,7.94-4.46,7.94-4.46,3.12-3-2.15-4.54c-7.85-2.21-9-3-9-3-4.3-7.41-11.28-6.17-11.28-6.17-1,0-2,.08-2.81.17-5.88.62-7.13,2.74-7.13,2.74" transform="translate(-128.19 -174.11)"/></g></g><g class="cls-43"><g class="cls-43"><path class="cls-33" d="M384.65,591.14s-1.24,2.48,3,4.77c0,0,3.51-3.24-3-4.77" transform="translate(-128.19 -174.11)"/></g></g><g class="cls-43"><g class="cls-43"><path class="cls-33" d="M367.41,589s5-2.2,5.48,2.16a4.36,4.36,0,0,0-1.94,0c-.89.23-2.49.49-3.54-2.16" transform="translate(-128.19 -174.11)"/></g></g><g class="cls-43"><g class="cls-43"><path class="cls-33" d="M355,584.62a8.67,8.67,0,0,1,.07-3c.63-3,3.1-7.29,4.15-6.34,1.3,1.18,1.75,1.77,2.33,7.2a11.34,11.34,0,0,0-6.55,2.19" transform="translate(-128.19 -174.11)"/></g></g><g class="cls-43"><g class="cls-43"><path class="cls-33" d="M362.4,582.33s-.87-7.14,1.34-7.51c.24,0,4.19,7.37,4.33,7.4a24.87,24.87,0,0,0-5.67.11" transform="translate(-128.19 -174.11)"/></g></g><g class="cls-43"><g class="cls-43"><path class="cls-33" d="M350.89,592.75s1.95,13.08,4.29,14.71c0,0-4.31-2.31-7.9.46,0,0-3.31.44,3.61-15.17" transform="translate(-128.19 -174.11)"/></g></g><g class="cls-43"><g class="cls-43"><g class="cls-34"><g class="cls-44"><path class="cls-36" d="M353.79,584.86s2,27.56,15.9,25.59c0,0-.56,1.67-4.63,2a8.69,8.69,0,0,1-6.66-2.6s-2.94-2.26-3.22-2.36c0,0-1.66-1-2.61-6.21,0,0-1.94-8-1.68-8.5,0,0,2.88-7.09,2.9-7.89" transform="translate(-128.19 -174.11)"/></g></g></g></g><g class="cls-43"><g class="cls-43"><path class="cls-33" d="M362.77,599.14s7.05,2.73,9.13,1.87c0,0-.84,2-1,2.55,0,0-.37,1.27-.48,1.71,0,0-6.89,1.2-7.65-6.13" transform="translate(-128.19 -174.11)"/></g></g><g class="cls-43"><g class="cls-43"><path class="cls-37" d="M362.77,599.14s.51,5.92,7.65,6.13c0,0-.54,2.68-.55,3.26,0,0-10.25.44-7.1-9.39" transform="translate(-128.19 -174.11)"/></g></g><g class="cls-43"><g class="cls-43"><g class="cls-38"><g class="cls-45"><path class="cls-40" d="M385.41,598.39s-15.7,1.08-22.64.75c0,0,7.1,2.81,9.13,1.87,0,0,7.87-.55,9-.8a10.36,10.36,0,0,0,4.48-1.82" transform="translate(-128.19 -174.11)"/></g></g></g><g class="cls-43"><path class="cls-32" d="M347.59,588.94c-1.46.36-5-9.21-6.15-8.65s-2.38,3.23-2.38,3.23c-.45-1-1.66-3.62-3-2.77-1.71,1.09-3.7,6.44-3.7,8.76,0,3.13-3.29,9.8-3.29,9.8s-6.35,16.91-2.87,14.15,7.64-.18,9.5,1.35,3.8,3.54,7.79,3.54c1.22,0,4.71-.71,4.74-2.48a23.09,23.09,0,0,1,2.1-8.93s1.55-.07,7.78-.64,7.94-4.46,7.94-4.46,3.12-3.05-2.15-4.54c-7.85-2.22-9-3-9-3-4.3-7.4-11.28-6.16-11.28-6.16-1,0-2,.08-2.81.16-5.88.63-7.13,2.74-7.13,2.74" transform="translate(-128.19 -174.11)"/></g><g class="cls-43"><path class="cls-33" d="M363.11,597.07s-1.25,2.48,3,4.77c0,0,3.52-3.24-3-4.77" transform="translate(-128.19 -174.11)"/></g><g class="cls-43"><path class="cls-33" d="M345.87,594.91s5-2.2,5.47,2.16a4.32,4.32,0,0,0-1.93,0c-.9.23-2.5.49-3.54-2.16" transform="translate(-128.19 -174.11)"/></g><g class="cls-43"><path class="cls-33" d="M333.43,590.55a8.84,8.84,0,0,1,.08-3c.62-3,3.09-7.29,4.14-6.34,1.3,1.18,1.75,1.76,2.33,7.2a11.34,11.34,0,0,0-6.55,2.19" transform="translate(-128.19 -174.11)"/></g><g class="cls-43"><path class="cls-33" d="M340.85,588.25s-.87-7.13,1.34-7.5c.24,0,4.19,7.37,4.33,7.4a24.39,24.39,0,0,0-5.67.1" transform="translate(-128.19 -174.11)"/></g><g class="cls-43"><path class="cls-33" d="M329.34,598.68s2,13.08,4.29,14.71c0,0-4.3-2.31-7.9.46,0,0-3.3.44,3.61-15.17" transform="translate(-128.19 -174.11)"/></g><g class="cls-43"><path class="cls-36" d="M332.25,590.79s2,27.56,15.89,25.59c0,0-.56,1.67-4.63,2a8.69,8.69,0,0,1-6.66-2.6s-2.94-2.26-3.22-2.36c0,0-1.66-1-2.6-6.21,0,0-1.95-8-1.69-8.5,0,0,2.88-7.09,2.91-7.89" transform="translate(-128.19 -174.11)"/></g><g class="cls-43"><path class="cls-33" d="M341.22,605.07s7,2.73,9.13,1.87l-.72,2.56s-.08,1.86-.19,2.3c0,0-7.46.6-8.22-6.73" transform="translate(-128.19 -174.11)"/></g><g class="cls-43"><path class="cls-37" d="M341.22,605.07s.83,6,8,6.26a22.5,22.5,0,0,0-.86,3.13s-10.26.44-7.11-9.39" transform="translate(-128.19 -174.11)"/></g><g class="cls-43"><g class="cls-38"><g class="cls-46"><path class="cls-40" d="M363.86,604.32s-15.69,1.08-22.64.75c0,0,7.1,2.81,9.13,1.87,0,0,7.87-.55,9-.8a10.31,10.31,0,0,0,4.48-1.82" transform="translate(-128.19 -174.11)"/></g></g></g><g class="cls-43"><path class="cls-32" d="M364.8,607.3c-1.47.36-5-9.21-6.16-8.64s-2.38,3.23-2.38,3.23c-.45-1-1.66-3.62-3-2.78-1.72,1.1-3.65,6.44-3.71,8.76-.09,3.85-3.33,10.09-3.29,9.8,0,0-6.35,16.92-2.87,14.15s7.64-.18,9.5,1.35,3.8,3.54,7.79,3.54c1.22,0,4.72-.7,4.74-2.48a23.09,23.09,0,0,1,2.1-8.93s1.55-.07,7.78-.63,7.94-4.47,7.94-4.47,3.12-3.05-2.15-4.53c-7.85-2.22-9-3-9-3-4.29-7.41-11.28-6.17-11.28-6.17-1,0-2,.08-2.81.17-5.88.62-7.13,2.74-7.13,2.74" transform="translate(-128.19 -174.11)"/></g><g class="cls-43"><path class="cls-33" d="M380.31,615.43s-1.25,2.49,3,4.77c0,0,3.52-3.24-3-4.77" transform="translate(-128.19 -174.11)"/></g><g class="cls-43"><path class="cls-33" d="M363.07,613.28s5-2.21,5.47,2.15a4.32,4.32,0,0,0-1.93,0c-.9.23-2.5.5-3.54-2.15" transform="translate(-128.19 -174.11)"/></g><g class="cls-43"><path class="cls-33" d="M350.63,608.91a8.83,8.83,0,0,1,.08-3c.63-3,3.09-7.29,4.14-6.34,1.3,1.18,1.75,1.77,2.33,7.2a11.34,11.34,0,0,0-6.55,2.19" transform="translate(-128.19 -174.11)"/></g><g class="cls-43"><path class="cls-33" d="M358.05,606.62s-.87-7.13,1.34-7.51c.25,0,4.19,7.37,4.34,7.4a25.69,25.69,0,0,0-5.68.11" transform="translate(-128.19 -174.11)"/></g><g class="cls-43"><path class="cls-33" d="M346.29,617.47c.11.31,5.78,15.78,7.89,16.72,0,0-7.55-5-11.14-2.18,0,0-3.66,1.07,3.25-14.54" transform="translate(-128.19 -174.11)"/></g><g class="cls-43"><path class="cls-33" d="M358.42,623.43s7.05,2.73,9.13,1.87c0,0-.83,2-1,2.55,0,0-.37,1.27-.49,1.71,0,0-6.89,1.2-7.65-6.13" transform="translate(-128.19 -174.11)"/></g><g class="cls-43"><path class="cls-37" d="M358.42,623.43s.51,5.92,7.65,6.13c0,0-.54,2.69-.54,3.26,0,0-10.26.44-7.11-9.39" transform="translate(-128.19 -174.11)"/></g><g class="cls-43"><g class="cls-38"><g class="cls-47"><path class="cls-40" d="M381.06,622.68s-15.69,1.09-22.64.75c0,0,7.1,2.81,9.13,1.87,0,0,7.87-.55,9-.8a10.31,10.31,0,0,0,4.48-1.82" transform="translate(-128.19 -174.11)"/></g></g></g></g><g class="cls-43"><g class="cls-43"><path class="cls-33" d="M325.18,613.48s7,16.52,18.1,18.82l.32-3.88,2.48-7.72.21-3.23s-7.18.14-10.78-2.92c0,0-.76-.43-1.88-1.16s-7.89-2.46-7.71-.63-.28-.34-.28-.34Z" transform="translate(-128.19 -174.11)"/></g></g><g class="cls-43"><g class="cls-43"><path class="cls-33" d="M358.13,638.08l2.83-1.84a8.71,8.71,0,0,1-9.1-5.42c-2.88-6.43-4.31-2.54-4.31-2.54l-1.38,3.33,3.22,5.26,6.5,1.65Z" transform="translate(-128.19 -174.11)"/></g></g><g class="cls-43"><g class="cls-43"><path class="cls-36" d="M329.29,598.91s2.81,29,17.08,18.68l-1.11-.53-2.65-.42L340.06,615l-3.65-5.24-3.92-7.12Z" transform="translate(-128.19 -174.11)"/></g></g><g class="cls-43"><g class="cls-43"><path class="cls-33" d="M325.28,609.76s-7.09,25.3-1,23.5c0,0,13.23-2.2,21.36,3.76,0,0,16.06,11.68,19.82-2.61-.55,2.17-16.68,4.76-18.71-4.44-1.69-7.64-13.1-9.77-13.1-9.77Z" transform="translate(-128.19 -174.11)"/></g></g><path class="cls-8" d="M228.61,578.37a6,6,0,0,1-7,4.75L210.55,581c-.22,0-.45-.1-.66-.17l20.25-10.68Zm-92.45,1.69V593h6v-5.47h18.63l12.79-12.79,31.06,5.83,40.71-20.2-81-15.2-.22,1.18-8.51-2,.12,25.69,3.8.71-.24,1.27,7.48,1.4h-.36l-8.13,8.13H142.15v-6h-6v4.49Z" transform="translate(-128.19 -174.11)"/><rect class="cls-8" y="425.67" width="170.98" height="14.53" rx="7.27"/><text class="cls-48" transform="translate(662.24 428.46)">A<tspan class="cls-49" x="12.88" y="0">WS S3</tspan></text><text class="cls-50" transform="translate(989.28 428.46)">B<tspan class="cls-51" x="12.63" y="0">R</tspan><tspan x="25.25" y="0">OWSER</tspan></text><text class="cls-50" transform="translate(140.22 366.57)">KERBE<tspan class="cls-52" x="61.59" y="0">R</tspan><tspan x="74.2" y="0">OS </tspan><tspan class="cls-53" x="108.61" y="0">A</tspan><tspan class="cls-54" x="122.07" y="0">GENT</tspan></text><path class="cls-8" d="M1035,523.06A37.25,37.25,0,0,0,964.88,506a17.17,17.17,0,0,0-24,3.71,17.68,17.68,0,0,0-3.34,10.22v1.24c-13.73,3.35-22.37,17.09-19,30.65a25.45,25.45,0,0,0,24.84,19.55h91.27a24.14,24.14,0,1,0,.34-48.27Zm-.53,44.92H943.39a22.09,22.09,0,0,1-3.69-43.86l1.76-.35-.35-1.76a13.64,13.64,0,0,1,11.11-15.86,12,12,0,0,1,2.46-.17,13.63,13.63,0,0,1,9.52,3.88l1.76,1.75.88-2.29a33.74,33.74,0,0,1,64.47,14.09v3l2.3-.17h.88c11.62-.54,15.07,7.75,16,19.37s-1.16,21.68-12.8,22.37a8.89,8.89,0,0,1-3.17,0Z" transform="translate(-128.19 -174.11)"/><path class="cls-8" d="M971.93,528h0a1.9,1.9,0,0,0-1.93,1.41l-9,22.73,3.18,1.24,2.64-6.7h10.39l2.64,6.7,3.17-1.24-9-22.73A2.5,2.5,0,0,0,971.93,528Zm-3.88,15.33,3.88-9.7,3.88,9.7Z" transform="translate(-128.19 -174.11)"/><path class="cls-8" d="M996.07,527.12H985.14v25.55h3.52v-8.81h7.4a8.46,8.46,0,0,0,8.45-8.45A8.28,8.28,0,0,0,996.07,527.12Zm0,13.38h-7.4v-9.86h7.4a4.93,4.93,0,0,1,5.29,4.58,4.84,4.84,0,0,1-4.58,5.29Z" transform="translate(-128.19 -174.11)"/><path class="cls-8" d="M1008.76,528.88h3.52v23.78h-3.52Z" transform="translate(-128.19 -174.11)"/><text class="cls-50" transform="translate(812.83 425.67)">KERBE<tspan class="cls-55" x="61.59" y="0">R</tspan><tspan x="74.2" y="0">OS</tspan><tspan x="33.34" y="18">API</tspan></text><path class="cls-8" d="M863.34,717.31a8.21,8.21,0,0,0-2.65-5.3,36.07,36.07,0,0,0,.66-15.61c-1.14-5.81-3.77-9.63-7.41-10.76a9,9,0,0,0-2-.39,11.51,11.51,0,0,0,.06-1.18,11.25,11.25,0,0,0-11.24-11.23,12.21,12.21,0,0,0-1.91.16,8.4,8.4,0,0,0-15.08-1.94A8.4,8.4,0,0,0,808.73,673a12,12,0,0,0-1.91-.16,11.25,11.25,0,0,0-11.23,11.23,11.51,11.51,0,0,0,.06,1.18,8.84,8.84,0,0,0-2,.39c-3.64,1.13-6.27,5-7.41,10.76a36.06,36.06,0,0,0,.63,15.54,8.4,8.4,0,0,0,1.16,13.16,9.83,9.83,0,0,0,6.11,13.72c0,.16,0,.32,0,.48a12.63,12.63,0,0,0,15.75,12.26,7.7,7.7,0,0,0,13.89,2.67,7.7,7.7,0,0,0,13.89-2.67,12.91,12.91,0,0,0,3.1.39,12.67,12.67,0,0,0,12.66-12.65c0-.16,0-.32,0-.48a9.81,9.81,0,0,0,6.1-13.72A8.41,8.41,0,0,0,863.34,717.31Zm-6.14,6.05a1.35,1.35,0,0,0-.75.85,1.31,1.31,0,0,0,.18,1.12,7.17,7.17,0,0,1-8.92,10.57,8.88,8.88,0,0,0,.67-2,1.32,1.32,0,1,0-2.59-.53,5.76,5.76,0,0,1-9.71,2.92,1.33,1.33,0,0,0-1.88,1.87,8.41,8.41,0,0,0,11.89,0l.07-.07a9.92,9.92,0,0,0,4.57,1.11h.07a.31.31,0,0,1,0,.1,10,10,0,0,1-17.51,6.61,1.32,1.32,0,1,0-2,1.75,12.45,12.45,0,0,0,3.86,3,5,5,0,0,1-10-.7V736.46a1.33,1.33,0,0,0-2.65,0v1.8a9.79,9.79,0,0,0-7.17-3.12h-.09v-1.51a8.43,8.43,0,0,0-5.05-7.71,1.33,1.33,0,1,0-1.06,2.43,5.77,5.77,0,0,1,3.46,5.28v1.9a9.87,9.87,0,0,0-5.45,4,1.33,1.33,0,0,0,2.21,1.47,7.17,7.17,0,0,1,13.15,4v5a5,5,0,0,1-10,.71,12.76,12.76,0,0,0,3.86-3,1.33,1.33,0,0,0-2-1.76,10,10,0,0,1-17.5-6.61v-.1h.09a9.79,9.79,0,0,0,5.43-1.64,1.33,1.33,0,0,0-1.47-2.21,7.17,7.17,0,0,1-9.87-10,1.32,1.32,0,0,0-.58-2,5.76,5.76,0,0,1,2.24-11.06,1.33,1.33,0,1,0,0-2.65,8.28,8.28,0,0,0-3.41.73,33.17,33.17,0,0,1-.37-13.47c.93-4.74,3-7.93,5.59-8.74a4.78,4.78,0,0,1,4.24.39c2.42,1.59,3.43,5.43,3.79,7.31a11.35,11.35,0,0,0-5,2.83,1.33,1.33,0,1,0,1.86,1.9,8.51,8.51,0,0,1,6-2.46,8.61,8.61,0,0,1,6.66,3.17,4.12,4.12,0,0,0-.91,2.59V704h-4.34a1.33,1.33,0,0,0,0,2.65h4.34v4.43H805.1a4.16,4.16,0,1,0,0,2.65h6.06v4.43h-4.34a1.33,1.33,0,0,0,0,2.65h4.34v.09a4.17,4.17,0,0,0,4.16,4.16h17a4.17,4.17,0,0,0,4.16-4.16v-.09h4.33a1.33,1.33,0,1,0,0-2.65h-4.33v-4.43h6.06a4.16,4.16,0,1,0,0-2.65h-6.06v-4.43h4.33a1.33,1.33,0,1,0,0-2.65h-4.33v-.09a4.17,4.17,0,0,0-4.16-4.16h-17a4.32,4.32,0,0,0-1,.13,11.22,11.22,0,0,0-8.89-4.38h-.28c-.41-2.22-1.65-7-5-9.15a6.89,6.89,0,0,0-1.78-.84,6.13,6.13,0,0,1-.15-1.44,8.59,8.59,0,0,1,8.58-8.58,8.5,8.5,0,0,1,6.14,2.58,1.33,1.33,0,1,0,1.89-1.86,11.18,11.18,0,0,0-3.58-2.46,5.76,5.76,0,0,1,11.22,1.83v4.95a6.46,6.46,0,0,1-11.75,3.72,1.33,1.33,0,0,0-2.17,1.53A9.1,9.1,0,0,0,822.49,687v8.45a1.33,1.33,0,1,0,2.65,0V675.58a5.75,5.75,0,0,1,11.21-1.82,11.24,11.24,0,0,0-3.41,2.29,1.33,1.33,0,1,0,1.86,1.89,8.59,8.59,0,0,1,14.47,7.57,7.07,7.07,0,0,0-2.71,1.53,1.33,1.33,0,0,0,1.77,2,4.66,4.66,0,0,1,4.83-.85c2.62.81,4.66,4,5.58,8.73a33.26,33.26,0,0,1-.38,13.56,8.86,8.86,0,0,0-3.71-.81,1.33,1.33,0,0,0,0,2.65,6,6,0,0,1,6.05,5.24A5.77,5.77,0,0,1,857.2,723.36Zm-54.53-11a1.51,1.51,0,1,1-1.51-1.5A1.52,1.52,0,0,1,802.67,712.39Zm11.14,8.5v-17a1.52,1.52,0,0,1,1.51-1.51l-1.51,1.51c.83,0,20-.83,20,0v17a1.52,1.52,0,0,1-1.51,1.51h-17A1.52,1.52,0,0,1,813.81,720.89Zm31.15-8.5a1.51,1.51,0,1,1,1.51,1.51A1.51,1.51,0,0,1,845,712.39Z" transform="translate(-128.19 -174.11)"/><text class="cls-50" transform="translate(650.06 612.39)">KERBE<tspan class="cls-55" x="61.59" y="0">R</tspan><tspan x="74.2" y="0">OS</tspan><tspan x="-4.83" y="18">ML ENGINE</tspan></text><text class="cls-50" transform="translate(646.86 209.01)">KERBE<tspan class="cls-55" x="61.59" y="0">R</tspan><tspan x="74.2" y="0">OS</tspan><tspan x="-12.26" y="18">P</tspan><tspan class="cls-51" x="0.22" y="18">R</tspan><tspan x="12.84" y="18">OCESSING</tspan></text><text class="cls-50" transform="translate(140.22 518.64)">KERBE<tspan class="cls-52" x="61.59" y="0">R</tspan><tspan x="74.2" y="0">OS </tspan><tspan class="cls-53" x="108.61" y="0">A</tspan><tspan class="cls-54" x="122.07" y="0">GENT</tspan></text></g></svg>